<svg width="26" height="26" viewBox="0 0 26 26" fill="none" xmlns="http://www.w3.org/2000/svg">
<path d="M12.9855 25.9711C20.1572 25.9711 25.9711 20.1572 25.9711 12.9855C25.9711 5.81382 20.1572 0 12.9855 0C5.81382 0 0 5.81382 0 12.9855C0 20.1572 5.81382 25.9711 12.9855 25.9711ZM12.9855 25.5453C6.04896 25.5453 0.425755 19.9221 0.425755 12.9855C0.425755 6.04896 6.04896 0.425755 12.9855 0.425755C19.9221 0.425755 25.5453 6.04896 25.5453 12.9855C25.5453 19.9221 19.9221 25.5453 12.9855 25.5453Z" fill="#FFCE45"/>
<path d="M12.9854 2.98884L22.7696 12.7731L12.9854 22.5574L3.20111 12.7731L12.9854 2.98884Z" fill="#FFCE45"/>
<path d="M12.9855 15.9658L3.19316 12.7726L12.9855 2.98855L22.7779 12.7726L12.9855 15.9658Z" fill="#FEBE44"/>
<path d="M6.59932 12.134H11.0697L12.9856 10.0052L15.1144 12.134H19.5848L12.9856 5.00283L6.59932 12.134Z" fill="white"/>
<path opacity="0.42" d="M12.9856 22.5568V2.98855L22.7697 12.7727L12.9856 22.5568Z" fill="#D9A547"/>
</svg>
