<svg width="20" height="16" viewBox="0 0 20 16" fill="none" xmlns="http://www.w3.org/2000/svg">
<path fill-rule="evenodd" clip-rule="evenodd" d="M14.9155 11.6755C14.0032 11.6755 13.2638 10.9375 13.2638 10.0271V6.21964V5.95537C13.2638 5.04486 12.5242 4.30689 11.612 4.30689C10.6997 4.30689 10.1222 5.04497 10.1222 5.95537V6.29383V10.0269C10.1222 10.9373 9.22056 11.6754 8.30838 11.6754C7.39609 11.6754 6.65662 10.9373 6.65662 10.0269V9.09745V6.24713C6.64031 6.23808 6.62367 6.22991 6.60735 6.22097V5.95537C6.60735 5.04486 6.01569 4.30689 5.10351 4.30689C4.19122 4.30689 3.45176 5.04497 3.45176 5.95537V6.29261C3.45176 6.29261 3.50103 10.1476 3.69832 11.2315C3.8955 12.3156 4.53654 12.9833 5.37476 13.8702C6.21299 14.7571 4.93102 16.7993 3.25457 15.666C1.57813 14.5327 0.727231 13.0937 0.444076 11.2315C0.15552 9.33556 0 5.99124 0 5.99124C0 5.99124 0.0658013 4.79294 0.22044 4.52491C0.845277 2.50198 2.72871 1.03223 4.95549 1.03223C6.23657 1.03223 7.40413 1.51883 8.28369 2.3173C9.16324 1.51883 10.3308 1.03223 11.612 1.03223C13.8387 1.03223 15.7221 2.50198 16.3469 4.52491C16.5016 4.79294 16.5674 5.99124 16.5674 5.99124V9.09756V10.0271C16.5674 10.9375 15.8278 11.6755 14.9155 11.6755Z" fill="#4D525D"/>
<path fill-rule="evenodd" clip-rule="evenodd" d="M4.75853 4.32443C5.67082 4.32443 6.41029 5.06251 6.41029 5.97291V9.78032V10.0446C6.41029 10.9551 7.14986 11.6932 8.06204 11.6932C8.97433 11.6932 9.71391 10.9551 9.71391 10.0446V9.70614V5.97291C9.71391 5.06251 10.4534 4.32443 11.3657 4.32443C12.278 4.32443 13.0175 5.06251 13.0175 5.97291V6.90241V9.75273C13.0338 9.76178 13.0505 9.76995 13.0668 9.77889V10.0446C13.0668 10.9551 13.6585 11.6932 14.5706 11.6932C15.4829 11.6932 16.2224 10.9551 16.2224 10.0446V9.70736C16.2224 9.70736 16.1731 5.85237 15.9758 4.76843C15.7785 3.68449 15.1376 3.01662 14.2994 2.12974C13.4612 1.24285 14.7431 -0.799286 16.4196 0.333995C18.096 1.46728 18.9469 2.90623 19.2301 4.76843C19.5184 6.66441 19.6738 10.0087 19.6738 10.0087C19.6738 10.0087 19.608 11.207 19.4534 11.4751C18.8285 13.498 16.9451 14.9677 14.7183 14.9677C13.4372 14.9677 12.2697 14.4811 11.3901 13.6827C10.5106 14.4811 9.34302 14.9677 8.06182 14.9677C5.83516 14.9677 3.95172 13.498 3.32689 11.4751C3.17225 11.207 3.10645 10.0087 3.10645 10.0087V6.90241V5.97291C3.10678 5.06251 3.84624 4.32443 4.75853 4.32443Z" fill="#FCD600"/>
</svg>
