<svg width="14" height="20" viewBox="0 0 14 20" fill="none" xmlns="http://www.w3.org/2000/svg">
<path fill-rule="evenodd" clip-rule="evenodd" d="M13.1755 10.6821C12.7421 10.1015 12.0888 9.70256 11.2144 9.48599C12.3277 8.89766 12.8169 7.89863 12.6822 6.48889C12.6373 5.97786 12.5015 5.5347 12.2736 5.1594C12.045 4.7841 11.7377 4.48197 11.3491 4.2536C10.9606 4.02464 10.5381 3.85056 10.0828 3.73077C9.62752 3.61098 9.10429 3.52365 8.5143 3.46936V0.54248H6.78923V3.38793C6.49049 3.38793 6.03462 3.3956 5.42218 3.41153V0.54248H3.6971V3.46936C3.45017 3.47703 3.08812 3.48116 2.61037 3.48116L0.234863 3.46936V5.3742H1.47874C2.04628 5.3742 2.3784 5.63797 2.47568 6.16433V9.49779C2.5505 9.49779 2.61037 9.50192 2.65526 9.50959H2.47568V14.179C2.41581 14.5738 2.19939 14.7715 1.82582 14.7715H0.582526L0.235439 16.897H2.47568C2.61785 16.897 2.82334 16.8994 3.09215 16.9029C3.36095 16.9065 3.56241 16.9082 3.6971 16.9082V19.8705H5.42275V16.9436C5.73645 16.9513 6.19176 16.9548 6.78923 16.9548V19.8705H8.51488V16.9082C9.12732 16.8775 9.67069 16.8197 10.1444 16.7342C10.6187 16.6486 11.0728 16.5152 11.5057 16.3335C11.9391 16.1517 12.3012 15.9251 12.5924 15.6537C12.8837 15.3828 13.1243 15.0382 13.3154 14.6198C13.5053 14.202 13.6268 13.7176 13.6792 13.1682C13.7764 12.0919 13.6084 11.2634 13.1755 10.6821ZM5.4563 5.50166C5.5081 5.50166 5.65603 5.49989 5.89836 5.49576C6.14126 5.49222 6.3433 5.48809 6.50389 5.48455C6.66448 5.48042 6.8809 5.49045 7.15374 5.51346C7.426 5.53648 7.65566 5.56775 7.84273 5.60611C8.02922 5.64506 8.23471 5.70879 8.45862 5.79789C8.6831 5.887 8.86211 5.99557 8.99623 6.12303C9.13092 6.25109 9.24489 6.41336 9.33813 6.61105C9.43138 6.80873 9.478 7.03474 9.478 7.29025C9.478 7.5074 9.44462 7.70509 9.37727 7.8833C9.3105 8.06091 9.2092 8.21021 9.07509 8.33C8.94097 8.45038 8.80225 8.55483 8.66008 8.64393C8.51848 8.73304 8.33717 8.80444 8.11671 8.85873C7.89684 8.91302 7.70459 8.9555 7.53996 8.98678C7.37592 9.01746 7.17043 9.03871 6.92407 9.05051C6.67772 9.06172 6.49065 9.06998 6.36402 9.07352C6.23681 9.07765 6.06298 9.07765 5.84253 9.07352L5.67756 9.07083L5.67741 9.07082C5.55668 9.06883 5.48312 9.06762 5.4563 9.06762V5.50166ZM9.89287 13.877C10.0045 13.7454 10.0961 13.5902 10.1674 13.412C10.2382 13.2338 10.2739 13.0367 10.2739 12.8195C10.2739 12.541 10.2175 12.2931 10.1053 12.0759C9.9936 11.8594 9.85546 11.6812 9.69084 11.5419C9.52679 11.4026 9.31209 11.284 9.04674 11.1878C8.78139 11.0904 8.53676 11.019 8.31285 10.9724C8.08894 10.9258 7.81208 10.8916 7.48398 10.8686C7.15532 10.845 6.89745 10.8337 6.71038 10.8337C6.52388 10.8337 6.28328 10.8373 5.988 10.845C5.69271 10.8526 5.51543 10.8568 5.45557 10.8568V14.7828C5.50987 14.7828 5.6286 14.7848 5.81218 14.7878L5.87057 14.7887C6.087 14.7923 6.26659 14.7946 6.40819 14.7946C6.55036 14.7946 6.74837 14.7887 7.00221 14.7769C7.25605 14.7657 7.4742 14.7498 7.65724 14.7309C7.84028 14.7114 8.05325 14.6784 8.29616 14.6318C8.53906 14.5851 8.74628 14.5314 8.9178 14.4689C9.08991 14.4069 9.26719 14.3261 9.45024 14.2252C9.63328 14.1248 9.78063 14.0086 9.89287 13.877Z" fill="#2873FB"/>
</svg>
