<svg width="20" height="20" viewBox="0 0 20 20" fill="none" xmlns="http://www.w3.org/2000/svg">
<path fill-rule="evenodd" clip-rule="evenodd" d="M2.14226 3.57042H14.2817C15.4649 3.57042 16.424 4.52954 16.424 5.71268V17.8521C16.424 19.0353 15.4649 19.9944 14.2817 19.9944H2.14226C0.959121 19.9944 0 19.0353 0 17.8521V5.71268C0 4.52954 0.959121 3.57042 2.14226 3.57042ZM14.2817 18.5663C14.6761 18.5663 14.9958 18.2466 14.9958 17.8522V5.71268C14.9958 5.31829 14.6761 4.99858 14.2817 4.99858H2.14226C1.74787 4.99858 1.42816 5.31829 1.42816 5.71268V17.8522C1.42816 18.2466 1.74787 18.5663 2.14226 18.5663H14.2817Z" fill="#2873FB"/>
<path d="M17.8522 0H4.99861C3.81547 0 2.85635 0.959121 2.85635 2.14226C2.85635 2.53665 3.17606 2.85636 3.57045 2.85636C3.96485 2.85636 4.28451 2.53665 4.28451 2.14226C4.28451 1.74787 4.60422 1.42816 4.99861 1.42816H17.8522C18.2466 1.42816 18.5663 1.74787 18.5663 2.14226V14.9958C18.5663 15.3902 18.2466 15.7099 17.8522 15.7099C17.4578 15.7099 17.1381 16.0296 17.1381 16.424C17.1381 16.8184 17.4578 17.1381 17.8522 17.1381C19.0353 17.1381 19.9944 16.179 19.9944 14.9959V2.14226C19.9944 0.959121 19.0353 0 17.8522 0Z" fill="#2873FB"/>
</svg>
