<svg width="18" height="15" viewBox="0 0 18 15" fill="none" xmlns="http://www.w3.org/2000/svg">
<path fill-rule="evenodd" clip-rule="evenodd" d="M1.94584 14.1134H15.8702C16.8759 14.1134 17.6935 13.2934 17.6935 12.2866V1.88519C17.6935 0.876618 16.8759 0.0566406 15.8702 0.0566406H1.94584C0.940193 0.0566406 0.122559 0.876618 0.122559 1.88519V12.2848C0.122559 13.2934 0.940193 14.1134 1.94584 14.1134ZM7.54165 7.85076C7.85384 8.12198 8.23625 8.2564 8.61808 8.2564C8.9999 8.2564 9.38173 8.12198 9.69276 7.85253L16.3469 2.1172C16.5546 1.93896 16.5813 1.62095 16.4072 1.40836C16.2331 1.19576 15.9227 1.16615 15.7144 1.34618L9.05677 7.0821C8.80087 7.30358 8.42949 7.30358 8.17358 7.0821L1.51598 1.34618C1.30824 1.16793 0.997204 1.19576 0.823119 1.40836C0.649034 1.62095 0.675727 1.93896 0.883469 2.1172L7.54165 7.85076Z" fill="#2873FB"/>
</svg>
