<svg width="24" height="20" viewBox="0 0 24 20" fill="none" xmlns="http://www.w3.org/2000/svg">
<path d="M15.7604 11.6582C14.8919 11.6582 14.1873 12.6258 14.1873 13.82C14.1873 15.0142 14.8919 15.9823 15.7604 15.9823C16.6284 15.9823 17.3325 15.0142 17.3325 13.82C17.3325 12.6258 16.6284 11.6582 15.7604 11.6582Z" fill="#2873FB"/>
<path fill-rule="evenodd" clip-rule="evenodd" d="M20.4684 0.713867C21.4231 3.1 21.4143 5.59332 21.2351 6.03201C22.3573 7.24206 23.0431 8.69576 23.0431 10.6819C23.0431 19.3156 15.832 19.4539 14.0111 19.4539C13.638 19.4539 12.9289 19.4548 12.154 19.4559L11.9149 19.4562L11.6736 19.4559C10.8997 19.4548 10.1919 19.4539 9.81867 19.4539C7.99774 19.4539 0.786621 19.3156 0.786621 10.6819C0.786621 8.69576 1.47247 7.24206 2.59467 6.03201C2.41545 5.59332 2.40666 3.1 3.36194 0.713867C3.36194 0.713867 5.55245 0.952246 8.86691 3.21187C9.56272 3.02093 10.7388 2.92605 11.9149 2.92605C13.091 2.92605 14.2676 3.02152 14.9623 3.21187C18.2773 0.952246 20.4684 0.713867 20.4684 0.713867ZM3.76611 13.4475C3.76611 17.8514 7.31896 18.3926 11.881 18.3926H11.9489C16.5115 18.3926 20.0643 17.8514 20.0643 13.4475C20.0643 12.3933 19.6895 11.4134 18.7992 10.601C17.7159 9.613 16.0851 9.72752 14.1747 9.86167C13.4668 9.91138 12.7205 9.96378 11.9495 9.96378C11.9384 9.96378 11.9272 9.96378 11.9149 9.9632C11.9038 9.96378 11.8921 9.96378 11.881 9.96378C11.1099 9.96378 10.3637 9.91138 9.65585 9.86167C7.74558 9.72752 6.11481 9.613 5.03064 10.601C4.14037 11.4134 3.76611 12.3933 3.76611 13.4475Z" fill="#2873FB"/>
<path d="M8.06908 11.6582C7.20108 11.6582 6.49707 12.6258 6.49707 13.82C6.49707 15.0142 7.20108 15.9823 8.06908 15.9823C8.93826 15.9823 9.64227 15.0142 9.64227 13.82C9.64168 12.6258 8.93767 11.6582 8.06908 11.6582Z" fill="#2873FB"/>
</svg>
