<svg width="18" height="15" viewBox="0 0 18 15" fill="none" xmlns="http://www.w3.org/2000/svg">
<path d="M6.49198 3.09431V13.9716C6.49198 14.1257 6.45171 14.2578 6.37413 14.3649C6.29596 14.4715 6.1799 14.5277 6.02711 14.5277C5.91992 14.5277 5.8157 14.5022 5.71503 14.453L1.30617 12.2926C1.17233 12.2318 1.06159 12.1263 0.969804 11.9827C0.878014 11.8384 0.833008 11.6941 0.833008 11.5516V0.979698C0.833008 0.856297 0.863802 0.750856 0.92835 0.664533C0.99053 0.57821 1.08232 0.53418 1.20372 0.53418C1.29196 0.53418 1.43053 0.579948 1.62121 0.673223L6.46592 3.04681C6.48132 3.06709 6.49198 3.08215 6.49198 3.09431Z" fill="#2873FB"/>
<path d="M7.09863 4.03174L12.1595 12.0621L7.09863 9.59521V4.03174Z" fill="#2873FB"/>
<path d="M17.8184 4.19824V13.9718C17.8184 14.1259 17.7734 14.2516 17.6851 14.346C17.5969 14.4428 17.4773 14.4903 17.3245 14.4903C17.1723 14.4903 17.0249 14.4497 16.8792 14.3698L12.7007 12.3305L17.8184 4.19824Z" fill="#2873FB"/>
<path d="M17.7911 3.08531C17.7911 3.10385 16.9798 4.40101 15.359 6.97506C13.7388 9.55085 12.7889 11.0566 12.5117 11.4957L8.8147 5.61707L11.8858 0.730252C11.993 0.557606 12.1576 0.470703 12.3779 0.470703C12.4661 0.470703 12.5479 0.489822 12.6243 0.5269L17.7526 3.03143C17.7769 3.04128 17.7911 3.05982 17.7911 3.08531Z" fill="#2873FB"/>
</svg>
