<svg width="18" height="18" viewBox="0 0 18 18" fill="none" xmlns="http://www.w3.org/2000/svg">
<path fill-rule="evenodd" clip-rule="evenodd" d="M9.41783 0.971379C9.60115 0.908125 9.80732 0.87474 9.99006 0.888211C10.5359 0.931552 11.0279 1.29351 11.2142 1.84874L11.8063 3.58414L13.4633 3.03242C14.2019 2.78643 14.9931 3.19524 15.2397 3.93321C15.4892 4.67118 15.0997 5.46244 14.3612 5.70843L12.6849 6.26074L13.8094 9.58804L15.5455 9.01641C16.284 8.77042 17.0759 9.1558 17.3219 9.89377C17.5714 10.6323 17.1825 11.4435 16.4439 11.6924L14.7073 12.2846L15.2596 13.9397C15.5056 14.6748 15.0997 15.4689 14.3612 15.7149C13.6226 15.9609 12.8313 15.5755 12.5847 14.8376L12.033 13.1619L8.69975 14.2859L9.27491 16.0213C9.51798 16.7592 9.13552 17.5505 8.39343 17.7965C7.65486 18.0425 6.84307 17.6565 6.59707 16.9185L6.00493 15.1831L4.34855 15.7319C3.60998 15.9808 2.81811 15.572 2.5686 14.8341C2.3226 14.0961 2.70858 13.3048 3.44657 13.0588L5.12344 12.5071L3.99889 9.17923L2.26228 9.75086C1.52429 9.99685 0.732416 9.61147 0.48642 8.8735C0.239839 8.13553 0.625818 7.32084 1.36439 7.07485L3.10393 6.4833L2.5522 4.82756C2.30269 4.08959 2.71151 3.29832 3.45008 3.05233C4.18866 2.80634 4.98053 3.19173 5.22653 3.93028L5.77884 5.60535L9.12849 4.482L8.53634 2.7466C8.29034 2.00863 8.67632 1.21737 9.41783 0.971379ZM11.1346 10.4861L10.01 7.1582L6.67676 8.28214L7.80131 11.6094L11.1346 10.4861Z" fill="#2873FB"/>
</svg>
