<svg width="20" height="18" viewBox="0 0 20 18" fill="none" xmlns="http://www.w3.org/2000/svg">
<path fill-rule="evenodd" clip-rule="evenodd" d="M5.04837 10.7074L0.594521 9.02955C0.142057 8.85862 0.138517 8.21397 0.589212 8.03837L18.8671 0.921647C19.2547 0.77055 19.6546 1.113 19.5697 1.5237L16.2898 17.4484C16.2125 17.8247 15.776 17.995 15.4674 17.7687L10.99 14.4877C10.718 14.2888 10.3476 14.2993 10.0874 14.5134L7.60447 16.5558C7.31659 16.7938 6.88241 16.6614 6.7721 16.3026L5.04837 10.7074ZM15.1982 4.40387L6.49403 9.8142C6.16014 10.0225 6.00322 10.4291 6.11118 10.8095L7.05209 14.147C7.11875 14.3833 7.45913 14.3594 7.49157 14.1149L7.73639 12.2848C7.7824 11.9401 7.94522 11.6227 8.1977 11.3853L15.3811 4.64597C15.5156 4.51996 15.3545 4.30644 15.1982 4.40387Z" fill="#2873FB"/>
</svg>
