<svg width="23" height="19" viewBox="0 0 23 19" fill="none" xmlns="http://www.w3.org/2000/svg">
<path d="M22.1022 2.79251C21.3042 3.14569 20.4487 3.38465 19.5492 3.49183C20.4675 2.94303 21.1704 2.0721 21.5037 1.03834C20.6424 1.54673 19.6918 1.91572 18.6785 2.11544C17.8676 1.25212 16.714 0.713867 15.4343 0.713867C12.9793 0.713867 10.9884 2.70114 10.9884 5.14994C10.9884 5.49785 11.0277 5.83697 11.1034 6.16144C7.40915 5.97636 4.13386 4.20931 1.94113 1.52506C1.55798 2.17928 1.34029 2.94128 1.34029 3.7554C1.34029 5.29461 2.12537 6.65343 3.31709 7.44822C2.58833 7.42362 1.90358 7.2239 1.30332 6.89122V6.94687C1.30332 9.09579 2.83653 10.8898 4.86907 11.298C4.49647 11.3976 4.10393 11.4532 3.69789 11.4532C3.41038 11.4532 3.13284 11.4251 2.86059 11.3706C3.42681 13.1348 5.06798 14.4174 7.0125 14.4526C5.49162 15.6421 3.57467 16.3491 1.49167 16.3491C1.13258 16.3491 0.779345 16.3274 0.431396 16.2882C2.3988 17.5498 4.7347 18.2848 7.24545 18.2848C15.4231 18.2848 19.8937 11.5235 19.8937 5.66009L19.8784 5.08552C20.7521 4.46351 21.5078 3.68219 22.1022 2.79251Z" fill="#2873FB"/>
</svg>
