<svg width="156" height="105" viewBox="0 0 156 105" fill="none" xmlns="http://www.w3.org/2000/svg">
<path d="M56.3462 1.1236H54.095C52.6482 1.1236 51.4774 2.29002 51.4774 3.73145V9.43079H58.9639V3.73145C58.9639 2.29002 57.7931 1.1236 56.3462 1.1236Z" fill="#607FE2"/>
<path d="M54.6852 3.76468C54.6138 2.73102 55.0041 1.80642 55.6799 1.14735C55.5276 1.13312 55.3753 1.1189 55.2183 1.1189C53.1527 1.1189 51.4726 2.5461 51.4726 4.30996V9.42609H55.066L54.6852 3.76468Z" fill="#5073CC"/>
<path d="M146.17 97.2373C147.21 93.0506 146.133 89.1835 143.765 88.5998C141.398 88.0161 138.635 90.9368 137.595 95.1234C136.555 99.31 137.632 103.177 140 103.761C142.368 104.345 145.13 101.424 146.17 97.2373Z" fill="#513D42"/>
<path d="M55.5157 97.2337C56.5556 93.0471 55.479 89.18 53.1112 88.5963C50.7434 88.0125 47.981 90.9333 46.9411 95.1199C45.9012 99.3065 46.9777 103.174 49.3455 103.757C51.7133 104.341 54.4758 101.42 55.5157 97.2337Z" fill="#513D42"/>
<path d="M141.334 91.8203H7.34848V99.5158H141.334V91.8203Z" fill="#513D42"/>
<path d="M118.889 1.1236H116.638C115.191 1.1236 114.02 2.29002 114.02 3.73145V9.43079H121.507V3.73145C121.507 2.29002 120.331 1.1236 118.889 1.1236Z" fill="#607FE2"/>
<path d="M117.228 3.76468C117.157 2.73102 117.547 1.80642 118.223 1.14735C118.071 1.13312 117.918 1.1189 117.761 1.1189C115.696 1.1189 114.016 2.5461 114.016 4.30996V9.42609H117.609L117.228 3.76468Z" fill="#5073CC"/>
<path d="M89.4048 0H87.1537C85.7068 0 84.536 1.16642 84.536 2.60785V8.3072H92.0225V2.60785C92.0225 1.16642 90.8517 0 89.4048 0Z" fill="#FF455C"/>
<path d="M87.7486 2.64104C87.6772 1.60739 88.0675 0.682783 88.7433 0.0237077C88.591 0.0094831 88.4387 0 88.2816 0C86.2161 0 84.536 1.42721 84.536 3.19106V8.3072H88.1293L87.7486 2.64104Z" fill="#E52949"/>
<path d="M91.9606 5.81793H84.4551C83.6174 5.81793 82.9321 6.49597 82.9321 7.33523V7.98482H93.4836V7.33523C93.4836 6.49597 92.803 5.81793 91.9606 5.81793Z" fill="#705952"/>
<path d="M26.2051 0H23.9539C22.507 0 21.3362 1.16642 21.3362 2.60785V8.3072H28.8227V2.60785C28.8227 1.16642 27.6519 0 26.2051 0Z" fill="#FF455C"/>
<path d="M24.5441 2.64104C24.4727 1.60739 24.863 0.682783 25.5388 0.0237077C25.3865 0.0094831 25.2342 0 25.0772 0C23.0116 0 21.3315 1.42721 21.3315 3.19106V8.3072H24.9249L24.5441 2.64104Z" fill="#E52949"/>
<path d="M28.7608 5.81793H21.2553C20.4177 5.81793 19.7323 6.49597 19.7323 7.33523V7.98482H30.2838V7.33523C30.2838 6.49597 29.6033 5.81793 28.7608 5.81793Z" fill="#705952"/>
<path d="M123.767 6.75677H18.3664V10.8392H123.767V6.75677Z" fill="#C6B291"/>
<path d="M123.763 6.75677H90.0664V10.8392H123.763V6.75677Z" fill="#E0CFB1"/>
<path d="M127.204 8.86664H17.1575C4.68794 29.701 3.35531 61.9673 4.9735 97.2633H124.705L127.204 8.86664Z" fill="#FFF6DE"/>
<path d="M93.8119 19.8481L85.4783 27.3066L82.2276 97.1212H93.8119V19.8481Z" fill="#C6B291"/>
<path d="M17.1575 8.86664C4.68794 29.701 3.35531 61.9673 4.9735 97.2633H91.0325V8.86664H17.1575Z" fill="#F7E2BC"/>
<path d="M5.05452 55.7843L88.4007 56.6283L90.1426 8.86664H17.1576C9.82341 21.1235 6.34907 37.3349 5.05452 55.7843Z" fill="#FFEDCA"/>
<path d="M124.967 11.9156H128.912C132.077 11.9156 134.643 14.4713 134.643 17.6244V20.0805H124.967V11.9156V11.9156Z" fill="#607FE2"/>
<path d="M127.965 12.7454C128.413 13.4993 129.108 14.3243 129.979 15.0972C131.187 16.1688 132.463 16.8895 133.439 17.1218C132.511 14.8554 130.459 13.1674 127.965 12.7454Z" fill="#7297F2"/>
<path d="M126.733 11.6357C126.733 10.7917 113.454 10.7917 113.454 11.6357V20.0804H126.733V11.6357Z" fill="#FFEDCA"/>
<path d="M118.289 11.7542C118.289 10.9197 113.449 10.9197 113.449 11.7542V20.0803H118.289V11.7542Z" fill="#F2DBB3"/>
<path d="M116.219 11.9156H107.786C104.621 11.9156 102.055 14.4713 102.055 17.6244V20.0805H117.171V12.8639C117.171 12.3423 116.747 11.9156 116.219 11.9156Z" fill="#FF455C"/>
<path d="M108.366 19.5637C108.366 16.055 110.594 13.0678 113.716 11.9156H110.251C105.725 11.9156 102.055 15.5713 102.055 20.0805H108.366V19.5637Z" fill="#E52949"/>
<path d="M138.036 19.8481H109.918V95.2909L151.696 97.2634L155.746 80.374L146.793 70.3788L138.036 19.8481Z" fill="#FFF6DE"/>
<path d="M113.454 19.8481H93.8119V97.2634H127.108L131.159 80.374L122.211 70.3788L113.454 19.8481Z" fill="#F7E2BC"/>
<path d="M107.581 95.0966H95.8919V70.1418H96.444V94.5466H107.338C107.605 92.906 109.461 83.494 116.995 83.2996L118.827 70.1086L119.375 70.1845L117.48 83.8497H117.238C109.299 83.8497 107.862 94.7505 107.852 94.8595L107.824 95.1014H107.581V95.0966Z" fill="#705952"/>
<path d="M122.054 97.2683C123.33 91.8724 121.926 86.927 118.865 86.1731C115.767 85.4097 112.155 89.2314 110.793 94.7079C110.579 95.5803 110.436 96.4385 110.356 97.273H122.054V97.2683Z" fill="#C6B291"/>
<path d="M120.55 97.2301C121.588 93.0433 120.512 89.1742 118.147 88.591C115.776 88.0078 113.016 90.9286 111.974 95.1154C110.936 99.3022 112.012 103.171 114.377 103.754C116.747 104.342 119.508 101.422 120.55 97.2301Z" fill="#604A4F"/>
<path d="M136.813 21.0667H115.334L123.767 70.3314H145.242L136.813 21.0667Z" fill="#71D1DB"/>
<path d="M110.979 21.0667H95.9346V70.3314H119.408L110.979 21.0667Z" fill="#705952"/>
<path d="M110.584 21.8112H96.6391V69.8668H118.399L110.584 21.8112Z" fill="#58C1C6"/>
<path d="M152.419 93.7548H124.715C124.281 93.7548 123.91 94.0535 123.815 94.4707L123.101 97.6191C122.973 98.1929 123.411 98.7429 124.001 98.7429H151.672C152.071 98.7429 152.414 98.4679 152.5 98.0838L153.247 94.7884C153.371 94.2574 152.966 93.7548 152.419 93.7548Z" fill="#E0CFB1"/>
<path d="M93.7643 95.5044H7.06285V97.7566H93.7643V95.5044Z" fill="#E0CFB1"/>
<path d="M31.2547 97.7565C32.5302 92.1235 31.1262 86.9647 28.066 86.1776C24.9676 85.381 21.3552 89.3687 19.9941 95.0822C19.7799 95.9926 19.6371 96.8888 19.5562 97.7565H31.2547Z" fill="#C6B291"/>
<path d="M93.7644 95.1866L89.4095 95.5043V97.7566H93.7644V95.1866Z" fill="#C6B291"/>
<path d="M8.03858 79.3879H2.12744C0.951874 79.3879 0 80.3362 0 81.5074V99.0084C0 100.028 0.828131 100.853 1.8514 100.853H8.03858C8.82863 100.853 9.46639 100.217 9.46639 99.4304V80.8103C9.46639 80.0232 8.82863 79.3879 8.03858 79.3879Z" fill="#C6B291"/>
<path d="M8.63354 79.3879H7.59124C6.79167 79.3879 6.14439 80.0327 6.14439 80.8293V99.5964C6.14439 100.289 6.71076 100.853 7.40563 100.853H8.63354C9.17135 100.853 9.60446 100.421 9.60446 99.8856V80.3599C9.60922 79.8194 9.17135 79.3879 8.63354 79.3879Z" fill="#E0CFB1"/>
<path d="M134.709 87.3773C135.28 84.9828 134.985 83.0435 134.057 83.0435C133.124 83.0435 131.911 84.9828 131.34 87.3773C130.768 89.7718 131.064 91.7111 131.992 91.7111C132.924 91.7111 134.143 89.7718 134.709 87.3773Z" fill="#C6B291"/>
<path d="M152.79 87.6617C153.361 85.2672 153.066 83.3279 152.138 83.3279C151.205 83.3279 149.992 85.2672 149.42 87.6617C148.849 90.0562 149.144 91.9955 150.073 91.9955C151.001 91.9955 152.219 90.0515 152.79 87.6617Z" fill="#C6B291"/>
<path d="M149.106 82.7305H138.25L136.009 92.0998H146.865L149.106 82.7305Z" fill="#E0CFB1"/>
<path d="M29.8984 97.2301C30.936 93.0433 29.8604 89.1742 27.4949 88.591C25.1248 88.0078 22.3643 90.9286 21.322 95.1154C20.2845 99.3022 21.3601 103.171 23.7255 103.754C26.0957 104.342 28.8561 101.422 29.8984 97.2301Z" fill="#604A4F"/>
<path d="M117.99 96.6898C118.494 94.6556 117.971 92.7827 116.824 92.4982C115.672 92.2137 114.334 93.6315 113.83 95.6656C113.325 97.6997 113.849 99.5726 114.996 99.8571C116.143 100.137 117.485 98.7191 117.99 96.6898Z" fill="#EDDDC5"/>
<path d="M27.5663 96.6898C28.0708 94.6556 27.5472 92.7827 26.4002 92.4982C25.2532 92.2137 23.9111 93.6315 23.4066 95.6656C22.9021 97.6997 23.4256 99.5726 24.5726 99.8571C25.7196 100.137 27.0618 98.7191 27.5663 96.6898Z" fill="#EDDDC5"/>
<path d="M40.5356 16.4626C34.4912 36.7469 33.6726 62.3466 34.7339 89.8618H82.2182V16.4626H40.5356ZM81.3234 88.8566H35.6144C34.5911 62.0905 35.3812 37.1926 41.2019 17.4631H81.3282V88.8566H81.3234Z" fill="#705952"/>
<path d="M36.7994 54.8408H80.1287V18.6343H41.8729C38.9792 29.4214 37.4419 41.6498 36.7994 54.8408Z" fill="#705952"/>
<path d="M1.90849 80.9097H1.48491C1.15651 80.9097 0.894745 81.1753 0.894745 81.4977V92.9912C0.894745 93.2757 1.12319 93.5033 1.40876 93.5033H1.90849C2.12742 93.5033 2.30352 93.3278 2.30352 93.1097V81.3033C2.30828 81.0899 2.13218 80.9097 1.90849 80.9097Z" fill="#E0CFB1"/>
<path d="M111.755 20.6921H110.436V71.365H111.755V20.6921Z" fill="#F7E2BC"/>
<path d="M130.45 21.8729V69.5254H144.161L136.009 21.8729H130.45Z" fill="#81E5EA"/>
<path d="M136.432 21.3464H135.114V70.1417H136.432V21.3464Z" fill="#71D1DB"/>
<path d="M37.8799 53.9398H79.0484V19.5351H42.7011C39.9549 29.7863 38.4891 41.4079 37.8799 53.9398Z" fill="#58C1C6"/>
<path d="M39.2554 37.6763H79.0485V19.5351H42.7011C41.1829 25.1918 40.0597 31.2657 39.2554 37.6763Z" fill="#71D1DB"/>
<path d="M115.924 12.3896H113.706C113.754 12.6219 113.811 12.8637 113.882 13.1008C114.515 15.263 115.791 16.8182 116.838 16.785V13.2952C116.838 12.7926 116.429 12.3896 115.924 12.3896Z" fill="#FF6971"/>
<path opacity="0.32" d="M119.979 42.1714H140.068L136.561 21.6689H116.471L119.979 42.1714Z" fill="#FFFBE0"/>
<path d="M26.4716 23.2573H21.3124L17.6572 41.5834H22.8164L26.4716 23.2573Z" fill="#FF455C"/>
<path d="M27.3522 40.6493L31.2597 36.6569L16.7769 24.1914L12.8695 28.1885L27.3522 40.6493Z" fill="#FF455C"/>
<path d="M11.0465 36.0074L13.0455 40.1942L33.0872 28.8334L31.0883 24.6514L11.0465 36.0074Z" fill="#FF455C"/>
<path d="M13.6071 70.0517H8.33371V72.963H13.6071V70.0517Z" fill="#604A4F"/>
<path d="M12.146 70.6633H9.09521V72.3466H12.146V70.6633Z" fill="#FFE05F"/>
<path d="M101.398 72.6927H96.3249V75.4049H99.4946C100.546 75.4049 101.398 74.5562 101.398 73.5083V72.6927Z" fill="#705952"/>
<path d="M99.7944 73.1337H95.4349V74.6984H98.695C99.2995 74.6984 99.7944 74.2101 99.7944 73.6031V73.1337Z" fill="#F7E2BC"/>
<path d="M44.6476 58.6245H37.9369V62.2139H42.1299C43.5196 62.2139 44.6476 61.0901 44.6476 59.7056V58.6245V58.6245Z" fill="#705952"/>
<path d="M42.5298 59.2126H37.5562V61.2799H41.0781C41.8825 61.2799 42.5298 60.6303 42.5298 59.8337V59.2126Z" fill="#F7E2BC"/>
<path d="M126.176 97.6191L126.89 94.4707C126.971 94.1056 127.27 93.8448 127.627 93.7784C127.561 93.7595 127.489 93.75 127.413 93.75H124.719C124.286 93.75 123.915 94.0487 123.82 94.466L123.106 97.6144C122.978 98.1881 123.415 98.7381 124.006 98.7381H126.666C126.728 98.7381 126.785 98.7191 126.847 98.7049C126.376 98.5911 126.062 98.117 126.176 97.6191Z" fill="#C6B291"/>
<path d="M134.119 87.3773C134.552 85.5565 134.333 84.0819 133.624 84.0819C132.915 84.0819 131.992 85.5565 131.559 87.3773C131.125 89.198 131.344 90.6727 132.053 90.6727C132.758 90.6727 133.686 89.198 134.119 87.3773Z" fill="#E0CFB1"/>
<path d="M152.085 88.0067C152.594 86.1718 152.464 84.535 151.796 84.3508C151.127 84.1665 150.172 85.5046 149.663 87.3395C149.153 89.1744 149.283 90.8112 149.951 90.9954C150.62 91.1796 151.575 89.8415 152.085 88.0067Z" fill="#E0CFB1"/>
<path d="M148.036 83.2949H138.484L136.513 91.5405H146.065L148.036 83.2949Z" fill="#C6B291"/>
<path d="M148.588 83.9396H138.031V84.4422H148.588V83.9396Z" fill="#E0CFB1"/>
<path d="M148.197 85.5707H137.641V86.0733H148.197V85.5707Z" fill="#E0CFB1"/>
<path d="M147.807 87.202H137.251V87.7046H147.807V87.202Z" fill="#E0CFB1"/>
<path d="M147.422 88.8329H136.865V89.3355H147.422V88.8329Z" fill="#E0CFB1"/>
<path d="M147.031 90.4641H136.475V90.9667H147.031V90.4641Z" fill="#E0CFB1"/>
<path d="M59.4778 49.8717C68.4911 49.8717 75.7977 49.7465 75.7977 49.5919C75.7977 49.4374 68.4911 49.3122 59.4778 49.3122C50.4646 49.3122 43.158 49.4374 43.158 49.5919C43.158 49.7465 50.4646 49.8717 59.4778 49.8717Z" fill="#71D1DB"/>
<path d="M59.4778 47.131C68.4911 47.131 75.7977 47.0058 75.7977 46.8513C75.7977 46.6968 68.4911 46.5715 59.4778 46.5715C50.4646 46.5715 43.158 46.6968 43.158 46.8513C43.158 47.0058 50.4646 47.131 59.4778 47.131Z" fill="#71D1DB"/>
<path d="M59.4778 44.3904C68.4911 44.3904 75.7977 44.2651 75.7977 44.1106C75.7977 43.9561 68.4911 43.8309 59.4778 43.8309C50.4646 43.8309 43.158 43.9561 43.158 44.1106C43.158 44.2651 50.4646 44.3904 59.4778 44.3904Z" fill="#71D1DB"/>
<path d="M75.7977 41.37C75.7977 41.2135 68.4921 41.0902 59.4778 41.0902C50.4636 41.0902 43.158 41.2182 43.158 41.37C43.158 41.5264 50.4636 41.6497 59.4778 41.6497C68.4921 41.6497 75.7977 41.5217 75.7977 41.37Z" fill="#71D1DB"/>
</svg>
