<svg width="98" height="174" viewBox="0 0 98 174" fill="none" xmlns="http://www.w3.org/2000/svg">
<path d="M13.6419 8.28653C0.831237 10.7354 -2.97734 24.3791 2.30273 38.1394C8.96774 55.6314 14.0747 67.6425 11.2183 88.283C9.4871 100.877 3.77424 110.906 8.62152 124.55C11.0452 131.313 15.5462 136.211 20.3935 138.893C28.53 143.441 38.3111 144.374 46.4476 140.875C60.1238 135.045 68.0007 118.019 80.0323 108.69C85.7452 104.259 92.2371 104.609 95.9591 95.9795C100.72 85.0178 95.9591 71.2575 93.7086 60.2959C91.0253 46.8854 91.9774 32.7752 88.9479 19.4814C87.2167 12.0181 83.8409 4.78814 78.9071 1.75621C73.2807 -1.74218 66.962 0.590078 61.2491 3.5054C53.4588 7.47024 46.6207 8.05331 38.4842 8.8696C30.5208 9.68589 21.6053 6.77057 13.6419 8.28653Z" fill="#F4F8FF"/>
<path d="M44.2852 37.2502C44.2852 37.2502 35.19 28.4659 34.4904 26.9889C34.1794 26.2893 52.8362 16.9609 44.5961 14.3956C43.6633 14.0847 22.9853 21.7028 21.897 24.89C19.4872 32.0418 37.9108 48.8329 40.6316 49.7657C51.2815 53.3416 44.2852 37.2502 44.2852 37.2502Z" fill="#FFCFC5"/>
<path d="M38.4549 173.6C57.0877 173.6 72.1926 171.547 72.1926 169.014C72.1926 166.481 57.0877 164.427 38.4549 164.427C19.8221 164.427 4.71729 166.481 4.71729 169.014C4.71729 171.547 19.8221 173.6 38.4549 173.6Z" fill="white" fill-opacity="0.15"/>
<path d="M66.6732 169.014L49.2602 168.236L49.1824 169.946H66.6732V169.014Z" fill="white"/>
<path d="M56.2563 156.809L54.7016 164.349L49.6487 166.759L50.6593 158.131C52.4472 157.82 54.3906 157.353 56.2563 156.809Z" fill="#F2AEA0"/>
<path d="M54.7793 163.028L49.26 164.427V168.625L66.7508 169.091C66.673 169.014 66.2843 167.226 54.7793 163.028Z" fill="white"/>
<path d="M61.6202 166.604C61.1538 167.226 60.8428 168.081 60.9205 168.858L49.26 168.547V164.349L54.7793 162.95C58.0443 164.194 60.4541 165.205 62.1643 165.982C61.9311 166.215 61.7756 166.371 61.6202 166.604Z" fill="#1C2A33"/>
<path d="M55.6344 164.738C55.6344 164.738 57.4224 162.095 55.6344 161.94C54.7793 161.862 51.3589 162.173 52.9136 164.738C54.3906 167.303 55.6344 164.738 55.6344 164.738Z" fill="#1C2A33"/>
<path d="M49.1824 168.936L66.6732 169.325V169.014L62.6309 168.858L49.2602 168.547L49.1824 168.936Z" fill="#1C2A33"/>
<path d="M56.334 163.417C55.6344 163.961 55.0902 164.583 54.5461 165.205C54.3129 165.438 54.7016 165.749 54.857 165.515C55.4012 164.894 55.9454 164.272 56.5673 163.805C56.8782 163.65 56.5672 163.261 56.334 163.417Z" fill="white"/>
<path d="M57.3447 163.65C56.7228 164.272 56.3341 164.971 55.8676 165.671C55.7122 165.904 56.1009 166.215 56.2563 165.904C56.7227 165.205 57.1114 164.505 57.6556 163.961C57.8888 163.805 57.5779 163.417 57.3447 163.65Z" fill="white"/>
<path d="M58.5885 164.116C57.9666 164.738 57.5779 165.438 57.1115 166.137C56.956 166.371 57.3447 166.682 57.5002 166.371C57.9666 165.671 58.3553 164.971 58.8995 164.427C59.2104 164.272 58.8217 163.883 58.5885 164.116Z" fill="white"/>
<path d="M10.392 169.014L27.805 168.236L27.8827 169.946H10.392V169.014Z" fill="white"/>
<path d="M23.6849 155.41L22.2857 162.95L26.0948 167.148L28.4269 158.752C26.7944 157.742 25.2397 156.654 23.6849 155.41Z" fill="#F2AEA0"/>
<path d="M22.2858 163.028L27.8051 164.427V168.625L10.3144 169.091C10.3921 169.014 10.7808 167.226 22.2858 163.028Z" fill="white"/>
<path d="M15.4448 166.604C15.9112 167.226 16.2222 168.081 16.1445 168.858L27.8049 168.547V164.349L22.2856 162.95C19.0207 164.194 16.6109 165.205 14.9007 165.982C15.1339 166.215 15.2893 166.371 15.4448 166.604Z" fill="#1C2A33"/>
<path d="M21.4308 164.738C21.4308 164.738 19.6429 162.095 21.4308 161.94C22.2859 161.862 25.7063 162.173 24.1516 164.738C22.6746 167.303 21.4308 164.738 21.4308 164.738Z" fill="#1C2A33"/>
<path d="M27.8827 168.936V168.547L14.4343 168.858L10.392 169.014V169.325L27.8827 168.936Z" fill="#1C2A33"/>
<path d="M20.4979 163.805C21.1197 164.272 21.6639 164.971 22.2081 165.515C22.4413 165.749 22.7522 165.36 22.519 165.205C21.8971 164.583 21.4307 163.883 20.7311 163.417C20.4978 163.261 20.1869 163.65 20.4979 163.805Z" fill="white"/>
<path d="M19.4097 164.038C19.9538 164.583 20.3425 165.36 20.8089 165.982C20.9644 166.215 21.4308 165.982 21.1976 165.749C20.7312 165.049 20.2648 164.272 19.7206 163.728C19.4874 163.417 19.1764 163.805 19.4097 164.038Z" fill="white"/>
<path d="M18.0881 164.505C18.6323 165.049 19.021 165.826 19.4874 166.448C19.6429 166.682 20.1093 166.448 19.8761 166.215C19.4096 165.515 18.9432 164.738 18.3991 164.194C18.2436 163.883 17.8549 164.272 18.0881 164.505Z" fill="white"/>
<path d="M68.1504 77.4399C68.1504 77.4399 66.6734 129.057 55.7903 161.084L49.6491 160.307C49.6491 160.307 51.2038 98.8175 51.437 94.4642L50.6596 94.231L28.7379 160.851L22.2081 159.841C22.2081 159.841 31.0701 101.849 39.8543 76.8958C41.7977 71.4542 68.1504 77.4399 68.1504 77.4399Z" fill="#2873FB"/>
<path d="M83.3089 53.5748C83.3089 53.5748 76.3127 42.3808 73.6696 41.2925C66.6733 37.0947 47.6279 38.494 47.9388 38.4162C48.2498 38.3385 41.2535 34.6071 41.2535 34.6071C41.2535 34.6071 34.1795 44.2465 34.024 44.7906C33.7908 45.568 38.7659 49.2216 38.7659 49.2216C38.7659 49.2216 39.5433 71.6875 38.2217 81.0936L49.5713 86.2242L51.437 79.5388L52.3698 86.3797C52.3698 86.3797 63.9526 84.1253 68.2281 81.6377C71.804 72.4648 70.4824 56.2956 70.4824 56.2956L71.9594 59.1719L83.3089 53.5748Z" fill="#FCD600"/>
<path d="M59.9103 37.7943L60.0658 29.0878L51.1261 31.6531V38.1053C50.7374 38.2607 49.0272 38.7272 49.1049 39.2713C49.2604 40.0487 52.4476 40.5151 52.4476 40.5151L55.0906 43.1581L57.4227 40.9038C57.4227 40.9038 63.3307 39.5823 62.6311 39.0381C62.0092 38.4162 61.0764 38.0275 59.9103 37.7943Z" fill="#FFC1AC"/>
<path d="M55.7902 11.6748C61.0763 13.2296 60.7653 16.8832 60.7653 16.8832C60.7653 16.8832 60.9986 19.0598 60.6876 22.4802C61.2318 21.8583 62.0868 21.5474 62.9419 22.0138C64.7299 22.8689 64.108 29.3988 60.2989 27.9218C60.0657 29.5542 59.2884 31.4199 59.1329 31.8863C58.2778 33.5188 54.7019 35.7732 51.5924 36.0064C48.483 36.2396 44.6739 33.9075 44.5961 30.2539C44.4407 25.2787 46.4618 11.6748 46.4618 11.6748C46.4618 11.6748 46.9283 9.18726 55.7902 11.6748Z" fill="#FFCFC5"/>
<path d="M58.9773 17.1941C59.5992 17.0387 60.1433 16.8055 60.7652 16.65C60.7652 15.7949 60.2988 12.9964 55.7901 11.6748C47.0059 9.18726 46.4617 11.6748 46.4617 11.6748C46.4617 11.6748 45.7621 16.4945 45.2179 21.4696C49.5712 19.604 54.3908 18.5157 58.9773 17.1941Z" fill="#FFC1AC"/>
<path d="M58.0445 13.4628C59.5215 13.5405 61.3872 14.9398 62.8642 15.0175C62.5533 15.6394 62.5532 21.8583 62.5532 21.8583C61.0762 21.8583 60.7653 23.0244 60.7653 23.0244L60.4544 25.5897L58.9774 25.3565L59.2106 19.8372C58.2777 19.293 57.9668 18.3602 57.9668 18.3602C57.9668 18.3602 58.2 14.3956 58.0445 13.4628Z" fill="#FF9C62"/>
<path d="M50.2709 20.9255C50.1154 21.7806 49.8045 22.6357 49.4936 23.4908C49.1826 24.2682 48.794 25.1233 48.4053 25.9006L48.3275 25.5119C48.8717 25.9784 49.4158 26.4448 49.8822 26.9889C49.1826 26.7557 48.5607 26.4448 47.9388 26.0561L47.7056 25.9006L47.7833 25.5897C48.0943 24.7346 48.483 23.9572 48.8717 23.1798C49.2604 22.4025 49.7268 21.6251 50.2709 20.9255Z" fill="#C4817A"/>
<path d="M56.8785 18.2047C55.868 18.127 55.2461 17.9715 54.5464 17.8937C54.2355 17.816 53.9246 17.816 53.5359 17.816C53.1472 17.7383 52.7585 17.816 52.2921 17.7383C52.6031 16.8054 53.6914 16.2613 54.7019 16.4168C55.1683 16.4945 55.7125 16.65 56.0235 16.9609C56.4899 17.2719 56.8008 17.6605 56.8785 18.2047Z" fill="#FF9C62"/>
<path d="M49.4934 18.127C48.5606 17.9715 48.0164 17.8938 47.55 17.8938C47.3168 17.8938 47.0836 17.8938 46.7726 17.8938C46.4617 17.8938 46.1507 17.9715 45.6066 18.0492C45.6066 17.5828 45.8398 17.1164 46.2285 16.8055C46.5394 16.4945 47.0836 16.339 47.6278 16.339C48.1719 16.339 48.6383 16.5722 48.9493 16.8832C49.2602 17.2719 49.4934 17.6606 49.4934 18.127Z" fill="#FF9C62"/>
<path d="M58.5889 13.8515C58.5889 13.8515 52.059 15.2507 46.6174 14.0847L49.2605 12.9186C49.2605 12.9186 45.8401 13.696 42.2642 10.3533L45.9178 9.42048C45.9178 9.42048 44.3631 8.48764 43.8189 7.24385H47.2393L46.2287 6.00007C46.2287 6.00007 62.087 5.92233 63.4085 10.8197C64.6523 15.7171 62.5534 21.8583 62.5534 21.8583L58.5889 13.8515Z" fill="#FF9C62"/>
<path d="M60.6877 23.1021C60.6877 23.1021 61.9315 35.1513 55.2461 36.4728C48.5608 37.8721 43.0415 37.4834 44.5962 27.7663C44.5962 27.7663 44.363 30.2539 45.9955 30.6426C47.6279 31.0312 44.8294 26.9889 49.0272 26.9889C53.225 26.9889 55.2462 26.8335 55.4016 29.8652C55.4794 31.9641 58.822 31.8086 58.9775 25.5119C59.0552 19.1375 60.6877 23.1021 60.6877 23.1021Z" fill="#FF9C62"/>
<path d="M47.7056 29.5542L53.9245 30.4871C53.9245 30.4871 50.9706 26.2116 47.7056 29.5542Z" fill="white"/>
<path d="M68.3835 81.0159C68.3835 81.0159 60.6876 85.1359 67.3729 80.2385C67.3729 80.2385 69.3163 78.3728 68.3835 81.0159Z" fill="#FFCFC5"/>
<path d="M63.7971 38.183L59.1329 44.3242L57.4227 40.7483L61.7759 36.3173L63.7971 38.183Z" fill="#E8BB00"/>
<path d="M47.9386 38.4939L50.193 44.1687L52.4474 40.3596L49.8821 37.1724L47.9386 38.4939Z" fill="#E8BB00"/>
<path d="M34.4128 46.1899L32.1584 44.1687L40.8649 32.7414L44.0521 35.54L34.4128 46.1899Z" fill="#E8BB00"/>
<path d="M57.7335 158.131L49.3379 158.208L49.1047 160.929L56.9561 161.94L57.7335 158.131Z" fill="#3F4B51"/>
<path d="M21.8972 156.576L30.0595 158.752L29.5154 161.473L21.664 160.463L21.8972 156.576Z" fill="#3F4B51"/>
<path d="M54.5464 44.8684C54.8469 44.8684 55.0906 44.6247 55.0906 44.3242C55.0906 44.0237 54.8469 43.78 54.5464 43.78C54.2459 43.78 54.0022 44.0237 54.0022 44.3242C54.0022 44.6247 54.2459 44.8684 54.5464 44.8684Z" fill="#283942"/>
<path d="M53.2249 53.4194C53.5254 53.4194 53.7691 53.1757 53.7691 52.8752C53.7691 52.5747 53.5254 52.3311 53.2249 52.3311C52.9244 52.3311 52.6808 52.5747 52.6808 52.8752C52.6808 53.1757 52.9244 53.4194 53.2249 53.4194Z" fill="#283942"/>
<path d="M52.4476 62.2813C52.7481 62.2813 52.9917 62.0377 52.9917 61.7372C52.9917 61.4367 52.7481 61.193 52.4476 61.193C52.147 61.193 51.9034 61.4367 51.9034 61.7372C51.9034 62.0377 52.147 62.2813 52.4476 62.2813Z" fill="#283942"/>
<path d="M51.9033 70.5991C52.2038 70.5991 52.4474 70.3555 52.4474 70.055C52.4474 69.7545 52.2038 69.5108 51.9033 69.5108C51.6027 69.5108 51.3591 69.7545 51.3591 70.055C51.3591 70.3555 51.6027 70.5991 51.9033 70.5991Z" fill="#283942"/>
<path d="M51.1259 77.8286C51.4265 77.8286 51.67 77.585 51.67 77.2845C51.67 76.984 51.4265 76.7403 51.1259 76.7403C50.8254 76.7403 50.5818 76.984 50.5818 77.2845C50.5818 77.585 50.8254 77.8286 51.1259 77.8286Z" fill="#283942"/>
<path d="M49.8821 51.7869L39.2322 51.6314L39.6208 53.6526H49.7266L49.8821 51.7869Z" fill="#E8BB00"/>
<path d="M48.3274 14.0847C48.3274 14.0847 56.3343 10.3533 47.1614 13.3073C43.6632 14.4734 32.4691 18.8266 25.2396 22.4802C26.8721 24.7346 36.045 22.4025 37.9885 24.4236L44.8293 20.5368L48.7939 18.0492C48.7939 18.0492 53.6135 15.7949 53.2248 15.4062C52.6806 14.862 49.1825 16.4945 49.1825 16.4945C49.1825 16.4945 54.0022 14.4734 53.2248 14.0847C52.4474 13.696 48.7939 15.0952 48.7939 15.0952C48.7939 15.0952 58.2777 11.0529 48.3274 14.0847Z" fill="#FFCFC5"/>
<path d="M44.596 16.339C44.596 16.339 47.7832 7.32159 46.6949 14.1624C45.8398 20.1481 44.596 16.339 44.596 16.339Z" fill="#FFCFC5"/>
<path d="M49.2603 20.6923C49.1825 21.0032 48.9493 21.2364 48.6384 21.4696C48.3274 21.6251 48.0165 21.7029 47.6278 21.7029C47.3169 21.7029 46.9282 21.5474 46.695 21.3919C46.4618 21.1587 46.2285 20.8478 46.2285 20.5368C46.5395 20.6923 46.7727 20.77 47.0059 20.8477C47.2391 20.9255 47.4723 20.9255 47.7055 20.9255C48.172 20.9255 48.6384 20.8477 49.2603 20.6923Z" fill="#172D3A"/>
<path d="M55.246 21.081C55.1683 21.3919 54.9351 21.6251 54.6241 21.8583C54.3132 22.0138 54.0022 22.0915 53.6135 22.0915C53.3026 22.0915 52.9139 21.9361 52.6807 21.7806C52.4475 21.5474 52.2143 21.2364 52.2143 20.9255C52.5252 21.081 52.7584 21.1587 52.9917 21.2364C53.2249 21.3142 53.4581 21.3142 53.6913 21.3142C54.1577 21.3142 54.6241 21.2364 55.246 21.081Z" fill="#172D3A"/>
<path d="M42.031 33.752C41.9532 33.8298 41.9532 33.9852 42.031 34.063C42.1087 34.1407 42.1087 34.1407 42.1864 34.1407C42.2642 34.1407 42.2641 34.1407 42.3419 34.063L42.031 33.752Z" fill="#E0BA00"/>
<path d="M39.699 36.6283C39.7767 36.6283 39.7767 36.6283 39.8544 36.5505L40.554 35.8509C40.6318 35.7732 40.6318 35.6177 40.554 35.54C40.4763 35.4622 40.3209 35.4622 40.2431 35.54L39.5435 36.2396C39.4657 36.3173 39.4657 36.4728 39.5435 36.5505C39.5435 36.6283 39.6212 36.6283 39.699 36.6283Z" fill="#E0BA00"/>
<path d="M43.7411 36.3173C43.6633 36.3951 43.6633 36.5505 43.7411 36.6283C43.8188 36.706 43.8188 36.706 43.8965 36.706C43.9742 36.706 43.9743 36.706 44.052 36.6283L44.2852 36.3951C44.1297 36.3173 44.052 36.2396 43.8965 36.1618L43.7411 36.3173Z" fill="#E0BA00"/>
<path d="M38.8437 38.4939C38.766 38.4162 38.6105 38.4162 38.5328 38.4939L37.8331 39.1936C37.7554 39.2713 37.7554 39.4268 37.8331 39.5045C37.9109 39.5823 37.9109 39.5823 37.9886 39.5823C38.0663 39.5823 38.0664 39.5823 38.1441 39.5045L38.8437 38.8049C38.9214 38.6494 38.9214 38.5717 38.8437 38.4939Z" fill="#E0BA00"/>
<path d="M43.0415 38.4939C42.9638 38.4162 42.8083 38.4162 42.7306 38.4939L42.031 39.1936C41.9532 39.2713 41.9532 39.4268 42.031 39.5045C42.1087 39.5823 42.1087 39.5823 42.1864 39.5823C42.2642 39.5823 42.2641 39.5823 42.3419 39.5045L43.0415 38.8049C43.1193 38.6494 43.1193 38.5717 43.0415 38.4939Z" fill="#E0BA00"/>
<path d="M47.1615 38.4939C47.0838 38.4162 46.9283 38.4162 46.8506 38.4939L46.1509 39.1936C46.0732 39.2713 46.0732 39.4268 46.1509 39.5045C46.2287 39.5823 46.2287 39.5823 46.3064 39.5823C46.3842 39.5823 46.3842 39.5823 46.4619 39.5045L47.1615 38.8049C47.2392 38.6494 47.2392 38.5717 47.1615 38.4939Z" fill="#E0BA00"/>
<path d="M50.4266 39.4268C50.5043 39.5045 50.5043 39.5045 50.5821 39.5045C50.6598 39.5045 50.6598 39.5045 50.7376 39.4268L51.2817 38.8826L51.0485 38.5717L50.4266 39.1936C50.3489 39.1936 50.3489 39.3491 50.4266 39.4268Z" fill="#E0BA00"/>
<path d="M58.7444 39.4268C58.8221 39.5045 58.8221 39.5045 58.8998 39.5045C58.9776 39.5045 58.9775 39.5045 59.0553 39.4268L59.7549 38.7272C59.8327 38.6494 59.8327 38.4939 59.7549 38.4162C59.7549 38.4162 59.7549 38.4162 59.6772 38.4162L58.7444 39.4268Z" fill="#E0BA00"/>
<path d="M63.4862 38.6494L62.942 39.1936C62.8643 39.2713 62.8643 39.4268 62.942 39.5045C63.0197 39.5823 63.0197 39.5823 63.0975 39.5823C63.1752 39.5823 63.1752 39.5823 63.253 39.5045L63.9526 38.8049C63.7971 38.7272 63.5639 38.7272 63.4862 38.6494Z" fill="#E0BA00"/>
<path d="M67.1398 39.4268C67.2176 39.5045 67.2176 39.5045 67.2953 39.5045C67.373 39.5045 67.373 39.5045 67.4508 39.4268L67.6062 39.2713C67.4507 39.2713 67.2953 39.1936 67.1398 39.1936C67.0621 39.2713 67.0621 39.3491 67.1398 39.4268Z" fill="#E0BA00"/>
<path d="M35.5009 41.9921C35.5787 41.9921 35.5787 41.9921 35.6564 41.9144L36.356 41.2147C36.4338 41.137 36.4338 40.9815 36.356 40.9038C36.2783 40.826 36.1228 40.826 36.0451 40.9038L35.3454 41.6034C35.2677 41.6811 35.2677 41.8366 35.3454 41.9144C35.4232 41.9921 35.4232 41.9921 35.5009 41.9921Z" fill="#E0BA00"/>
<path d="M39.5435 41.9144C39.6212 41.9921 39.6212 41.9921 39.699 41.9921C39.7767 41.9921 39.7767 41.9921 39.8544 41.9144L40.554 41.2147C40.6318 41.137 40.6318 40.9815 40.554 40.9038C40.4763 40.826 40.3209 40.826 40.2431 40.9038L39.5435 41.6034C39.4657 41.7589 39.4657 41.8366 39.5435 41.9144Z" fill="#E0BA00"/>
<path d="M44.6738 40.9815C44.5961 40.9038 44.4406 40.9038 44.3629 40.9815L43.6632 41.6812C43.5855 41.7589 43.5855 41.9144 43.6632 41.9921C43.741 42.0698 43.741 42.0698 43.8187 42.0698C43.8965 42.0698 43.8965 42.0698 43.9742 41.9921L44.6738 41.2925C44.7515 41.2147 44.7515 41.0593 44.6738 40.9815Z" fill="#E0BA00"/>
<path d="M48.5607 40.9815L47.8611 41.6812C47.7833 41.7589 47.7833 41.9144 47.8611 41.9921C47.9388 42.0698 47.9388 42.0698 48.0165 42.0698C48.0943 42.0698 48.0942 42.0698 48.172 41.9921L48.8716 41.2925C48.9494 41.2147 48.9494 41.0593 48.8716 40.9815C48.7939 40.9038 48.6384 40.9038 48.5607 40.9815Z" fill="#E0BA00"/>
<path d="M52.2144 41.9921C52.2921 41.9921 52.2921 41.9921 52.3698 41.9144L53.0695 41.2147C53.1472 41.137 53.1472 40.9815 53.0695 40.9038C52.9918 40.826 52.8363 40.826 52.7585 40.9038L52.0589 41.6034C51.9811 41.6811 51.9811 41.8366 52.0589 41.9144C52.1366 41.9921 52.1366 41.9921 52.2144 41.9921Z" fill="#E0BA00"/>
<path d="M56.2567 41.9144C56.3344 41.9921 56.3344 41.9921 56.4121 41.9921C56.4899 41.9921 56.4899 41.9921 56.5676 41.9144L57.2672 41.2147C57.345 41.137 57.345 40.9815 57.2672 40.9038L56.2567 41.9144Z" fill="#E0BA00"/>
<path d="M61.3873 40.9815C61.3095 40.9038 61.1541 40.9038 61.0763 40.9815L60.3767 41.6812C60.299 41.7589 60.299 41.9144 60.3767 41.9921C60.4544 42.0698 60.4544 42.0698 60.5322 42.0698C60.6099 42.0698 60.6099 42.0698 60.6877 41.9921L61.3873 41.2925C61.465 41.2147 61.465 41.0593 61.3873 40.9815Z" fill="#E0BA00"/>
<path d="M65.5851 40.9815C65.5073 40.9038 65.3519 40.9038 65.2741 40.9815L64.5745 41.6812C64.4968 41.7589 64.4968 41.9144 64.5745 41.9921C64.6523 42.0698 64.6523 42.0698 64.73 42.0698C64.8077 42.0698 64.8077 42.0698 64.8854 41.9921L65.5851 41.2925C65.6628 41.2147 65.6628 41.0593 65.5851 40.9815Z" fill="#E0BA00"/>
<path d="M68.9278 41.9921C69.0056 41.9921 69.0056 41.9921 69.0833 41.9144L69.783 41.2147C69.8607 41.137 69.8607 40.9815 69.783 40.9038C69.7052 40.826 69.5497 40.826 69.472 40.9038L68.7723 41.6034C68.6946 41.6811 68.6946 41.8366 68.7723 41.9144C68.8501 41.9921 68.9278 41.9921 68.9278 41.9921Z" fill="#E0BA00"/>
<path d="M73.1255 41.9921C73.2033 41.9921 73.2033 41.9921 73.281 41.9144L73.8251 41.3702C73.7474 41.3702 73.6697 41.2925 73.5919 41.2925C73.5142 41.2925 73.4365 41.2147 73.3587 41.2147L72.8923 41.6811C72.8146 41.7589 72.8146 41.9144 72.8923 41.9921C73.0478 41.9921 73.1255 41.9921 73.1255 41.9921Z" fill="#E0BA00"/>
<path d="M34.3349 43.8578L33.6353 44.5574C33.5576 44.6351 33.5576 44.7906 33.6353 44.8684C33.713 44.9461 33.713 44.9461 33.7907 44.9461C33.8685 44.9461 33.8685 44.9461 33.9462 44.8684L34.6459 44.1687C34.7236 44.091 34.7236 43.9355 34.6459 43.8578C34.5681 43.7023 34.4126 43.7023 34.3349 43.8578Z" fill="#E0BA00"/>
<path d="M38.5328 43.8578L37.8331 44.5574C37.7554 44.6351 37.7554 44.7906 37.8331 44.8684C37.9109 44.9461 37.9109 44.9461 37.9886 44.9461C38.0663 44.9461 38.0664 44.9461 38.1441 44.8684L38.8437 44.1687C38.9214 44.091 38.9214 43.9355 38.8437 43.8578C38.766 43.7023 38.6105 43.7023 38.5328 43.8578Z" fill="#E0BA00"/>
<path d="M43.0415 43.8578C42.9638 43.78 42.8083 43.78 42.7306 43.8578L42.031 44.5574C41.9532 44.6351 41.9532 44.7906 42.031 44.8684C42.1087 44.9461 42.1087 44.9461 42.1864 44.9461C42.2642 44.9461 42.2641 44.9461 42.3419 44.8684L43.0415 44.1687C43.1193 44.0132 43.1193 43.9355 43.0415 43.8578Z" fill="#E0BA00"/>
<path d="M47.1615 43.8578C47.0838 43.78 46.9283 43.78 46.8506 43.8578L46.1509 44.5574C46.0732 44.6351 46.0732 44.7906 46.1509 44.8684C46.2287 44.9461 46.2287 44.9461 46.3064 44.9461C46.3842 44.9461 46.3842 44.9461 46.4619 44.8684L47.1615 44.1687C47.2392 44.0132 47.2392 43.9355 47.1615 43.8578Z" fill="#E0BA00"/>
<path d="M51.3593 43.8578C51.2816 43.78 51.1261 43.78 51.0484 43.8578L50.3488 44.5574C50.271 44.6351 50.271 44.7906 50.3488 44.8684C50.4265 44.9461 50.4265 44.9461 50.5042 44.9461C50.5819 44.9461 50.5819 44.9461 50.6597 44.8684L51.3593 44.1687C51.4371 44.0132 51.4371 43.9355 51.3593 43.8578Z" fill="#E0BA00"/>
<path d="M54.7018 44.8684C54.7796 44.8684 54.7796 44.8683 54.8573 44.7906L55.5569 44.091C55.6347 44.0133 55.6347 43.8578 55.5569 43.78C55.4792 43.7023 55.3237 43.7023 55.246 43.78L54.5464 44.4797C54.4686 44.5574 54.4686 44.7129 54.5464 44.7906C54.6241 44.8683 54.7018 44.8684 54.7018 44.8684Z" fill="#E0BA00"/>
<path d="M58.8999 44.8684C58.9776 44.8684 58.9776 44.8683 59.0553 44.7906L59.755 44.091C59.8327 44.0133 59.8327 43.8578 59.755 43.78C59.6772 43.7023 59.5217 43.7023 59.444 43.78L58.7444 44.4797C58.6667 44.5574 58.6667 44.7129 58.7444 44.7906C58.8221 44.8683 58.8999 44.8684 58.8999 44.8684Z" fill="#E0BA00"/>
<path d="M63.9526 43.8578C63.8749 43.78 63.7194 43.78 63.6416 43.8578L62.942 44.5574C62.8643 44.6351 62.8643 44.7906 62.942 44.8684C63.0197 44.9461 63.0197 44.9461 63.0975 44.9461C63.1752 44.9461 63.1752 44.9461 63.253 44.8684L63.9526 44.1687C64.0303 44.0132 64.0303 43.9355 63.9526 43.8578Z" fill="#E0BA00"/>
<path d="M68.0725 43.8578C67.9948 43.78 67.8393 43.78 67.7616 43.8578L67.062 44.5574C66.9842 44.6351 66.9842 44.7906 67.062 44.8684C67.1397 44.9461 67.1397 44.9461 67.2174 44.9461C67.2952 44.9461 67.2952 44.9461 67.3729 44.8684L68.0725 44.1687C68.228 44.0132 68.228 43.9355 68.0725 43.8578Z" fill="#E0BA00"/>
<path d="M71.4931 44.8684C71.5708 44.8684 71.5708 44.8683 71.6485 44.7906L72.3482 44.091C72.4259 44.0133 72.4259 43.8578 72.3482 43.78C72.2705 43.7023 72.115 43.7023 72.0372 43.78L71.3376 44.4797C71.2599 44.5574 71.2599 44.7129 71.3376 44.7906C71.3376 44.8683 71.4153 44.8684 71.4931 44.8684Z" fill="#E0BA00"/>
<path d="M75.5352 44.4797C75.4575 44.5574 75.4575 44.7129 75.5352 44.7906C75.613 44.8683 75.613 44.8684 75.6907 44.8684C75.7684 44.8684 75.7684 44.8683 75.8462 44.7906L76.5458 44.091C76.5458 44.091 76.5458 44.0132 76.6235 44.0132C76.5458 43.9355 76.4681 43.8578 76.3903 43.78C76.3126 43.78 76.3126 43.78 76.2349 43.8578L75.5352 44.4797Z" fill="#E0BA00"/>
<path d="M36.356 46.3453C36.2783 46.2676 36.1228 46.2676 36.045 46.3453L35.5786 46.8118C35.6564 46.8895 35.8118 46.9672 35.8896 47.1227L36.356 46.6563C36.4337 46.5785 36.4337 46.4231 36.356 46.3453Z" fill="#E0BA00"/>
<path d="M40.4762 46.3453C40.3985 46.2676 40.243 46.2676 40.1653 46.3453L39.4657 47.045C39.3879 47.1227 39.3879 47.2782 39.4657 47.3559C39.5434 47.4337 39.5434 47.4337 39.6211 47.4337C39.6988 47.4337 39.6988 47.4337 39.7766 47.3559L40.4762 46.6563C40.554 46.5785 40.554 46.4231 40.4762 46.3453Z" fill="#E0BA00"/>
<path d="M44.6738 46.3453C44.5961 46.2676 44.4406 46.2676 44.3629 46.3453L43.6632 47.045C43.5855 47.1227 43.5855 47.2782 43.6632 47.3559C43.741 47.4337 43.741 47.4337 43.8187 47.4337C43.8965 47.4337 43.8965 47.4337 43.9742 47.3559L44.6738 46.6563C44.7515 46.5785 44.7515 46.4231 44.6738 46.3453Z" fill="#E0BA00"/>
<path d="M48.8716 46.3453C48.7939 46.2676 48.6384 46.2676 48.5607 46.3453L47.8611 47.045C47.7833 47.1227 47.7833 47.2782 47.8611 47.3559C47.9388 47.4337 47.9388 47.4337 48.0165 47.4337C48.0943 47.4337 48.0942 47.4337 48.172 47.3559L48.8716 46.6563C48.9494 46.5785 48.9494 46.4231 48.8716 46.3453Z" fill="#E0BA00"/>
<path d="M53.0695 46.3453C52.9918 46.2676 52.8363 46.2676 52.7585 46.3453L52.0589 47.045C51.9811 47.1227 51.9811 47.2782 52.0589 47.3559C52.1366 47.4337 52.1366 47.4337 52.2144 47.4337C52.2921 47.4337 52.2921 47.4337 52.3698 47.3559L53.0695 46.6563C53.1472 46.5785 53.1472 46.4231 53.0695 46.3453Z" fill="#E0BA00"/>
<path d="M57.2673 46.3453C57.1895 46.2676 57.0341 46.2676 56.9564 46.3453L56.2567 47.045C56.179 47.1227 56.179 47.2782 56.2567 47.3559C56.3344 47.4337 56.3345 47.4337 56.4122 47.4337C56.4899 47.4337 56.4899 47.4337 56.5677 47.3559L57.2673 46.6563C57.345 46.5785 57.345 46.4231 57.2673 46.3453Z" fill="#E0BA00"/>
<path d="M61.3873 46.3453C61.3095 46.2676 61.1541 46.2676 61.0763 46.3453L60.3767 47.045C60.299 47.1227 60.299 47.2782 60.3767 47.3559C60.4544 47.4337 60.4544 47.4337 60.5322 47.4337C60.6099 47.4337 60.6099 47.4337 60.6877 47.3559L61.3873 46.6563C61.465 46.5785 61.465 46.4231 61.3873 46.3453Z" fill="#E0BA00"/>
<path d="M65.5851 46.3453C65.5073 46.2676 65.3519 46.2676 65.2741 46.3453L64.5745 47.045C64.4968 47.1227 64.4968 47.2782 64.5745 47.3559C64.6523 47.4337 64.6523 47.4337 64.73 47.4337C64.8077 47.4337 64.8077 47.4337 64.8854 47.3559L65.5851 46.6563C65.6628 46.5785 65.6628 46.4231 65.5851 46.3453Z" fill="#E0BA00"/>
<path d="M68.7723 47.2782C68.8501 47.3559 68.8501 47.3559 68.9278 47.3559C69.0056 47.3559 69.0056 47.3559 69.0833 47.2782L69.783 46.5786C69.8607 46.5008 69.8607 46.3453 69.783 46.2676C69.7052 46.1899 69.5497 46.1899 69.472 46.2676L68.7723 46.9672C68.6946 47.045 68.6946 47.2004 68.7723 47.2782Z" fill="#E0BA00"/>
<path d="M73.9807 46.3453C73.903 46.2676 73.7475 46.2676 73.6698 46.3453L72.9702 47.045C72.8924 47.1227 72.8924 47.2782 72.9702 47.3559C73.0479 47.4337 73.0479 47.4337 73.1256 47.4337C73.2034 47.4337 73.2034 47.4337 73.2811 47.3559L73.9807 46.6563C74.0585 46.5785 74.0585 46.4231 73.9807 46.3453Z" fill="#E0BA00"/>
<path d="M78.1783 46.3453C78.1006 46.2676 77.9451 46.2676 77.8673 46.3453L77.1677 47.045C77.09 47.1227 77.09 47.2782 77.1677 47.3559C77.2455 47.4337 77.2454 47.4337 77.3232 47.4337C77.4009 47.4337 77.4009 47.4337 77.4787 47.3559L78.1783 46.6563C78.256 46.5785 78.256 46.4231 78.1783 46.3453Z" fill="#E0BA00"/>
<path d="M38.6883 49.688L38.8438 49.5325C38.9215 49.4548 38.9215 49.2993 38.8438 49.2216C38.766 49.1439 38.6106 49.1439 38.5328 49.2216C38.6106 49.2993 38.6883 49.3771 38.6883 49.3771C38.6883 49.3771 38.6106 49.4548 38.6883 49.688Z" fill="#E0BA00"/>
<path d="M43.0415 49.1439C42.9638 49.0661 42.8083 49.0661 42.7306 49.1439L42.031 49.8435C41.9532 49.9212 41.9532 50.0767 42.031 50.1544C42.1087 50.2322 42.1087 50.2322 42.1864 50.2322C42.2642 50.2322 42.2641 50.2322 42.3419 50.1544L43.0415 49.4548C43.1193 49.3771 43.1193 49.2216 43.0415 49.1439Z" fill="#E0BA00"/>
<path d="M47.1615 49.1439C47.0838 49.0661 46.9283 49.0661 46.8506 49.1439L46.1509 49.8435C46.0732 49.9212 46.0732 50.0767 46.1509 50.1544C46.2287 50.2322 46.2287 50.2322 46.3064 50.2322C46.3842 50.2322 46.3842 50.2322 46.4619 50.1544L47.1615 49.4548C47.2392 49.3771 47.2392 49.2216 47.1615 49.1439Z" fill="#E0BA00"/>
<path d="M51.3593 49.1439C51.2816 49.0661 51.1261 49.0661 51.0484 49.1439L50.3488 49.8435C50.271 49.9212 50.271 50.0767 50.3488 50.1544C50.4265 50.2322 50.4265 50.2322 50.5042 50.2322C50.5819 50.2322 50.5819 50.2322 50.6597 50.1544L51.3593 49.4548C51.4371 49.3771 51.4371 49.2216 51.3593 49.1439Z" fill="#E0BA00"/>
<path d="M55.5569 49.1439C55.4792 49.0661 55.3237 49.0661 55.246 49.1439L54.5464 49.8435C54.4686 49.9212 54.4686 50.0767 54.5464 50.1544C54.6241 50.2322 54.6241 50.2322 54.7018 50.2322C54.7796 50.2322 54.7796 50.2322 54.8573 50.1544L55.5569 49.4548C55.6347 49.3771 55.6347 49.2216 55.5569 49.1439Z" fill="#E0BA00"/>
<path d="M59.755 49.1439C59.6772 49.0661 59.5217 49.0661 59.444 49.1439L58.7444 49.8435C58.6667 49.9212 58.6667 50.0767 58.7444 50.1544C58.8221 50.2322 58.8221 50.2322 58.8999 50.2322C58.9776 50.2322 58.9776 50.2322 59.0553 50.1544L59.755 49.4548C59.8327 49.3771 59.8327 49.2216 59.755 49.1439Z" fill="#E0BA00"/>
<path d="M63.9526 49.1439C63.8749 49.0661 63.7194 49.0661 63.6416 49.1439L62.942 49.8435C62.8643 49.9212 62.8643 50.0767 62.942 50.1544C63.0197 50.2322 63.0197 50.2322 63.0975 50.2322C63.1752 50.2322 63.1752 50.2322 63.253 50.1544L63.9526 49.4548C64.0303 49.3771 64.0303 49.2216 63.9526 49.1439Z" fill="#E0BA00"/>
<path d="M68.0727 49.1439C67.9949 49.0661 67.8394 49.0661 67.7617 49.1439L67.1398 49.8435C67.0621 49.9212 67.0621 50.0767 67.1398 50.1544C67.2176 50.2322 67.2176 50.2322 67.2953 50.2322C67.373 50.2322 67.373 50.2322 67.4508 50.1544L68.1504 49.4548C68.2281 49.3771 68.2281 49.2216 68.0727 49.1439Z" fill="#E0BA00"/>
<path d="M71.9595 49.1439L71.2598 49.8435C71.1821 49.9212 71.1821 50.0767 71.2598 50.1544C71.3375 50.2322 71.3375 50.2322 71.4153 50.2322C71.493 50.2322 71.493 50.2322 71.5708 50.1544L72.2704 49.4548C72.3481 49.3771 72.3481 49.2216 72.2704 49.1439C72.1926 49.0661 72.0372 49.0661 71.9595 49.1439Z" fill="#E0BA00"/>
<path d="M76.1572 49.1439L75.4576 49.8435C75.3799 49.9212 75.3799 50.0767 75.4576 50.1544C75.5354 50.2322 75.5354 50.2322 75.6131 50.2322C75.6908 50.2322 75.6908 50.2322 75.7685 50.1544L76.4682 49.4548C76.5459 49.3771 76.5459 49.2216 76.4682 49.1439C76.3905 49.0661 76.235 49.0661 76.1572 49.1439Z" fill="#E0BA00"/>
<path d="M79.6554 50.1544C79.7332 50.2322 79.7332 50.2322 79.8109 50.2322C79.8887 50.2322 79.8887 50.2322 79.9664 50.1544L80.5883 49.5325C80.5106 49.3771 80.4328 49.2993 80.3551 49.1439L79.6554 49.8435C79.5777 49.9212 79.5777 50.0767 79.6554 50.1544Z" fill="#E0BA00"/>
<path d="M40.4762 51.7092C40.3985 51.6314 40.243 51.6314 40.1653 51.7092L39.4657 52.4088C39.3879 52.4865 39.3879 52.642 39.4657 52.7197C39.5434 52.7975 39.5434 52.7975 39.6211 52.7975C39.6988 52.7975 39.6988 52.7975 39.7766 52.7197L40.4762 52.0201C40.554 51.9424 40.554 51.7869 40.4762 51.7092Z" fill="#E0BA00"/>
<path d="M44.6738 51.7092C44.5961 51.6314 44.4406 51.6314 44.3629 51.7092L43.6632 52.4088C43.5855 52.4865 43.5855 52.642 43.6632 52.7197C43.741 52.7975 43.741 52.7975 43.8187 52.7975C43.8965 52.7975 43.8965 52.7975 43.9742 52.7197L44.6738 52.0201C44.7515 51.9424 44.7515 51.7869 44.6738 51.7092Z" fill="#E0BA00"/>
<path d="M48.8716 51.7092C48.7939 51.6314 48.6384 51.6314 48.5607 51.7092L47.8611 52.4088C47.7833 52.4865 47.7833 52.642 47.8611 52.7197C47.9388 52.7975 47.9388 52.7975 48.0165 52.7975C48.0943 52.7975 48.0942 52.7975 48.172 52.7197L48.8716 52.0201C48.9494 51.9424 48.9494 51.7869 48.8716 51.7092Z" fill="#E0BA00"/>
<path d="M53.0695 51.7092C52.9918 51.6314 52.8363 51.6314 52.7585 51.7092L52.0589 52.4088C51.9811 52.4865 51.9811 52.642 52.0589 52.7197C52.1366 52.7975 52.1366 52.7975 52.2144 52.7975C52.2921 52.7975 52.2921 52.7975 52.3698 52.7197L53.0695 52.0201C53.1472 51.9424 53.1472 51.7869 53.0695 51.7092Z" fill="#E0BA00"/>
<path d="M57.2673 51.7092C57.1895 51.6314 57.0341 51.6314 56.9564 51.7092L56.2567 52.4088C56.179 52.4865 56.179 52.642 56.2567 52.7197C56.3344 52.7975 56.3345 52.7975 56.4122 52.7975C56.4899 52.7975 56.4899 52.7975 56.5677 52.7197L57.2673 52.0201C57.345 51.9424 57.345 51.7869 57.2673 51.7092Z" fill="#E0BA00"/>
<path d="M61.3873 51.7092C61.3095 51.6314 61.1541 51.6314 61.0763 51.7092L60.3767 52.4088C60.299 52.4865 60.299 52.642 60.3767 52.7197C60.4544 52.7975 60.4544 52.7975 60.5322 52.7975C60.6099 52.7975 60.6099 52.7975 60.6877 52.7197L61.3873 52.0201C61.465 51.9424 61.465 51.7869 61.3873 51.7092Z" fill="#E0BA00"/>
<path d="M65.5851 51.7092C65.5073 51.6314 65.3519 51.6314 65.2741 51.7092L64.5745 52.4088C64.4968 52.4865 64.4968 52.642 64.5745 52.7197C64.6523 52.7975 64.6523 52.7975 64.73 52.7975C64.8077 52.7975 64.8077 52.7975 64.8854 52.7197L65.5851 52.0201C65.6628 51.9424 65.6628 51.7869 65.5851 51.7092Z" fill="#E0BA00"/>
<path d="M68.7723 52.642C68.8501 52.7197 68.8501 52.7197 68.9278 52.7197C69.0056 52.7197 69.0056 52.7197 69.0833 52.642L69.783 51.9424C69.8607 51.8646 69.8607 51.7092 69.783 51.6314C69.7052 51.5537 69.5497 51.5537 69.472 51.6314L68.7723 52.3311C68.6946 52.4088 68.6946 52.5643 68.7723 52.642Z" fill="#E0BA00"/>
<path d="M73.9807 51.7092C73.903 51.6314 73.7475 51.6314 73.6698 51.7092L72.9702 52.4088C72.8924 52.4865 72.8924 52.642 72.9702 52.7197C73.0479 52.7975 73.0479 52.7975 73.1256 52.7975C73.2034 52.7975 73.2034 52.7975 73.2811 52.7197L73.9807 52.0201C74.0585 51.9424 74.0585 51.7869 73.9807 51.7092Z" fill="#E0BA00"/>
<path d="M78.1783 51.7092C78.1006 51.6314 77.9451 51.6314 77.8673 51.7092L77.1677 52.4088C77.09 52.4865 77.09 52.642 77.1677 52.7197C77.2455 52.7975 77.2454 52.7975 77.3232 52.7975C77.4009 52.7975 77.4009 52.7975 77.4787 52.7197L78.1783 52.0201C78.256 51.9424 78.256 51.7869 78.1783 51.7092Z" fill="#E0BA00"/>
<path d="M82.0652 51.7092L81.3656 52.4088C81.2878 52.4865 81.2878 52.642 81.3656 52.7197C81.4433 52.7975 81.4433 52.7975 81.521 52.7975C81.5988 52.7975 81.5988 52.7975 81.6765 52.7197L82.3761 52.0201C82.4539 51.9424 82.4539 51.7869 82.3761 51.7092C82.2207 51.6314 82.1429 51.6314 82.0652 51.7092Z" fill="#E0BA00"/>
<path d="M38.8438 54.5077C38.8438 54.5077 38.7661 54.5077 38.8438 54.5077C38.7661 54.5854 38.7661 54.7409 38.7661 54.8964L38.8438 54.8186C38.9215 54.7409 38.9215 54.5854 38.8438 54.5077Z" fill="#E0BA00"/>
<path d="M43.0415 54.5077C42.9638 54.4299 42.8083 54.4299 42.7306 54.5077L42.031 55.2073C41.9532 55.285 41.9532 55.4405 42.031 55.5183C42.1087 55.596 42.1087 55.596 42.1864 55.596C42.2642 55.596 42.2641 55.596 42.3419 55.5183L43.0415 54.8186C43.1193 54.7409 43.1193 54.5854 43.0415 54.5077Z" fill="#E0BA00"/>
<path d="M47.1615 54.5077C47.0838 54.4299 46.9283 54.4299 46.8506 54.5077L46.1509 55.2073C46.0732 55.285 46.0732 55.4405 46.1509 55.5183C46.2287 55.596 46.2287 55.596 46.3064 55.596C46.3842 55.596 46.3842 55.596 46.4619 55.5183L47.1615 54.8186C47.2392 54.7409 47.2392 54.5854 47.1615 54.5077Z" fill="#E0BA00"/>
<path d="M51.3593 54.5077C51.2816 54.4299 51.1261 54.4299 51.0484 54.5077L50.3488 55.2073C50.271 55.285 50.271 55.4405 50.3488 55.5183C50.4265 55.596 50.4265 55.596 50.5042 55.596C50.5819 55.596 50.5819 55.596 50.6597 55.5183L51.3593 54.8186C51.4371 54.7409 51.4371 54.5854 51.3593 54.5077Z" fill="#E0BA00"/>
<path d="M55.5569 54.5077C55.4792 54.4299 55.3237 54.4299 55.246 54.5077L54.5464 55.2073C54.4686 55.285 54.4686 55.4405 54.5464 55.5183C54.6241 55.596 54.6241 55.596 54.7018 55.596C54.7796 55.596 54.7796 55.596 54.8573 55.5183L55.5569 54.8186C55.6347 54.7409 55.6347 54.5854 55.5569 54.5077Z" fill="#E0BA00"/>
<path d="M59.755 54.5077C59.6772 54.4299 59.5217 54.4299 59.444 54.5077L58.7444 55.2073C58.6667 55.285 58.6667 55.4405 58.7444 55.5183C58.8221 55.596 58.8221 55.596 58.8999 55.596C58.9776 55.596 58.9776 55.596 59.0553 55.5183L59.755 54.8186C59.8327 54.7409 59.8327 54.5854 59.755 54.5077Z" fill="#E0BA00"/>
<path d="M63.9526 54.5077C63.8749 54.4299 63.7194 54.4299 63.6416 54.5077L62.942 55.2073C62.8643 55.285 62.8643 55.4405 62.942 55.5183C63.0197 55.596 63.0197 55.596 63.0975 55.596C63.1752 55.596 63.1752 55.596 63.253 55.5183L63.9526 54.8186C64.0303 54.7409 64.0303 54.5854 63.9526 54.5077Z" fill="#E0BA00"/>
<path d="M68.0725 54.5077C67.9948 54.4299 67.8393 54.4299 67.7616 54.5077L67.062 55.2073C66.9842 55.285 66.9842 55.4405 67.062 55.5183C67.1397 55.596 67.1397 55.596 67.2174 55.596C67.2952 55.596 67.2952 55.596 67.3729 55.5183L68.0725 54.8186C68.228 54.7409 68.228 54.5854 68.0725 54.5077Z" fill="#E0BA00"/>
<path d="M72.2704 54.5077C72.1926 54.4299 72.0372 54.4299 71.9595 54.5077L71.2598 55.2073C71.1821 55.285 71.1821 55.4405 71.2598 55.5183C71.3375 55.596 71.3375 55.596 71.4153 55.596C71.493 55.596 71.493 55.596 71.5708 55.5183L72.2704 54.8186C72.3481 54.7409 72.3481 54.5854 72.2704 54.5077Z" fill="#E0BA00"/>
<path d="M75.6907 55.596C75.7684 55.596 75.7684 55.596 75.8462 55.5183L76.5458 54.8186C76.6235 54.7409 76.6235 54.5854 76.5458 54.5077C76.468 54.4299 76.3126 54.4299 76.2349 54.5077L75.5352 55.2073C75.4575 55.285 75.4575 55.4405 75.5352 55.5183C75.5352 55.5183 75.613 55.596 75.6907 55.596Z" fill="#E0BA00"/>
<path d="M80.3551 54.5077L79.6554 55.2073C79.5777 55.285 79.5777 55.4405 79.6554 55.5183C79.7332 55.596 79.7332 55.596 79.8109 55.596C79.8887 55.596 79.8887 55.596 79.9664 55.5183L80.6661 54.8186C80.7438 54.7409 80.7438 54.5854 80.6661 54.5077C80.5883 54.4299 80.4328 54.4299 80.3551 54.5077Z" fill="#E0BA00"/>
<path d="M40.4762 57.073C40.3985 56.9953 40.243 56.9953 40.1653 57.073L39.4657 57.7726C39.3879 57.8503 39.3879 58.0058 39.4657 58.0836C39.5434 58.1613 39.5434 58.1613 39.6211 58.1613C39.6988 58.1613 39.6988 58.1613 39.7766 58.0836L40.4762 57.3839C40.554 57.2285 40.554 57.1507 40.4762 57.073Z" fill="#E0BA00"/>
<path d="M44.6738 57.073C44.5961 56.9953 44.4406 56.9953 44.3629 57.073L43.6632 57.7726C43.5855 57.8503 43.5855 58.0058 43.6632 58.0836C43.741 58.1613 43.741 58.1613 43.8187 58.1613C43.8965 58.1613 43.8965 58.1613 43.9742 58.0836L44.6738 57.3839C44.7515 57.2285 44.7515 57.1507 44.6738 57.073Z" fill="#E0BA00"/>
<path d="M48.8716 57.073C48.7939 56.9953 48.6384 56.9953 48.5607 57.073L47.8611 57.7726C47.7833 57.8503 47.7833 58.0058 47.8611 58.0836C47.9388 58.1613 47.9388 58.1613 48.0165 58.1613C48.0943 58.1613 48.0942 58.1613 48.172 58.0836L48.8716 57.3839C48.9494 57.2285 48.9494 57.1507 48.8716 57.073Z" fill="#E0BA00"/>
<path d="M53.0695 57.073C52.9918 56.9953 52.8363 56.9953 52.7585 57.073L52.0589 57.7726C51.9811 57.8503 51.9811 58.0058 52.0589 58.0836C52.1366 58.1613 52.1366 58.1613 52.2144 58.1613C52.2921 58.1613 52.2921 58.1613 52.3698 58.0836L53.0695 57.3839C53.1472 57.2285 53.1472 57.1507 53.0695 57.073Z" fill="#E0BA00"/>
<path d="M57.2673 57.073C57.1895 56.9953 57.0341 56.9953 56.9564 57.073L56.2567 57.7726C56.179 57.8503 56.179 58.0058 56.2567 58.0836C56.3344 58.1613 56.3345 58.1613 56.4122 58.1613C56.4899 58.1613 56.4899 58.1613 56.5677 58.0836L57.2673 57.3839C57.345 57.2285 57.345 57.1507 57.2673 57.073Z" fill="#E0BA00"/>
<path d="M61.3873 57.073C61.3095 56.9953 61.1541 56.9953 61.0763 57.073L60.3767 57.7726C60.299 57.8503 60.299 58.0058 60.3767 58.0836C60.4544 58.1613 60.4544 58.1613 60.5322 58.1613C60.6099 58.1613 60.6099 58.1613 60.6877 58.0836L61.3873 57.3839C61.465 57.2285 61.465 57.1507 61.3873 57.073Z" fill="#E0BA00"/>
<path d="M65.5851 57.073C65.5073 56.9953 65.3519 56.9953 65.2741 57.073L64.5745 57.7726C64.4968 57.8503 64.4968 58.0058 64.5745 58.0836C64.6523 58.1613 64.6523 58.1613 64.73 58.1613C64.8077 58.1613 64.8077 58.1613 64.8854 58.0836L65.5851 57.3839C65.6628 57.2285 65.6628 57.1507 65.5851 57.073Z" fill="#E0BA00"/>
<path d="M68.7723 58.0058C68.8501 58.0836 68.8501 58.0836 68.9278 58.0836C69.0056 58.0836 69.0056 58.0836 69.0833 58.0058L69.783 57.3062C69.8607 57.2285 69.8607 57.073 69.783 56.9952C69.7052 56.9175 69.5497 56.9175 69.472 56.9952L68.7723 57.6949C68.6946 57.7726 68.6946 57.9281 68.7723 58.0058Z" fill="#E0BA00"/>
<path d="M73.6698 57.073L72.9702 57.7726C72.8924 57.8504 72.8924 58.0058 72.9702 58.0836C73.0479 58.1613 73.0479 58.1613 73.1256 58.1613C73.2034 58.1613 73.2034 58.1613 73.2811 58.0836L73.9807 57.3839C74.0585 57.3062 74.0585 57.1507 73.9807 57.073C73.903 56.9175 73.7475 56.9175 73.6698 57.073Z" fill="#E0BA00"/>
<path d="M77.8673 57.073L77.1677 57.7726C77.09 57.8504 77.09 58.0058 77.1677 58.0836C77.2455 58.1613 77.2454 58.1613 77.3232 58.1613C77.4009 58.1613 77.4009 58.1613 77.4787 58.0836L78.1783 57.3839C78.256 57.3062 78.256 57.1507 78.1783 57.073C78.1006 56.9175 77.9451 56.9175 77.8673 57.073Z" fill="#E0BA00"/>
<path d="M38.8437 59.9492C38.8437 60.027 38.8437 60.1047 38.8437 60.1824C38.9214 60.1047 38.9214 60.027 38.8437 59.9492Z" fill="#E0BA00"/>
<path d="M43.0415 59.8715C42.9638 59.7938 42.8083 59.7938 42.7306 59.8715L42.031 60.5711C41.9532 60.6489 41.9532 60.8043 42.031 60.8821C42.1087 60.9598 42.1087 60.9598 42.1864 60.9598C42.2642 60.9598 42.2641 60.9598 42.3419 60.8821L43.0415 60.1825C43.1193 60.1047 43.1193 59.9492 43.0415 59.8715Z" fill="#E0BA00"/>
<path d="M47.1615 59.8715C47.0838 59.7938 46.9283 59.7938 46.8506 59.8715L46.1509 60.5711C46.0732 60.6489 46.0732 60.8043 46.1509 60.8821C46.2287 60.9598 46.2287 60.9598 46.3064 60.9598C46.3842 60.9598 46.3842 60.9598 46.4619 60.8821L47.1615 60.1825C47.2392 60.1047 47.2392 59.9492 47.1615 59.8715Z" fill="#E0BA00"/>
<path d="M51.3593 59.8715C51.2816 59.7938 51.1261 59.7938 51.0484 59.8715L50.3488 60.5711C50.271 60.6489 50.271 60.8043 50.3488 60.8821C50.4265 60.9598 50.4265 60.9598 50.5042 60.9598C50.5819 60.9598 50.5819 60.9598 50.6597 60.8821L51.3593 60.1825C51.4371 60.1047 51.4371 59.9492 51.3593 59.8715Z" fill="#E0BA00"/>
<path d="M55.5569 59.8715C55.4792 59.7938 55.3237 59.7938 55.246 59.8715L54.5464 60.5711C54.4686 60.6489 54.4686 60.8043 54.5464 60.8821C54.6241 60.9598 54.6241 60.9598 54.7018 60.9598C54.7796 60.9598 54.7796 60.9598 54.8573 60.8821L55.5569 60.1825C55.6347 60.1047 55.6347 59.9492 55.5569 59.8715Z" fill="#E0BA00"/>
<path d="M59.755 59.8715C59.6772 59.7938 59.5217 59.7938 59.444 59.8715L58.7444 60.5711C58.6667 60.6489 58.6667 60.8043 58.7444 60.8821C58.8221 60.9598 58.8221 60.9598 58.8999 60.9598C58.9776 60.9598 58.9776 60.9598 59.0553 60.8821L59.755 60.1825C59.8327 60.1047 59.8327 59.9492 59.755 59.8715Z" fill="#E0BA00"/>
<path d="M63.9526 59.8715C63.8749 59.7938 63.7194 59.7938 63.6416 59.8715L62.942 60.5711C62.8643 60.6489 62.8643 60.8043 62.942 60.8821C63.0197 60.9598 63.0197 60.9598 63.0975 60.9598C63.1752 60.9598 63.1752 60.9598 63.253 60.8821L63.9526 60.1825C64.0303 60.1047 64.0303 59.9492 63.9526 59.8715Z" fill="#E0BA00"/>
<path d="M68.0725 59.8715C67.9948 59.7938 67.8393 59.7938 67.7616 59.8715L67.062 60.5711C66.9842 60.6489 66.9842 60.8043 67.062 60.8821C67.1397 60.9598 67.1397 60.9598 67.2174 60.9598C67.2952 60.9598 67.2952 60.9598 67.3729 60.8821L68.0725 60.1825C68.228 60.1047 68.228 59.9492 68.0725 59.8715Z" fill="#E0BA00"/>
<path d="M72.2704 59.8715C72.1926 59.7938 72.0372 59.7938 71.9594 59.8715L71.8817 59.9492L72.0372 60.4157L72.2704 60.1825C72.3481 60.1047 72.3481 59.9492 72.2704 59.8715Z" fill="#E0BA00"/>
<path d="M40.4762 62.3591C40.3985 62.2813 40.243 62.2813 40.1653 62.3591L39.4657 63.0587C39.3879 63.1364 39.3879 63.2919 39.4657 63.3696C39.5434 63.4474 39.5434 63.4474 39.6211 63.4474C39.6988 63.4474 39.6988 63.4474 39.7766 63.3696L40.4762 62.67C40.554 62.5923 40.554 62.5146 40.4762 62.3591Z" fill="#E0BA00"/>
<path d="M44.6738 62.3591C44.5961 62.2813 44.4406 62.2813 44.3629 62.3591L43.6632 63.0587C43.5855 63.1364 43.5855 63.2919 43.6632 63.3696C43.741 63.4474 43.741 63.4474 43.8187 63.4474C43.8965 63.4474 43.8965 63.4474 43.9742 63.3696L44.6738 62.67C44.7515 62.5923 44.7515 62.5146 44.6738 62.3591Z" fill="#E0BA00"/>
<path d="M48.8716 62.3591C48.7939 62.2813 48.6384 62.2813 48.5607 62.3591L47.8611 63.0587C47.7833 63.1364 47.7833 63.2919 47.8611 63.3696C47.9388 63.4474 47.9388 63.4474 48.0165 63.4474C48.0943 63.4474 48.0942 63.4474 48.172 63.3696L48.8716 62.67C48.9494 62.5923 48.9494 62.5146 48.8716 62.3591Z" fill="#E0BA00"/>
<path d="M53.0695 62.3591C52.9918 62.2813 52.8363 62.2813 52.7585 62.3591L52.0589 63.0587C51.9811 63.1364 51.9811 63.2919 52.0589 63.3696C52.1366 63.4474 52.1366 63.4474 52.2144 63.4474C52.2921 63.4474 52.2921 63.4474 52.3698 63.3696L53.0695 62.67C53.1472 62.5923 53.1472 62.5146 53.0695 62.3591Z" fill="#E0BA00"/>
<path d="M57.2673 62.3591C57.1895 62.2813 57.0341 62.2813 56.9564 62.3591L56.2567 63.0587C56.179 63.1364 56.179 63.2919 56.2567 63.3696C56.3344 63.4474 56.3345 63.4474 56.4122 63.4474C56.4899 63.4474 56.4899 63.4474 56.5677 63.3696L57.2673 62.67C57.345 62.5923 57.345 62.5146 57.2673 62.3591Z" fill="#E0BA00"/>
<path d="M61.3873 62.3591C61.3095 62.2813 61.1541 62.2813 61.0763 62.3591L60.3767 63.0587C60.299 63.1364 60.299 63.2919 60.3767 63.3696C60.4544 63.4474 60.4544 63.4474 60.5322 63.4474C60.6099 63.4474 60.6099 63.4474 60.6877 63.3696L61.3873 62.67C61.465 62.5923 61.465 62.5146 61.3873 62.3591Z" fill="#E0BA00"/>
<path d="M65.5851 62.3591C65.5073 62.2813 65.3519 62.2813 65.2741 62.3591L64.5745 63.0587C64.4968 63.1364 64.4968 63.2919 64.5745 63.3696C64.6523 63.4474 64.6523 63.4474 64.73 63.4474C64.8077 63.4474 64.8077 63.4474 64.8854 63.3696L65.5851 62.67C65.6628 62.5923 65.6628 62.5146 65.5851 62.3591Z" fill="#E0BA00"/>
<path d="M68.7723 63.3696C68.8501 63.4474 68.8501 63.4474 68.9278 63.4474C69.0056 63.4474 69.0056 63.4474 69.0833 63.3696L69.783 62.67C69.8607 62.5923 69.8607 62.4368 69.783 62.3591C69.7052 62.2813 69.5497 62.2813 69.472 62.3591L68.7723 63.0587C68.6946 63.1364 68.6946 63.2919 68.7723 63.3696Z" fill="#E0BA00"/>
<path d="M38.8437 65.3131C38.8437 65.3908 38.8437 65.4685 38.8437 65.5463C38.9214 65.4685 38.9214 65.3908 38.8437 65.3131Z" fill="#E0BA00"/>
<path d="M43.0415 65.2353C42.9638 65.1576 42.8083 65.1576 42.7306 65.2353L42.031 65.935C41.9532 66.0127 41.9532 66.1682 42.031 66.2459C42.1087 66.3236 42.1087 66.3236 42.1864 66.3236C42.2642 66.3236 42.2641 66.3236 42.3419 66.2459L43.0415 65.5463C43.1193 65.4685 43.1193 65.3131 43.0415 65.2353Z" fill="#E0BA00"/>
<path d="M47.1615 65.2353C47.0838 65.1576 46.9283 65.1576 46.8506 65.2353L46.1509 65.935C46.0732 66.0127 46.0732 66.1682 46.1509 66.2459C46.2287 66.3236 46.2287 66.3236 46.3064 66.3236C46.3842 66.3236 46.3842 66.3236 46.4619 66.2459L47.1615 65.5463C47.2392 65.4685 47.2392 65.3131 47.1615 65.2353Z" fill="#E0BA00"/>
<path d="M51.3593 65.2353C51.2816 65.1576 51.1261 65.1576 51.0484 65.2353L50.3488 65.935C50.271 66.0127 50.271 66.1682 50.3488 66.2459C50.4265 66.3236 50.4265 66.3236 50.5042 66.3236C50.5819 66.3236 50.5819 66.3236 50.6597 66.2459L51.3593 65.5463C51.4371 65.4685 51.4371 65.3131 51.3593 65.2353Z" fill="#E0BA00"/>
<path d="M55.5569 65.2353C55.4792 65.1576 55.3237 65.1576 55.246 65.2353L54.5464 65.935C54.4686 66.0127 54.4686 66.1682 54.5464 66.2459C54.6241 66.3236 54.6241 66.3236 54.7018 66.3236C54.7796 66.3236 54.7796 66.3236 54.8573 66.2459L55.5569 65.5463C55.6347 65.4685 55.6347 65.3131 55.5569 65.2353Z" fill="#E0BA00"/>
<path d="M59.755 65.2353C59.6772 65.1576 59.5217 65.1576 59.444 65.2353L58.7444 65.935C58.6667 66.0127 58.6667 66.1682 58.7444 66.2459C58.8221 66.3236 58.8221 66.3236 58.8999 66.3236C58.9776 66.3236 58.9776 66.3236 59.0553 66.2459L59.755 65.5463C59.8327 65.4685 59.8327 65.3131 59.755 65.2353Z" fill="#E0BA00"/>
<path d="M63.9526 65.2353C63.8749 65.1576 63.7194 65.1576 63.6416 65.2353L62.942 65.935C62.8643 66.0127 62.8643 66.1682 62.942 66.2459C63.0197 66.3236 63.0197 66.3236 63.0975 66.3236C63.1752 66.3236 63.1752 66.3236 63.253 66.2459L63.9526 65.5463C64.0303 65.4685 64.0303 65.3131 63.9526 65.2353Z" fill="#E0BA00"/>
<path d="M68.0725 65.2353C67.9948 65.1576 67.8393 65.1576 67.7616 65.2353L67.062 65.935C66.9842 66.0127 66.9842 66.1682 67.062 66.2459C67.1397 66.3236 67.1397 66.3236 67.2174 66.3236C67.2952 66.3236 67.2952 66.3236 67.3729 66.2459L68.0725 65.5463C68.228 65.4685 68.228 65.3131 68.0725 65.2353Z" fill="#E0BA00"/>
<path d="M40.4762 67.7229C40.3985 67.6452 40.243 67.6452 40.1653 67.7229L39.4657 68.4225C39.3879 68.5003 39.3879 68.6557 39.4657 68.7335C39.5434 68.8112 39.5434 68.8112 39.6211 68.8112C39.6988 68.8112 39.6988 68.8112 39.7766 68.7335L40.4762 68.0338C40.554 67.9561 40.554 67.8006 40.4762 67.7229Z" fill="#E0BA00"/>
<path d="M44.6738 67.7229C44.5961 67.6452 44.4406 67.6452 44.3629 67.7229L43.6632 68.4225C43.5855 68.5003 43.5855 68.6557 43.6632 68.7335C43.741 68.8112 43.741 68.8112 43.8187 68.8112C43.8965 68.8112 43.8965 68.8112 43.9742 68.7335L44.6738 68.0338C44.7515 67.9561 44.7515 67.8006 44.6738 67.7229Z" fill="#E0BA00"/>
<path d="M48.8716 67.7229C48.7939 67.6452 48.6384 67.6452 48.5607 67.7229L47.8611 68.4225C47.7833 68.5003 47.7833 68.6557 47.8611 68.7335C47.9388 68.8112 47.9388 68.8112 48.0165 68.8112C48.0943 68.8112 48.0942 68.8112 48.172 68.7335L48.8716 68.0338C48.9494 67.9561 48.9494 67.8006 48.8716 67.7229Z" fill="#E0BA00"/>
<path d="M53.0695 67.7229C52.9918 67.6452 52.8363 67.6452 52.7585 67.7229L52.0589 68.4225C51.9811 68.5003 51.9811 68.6557 52.0589 68.7335C52.1366 68.8112 52.1366 68.8112 52.2144 68.8112C52.2921 68.8112 52.2921 68.8112 52.3698 68.7335L53.0695 68.0338C53.1472 67.9561 53.1472 67.8006 53.0695 67.7229Z" fill="#E0BA00"/>
<path d="M57.2673 67.7229C57.1895 67.6452 57.0341 67.6452 56.9564 67.7229L56.2567 68.4225C56.179 68.5003 56.179 68.6557 56.2567 68.7335C56.3344 68.8112 56.3345 68.8112 56.4122 68.8112C56.4899 68.8112 56.4899 68.8112 56.5677 68.7335L57.2673 68.0338C57.345 67.9561 57.345 67.8006 57.2673 67.7229Z" fill="#E0BA00"/>
<path d="M61.3873 67.7229C61.3095 67.6452 61.1541 67.6452 61.0763 67.7229L60.3767 68.4225C60.299 68.5003 60.299 68.6557 60.3767 68.7335C60.4544 68.8112 60.4544 68.8112 60.5322 68.8112C60.6099 68.8112 60.6099 68.8112 60.6877 68.7335L61.3873 68.0338C61.465 67.9561 61.465 67.8006 61.3873 67.7229Z" fill="#E0BA00"/>
<path d="M65.5851 67.7229C65.5073 67.6452 65.3519 67.6452 65.2741 67.7229L64.5745 68.4225C64.4968 68.5003 64.4968 68.6557 64.5745 68.7335C64.6523 68.8112 64.6523 68.8112 64.73 68.8112C64.8077 68.8112 64.8077 68.8112 64.8854 68.7335L65.5851 68.0338C65.6628 67.9561 65.6628 67.8006 65.5851 67.7229Z" fill="#E0BA00"/>
<path d="M68.7723 68.7335C68.8501 68.8112 68.8501 68.8112 68.9278 68.8112C69.0056 68.8112 69.0056 68.8112 69.0833 68.7335L69.783 68.0338C69.8607 67.9561 69.8607 67.8006 69.783 67.7229C69.7052 67.6452 69.5497 67.6452 69.472 67.7229L68.7723 68.4225C68.6946 68.5003 68.6946 68.6557 68.7723 68.7335Z" fill="#E0BA00"/>
<path d="M38.8438 70.5991C38.8438 70.5991 38.7661 70.5991 38.8438 70.5991C38.7661 70.6769 38.7661 70.8324 38.7661 70.9878L38.8438 70.9101C38.9215 70.8324 38.9215 70.6769 38.8438 70.5991Z" fill="#E0BA00"/>
<path d="M43.0415 70.5991C42.9638 70.5214 42.8083 70.5214 42.7306 70.5991L42.031 71.2988C41.9532 71.3765 41.9532 71.532 42.031 71.6097C42.1087 71.6875 42.1087 71.6875 42.1864 71.6875C42.2642 71.6875 42.2641 71.6875 42.3419 71.6097L43.0415 70.9101C43.1193 70.8324 43.1193 70.6769 43.0415 70.5991Z" fill="#E0BA00"/>
<path d="M47.1615 70.5991C47.0838 70.5214 46.9283 70.5214 46.8506 70.5991L46.1509 71.2988C46.0732 71.3765 46.0732 71.532 46.1509 71.6097C46.2287 71.6875 46.2287 71.6875 46.3064 71.6875C46.3842 71.6875 46.3842 71.6875 46.4619 71.6097L47.1615 70.9101C47.2392 70.8324 47.2392 70.6769 47.1615 70.5991Z" fill="#E0BA00"/>
<path d="M51.3593 70.5991C51.2816 70.5214 51.1261 70.5214 51.0484 70.5991L50.3488 71.2988C50.271 71.3765 50.271 71.532 50.3488 71.6097C50.4265 71.6875 50.4265 71.6875 50.5042 71.6875C50.5819 71.6875 50.5819 71.6875 50.6597 71.6097L51.3593 70.9101C51.4371 70.8324 51.4371 70.6769 51.3593 70.5991Z" fill="#E0BA00"/>
<path d="M55.5569 70.5991C55.4792 70.5214 55.3237 70.5214 55.246 70.5991L54.5464 71.2988C54.4686 71.3765 54.4686 71.532 54.5464 71.6097C54.6241 71.6875 54.6241 71.6875 54.7018 71.6875C54.7796 71.6875 54.7796 71.6875 54.8573 71.6097L55.5569 70.9101C55.6347 70.8324 55.6347 70.6769 55.5569 70.5991Z" fill="#E0BA00"/>
<path d="M59.755 70.5991C59.6772 70.5214 59.5217 70.5214 59.444 70.5991L58.7444 71.2988C58.6667 71.3765 58.6667 71.532 58.7444 71.6097C58.8221 71.6875 58.8221 71.6875 58.8999 71.6875C58.9776 71.6875 58.9776 71.6875 59.0553 71.6097L59.755 70.9101C59.8327 70.8324 59.8327 70.6769 59.755 70.5991Z" fill="#E0BA00"/>
<path d="M63.9526 70.5991C63.8749 70.5214 63.7194 70.5214 63.6416 70.5991L62.942 71.2988C62.8643 71.3765 62.8643 71.532 62.942 71.6097C63.0197 71.6875 63.0197 71.6875 63.0975 71.6875C63.1752 71.6875 63.1752 71.6875 63.253 71.6097L63.9526 70.9101C64.0303 70.8324 64.0303 70.6769 63.9526 70.5991Z" fill="#E0BA00"/>
<path d="M68.0725 70.5991C67.9948 70.5214 67.8393 70.5214 67.7616 70.5991L67.062 71.2988C66.9842 71.3765 66.9842 71.532 67.062 71.6097C67.1397 71.6875 67.1397 71.6875 67.2174 71.6875C67.2952 71.6875 67.2952 71.6875 67.3729 71.6097L68.0725 70.9101C68.228 70.8324 68.228 70.6769 68.0725 70.5991Z" fill="#E0BA00"/>
<path d="M40.4762 73.0867C40.3985 73.009 40.243 73.009 40.1653 73.0867L39.4657 73.7864C39.3879 73.8641 39.3879 74.0196 39.4657 74.0973C39.5434 74.175 39.5434 74.175 39.6211 74.175C39.6988 74.175 39.6988 74.175 39.7766 74.0973L40.4762 73.3977C40.554 73.3199 40.554 73.1645 40.4762 73.0867Z" fill="#E0BA00"/>
<path d="M44.6738 73.0867C44.5961 73.009 44.4406 73.009 44.3629 73.0867L43.6632 73.7864C43.5855 73.8641 43.5855 74.0196 43.6632 74.0973C43.741 74.175 43.741 74.175 43.8187 74.175C43.8965 74.175 43.8965 74.175 43.9742 74.0973L44.6738 73.3977C44.7515 73.3199 44.7515 73.1645 44.6738 73.0867Z" fill="#E0BA00"/>
<path d="M48.8716 73.0867C48.7939 73.009 48.6384 73.009 48.5607 73.0867L47.8611 73.7864C47.7833 73.8641 47.7833 74.0196 47.8611 74.0973C47.9388 74.175 47.9388 74.175 48.0165 74.175C48.0943 74.175 48.0942 74.175 48.172 74.0973L48.8716 73.3977C48.9494 73.3199 48.9494 73.1645 48.8716 73.0867Z" fill="#E0BA00"/>
<path d="M53.0695 73.0867C52.9918 73.009 52.8363 73.009 52.7585 73.0867L52.0589 73.7864C51.9811 73.8641 51.9811 74.0196 52.0589 74.0973C52.1366 74.175 52.1366 74.175 52.2144 74.175C52.2921 74.175 52.2921 74.175 52.3698 74.0973L53.0695 73.3977C53.1472 73.3199 53.1472 73.1645 53.0695 73.0867Z" fill="#E0BA00"/>
<path d="M57.2673 73.0867C57.1895 73.009 57.0341 73.009 56.9564 73.0867L56.2567 73.7864C56.179 73.8641 56.179 74.0196 56.2567 74.0973C56.3344 74.175 56.3345 74.175 56.4122 74.175C56.4899 74.175 56.4899 74.175 56.5677 74.0973L57.2673 73.3977C57.345 73.3199 57.345 73.1645 57.2673 73.0867Z" fill="#E0BA00"/>
<path d="M61.3873 73.0867C61.3095 73.009 61.1541 73.009 61.0763 73.0867L60.3767 73.7864C60.299 73.8641 60.299 74.0196 60.3767 74.0973C60.4544 74.175 60.4544 74.175 60.5322 74.175C60.6099 74.175 60.6099 74.175 60.6877 74.0973L61.3873 73.3977C61.465 73.3199 61.465 73.1645 61.3873 73.0867Z" fill="#E0BA00"/>
<path d="M65.5851 73.0867C65.5073 73.009 65.3519 73.009 65.2741 73.0867L64.5745 73.7864C64.4968 73.8641 64.4968 74.0196 64.5745 74.0973C64.6523 74.175 64.6523 74.175 64.73 74.175C64.8077 74.175 64.8077 74.175 64.8854 74.0973L65.5851 73.3977C65.6628 73.3199 65.6628 73.1645 65.5851 73.0867Z" fill="#E0BA00"/>
<path d="M68.7723 74.0973C68.8501 74.175 68.8501 74.175 68.9278 74.175C69.0056 74.175 69.0056 74.175 69.0833 74.0973L69.783 73.3977C69.8607 73.3199 69.8607 73.1645 69.783 73.0867C69.7052 73.009 69.5497 73.009 69.472 73.0867L68.7723 73.7864C68.6946 73.8641 68.6946 74.0196 68.7723 74.0973Z" fill="#E0BA00"/>
<path d="M38.8437 75.963C38.766 75.8852 38.6882 75.8852 38.5328 75.963C38.5328 76.1962 38.5327 76.3517 38.455 76.5849L38.766 76.2739C38.9214 76.1962 38.9214 76.0407 38.8437 75.963Z" fill="#E0BA00"/>
<path d="M42.7306 75.963L42.031 76.6626C41.9532 76.7403 41.9532 76.8958 42.031 76.9735C42.1087 77.0513 42.1087 77.0513 42.1864 77.0513C42.2642 77.0513 42.2641 77.0513 42.3419 76.9735L43.0415 76.2739C43.1193 76.1962 43.1193 76.0407 43.0415 75.963C42.9638 75.8852 42.8083 75.8852 42.7306 75.963Z" fill="#E0BA00"/>
<path d="M47.1615 75.963C47.0838 75.8852 46.9283 75.8852 46.8506 75.963L46.1509 76.6626C46.0732 76.7403 46.0732 76.8958 46.1509 76.9735C46.2287 77.0513 46.2287 77.0513 46.3064 77.0513C46.3842 77.0513 46.3842 77.0513 46.4619 76.9735L47.1615 76.2739C47.2392 76.1962 47.2392 76.0407 47.1615 75.963Z" fill="#E0BA00"/>
<path d="M51.0484 75.963L50.3488 76.6626C50.271 76.7403 50.271 76.8958 50.3488 76.9735C50.4265 77.0513 50.4265 77.0513 50.5042 77.0513C50.5819 77.0513 50.5819 77.0513 50.6597 76.9735L51.3593 76.2739C51.4371 76.1962 51.4371 76.0407 51.3593 75.963C51.2816 75.8852 51.1261 75.8852 51.0484 75.963Z" fill="#E0BA00"/>
<path d="M55.5569 75.963C55.4792 75.8852 55.3237 75.8852 55.246 75.963L54.5464 76.6626C54.4686 76.7403 54.4686 76.8958 54.5464 76.9735C54.6241 77.0513 54.6241 77.0513 54.7018 77.0513C54.7796 77.0513 54.7796 77.0513 54.8573 76.9735L55.5569 76.2739C55.6347 76.1962 55.6347 76.0407 55.5569 75.963Z" fill="#E0BA00"/>
<path d="M59.444 75.963L58.7444 76.6626C58.6667 76.7403 58.6667 76.8958 58.7444 76.9735C58.8221 77.0513 58.8221 77.0513 58.8999 77.0513C58.9776 77.0513 58.9776 77.0513 59.0553 76.9735L59.755 76.2739C59.8327 76.1962 59.8327 76.0407 59.755 75.963C59.6772 75.8852 59.5217 75.8852 59.444 75.963Z" fill="#E0BA00"/>
<path d="M63.6416 75.963L62.942 76.6626C62.8643 76.7403 62.8643 76.8958 62.942 76.9735C63.0197 77.0513 63.0197 77.0513 63.0975 77.0513C63.1752 77.0513 63.1752 77.0513 63.253 76.9735L63.9526 76.2739C64.0303 76.1962 64.0303 76.0407 63.9526 75.963C63.8749 75.8852 63.7194 75.8852 63.6416 75.963Z" fill="#E0BA00"/>
<path d="M67.8395 75.963L67.1398 76.6626C67.0621 76.7403 67.0621 76.8958 67.1398 76.9735C67.2176 77.0513 67.2176 77.0513 67.2953 77.0513C67.373 77.0513 67.373 77.0513 67.4508 76.9735L68.1504 76.2739C68.2281 76.1962 68.2281 76.0407 68.1504 75.963C67.9949 75.8852 67.9172 75.8852 67.8395 75.963Z" fill="#E0BA00"/>
<path d="M40.1653 78.4505L39.4657 79.1502C39.3879 79.2279 39.3879 79.3834 39.4657 79.4611C39.5434 79.5389 39.5434 79.5389 39.6211 79.5389C39.6988 79.5389 39.6988 79.5389 39.7766 79.4611L40.4762 78.7615C40.554 78.6837 40.554 78.5283 40.4762 78.4505C40.3985 78.3728 40.243 78.3728 40.1653 78.4505Z" fill="#E0BA00"/>
<path d="M44.3629 78.4505L43.6632 79.1502C43.5855 79.2279 43.5855 79.3834 43.6632 79.4611C43.741 79.5389 43.741 79.5389 43.8187 79.5389C43.8965 79.5389 43.8965 79.5389 43.9742 79.4611L44.6738 78.7615C44.7515 78.6837 44.7515 78.5283 44.6738 78.4505C44.5961 78.3728 44.4406 78.3728 44.3629 78.4505Z" fill="#E0BA00"/>
<path d="M48.8716 78.4505C48.7939 78.3728 48.6384 78.3728 48.5607 78.4505L47.8611 79.1502C47.7833 79.2279 47.7833 79.3834 47.8611 79.4611C47.9388 79.5389 47.9388 79.5389 48.0165 79.5389C48.0943 79.5389 48.0942 79.5389 48.172 79.4611L48.8716 78.7615C48.9494 78.6837 48.9494 78.5283 48.8716 78.4505Z" fill="#E0BA00"/>
<path d="M52.7585 78.4505L52.0589 79.1502C51.9811 79.2279 51.9811 79.3834 52.0589 79.4611C52.1366 79.5389 52.1366 79.5389 52.2144 79.5389C52.2921 79.5389 52.2921 79.5389 52.3698 79.4611L53.0695 78.7615C53.1472 78.6837 53.1472 78.5283 53.0695 78.4505C52.9918 78.3728 52.8363 78.3728 52.7585 78.4505Z" fill="#E0BA00"/>
<path d="M57.2673 78.4505C57.1895 78.3728 57.0341 78.3728 56.9564 78.4505L56.2567 79.1502C56.179 79.2279 56.179 79.3834 56.2567 79.4611C56.3344 79.5389 56.3345 79.5389 56.4122 79.5389C56.4899 79.5389 56.4899 79.5389 56.5677 79.4611L57.2673 78.7615C57.345 78.6837 57.345 78.5283 57.2673 78.4505Z" fill="#E0BA00"/>
<path d="M61.0763 78.4505L60.3767 79.1502C60.299 79.2279 60.299 79.3834 60.3767 79.4611C60.4544 79.5389 60.4544 79.5389 60.5322 79.5389C60.6099 79.5389 60.6099 79.5389 60.6877 79.4611L61.3873 78.7615C61.465 78.6837 61.465 78.5283 61.3873 78.4505C61.3095 78.3728 61.2318 78.3728 61.0763 78.4505Z" fill="#E0BA00"/>
<path d="M65.2741 78.4505L64.5745 79.1502C64.4968 79.2279 64.4968 79.3834 64.5745 79.4611C64.6523 79.5389 64.6523 79.5389 64.73 79.5389C64.8077 79.5389 64.8077 79.5389 64.8854 79.4611L65.5851 78.7615C65.6628 78.6837 65.6628 78.5283 65.5851 78.4505C65.5073 78.3728 65.3519 78.3728 65.2741 78.4505Z" fill="#E0BA00"/>
<path d="M68.7723 79.4611C68.7723 79.4611 68.8501 79.4611 68.8501 79.5388C68.9278 79.3056 68.9278 79.1502 69.0056 78.917L68.7723 79.1502C68.6946 79.2279 68.6946 79.3834 68.7723 79.4611Z" fill="#E0BA00"/>
<path d="M38.8437 81.3268C38.766 81.2491 38.6105 81.2491 38.5328 81.3268L38.455 81.4045L38.8437 81.56C38.9214 81.4823 38.9214 81.4045 38.8437 81.3268Z" fill="#E0BA00"/>
<path d="M42.1864 82.3374C42.2642 82.3374 42.2641 82.3374 42.3419 82.2596L43.0415 81.56C43.1193 81.4823 43.1193 81.3268 43.0415 81.2491C42.9638 81.1713 42.8083 81.1713 42.7306 81.2491L42.031 81.9487C41.9532 82.0264 41.9532 82.1819 42.031 82.2596C42.1087 82.3374 42.1087 82.3374 42.1864 82.3374Z" fill="#E0BA00"/>
<path d="M46.9282 81.3268L46.2285 82.0264C46.1508 82.1042 46.1508 82.2596 46.2285 82.3374C46.3063 82.4151 46.3063 82.4151 46.384 82.4151C46.4618 82.4151 46.4618 82.4151 46.5395 82.3374L47.2392 81.6377C47.3169 81.56 47.3169 81.4045 47.2392 81.3268C47.0837 81.2491 47.0059 81.2491 46.9282 81.3268Z" fill="#E0BA00"/>
<path d="M50.4266 81.9487C50.3489 82.0264 50.3489 82.1819 50.4266 82.2596C50.4266 82.3374 50.5043 82.3374 50.5821 82.3374L50.8153 81.6377L50.4266 81.9487Z" fill="#E0BA00"/>
<path d="M55.246 81.3268L54.5464 82.0264C54.4686 82.1042 54.4686 82.2596 54.5464 82.3374C54.6241 82.4151 54.6241 82.4151 54.7018 82.4151C54.7796 82.4151 54.7796 82.4151 54.8573 82.3374L55.5569 81.6377C55.6347 81.56 55.6347 81.4045 55.5569 81.3268C55.4792 81.2491 55.3237 81.2491 55.246 81.3268Z" fill="#E0BA00"/>
<path d="M58.8999 82.3374C58.9776 82.3374 58.9776 82.3374 59.0553 82.2596L59.755 81.56C59.8327 81.4823 59.8327 81.3268 59.755 81.2491C59.6772 81.1713 59.5217 81.1713 59.444 81.2491L58.7444 81.9487C58.6667 82.0264 58.6667 82.1819 58.7444 82.2596C58.8221 82.3374 58.8999 82.3374 58.8999 82.3374Z" fill="#E0BA00"/>
<path d="M63.0975 82.3374C63.1752 82.3374 63.1752 82.3374 63.253 82.2596L63.9526 81.56C64.0303 81.4823 64.0303 81.3268 63.9526 81.2491C63.8749 81.1713 63.7194 81.1713 63.6416 81.2491L62.942 81.9487C62.8643 82.0264 62.8643 82.1819 62.942 82.2596C63.0197 82.3374 63.0197 82.3374 63.0975 82.3374Z" fill="#E0BA00"/>
<path d="M68.0725 81.3268C67.9948 81.2491 67.8393 81.2491 67.7616 81.3268L67.062 82.0264C66.9842 82.1042 66.9842 82.2596 67.062 82.3374C67.2175 82.2596 67.3729 82.1819 67.5284 82.1042L67.9948 81.6377C68.228 81.4823 68.228 81.4045 68.0725 81.3268Z" fill="#E0BA00"/>
<path d="M44.6739 84.1253C44.7517 84.0476 44.7517 83.8921 44.6739 83.8144C44.5962 83.7366 44.4407 83.7366 44.363 83.8144L44.2075 83.9698L44.6739 84.1253Z" fill="#E0BA00"/>
<path d="M48.5607 83.8144L47.8611 84.514C47.7833 84.5917 47.7833 84.7472 47.8611 84.8249C47.9388 84.9027 47.9388 84.9027 48.0165 84.9027C48.0943 84.9027 48.0942 84.9027 48.172 84.8249L48.8716 84.1253C48.9494 84.0476 48.9494 83.8921 48.8716 83.8144C48.7939 83.7366 48.6384 83.7366 48.5607 83.8144Z" fill="#E0BA00"/>
<path d="M53.0695 84.1253C53.1472 84.0476 53.1472 83.8921 53.0695 83.8144C52.9918 83.7366 52.8363 83.7366 52.7585 83.8144L52.0589 84.514C51.9811 84.5917 51.9811 84.7472 52.0589 84.8249C52.1366 84.9027 52.1366 84.9027 52.2144 84.9027C52.2921 84.9027 52.2921 84.9027 52.3698 84.8249L53.0695 84.1253Z" fill="#E0BA00"/>
<path d="M56.9564 83.8144L56.2567 84.514C56.179 84.5917 56.179 84.7472 56.2567 84.8249C56.3344 84.9027 56.3345 84.9027 56.4122 84.9027C56.4899 84.9027 56.4899 84.9027 56.5677 84.8249L57.2673 84.1253C57.345 84.0476 57.345 83.8921 57.2673 83.8144C57.1895 83.7366 57.0341 83.7366 56.9564 83.8144Z" fill="#E0BA00"/>
<path d="M61.3873 84.1253C61.4651 84.0476 61.4651 83.8921 61.3873 83.8144C61.3096 83.7366 61.1542 83.7366 61.0764 83.8144L60.3768 84.514C60.3768 84.514 60.299 84.5917 60.299 84.6695C60.5323 84.5917 60.7654 84.514 60.9986 84.4363L61.3873 84.1253Z" fill="#E0BA00"/>
<path d="M81.9874 54.5854L72.7368 59.716L76.5459 68.578L68.3058 78.606L69.6273 83.1925C69.6273 83.1925 85.0969 74.0196 86.5739 69.2776C88.1286 64.5357 81.9874 54.5854 81.9874 54.5854Z" fill="#FFCFC5"/>
<path d="M70.0939 80.7049C70.0939 80.7049 69.0055 75.7298 67.3731 76.2739C67.3731 76.2739 58.0447 78.1396 66.9844 77.6732C66.9844 77.6732 57.8115 80.5494 67.2176 79.1502C67.2176 79.1502 59.7549 83.5034 67.8395 80.083C67.8395 80.083 67.6063 83.7366 69.3943 83.2702C71.1822 82.7261 70.0939 80.7049 70.0939 80.7049Z" fill="#FFCFC5"/>
<path d="M82.1427 50.7763L71.2596 58.3168L72.4256 61.193L84.3193 54.8186L82.1427 50.7763Z" fill="#E8BB00"/>
</svg>
