<svg width="98" height="172" viewBox="0 0 98 172" fill="none" xmlns="http://www.w3.org/2000/svg">
<path d="M13.6419 11.9968C0.831237 14.36 -2.97734 27.5267 2.30273 40.8059C8.96774 57.6862 14.0747 69.2774 11.2183 89.1962C9.4871 101.35 3.77424 111.028 8.62152 124.195C11.0452 130.722 15.5462 135.448 20.3935 138.037C28.53 142.425 38.3111 143.326 46.4476 139.95C60.1238 134.323 68.0007 117.893 80.0323 108.89C85.7452 104.614 92.2371 104.951 95.9591 96.6235C100.72 86.0452 95.9591 72.766 93.7086 62.1876C91.0253 49.2461 91.9774 35.6293 88.9479 22.8002C87.2167 15.5979 83.8409 8.62073 78.9071 5.6948C73.2807 2.31874 66.962 4.56945 61.2491 7.38283C53.4588 11.209 46.6207 11.7717 38.4842 12.5595C30.5208 13.3472 21.6053 10.5338 13.6419 11.9968Z" fill="#F4F8FF"/>
<path d="M62.7376 171.173C81.3704 171.173 96.4753 169.119 96.4753 166.586C96.4753 164.053 81.3704 162 62.7376 162C44.1048 162 29 164.053 29 166.586C29 169.119 44.1048 171.173 62.7376 171.173Z" fill="white" fill-opacity="0.15"/>
<path d="M34.7573 165.055L52.3884 164.268L52.4671 166H34.7573V165.055Z" fill="white"/>
<path d="M45.3045 152.698L46.8787 160.333L51.9949 162.773L51.0504 154.036C49.1613 153.721 47.1936 153.249 45.3045 152.698Z" fill="#F2AEA0"/>
<path d="M46.8 158.995L52.3884 160.412V164.662L34.7573 165.055C34.7573 165.055 35.1509 163.245 46.8 158.995Z" fill="white"/>
<path d="M39.8736 162.615C40.3458 163.245 40.6607 164.111 40.5819 164.898L52.3885 164.583V160.333L46.8001 158.916C43.4942 160.175 41.0542 161.199 39.3226 161.986C39.5587 162.222 39.7161 162.379 39.8736 162.615Z" fill="#1C2A33"/>
<path d="M45.9342 160.726C45.9342 160.726 44.1238 158.05 45.9342 157.893C46.8 157.814 50.2632 158.129 48.689 160.726C47.1935 163.324 45.9342 160.726 45.9342 160.726Z" fill="#1C2A33"/>
<path d="M52.4671 164.977L52.3884 164.583L38.8503 164.898L34.7573 165.055V165.37L52.4671 164.977Z" fill="#1C2A33"/>
<path d="M44.9897 159.782C45.6194 160.254 46.1704 160.963 46.7213 161.514C46.9575 161.75 47.2723 161.356 47.0362 161.199C46.4065 160.569 45.9342 159.861 45.2258 159.388C44.9897 159.231 44.6749 159.624 44.9897 159.782Z" fill="white"/>
<path d="M43.8875 160.018C44.4385 160.569 44.832 161.356 45.3043 161.986C45.4617 162.222 45.934 161.986 45.6978 161.75C45.2256 161.041 44.7533 160.254 44.2023 159.703C43.9662 159.388 43.6514 159.782 43.8875 160.018Z" fill="white"/>
<path d="M42.5499 160.49C43.1008 161.041 43.4944 161.828 43.9667 162.458C44.1241 162.694 44.5963 162.458 44.3602 162.222C43.8879 161.513 43.4157 160.726 42.8647 160.175C42.7073 159.861 42.3137 160.254 42.5499 160.49Z" fill="white"/>
<path d="M91.7433 165.055L74.1122 164.268L74.0334 166H91.7433V165.055Z" fill="white"/>
<path d="M78.2842 151.281L79.7009 158.916L75.8441 163.166L73.4828 154.666C75.1357 153.642 76.71 152.541 78.2842 151.281Z" fill="#F2AEA0"/>
<path d="M79.7008 158.995L74.1124 160.412V164.662L91.7435 165.055C91.7435 165.055 91.3499 163.245 79.7008 158.995Z" fill="white"/>
<path d="M86.6273 162.615C86.1551 163.245 85.8402 164.111 85.9189 164.898L74.1124 164.583V160.333L79.7008 158.916C83.0066 160.175 85.4467 161.199 87.1783 161.986C86.9422 162.222 86.7847 162.379 86.6273 162.615Z" fill="#1C2A33"/>
<path d="M80.5667 160.726C80.5667 160.726 82.377 158.05 80.5667 157.893C79.7009 157.814 76.2376 158.129 77.8119 160.726C79.3073 163.324 80.5667 160.726 80.5667 160.726Z" fill="#1C2A33"/>
<path d="M74.0334 164.977L91.7433 165.37V165.055L87.6503 164.898L74.0334 164.583V164.977Z" fill="#1C2A33"/>
<path d="M81.2747 159.388C80.5664 159.939 80.0154 160.569 79.4644 161.199C79.2283 161.435 79.6218 161.75 79.7793 161.514C80.3302 160.884 80.8812 160.254 81.5109 159.782C81.8257 159.624 81.5109 159.231 81.2747 159.388Z" fill="white"/>
<path d="M82.2981 159.624C81.6684 160.254 81.2749 160.963 80.8026 161.671C80.6452 161.907 81.0388 162.222 81.1962 161.907C81.6684 161.199 82.062 160.49 82.613 159.939C82.8491 159.782 82.5343 159.388 82.2981 159.624Z" fill="white"/>
<path d="M83.5576 160.097C82.9279 160.726 82.5344 161.435 82.0621 162.143C81.9047 162.379 82.2983 162.694 82.4557 162.379C82.9279 161.671 83.3215 160.963 83.8725 160.412C84.1873 160.254 83.7938 159.861 83.5576 160.097Z" fill="white"/>
<path d="M33.2617 72.3348C33.2617 72.3348 34.7572 124.598 45.7766 157.027L51.9947 156.24C51.9947 156.24 50.4205 93.9801 50.1844 89.5723L50.9715 89.3362L73.1678 156.791L79.7794 155.768C79.7794 155.768 70.8065 97.0498 61.9122 71.7838C59.9445 66.2741 33.2617 72.3348 33.2617 72.3348Z" fill="#2873FB"/>
<path d="M69.1535 46.0456L72.8529 63.2831L77.4181 81.78L78.52 86.1878C78.52 86.1878 80.0155 90.5169 79.3071 90.5956C78.5987 90.6743 77.5755 87.3685 77.5755 87.3685C77.5755 87.3685 78.2052 92.0124 77.4181 91.6975C76.7097 91.3827 76.3948 87.9982 76.3948 87.9982C76.3948 87.9982 77.1032 97.6008 74.978 88.4704C74.978 88.4704 76.3948 96.8137 73.4826 88.313C70.5703 79.8123 61.0463 62.1025 58.2915 47.0688C55.3792 32.0352 69.1535 46.0456 69.1535 46.0456Z" fill="#FFCFC5"/>
<path d="M76.5525 82.5671C76.5525 82.5671 85.3681 88.9427 78.1267 86.0304C70.8067 83.0394 76.5525 82.5671 76.5525 82.5671Z" fill="#FFCFC5"/>
<path d="M17.9134 48.1707C17.9134 48.1707 24.9973 36.8365 27.6734 35.7345C30.3496 34.5539 44.911 29.4377 65.3756 34.79C65.3756 34.79 69.2325 39.5913 71.5151 50.5321L62.5421 53.4443C62.5421 53.4443 62.3847 66.6676 63.7227 76.2703L52.231 81.4652L50.342 74.6961L49.3975 81.6226C49.3975 81.6226 37.6696 79.34 33.3406 76.8213C29.7199 67.5335 31.058 51.1617 31.058 51.1617L29.5625 54.074L17.9134 48.1707Z" fill="#FCD600"/>
<path d="M41.6049 32.1925L41.4475 23.377L50.4992 25.9744V32.5074C50.8927 32.6648 52.6244 33.1371 52.5457 33.6881C52.3882 34.4752 49.1611 34.9474 49.1611 34.9474L46.485 37.6236L44.1237 35.341C44.1237 35.341 38.1417 34.0029 38.8501 33.4519C39.4798 32.8222 40.4243 32.4287 41.6049 32.1925Z" fill="#FFC1AC"/>
<path d="M45.7769 5.74591C40.4246 7.32012 40.7395 11.0195 40.7395 11.0195C40.7395 11.0195 40.5033 13.2234 40.8182 16.6866C40.2672 16.057 39.4014 15.7421 38.5356 16.2144C36.7252 17.0802 37.3549 23.6919 41.2117 22.1964C41.4479 23.8493 42.235 25.7383 42.3924 26.2106C43.2582 27.8635 46.8789 30.1461 50.0273 30.3822C53.1757 30.6184 57.0325 28.257 57.1112 24.5577C57.2686 19.5202 55.2221 5.74591 55.2221 5.74591C55.2221 5.74591 54.7499 3.22719 45.7769 5.74591Z" fill="#FFCFC5"/>
<path d="M46.6264 17.0041C47.0173 16.9871 47.3081 16.3747 47.2759 15.6364C47.2437 14.8981 46.9008 14.3133 46.5099 14.3304C46.119 14.3474 45.8282 14.9597 45.8604 15.6981C45.8925 16.4364 46.2355 17.0211 46.6264 17.0041Z" fill="#172D3A"/>
<path d="M53.3142 16.8477C53.7051 16.8307 53.9959 16.2184 53.9638 15.4801C53.9317 14.7417 53.5888 14.157 53.198 14.174C52.8071 14.191 52.5162 14.8033 52.5483 15.5416C52.5804 16.2799 52.9233 16.8647 53.3142 16.8477Z" fill="#172D3A"/>
<path d="M43.494 7.55627C41.9985 7.63498 40.1095 9.05176 38.614 9.13047C38.9288 9.76015 38.9288 16.057 38.9288 16.057C40.4243 16.057 40.7392 17.2376 40.7392 17.2376L41.054 19.8351L42.5495 19.5989L42.3134 14.0105C43.2579 13.4595 43.5727 12.515 43.5727 12.515C43.5727 12.515 43.3366 8.50079 43.494 7.55627Z" fill="#FF9C62"/>
<path d="M51.3651 15.1124C51.9161 15.8208 52.3883 16.6079 52.7819 17.395C53.1754 18.1821 53.569 18.9692 53.8838 19.835L53.9625 20.1499L53.7264 20.3073C53.0967 20.7009 52.467 21.0157 51.7586 21.2518C52.2309 20.7009 52.7819 20.2286 53.3328 19.7563L53.2541 20.1499C52.8606 19.3628 52.467 18.5757 52.1522 17.7099C51.8373 16.8441 51.6012 16.057 51.3651 15.1124Z" fill="#C4817A"/>
<path d="M44.832 13.066C44.9894 12.515 45.3043 12.2002 45.6978 11.8853C46.0914 11.5705 46.5636 11.4131 47.1146 11.4131C48.1378 11.3344 49.2398 11.8853 49.5546 12.9086C49.0036 12.9086 48.6101 12.9086 48.2953 12.9086C47.9017 12.9086 47.5869 12.9086 47.272 12.9086C46.4849 12.9873 45.8552 13.066 44.832 13.066Z" fill="#FF9C62"/>
<path d="M52.0737 12.9872C52.0737 12.515 52.3098 12.0427 52.6246 11.7279C52.9395 11.413 53.4117 11.1769 53.9627 11.1769C54.5137 11.1769 54.9859 11.3343 55.3795 11.6492C55.773 11.964 55.9305 12.3576 56.0092 12.9085C55.5369 12.8298 55.1434 12.7511 54.8285 12.7511C54.5137 12.6724 54.2775 12.7511 54.0414 12.7511C53.5691 12.6724 53.0182 12.8298 52.0737 12.9872Z" fill="#FF9C62"/>
<path d="M42.9429 7.94981C42.9429 7.94981 49.5546 9.36659 55.0643 8.18594L52.3882 7.00528C52.3882 7.00528 55.8514 7.79239 59.4721 4.40785L55.7727 3.46332C55.7727 3.46332 57.3469 2.5188 57.8979 1.25944H54.4346L55.4579 7.45257e-05C55.4579 7.45257e-05 39.401 -0.0786381 38.0629 4.88011C36.8035 9.83885 38.9287 16.057 38.9287 16.057L42.9429 7.94981Z" fill="#FF9C62"/>
<path d="M40.8179 17.3163C40.8179 17.3163 39.5585 29.5164 46.3276 30.8545C53.0967 32.2713 58.6851 31.8777 57.1109 22.0389C57.1109 22.0389 57.347 24.5577 55.6941 24.9512C54.0412 25.3448 56.8748 21.2518 52.6244 21.2518C48.3741 21.2518 46.3276 21.0944 46.1702 24.1641C46.0915 26.2893 42.7069 26.1319 42.5495 19.7563C42.4708 13.3021 40.8179 17.3163 40.8179 17.3163Z" fill="#FF9C62"/>
<path d="M47.351 23.1409L54.4349 23.2983C54.4349 23.2983 50.342 27.4699 47.351 23.1409Z" fill="white"/>
<path d="M33.0256 75.9555C33.0256 75.9555 40.8179 80.1271 34.0488 75.1684C34.0488 75.1684 32.0811 73.2793 33.0256 75.9555Z" fill="#FFCFC5"/>
<path d="M37.6695 32.5861L42.3922 38.8042L44.1238 35.1836L39.716 30.6971L37.6695 32.5861Z" fill="#E8BB00"/>
<path d="M53.7264 32.901L51.4438 38.6468L49.1612 34.79L51.7586 31.5629L53.7264 32.901Z" fill="#E8BB00"/>
<path d="M62.1484 51.8701L62.5419 54.4676L71.9872 51.2404L71.3575 47.5411L62.1484 51.8701Z" fill="#E8BB00"/>
<path d="M43.8091 154.036L52.3098 154.115L52.5459 156.87L44.5962 157.893L43.8091 154.036Z" fill="#3F4B51"/>
<path d="M80.0944 152.462L71.8298 154.666L72.3808 157.421L80.3305 156.397L80.0944 152.462Z" fill="#3F4B51"/>
<path d="M19.2513 49.194L28.6179 54.3889L24.8398 63.3618L33.1043 73.5155L31.7663 78.1594C31.7663 78.1594 16.1029 68.8716 14.6074 64.0702C13.0332 59.2689 19.2513 49.194 19.2513 49.194Z" fill="#FFCFC5"/>
<path d="M31.2942 75.6406C31.2942 75.6406 32.3961 70.6031 34.049 71.1541C34.049 71.1541 43.4943 73.0432 34.4426 72.5709C34.4426 72.5709 43.7304 75.4832 34.2064 74.0664C34.2064 74.0664 41.7626 78.4742 33.5768 75.0109C33.5768 75.0109 33.8129 78.7103 32.0026 78.238C30.1922 77.6871 31.2942 75.6406 31.2942 75.6406Z" fill="#FFCFC5"/>
<path d="M19.0939 45.3372L30.1133 52.9721L28.9327 55.8844L16.89 49.4301L19.0939 45.3372Z" fill="#E8BB00"/>
<path d="M47.0362 39.3552C47.3405 39.3552 47.5872 39.1085 47.5872 38.8042C47.5872 38.4999 47.3405 38.2533 47.0362 38.2533C46.7319 38.2533 46.4853 38.4999 46.4853 38.8042C46.4853 39.1085 46.7319 39.3552 47.0362 39.3552Z" fill="#283942"/>
<path d="M48.3739 48.0133C48.6782 48.0133 48.9249 47.7667 48.9249 47.4624C48.9249 47.1581 48.6782 46.9114 48.3739 46.9114C48.0696 46.9114 47.823 47.1581 47.823 47.4624C47.823 47.7667 48.0696 48.0133 48.3739 48.0133Z" fill="#283942"/>
<path d="M49.1612 56.9863C49.4655 56.9863 49.7122 56.7396 49.7122 56.4353C49.7122 56.1311 49.4655 55.8844 49.1612 55.8844C48.8569 55.8844 48.6102 56.1311 48.6102 56.4353C48.6102 56.7396 48.8569 56.9863 49.1612 56.9863Z" fill="#283942"/>
<path d="M49.7121 65.4083C50.0164 65.4083 50.2631 65.1616 50.2631 64.8573C50.2631 64.553 50.0164 64.3063 49.7121 64.3063C49.4078 64.3063 49.1612 64.553 49.1612 64.8573C49.1612 65.1616 49.4078 65.4083 49.7121 65.4083Z" fill="#283942"/>
<path d="M50.4992 72.7284C50.8035 72.7284 51.0501 72.4817 51.0501 72.1774C51.0501 71.8731 50.8035 71.6264 50.4992 71.6264C50.1949 71.6264 49.9482 71.8731 49.9482 72.1774C49.9482 72.4817 50.1949 72.7284 50.4992 72.7284Z" fill="#283942"/>
<path d="M51.7586 46.3604L62.5419 46.203L62.1484 48.2494H51.916L51.7586 46.3604Z" fill="#E8BB00"/>
</svg>
