<svg width="22" height="22" viewBox="0 0 22 22" fill="none" xmlns="http://www.w3.org/2000/svg">
<path d="M13.6422 13.1447H14.3946C15.5391 13.1447 16.4703 12.2135 16.4703 11.0689C16.4703 9.92435 15.5391 8.99316 14.3946 8.99316H13.6422C12.4976 8.99316 11.5664 9.92435 11.5664 11.0689C11.5664 12.2135 12.4976 13.1447 13.6422 13.1447ZM13.6422 9.85187H14.3946C15.0656 9.85187 15.6116 10.3978 15.6116 11.0689C15.6116 11.74 15.0656 12.286 14.3946 12.286H13.6422C12.9711 12.286 12.4251 11.74 12.4251 11.0689C12.4251 10.3978 12.9711 9.85187 13.6422 9.85187Z" fill="white"/>
<path d="M7.63337 8.99316C6.4888 8.99316 5.55762 9.92435 5.55762 11.0689C5.55762 12.2135 6.4888 13.1447 7.63337 13.1447H8.38577C9.53035 13.1447 10.4615 12.2135 10.4615 11.0689C10.4615 9.92435 9.53035 8.99316 8.38577 8.99316H7.63337ZM9.60282 11.0689C9.60282 11.74 9.05685 12.286 8.38577 12.286H7.63337C6.96229 12.286 6.41633 11.74 6.41633 11.0689C6.41633 10.3978 6.96229 9.85187 7.63337 9.85187H8.38577C9.0569 9.85187 9.60282 10.3978 9.60282 11.0689Z" fill="white"/>
<path d="M11.0139 13.5278C10.4195 13.5278 9.90843 13.9317 9.77108 14.5099L9.61179 15.1801C9.53725 15.4937 9.60908 15.8187 9.80895 16.0716C10.0088 16.3245 10.3082 16.4696 10.6306 16.4696H11.3973C11.7196 16.4696 12.019 16.3245 12.2189 16.0716C12.4187 15.8187 12.4906 15.4938 12.4161 15.1801L12.2568 14.5099C12.1193 13.9317 11.6082 13.5278 11.0139 13.5278V13.5278ZM11.5451 15.5392C11.524 15.5659 11.4766 15.6108 11.3973 15.6108H10.6306C10.5511 15.6108 10.5039 15.5659 10.4827 15.5392C10.4616 15.5124 10.4288 15.456 10.4472 15.3787L10.6066 14.7085C10.6516 14.5189 10.8191 14.3865 11.0139 14.3865C11.2088 14.3865 11.3763 14.519 11.4214 14.7085L11.5806 15.3786C11.599 15.456 11.5662 15.5124 11.5451 15.5392Z" fill="white"/>
<path d="M18.8458 16.6243L17.9054 15.6839C18.5957 15.0837 19.0334 14.2001 19.0334 13.2157C19.0334 12.5593 18.8426 11.9339 18.4795 11.3945C18.8183 9.69293 18.5707 7.95473 17.7776 6.4273L18.8455 5.35941C19.1735 5.57242 19.5562 5.68662 19.9565 5.68662C20.5029 5.68662 21.0165 5.47388 21.4029 5.08755C22.2003 4.29002 22.2003 2.99234 21.4029 2.1949C21.1154 1.90741 20.7561 1.7157 20.3652 1.63683C20.2862 1.24594 20.0946 0.886573 19.8071 0.599078C19.4208 0.212745 18.9071 0 18.3608 0C17.8144 0 17.3007 0.212745 16.9144 0.599078C16.5281 0.985411 16.3153 1.49909 16.3153 2.04544C16.3153 2.44573 16.4295 2.82846 16.6425 3.15644L15.7991 3.99991C14.9981 3.35141 14.0687 2.86972 13.0574 2.59107C12.829 2.52808 12.5924 2.6623 12.5294 2.89093C12.4665 3.11952 12.6007 3.35592 12.8293 3.4189C16.2977 4.37456 18.3939 7.87865 17.6014 11.3964C17.5734 11.5205 17.602 11.6506 17.6792 11.7516C18.0034 12.1753 18.1747 12.6815 18.1747 13.2157C18.1747 14.546 17.0924 15.6283 15.7621 15.6283H15.2502C15.0131 15.6283 14.8208 15.8206 14.8208 16.0577V18.1759C14.8208 18.5232 14.5383 18.8057 14.191 18.8057C13.8438 18.8057 13.5613 18.5232 13.5613 18.1759C13.5613 17.9388 13.369 17.7466 13.1319 17.7466C12.8948 17.7466 12.7026 17.9388 12.7026 18.1759C12.7026 18.5232 12.42 18.8057 12.0727 18.8057C11.7255 18.8057 11.443 18.5232 11.443 18.1759C11.443 17.9388 11.2507 17.7466 11.0136 17.7466C10.7765 17.7466 10.5843 17.9388 10.5843 18.1759C10.5843 18.5232 10.3017 18.8057 9.95447 18.8057C9.60721 18.8057 9.3247 18.5232 9.3247 18.1759C9.3247 17.9388 9.13243 17.7466 8.89534 17.7466C8.65825 17.7466 8.46599 17.9388 8.46599 18.1759C8.46599 18.5232 8.18347 18.8057 7.83621 18.8057C7.48895 18.8057 7.20644 18.5232 7.20644 18.1759V16.0577C7.20644 15.8206 7.01417 15.6283 6.77708 15.6283H6.29457C4.96426 15.6283 3.88195 14.546 3.88195 13.2157C3.88195 12.6926 4.04652 12.1951 4.35793 11.7768C4.43307 11.6759 4.46016 11.547 4.43199 11.4243C3.61819 7.8802 5.7234 4.36061 9.2247 3.41161C9.45355 3.34961 9.58879 3.11376 9.52675 2.88487C9.46475 2.65603 9.22912 2.52078 9.00002 2.58282C7.9706 2.86182 7.02568 3.35055 6.21347 4.01141L5.35845 3.15644C5.57146 2.82846 5.68566 2.44573 5.68566 2.04544C5.68566 1.49909 5.47292 0.985454 5.08659 0.599078C4.7003 0.212745 4.18662 0 3.64022 0C3.09387 0 2.58023 0.212745 2.19385 0.599121C1.9064 0.886574 1.7147 1.24594 1.63582 1.63683C1.24494 1.7157 0.885527 1.90741 0.598117 2.19486C-0.199365 2.99234 -0.199365 4.29002 0.598074 5.08755C1.29148 5.78091 2.36293 5.87146 3.15518 5.35907L4.24063 6.44456C3.44894 7.97847 3.20666 9.72212 3.55426 11.4284C3.20619 11.96 3.0232 12.5738 3.0232 13.2157C3.0232 14.1859 3.44821 15.0584 4.12135 15.6581L3.15518 16.6243C2.36298 16.112 1.29144 16.2025 0.598074 16.8958C-0.199365 17.6933 -0.199365 18.991 0.598117 19.7885C0.885527 20.0759 1.2449 20.2677 1.63582 20.3465C1.71474 20.7374 1.9064 21.0968 2.19385 21.3843C2.58019 21.7706 3.09387 21.9834 3.64022 21.9834C4.18662 21.9834 4.70025 21.7706 5.08659 21.3843C5.77995 20.6909 5.87046 19.6194 5.35811 18.8272L6.34773 17.8376V18.1759C6.34773 18.9967 7.01546 19.6644 7.83621 19.6644C8.2502 19.6644 8.62528 19.4945 8.89534 19.2208C9.16541 19.4945 9.54049 19.6644 9.95447 19.6644C10.3685 19.6644 10.7435 19.4945 11.0136 19.2208C11.2837 19.4945 11.6588 19.6644 12.0727 19.6644C12.4868 19.6644 12.8618 19.4945 13.1319 19.2208C13.402 19.4945 13.7771 19.6644 14.191 19.6644C15.0118 19.6644 15.6795 18.9967 15.6795 18.1759V17.8639L16.6429 18.8272C16.1305 19.6193 16.221 20.6908 16.9144 21.3843C17.3007 21.7706 17.8144 21.9834 18.3608 21.9834C18.9071 21.9834 19.4207 21.7706 19.8071 21.3842C20.0946 21.0968 20.2862 20.7374 20.3652 20.3465C20.756 20.2677 21.1154 20.076 21.4029 19.7885C22.2003 18.991 22.2003 17.6933 21.4029 16.8958C20.7094 16.2025 19.638 16.112 18.8458 16.6243V16.6243ZM17.5216 3.49177C17.6892 3.3241 17.6892 3.05224 17.5216 2.88453C17.2974 2.66036 17.174 2.36239 17.174 2.0454C17.174 1.72841 17.2974 1.43039 17.5216 1.20627C17.7457 0.982105 18.0437 0.858665 18.3607 0.858665C18.6777 0.858665 18.9757 0.982105 19.1998 1.20623C19.4199 1.42631 19.5432 1.71913 19.547 2.03076C19.5498 2.26381 19.738 2.45204 19.971 2.45488C20.2828 2.4587 20.5756 2.58201 20.7956 2.80205C21.2583 3.26472 21.2583 4.01764 20.7956 4.48031C20.3329 4.94307 19.58 4.94298 19.1173 4.48031C18.9496 4.31269 18.6778 4.31269 18.5101 4.48031L17.3246 5.66584C17.0597 5.27346 16.7619 4.90984 16.4355 4.57782L17.5216 3.49177ZM2.88361 4.48035C2.65949 4.70452 2.36147 4.82796 2.04448 4.82796C1.72745 4.82796 1.42948 4.70452 1.20531 4.48035C0.742638 4.01768 0.742681 3.26477 1.20535 2.80205C1.42535 2.58205 1.71817 2.45874 2.02993 2.45492C2.26294 2.45208 2.45117 2.26386 2.45396 2.0308C2.45778 1.71918 2.58105 1.42636 2.80109 1.20631C3.02526 0.982148 3.32323 0.858708 3.64022 0.858708C3.95721 0.858708 4.25523 0.982148 4.47935 1.20631C4.94207 1.66899 4.94207 2.4219 4.47935 2.88457C4.31169 3.05224 4.31169 3.3241 4.47935 3.49181L5.57858 4.59104C5.25305 4.92388 4.9561 5.28836 4.69209 5.68164L3.49085 4.4804C3.32314 4.31273 3.05136 4.31273 2.88361 4.48035ZM4.47935 18.4916C4.31169 18.6593 4.31169 18.9311 4.47935 19.0988C4.70352 19.323 4.82695 19.621 4.82695 19.938C4.82695 20.255 4.70352 20.5529 4.47935 20.7771C4.25523 21.0013 3.95721 21.1247 3.64022 21.1247C3.32323 21.1247 3.02526 21.0013 2.80109 20.7771C2.58105 20.557 2.45778 20.2642 2.45396 19.9526C2.45117 19.7196 2.26294 19.5313 2.02993 19.5285C1.71817 19.5247 1.42535 19.4014 1.20535 19.1813C0.742681 18.7186 0.742638 17.9657 1.20531 17.5031C1.42948 17.2789 1.72745 17.1554 2.04448 17.1554C2.36147 17.1554 2.65945 17.2789 2.88361 17.5031C3.05132 17.6707 3.3231 17.6707 3.49085 17.5031L4.84606 16.1478C5.28301 16.3646 5.77463 16.4871 6.29457 16.4871H6.34773V16.6233L4.47935 18.4916ZM20.7956 19.1813C20.5756 19.4013 20.2828 19.5246 19.971 19.5284C19.738 19.5313 19.5498 19.7195 19.547 19.9526C19.5432 20.2642 19.4199 20.557 19.1998 20.7771C18.9757 21.0012 18.6777 21.1247 18.3607 21.1247C18.0437 21.1247 17.7457 21.0012 17.5216 20.7771C17.2974 20.5529 17.174 20.2549 17.174 19.9379C17.174 19.6209 17.2974 19.323 17.5216 19.0988C17.6892 18.9311 17.6892 18.6593 17.5216 18.4916L15.6795 16.6495V16.487H15.7621C16.2673 16.487 16.746 16.3718 17.1735 16.1664L18.5101 17.503C18.6778 17.6706 18.9496 17.6706 19.1174 17.503C19.58 17.0403 20.333 17.0403 20.7957 17.503C21.2583 17.9657 21.2583 18.7186 20.7956 19.1813V19.1813Z" fill="white"/>
</svg>
