<svg width="24" height="32" viewBox="0 0 24 32" fill="none" xmlns="http://www.w3.org/2000/svg">
<g clip-path="url(#clip0)">
<path d="M23.7065 10.5463C23.7065 4.91199 18.4955 0.288966 11.9633 0.288966C5.50463 0.288966 0.22023 4.91199 0.22023 10.5463C0.293625 14.5915 2.93583 18.0587 6.82573 19.7201C7.2661 20.2258 7.63307 20.7314 7.85326 21.3093C8.07344 21.8149 8.22023 22.3928 8.51381 22.8984C8.80739 23.4041 9.39454 23.7653 9.9817 23.693C10.9358 23.6208 11.4496 22.3206 12.4037 22.3206C12.9909 22.3206 13.5046 22.754 13.945 23.1152C14.3854 23.4763 14.9725 23.8375 15.5597 23.693C16.0734 23.5486 16.367 22.9707 16.5138 22.3928C16.8074 21.4538 17.1744 20.5147 17.4679 19.5756C21.1377 17.9143 23.7065 14.5192 23.7065 10.5463Z" fill="white" stroke="#111111" stroke-width="0.75" stroke-miterlimit="10" stroke-linecap="round" stroke-linejoin="round"/>
<path d="M16.2936 15.9639C17.1853 15.9639 17.9083 15.1231 17.9083 14.0858C17.9083 13.0486 17.1853 12.2077 16.2936 12.2077C15.4018 12.2077 14.6789 13.0486 14.6789 14.0858C14.6789 15.1231 15.4018 15.9639 16.2936 15.9639Z" fill="#111111"/>
<path d="M8.22018 15.9639C9.11194 15.9639 9.83486 15.1231 9.83486 14.0858C9.83486 13.0486 9.11194 12.2077 8.22018 12.2077C7.32842 12.2077 6.6055 13.0486 6.6055 14.0858C6.6055 15.1231 7.32842 15.9639 8.22018 15.9639Z" fill="#111111"/>
<path d="M10.4954 18.4921C10.7791 18.4921 11.0092 18.2334 11.0092 17.9142C11.0092 17.5951 10.7791 17.3363 10.4954 17.3363C10.2116 17.3363 9.98163 17.5951 9.98163 17.9142C9.98163 18.2334 10.2116 18.4921 10.4954 18.4921Z" fill="#111111"/>
<path d="M13.5045 18.4921C13.7883 18.4921 14.0183 18.2334 14.0183 17.9142C14.0183 17.5951 13.7883 17.3363 13.5045 17.3363C13.2208 17.3363 12.9908 17.5951 12.9908 17.9142C12.9908 18.2334 13.2208 18.4921 13.5045 18.4921Z" fill="#111111"/>
</g>
<defs>
<clipPath id="clip0">
<rect width="24" height="32" fill="white"/>
</clipPath>
</defs>
</svg>
