<svg width="122" height="119" viewBox="0 0 122 119" fill="none" xmlns="http://www.w3.org/2000/svg">
<path d="M106.917 110.397C130.84 94.6026 118.544 57.4882 112.942 41.4067C101.961 -5.21943 65.9313 -19.8775 18.2889 36.6061C-29.3538 93.0898 29.0049 100.588 47.6106 107.501C66.2165 114.413 82.9936 126.192 106.917 110.397Z" fill="white"/>
<path d="M75.5176 61.9H33.7176V34.9C33.7176 26.1 40.8176 19 49.5176 19H59.6176C68.4176 19 75.5176 26.1 75.5176 34.9V61.9ZM39.4176 56.2H69.8176V34.9C69.8176 29.3 65.3176 24.8 59.7176 24.8H49.5176C43.9176 24.8 39.4176 29.3 39.4176 34.9V56.2Z" fill="#204164"/>
<path d="M59.4176 98.7H37.6176C27.6176 98.7 19.5176 90.6 19.5176 80.6V50.7C19.5176 48.7 21.1176 47.1 23.1176 47.1H77.5176V80.5C77.5176 90.6 69.4176 98.7 59.4176 98.7Z" fill="#FF9E5D"/>
<path d="M69.7176 98.7H48.0176C38.0176 98.7 29.9176 90.6 29.9176 80.6V47.2H84.3176C86.3176 47.2 87.9176 48.8 87.9176 50.8V80.7C87.9176 90.6 79.8176 98.7 69.7176 98.7Z" fill="#F8D571"/>
<path d="M58.9176 75.8C63.5568 75.8 67.3176 72.0392 67.3176 67.4C67.3176 62.7608 63.5568 59 58.9176 59C54.2784 59 50.5176 62.7608 50.5176 67.4C50.5176 72.0392 54.2784 75.8 58.9176 75.8Z" fill="#FF9E5D"/>
<path d="M56.2176 66.2H61.6176V83.4C61.6176 84.4 60.8176 85.3 59.7176 85.3H58.1176C57.1176 85.3 56.2176 84.5 56.2176 83.4V66.2Z" fill="#FF9E5D"/>
<path d="M94.3172 32.7002C91.6172 35.8002 85.9172 36.3002 81.6172 36.2002L82.2172 50.0002C82.2172 54.6002 86.2172 61.2002 94.3172 63.6002C102.517 61.2002 106.517 54.6002 106.517 50.0002L107.017 36.3002C102.717 36.3002 97.1172 35.8002 94.3172 32.7002Z" fill="#00A9E0"/>
<path d="M106.517 50.0002L107.017 36.3002C102.717 36.3002 97.1172 35.8002 94.3172 32.8002V63.7002C102.517 61.2002 106.517 54.6002 106.517 50.0002Z" fill="#0073E9"/>
</svg>
