<svg width="122" height="122" viewBox="0 0 122 122" fill="none" xmlns="http://www.w3.org/2000/svg">
<path d="M106.917 110.397C130.84 94.6026 118.544 57.4882 112.942 41.4067C101.961 -5.21943 65.9313 -19.8775 18.2889 36.6061C-29.3538 93.0898 29.0049 100.588 47.6106 107.501C66.2165 114.413 82.9936 126.192 106.917 110.397Z" fill="white"/>
<path d="M72.7646 79.8014C69.0491 78.4744 65.9971 74.3608 65.9971 70.6453V7.81337C65.9971 4.09786 69.0491 2.17376 72.7646 3.56708L100.034 13.5193C103.749 14.8463 106.801 18.9599 106.801 22.6754V85.5073C106.801 89.2228 103.749 91.1469 100.034 89.7536L72.7646 79.8014Z" fill="#17161C"/>
<path d="M73.1624 81.8582C69.2479 80.3985 66.0631 76.0859 66.0631 72.1713V5.95565C66.0631 2.0411 69.2479 0.0506437 73.1624 1.44396L101.891 11.927C105.806 13.3867 108.991 17.6993 108.991 21.6139V87.8296C108.991 91.7441 105.806 93.7346 101.891 92.3412L73.1624 81.8582Z" fill="#1E394C"/>
<path d="M72.7648 77.28C70.4427 76.4175 68.5849 73.8962 68.5849 71.574V8.74213C68.5849 6.41994 70.4427 5.29202 72.7648 6.0882L100.034 16.0405C102.356 16.903 104.214 19.4242 104.214 21.7464V84.5783C104.214 86.9005 102.356 88.0284 100.034 87.2323L72.7648 77.28Z" fill="#62BDF4"/>
<path d="M96.5176 14.2492L76.215 6.88452L77.1438 9.33941C77.5419 10.4673 78.4708 11.3962 79.5324 11.7943L93.2665 16.7704C94.3281 17.1685 95.257 16.9031 95.655 16.1069L96.5176 14.2492Z" fill="#1E394C"/>
<g style="mix-blend-mode:luminosity">
<path d="M88.2607 21.8464C87.2487 21.5638 86.2542 21.7229 85.4885 22.1799C84.8743 21.3064 83.9564 20.6288 82.938 20.3132C81.1638 19.8022 79.5143 20.6364 78.8349 22.2406C78.7023 22.4376 78.5589 23.4584 78.5589 23.4584C78.5589 23.4584 78.3729 26.3705 78.4566 28.0318C78.5073 29.6996 79.0594 31.133 80.3096 32.4649C80.5713 32.7564 80.8074 32.9159 81.0572 32.9701C81.964 33.2389 82.6408 32.1487 82.1575 31.4209C82.1054 31.3284 82.0596 31.2688 82.0138 31.2092C81.504 30.5208 81.1461 29.7345 81.0187 28.9033C80.9345 28.6458 80.9726 27.6112 80.9726 27.6112L81.2428 24.9567L81.3259 24.1531C81.4154 23.3824 82.0759 22.9117 82.7987 23.1135C83.5216 23.3154 84.0506 24.1028 83.9676 24.9064L83.6088 28.1602L83.5814 28.3709C83.4919 29.1416 84.0274 29.9619 84.7502 30.1638C85.4731 30.3656 86.1336 29.8949 86.223 29.1242L86.2641 28.8081L86.6028 25.6267C86.6923 24.8561 87.3528 24.3853 88.0756 24.5872C88.7985 24.789 89.3275 25.5764 89.2445 26.38L89.1614 27.1836L88.9186 29.6274L88.958 29.654L88.937 29.8977C88.8475 30.6683 89.2713 31.4419 89.9942 31.6438C90.7171 31.8456 91.3776 31.3749 91.467 30.6042L91.5145 30.3211C91.5145 30.3211 91.8276 27.0077 91.7733 26.0254C91.7054 25.1484 91.3338 24.4674 90.8248 23.6077C90.1119 22.7534 89.2398 22.1354 88.2607 21.8464Z" fill="#1B5F96"/>
<path d="M91.7026 21.7935C90.7959 21.5247 90.152 22.6085 90.6023 23.3426C90.6545 23.4352 90.7003 23.4948 90.746 23.5544C91.255 24.4141 91.6595 25.0887 91.6945 25.972C91.7487 26.9544 91.4357 30.2678 91.4357 30.2678L91.3882 30.5509C91.2987 31.3215 90.6383 31.7923 89.9154 31.5904C89.1925 31.3886 88.7687 30.615 88.8582 29.8444L88.8792 29.6007L88.8398 29.5741L89.0826 27.1303L89.1657 26.3266C89.2551 25.556 88.7197 24.7357 87.9968 24.5338C87.274 24.332 86.6135 24.8027 86.524 25.5733L86.264 28.808L86.2165 29.0911C86.1335 29.8947 85.4666 30.3325 84.7437 30.1306C84.0208 29.9287 83.4854 29.1084 83.5749 28.3378L83.6022 28.127L83.961 24.8732C84.0505 24.1026 83.5151 23.2823 82.7922 23.0804C82.0693 22.8785 81.4088 23.3493 81.3194 24.1199L81.2363 24.9235L80.9661 27.5781C80.9661 27.5781 80.895 28.619 81.0122 28.8702C81.1396 29.7013 81.5039 30.5207 82.0073 31.1761C82.648 32.0102 83.4872 32.6345 84.4662 32.9235C85.4782 33.2062 86.4728 33.0471 87.2385 32.5901C87.8526 33.4636 88.7705 34.1411 89.7889 34.4567C91.5631 34.9678 93.2126 34.1336 93.892 32.5293C94.0246 32.3324 94.2074 31.3382 94.2074 31.3382C94.2074 31.3382 94.3933 28.4261 94.3097 26.7647C94.2589 25.0969 93.7069 23.6636 92.4567 22.3317C92.195 22.0402 91.9259 21.887 91.7026 21.7935Z" fill="#8FBAD8"/>
</g>
<path d="M98.9057 44.5704L73.826 35.4144C72.499 34.9499 71.3711 35.6134 71.3711 36.9404V48.2196C71.3711 49.5466 72.4327 51.0726 73.826 51.537L98.9057 60.6931C100.233 61.1575 101.361 60.4941 101.361 59.1671V47.8879C101.361 46.5609 100.233 45.0349 98.9057 44.5704Z" fill="#87D3F9"/>
<path d="M98.9057 64.6076L73.826 55.4515C72.499 54.987 71.3711 55.6505 71.3711 56.9775V68.2567C71.3711 69.5837 72.4327 71.1097 73.826 71.5741L98.9057 80.7302C100.233 81.1946 101.361 80.5312 101.361 79.2042V67.925C101.361 66.598 100.233 65.1383 98.9057 64.6076Z" fill="#87D3F9"/>
<path d="M90.878 47.8881L82.1864 44.7034C81.921 44.5707 81.6556 44.7697 81.6556 45.0351C81.6556 45.3005 81.921 45.6322 82.1864 45.7649L90.878 48.9497C91.1434 49.0824 91.4088 48.8833 91.4088 48.6179C91.4088 48.2862 91.2098 48.0208 90.878 47.8881Z" fill="#1E394C"/>
<path d="M93.532 51.8689L79.2007 46.6274C78.9353 46.4947 78.6699 46.6938 78.6699 46.9592C78.6699 47.2245 78.9353 47.5563 79.2007 47.689L93.532 52.9305C93.7973 53.0632 94.0627 52.8642 94.0627 52.5988C94.0627 52.267 93.8637 52.0016 93.532 51.8689Z" fill="#1E394C"/>
<path d="M90.878 66.5316L82.1864 63.3469C81.921 63.2142 81.6556 63.4133 81.6556 63.6787C81.6556 63.9441 81.921 64.2758 82.1864 64.4085L90.878 67.5932C91.1434 67.7259 91.4088 67.5269 91.4088 67.2615C91.4088 66.9297 91.2098 66.598 90.878 66.5316Z" fill="#1E394C"/>
<path d="M90.878 72.3702L82.1864 69.1855C81.921 69.0528 81.6556 69.2518 81.6556 69.5172C81.6556 69.7826 81.921 70.1143 82.1864 70.247L90.878 73.4318C91.1434 73.5645 91.4088 73.3654 91.4088 73.1C91.4088 72.8346 91.2098 72.5029 90.878 72.3702Z" fill="#1E394C"/>
<path d="M93.532 70.5125L79.2007 65.271C78.9353 65.1383 78.6699 65.3373 78.6699 65.6027C78.6699 65.8681 78.9353 66.1998 79.2007 66.3325L93.532 71.5741C93.7973 71.7068 94.0627 71.5077 94.0627 71.2423C94.0627 70.9106 93.8637 70.5788 93.532 70.5125Z" fill="#1E394C"/>
<path d="M66.1955 115.696C66.1955 115.696 64.8685 115.232 64.7358 112.379H60.8876L60.4895 116.36L63.3425 118.748L65.7974 117.488L66.1955 115.696Z" fill="#F2BF75"/>
<path d="M60.5563 116.293C60.5563 116.293 65.0016 117.753 66.1959 115.696C66.1959 115.696 74.4231 118.748 74.3567 119.677C74.2904 121.137 67.4565 121.402 65.9305 121.07L64.6035 119.743L64.0064 121.269H60.2245C60.3572 121.269 60.3572 116.559 60.5563 116.293Z" fill="#1E394C"/>
<path d="M51.931 115.763C51.931 115.763 50.6703 115.232 50.604 112.379L46.8221 112.18L46.2914 116.094L49.0116 118.616L51.5329 117.488L51.931 115.763Z" fill="#F2BF75"/>
<path d="M46.291 116.094C46.291 116.094 50.67 117.753 51.997 115.763C51.997 115.763 59.2289 118.35 59.627 119.544C60.0251 120.739 52.9922 121.535 51.5325 121.07L50.2719 119.677L49.6084 121.137L45.8929 120.938C45.8266 121.004 46.0919 116.293 46.291 116.094Z" fill="#1E394C"/>
<path d="M43.7035 70.5132C43.7035 70.5132 46.1584 80.5318 46.7555 82.2568C47.3527 83.9155 48.6133 92.0764 48.6797 92.3418C48.746 92.6072 45.893 113.64 45.893 113.64C45.893 113.64 49.8076 114.502 51.3336 113.507L55.5799 92.2754L53.7221 71.3757L43.7035 70.5132Z" fill="#1E394C"/>
<path d="M44.2342 69.9824C44.2342 69.9824 48.0824 76.4845 51.4661 79.4039C54.8499 82.3232 59.0962 90.1523 59.0962 90.1523L59.627 113.441C61.2857 114.436 63.2761 114.502 65.0012 113.573L65.2666 113.441C65.2666 113.441 65.8637 89.2234 65.7974 87.6311C65.6647 86.0387 57.1721 67.5275 57.1721 67.5275L44.2342 69.9824Z" fill="#1E394C"/>
<path d="M58.9636 27.1875C58.9636 27.1875 55.978 37.7369 51.2009 37.4052C47.0209 37.1398 46.2247 32.7608 47.22 27.3866C48.2815 21.8133 52.8596 22.5432 55.5799 22.5432C55.5799 22.5432 58.8973 22.5432 59.4281 19.9556C59.4281 20.0219 63.3426 25.2634 58.9636 27.1875Z" fill="#1E394C"/>
<path d="M51.4 40.0592C51.4 40.0592 45.5613 38.9976 42.841 51.5375C41.7131 56.779 47.6845 65.0062 47.6845 65.0062L53.9212 52.9972L51.4 40.0592Z" fill="#AAC6CE"/>
<path d="M75.9486 32.9597C75.9486 32.9597 78.1381 26.8557 78.1381 25.197C78.1381 23.5383 79.3987 24.9979 79.3323 26.2585C79.266 27.5192 79.0006 28.9125 79.0006 28.9125C79.0006 28.9125 80.7257 29.0452 80.7257 29.8413C80.7257 30.6375 80.1949 33.4905 79.3987 33.8886L75.9486 32.9597Z" fill="#F2BF75"/>
<path d="M54.651 40.8553C58.5655 42.8458 66.8591 48.0873 68.7832 46.3622C70.7073 44.6372 75.9488 32.8935 75.9488 32.8935L79.3326 33.8887C79.3326 33.8887 72.0343 53.4615 69.8448 53.3951C67.6553 53.3288 60.357 51.9355 60.357 51.9355C60.357 51.9355 59.6935 65.7359 57.703 69.5841C57.703 69.5841 47.8171 73.167 42.7083 70.2476C42.7083 70.2476 46.9546 64.8071 45.8267 56.8453C44.6324 48.5517 46.8882 36.8744 54.651 40.8553Z" fill="#CEE5ED"/>
<path d="M58.9638 27.1877C58.9638 27.1877 59.2956 29.0454 59.8927 29.9079C60.4235 30.7705 61.6178 31.633 61.6178 31.633L60.6889 32.8273C60.6889 32.8273 61.4187 37.0736 56.907 37.8697L56.4426 42.0497L51.4001 40.3246L51.2011 37.4717C51.2011 37.4717 51.9973 36.6091 52.0636 35.6802C52.0636 35.6802 51.0684 34.685 51.4001 33.5571C51.7319 32.4292 52.7271 31.5003 53.2579 31.9647C53.7223 32.3628 53.7887 33.2254 53.7887 33.2254H54.4522C54.4522 33.2254 54.3195 31.3013 54.7175 30.5051C55.2483 29.3771 56.5753 27.7184 58.9638 27.1877Z" fill="#EA9249"/>
<path d="M56.5087 41.9833L56.9731 37.8033C61.4185 37.0072 60.755 32.7609 60.755 32.7609L61.6839 31.5666C61.6839 31.5666 60.4896 30.7041 59.9588 29.8415C59.428 28.979 59.0299 27.1212 59.0299 27.1212C58.8309 27.1876 58.6318 27.2539 58.4328 27.3203C58.7645 28.1828 59.229 29.6425 59.2953 31.0358C59.428 33.1589 59.0963 35.6138 56.1106 37.4716C55.1154 38.0687 54.7173 39.7938 54.5846 41.3861L56.5087 41.9833Z" fill="#F2BF75"/>
<path d="M54.7843 83.7821C51.4669 83.0523 48.2821 81.0618 45.8273 79.0714C45.0311 76.0857 44.0358 71.9721 43.7041 70.7778C44.1022 70.9105 44.5003 71.0432 44.8984 71.1096C46.159 73.1664 48.8793 77.2136 51.4005 79.3368C52.4621 80.2657 53.6564 81.659 54.7179 83.1186L54.7843 83.7821Z" fill="#0F2A3F"/>
<path d="M27.3818 80.4653C27.3818 80.4653 29.704 59.9636 21.2777 63.2147C12.5197 66.4658 23.4672 80.0009 27.3818 80.4653Z" fill="#34648C"/>
<path d="M25.0601 92.806C25.0601 92.806 22.4725 72.3043 15.0415 78.0103C8.27395 83.1191 20.084 91.28 25.0601 92.806Z" fill="#67B8EF"/>
<path d="M19.5533 85.1094C22.937 89.8202 26.2545 94.6636 27.316 100.502C27.3824 100.834 27.8468 100.701 27.7805 100.37C26.7189 94.4646 23.4015 89.6211 19.9514 84.844C19.7523 84.645 19.3542 84.844 19.5533 85.1094Z" fill="#1E394C"/>
<path d="M31.5621 76.086C31.5621 76.086 28.5101 61.0249 36.2728 62.4182C43.9692 63.7452 33.4862 75.3561 31.5621 76.086Z" fill="#67B8EF"/>
<path d="M32.2927 90.6162C31.8946 90.8816 31.4965 77.8773 37.0034 78.3417C42.444 78.8062 39.9227 85.5074 32.2927 90.6162Z" fill="#34648C"/>
<path d="M29.8376 89.5548C29.2405 81.9248 32.4252 73.2995 35.3446 66.3992C35.4773 66.1339 35.0128 65.8685 34.9465 66.1339C31.9608 73.2331 28.7097 81.7921 29.3732 89.5548C29.3732 89.8866 29.904 89.8866 29.8376 89.5548Z" fill="#1E394C"/>
<path d="M30.5671 99.2418C30.169 90.2847 29.3728 81.195 24.3967 73.4986C24.1976 73.2332 23.7995 73.4986 23.9986 73.764C28.9747 81.3941 29.7709 90.3511 30.1026 99.2418C30.1026 99.5735 30.5671 99.5735 30.5671 99.2418Z" fill="#1E394C"/>
<path d="M31.6949 98.8436C31.894 94.1328 32.2257 89.4221 34.8133 85.3748C35.0123 85.1094 34.5479 84.844 34.4152 85.1094C31.7613 89.223 31.4295 94.0665 31.2305 98.8436C31.2305 99.1753 31.6949 99.1753 31.6949 98.8436Z" fill="#1E394C"/>
<path d="M23.0691 97.9147L24.3297 109.459C24.4624 110.919 25.723 111.981 27.1827 111.981H34.5474C36.007 111.981 37.2013 110.919 37.4003 109.459L38.661 97.9147C38.7273 97.3176 38.2629 96.7204 37.5994 96.7204H24.1307C23.5335 96.7204 23.0028 97.2512 23.0691 97.9147Z" fill="#CEE5ED"/>
<path d="M37.5997 96.7202H32.9553C33.6188 96.7202 34.0832 97.251 34.0169 97.9145L32.7563 109.459C32.6236 110.919 31.363 111.98 29.9033 111.98H34.5477C36.0073 111.98 37.2016 110.919 37.4007 109.459L38.6613 97.9145C38.7276 97.251 38.1968 96.7202 37.5997 96.7202Z" fill="#AAC6CE"/>
</svg>
