<svg width="98" height="99" viewBox="0 0 98 99" fill="none" xmlns="http://www.w3.org/2000/svg">
<g opacity="0.35">
<mask id="mask0" mask-type="alpha" maskUnits="userSpaceOnUse" x="0" y="0" width="98" height="99">
<rect x="0.53717" width="97.4629" height="99" fill="white"/>
</mask>
<g mask="url(#mask0)">
<path d="M111.876 69.6959C110.977 60.794 106.939 52.4016 100.506 46.0646C95.0082 40.6495 88.279 37.1696 81.1983 35.6222V30.7306C84.0903 30.0219 86.2399 27.4434 86.2399 24.3786C86.2399 20.7691 83.2588 17.8327 79.5943 17.8327H65.5213C61.8568 17.8327 58.8757 20.7691 58.8757 24.3786C58.8757 27.4432 61.0253 30.0217 63.9172 30.7306V35.6359C56.8582 37.1898 50.1512 40.6649 44.6689 46.0648C43.4692 47.2465 42.3629 48.4862 41.3502 49.7746C41.3012 49.7709 41.2521 49.7673 41.2021 49.7673H27.2735C26.1941 49.7673 25.3189 50.6292 25.3189 51.6925C25.3189 52.7558 26.1941 53.6178 27.2735 53.6178H38.6906C37.2575 55.981 36.102 58.4629 35.2224 61.0177H13.9496C12.8703 61.0177 11.995 61.8796 11.995 62.9429C11.995 64.0062 12.8703 64.8682 13.9496 64.8682H34.1179C33.5545 67.3038 33.2313 69.7826 33.1478 72.2683H24.5044C23.4251 72.2683 22.5498 73.1302 22.5498 74.1935C22.5498 75.2568 23.4251 76.1188 24.5044 76.1188H33.2101C33.3751 78.6108 33.7819 81.0898 34.4306 83.5189H21.768C20.6887 83.5189 19.8134 84.3808 19.8134 85.4441C19.8134 86.5075 20.6887 87.3694 21.768 87.3694H35.678C37.5955 92.3656 40.592 97.0484 44.6689 101.064C51.1085 107.407 59.6376 111.385 68.6846 112.265C69.9758 112.391 71.268 112.453 72.5584 112.453C80.1856 112.453 87.7159 110.279 94.1054 106.18C95.01 105.6 95.2659 104.407 94.6767 103.516C94.0876 102.625 92.8768 102.373 91.9722 102.954C77.9857 111.925 59.2543 109.985 47.4331 98.3414C33.563 84.6794 33.563 62.4499 47.4331 48.7877C61.3031 35.1259 83.8714 35.1259 97.7417 48.7877C109.547 60.4162 111.527 78.8507 102.45 92.6205C101.862 93.5123 102.119 94.7048 103.024 95.2837C103.93 95.8628 105.14 95.6093 105.728 94.7175C110.578 87.3601 112.761 78.4741 111.876 69.6959ZM62.7849 24.3788C62.7849 22.8925 64.0123 21.6834 65.5213 21.6834H79.5943C81.1033 21.6834 82.3308 22.8925 82.3308 24.3788C82.3308 25.8651 81.1033 27.0741 79.5943 27.0741H79.2437H65.8717H65.5213C64.0123 27.0741 62.7849 25.8649 62.7849 24.3788ZM67.8263 34.974V30.9246H77.2891V34.9671C74.1469 34.599 70.9679 34.6013 67.8263 34.974Z" fill="#5B6678"/>
<path d="M99.1246 97.7766C98.6086 97.7766 98.1063 97.9825 97.7429 98.3406C97.3774 98.6987 97.17 99.1954 97.17 99.7018C97.17 100.208 97.3774 100.705 97.7429 101.063C98.1063 101.423 98.6088 101.627 99.1246 101.627C99.6387 101.627 100.141 101.423 100.506 101.063C100.87 100.705 101.079 100.208 101.079 99.7018C101.079 99.1954 100.87 98.6987 100.506 98.3406C100.141 97.9825 99.6385 97.7766 99.1246 97.7766Z" fill="#5B6678"/>
<path d="M72.5878 43.6979C55.8686 43.6979 42.2664 57.0957 42.2664 73.5641C42.2664 90.0326 55.8686 103.43 72.5878 103.43C89.307 103.43 102.909 90.0326 102.909 73.5641C102.909 57.0957 89.307 43.6979 72.5878 43.6979ZM72.5878 99.5799C58.0239 99.5799 46.1756 87.9092 46.1756 73.5641C46.1756 59.2191 58.0239 47.5484 72.5878 47.5484C87.1516 47.5484 99 59.2191 99 73.5641C99 87.9092 87.1516 99.5799 72.5878 99.5799Z" fill="#5B6678"/>
<path d="M84.9514 58.6631L75.2704 68.1987C74.4608 67.8044 73.5501 67.5816 72.5875 67.5816C71.6247 67.5816 70.7142 67.8044 69.9046 68.1987L65.5719 63.931C64.8084 63.1792 63.5712 63.1792 62.8075 63.931C62.0443 64.6828 62.0443 65.9019 62.8075 66.6537L67.1403 70.9214C66.7398 71.7188 66.5138 72.6158 66.5138 73.564C66.5138 76.8627 69.2383 79.5465 72.5875 79.5465C75.9367 79.5465 78.6612 76.8627 78.6612 73.564C78.6612 72.6158 78.435 71.7188 78.0347 70.9214L87.4316 61.6655L87.7156 61.3858C88.4789 60.634 88.4789 59.4149 87.7156 58.6631C86.9524 57.9113 85.7151 57.9113 84.9514 58.6631ZM72.5875 75.6962C71.394 75.6962 70.423 74.7397 70.423 73.5642C70.423 72.3886 71.394 71.4322 72.5875 71.4322C73.781 71.4322 74.752 72.3886 74.752 73.5642C74.752 74.7397 73.781 75.6962 72.5875 75.6962Z" fill="#5B6678"/>
<path d="M93.4858 71.6625H91.6749C90.5956 71.6625 89.7204 72.5244 89.7204 73.5877C89.7204 74.651 90.5956 75.5129 91.6749 75.5129H93.4858C94.5651 75.5129 95.4404 74.651 95.4404 73.5877C95.4404 72.5244 94.5651 71.6625 93.4858 71.6625Z" fill="#5B6678"/>
<path d="M53.5002 71.6155H51.6895C50.6102 71.6155 49.735 72.4775 49.735 73.5408C49.735 74.6041 50.6102 75.466 51.6895 75.466H53.5002C54.5795 75.466 55.4548 74.6041 55.4548 73.5408C55.4548 72.4775 54.5795 71.6155 53.5002 71.6155Z" fill="#5B6678"/>
<path d="M72.6115 56.6883C73.6908 56.6883 74.566 55.8264 74.566 54.7631V52.9795C74.566 51.9162 73.6908 51.0543 72.6115 51.0543C71.5321 51.0543 70.6569 51.9162 70.6569 52.9795V54.7631C70.6569 55.8264 71.5321 56.6883 72.6115 56.6883Z" fill="#5B6678"/>
<path d="M72.5638 90.4401C71.4845 90.4401 70.6093 91.302 70.6093 92.3653V94.1488C70.6093 95.2121 71.4845 96.074 72.5638 96.074C73.6432 96.074 74.5184 95.2121 74.5184 94.1488V92.3653C74.5184 91.302 73.6432 90.4401 72.5638 90.4401Z" fill="#5B6678"/>
<path d="M13.9495 83.5181C13.4354 83.5181 12.9312 83.7241 12.5676 84.0822C12.2041 84.4403 11.9949 84.937 11.9949 85.4434C11.9949 85.9516 12.2039 86.4464 12.5676 86.8045C12.9314 87.1626 13.4354 87.3686 13.9495 87.3686C14.4635 87.3686 14.9678 87.1626 15.3312 86.8045C15.6947 86.4464 15.9041 85.9497 15.9041 85.4434C15.9041 84.937 15.6949 84.4403 15.3312 84.0822C14.9678 83.7241 14.4635 83.5181 13.9495 83.5181Z" fill="#5B6678"/>
<rect x="94.9546" y="96" width="6.09143" height="7" fill="white"/>
</g>
</g>
</svg>
