<svg width="96" height="99" viewBox="0 0 96 99" fill="none" xmlns="http://www.w3.org/2000/svg">
<g opacity="0.35">
<mask id="mask0" mask-type="alpha" maskUnits="userSpaceOnUse" x="0" y="0" width="96" height="99">
<rect x="0.158081" width="95.4324" height="99" fill="white"/>
</mask>
<g mask="url(#mask0)">
<g clip-path="url(#clip0)">
<path d="M19.0751 79.8055C19.2072 73.8915 22.1932 71.1475 27.0377 69.9181C26.7734 65.2897 28.8384 61.8747 33.3153 59.7856C32.7536 59.195 32.3117 58.7048 31.8409 58.2388C26.8188 53.277 21.7637 48.3433 16.7705 43.3534C13.1114 39.6973 13.6276 33.5343 17.7865 30.4206C21.2309 27.8413 26.5463 28.1506 29.7057 31.2121C36.0948 37.4033 42.4302 43.6467 48.7987 49.8539C51.4584 52.4493 54.1512 55.0126 56.9885 57.7446C57.9549 55.6554 58.8676 53.731 59.7432 51.7904C61.8578 47.1018 64.5216 42.7427 67.9743 38.8657C69.8452 36.7604 71.8895 34.8561 74.9581 34.619C78.5512 34.3418 81.657 35.2458 83.7385 38.3313C84.9486 40.1232 85.2996 42.0195 84.1928 44.0163C82.9497 46.2541 81.7231 48.496 80.5047 50.7458C79.9885 51.694 79.5052 52.6542 79.0096 53.6104C76.6845 58.0821 76.2343 62.8149 77.0479 67.6883C78.0804 73.8915 79.0096 80.1189 80.3189 86.2658C81.8428 93.4173 79.9637 99.4236 74.9746 104.767C70.4275 109.636 65.6615 114.249 60.1975 118.154C55.32 121.641 49.8973 122.489 44.1318 121.211C42.3063 120.81 40.4767 119.95 38.9321 118.905C36.6276 117.346 34.418 115.587 32.4356 113.65C25.8813 107.246 19.2981 100.858 13.0122 94.2087C8.24622 89.1666 11.0175 81.971 17.39 80.2233C17.9104 80.0827 18.4432 79.9622 19.0751 79.8055ZM48.6872 118.833C52.1894 118.961 55.4108 118.017 58.2977 115.964C64.5051 111.553 70.0062 106.418 74.6897 100.496C77.3081 97.1858 78.4438 93.4333 77.6715 89.1867C76.4986 82.7384 75.4331 76.2699 74.3551 69.8015C73.6365 65.4866 73.1244 61.1194 74.6318 56.8928C75.6643 54.0001 77.0809 51.232 78.4273 48.4558C79.2781 46.7041 80.3643 45.0649 81.2564 43.3293C82.2517 41.3968 81.7644 39.7616 79.9389 38.488C77.7541 36.9613 74.2849 37.0135 72.2447 38.7492C71.0635 39.7576 70.0062 40.9267 69.0068 42.1159C65.8019 45.9367 63.5634 50.3039 61.5563 54.7997C60.9244 56.2098 60.3338 57.6401 59.6193 59.0142C58.5661 61.0431 56.6457 61.3484 54.8822 59.8217C54.4733 59.4641 54.0975 59.0744 53.7051 58.6928C46.808 51.9592 39.9109 45.2216 33.0138 38.488C31.2173 36.7323 29.4496 34.9445 27.6118 33.237C25.7698 31.5254 22.4369 31.1036 20.3017 32.2165C18.0343 33.4017 16.9605 35.7641 17.4148 38.5443C17.6172 39.7777 18.2037 40.762 19.1246 41.6579C24.1798 46.5836 29.1936 51.5534 34.2198 56.5112C34.798 57.0817 35.4092 57.6361 35.909 58.2709C37.2719 60.0065 36.7019 61.7743 34.6204 62.618C33.8109 62.9434 32.9725 63.301 32.3035 63.8313C30.5689 65.1973 30.0155 67.0615 30.065 69.1949C30.1228 71.6858 29.6685 72.2041 27.2814 72.8911C26.8188 73.0237 26.3521 73.1442 25.9061 73.317C23.5603 74.225 22.3047 75.9124 22.2015 78.3752C22.1808 78.9095 22.2593 79.4439 22.2593 79.9782C22.2634 81.754 21.3714 82.8026 19.5707 82.8468C16.8325 82.9151 14.9244 84.2128 13.9993 86.5792C13.0948 88.8854 13.7804 91.0308 15.5605 92.8347C19.7028 97.0412 23.7379 101.348 27.9794 105.454C31.6344 108.99 35.4877 112.332 39.308 115.707C41.9305 118.021 45.1147 118.929 48.6872 118.833Z" fill="#5B6678"/>
<path d="M51.4999 30.951C51.1405 31.2683 50.7028 31.9433 50.1163 32.104C49.2573 32.3411 48.7534 31.6661 48.5717 30.8626C47.8655 27.7288 47.1634 24.591 46.4654 21.4532C46.3208 20.8024 46.0483 20.1194 46.135 19.4926C46.2011 18.9944 46.6801 18.219 47.056 18.1708C47.5887 18.1025 48.2248 18.5485 48.7658 18.8578C48.9516 18.9663 49.0136 19.3279 49.0673 19.585C49.8189 23.0523 50.5582 26.5195 51.3016 29.9907C51.3429 30.1836 51.3842 30.3804 51.4999 30.951Z" fill="#5B6678"/>
<path d="M61.0566 20.6336C60.6354 22.0719 60.243 23.4861 59.8052 24.8843C59.1073 27.1101 58.401 29.3318 57.6494 31.5415C57.3685 32.3651 56.7532 32.9638 55.7826 32.6745C54.8203 32.3892 54.6303 31.6179 54.8988 30.738C55.9809 27.1663 57.0588 23.5946 58.1698 20.031C58.4052 19.2837 58.9173 18.673 59.8217 18.8659C60.7469 19.0627 61.1351 19.7377 61.0566 20.6336Z" fill="#5B6678"/>
<path d="M72.8396 27.1542C72.3977 27.6805 72.1375 28.1707 71.7245 28.4519C68.6394 30.5451 65.5337 32.6102 62.4155 34.6552C61.5936 35.1935 60.7016 35.2859 60.0903 34.3538C59.5039 33.4579 60.0986 32.8512 60.8172 32.3651C63.9064 30.2759 66.9874 28.1747 70.1179 26.1458C70.5516 25.8646 71.295 25.7802 71.7865 25.9288C72.1912 26.0494 72.439 26.6601 72.8396 27.1542Z" fill="#5B6678"/>
<path d="M35.4012 22.7992C35.9794 23.1648 36.4874 23.3898 36.8674 23.7433C39.4528 26.1419 42.0134 28.5685 44.5822 30.9912C44.7309 31.1318 44.8672 31.2804 44.9911 31.4411C45.5156 32.1041 45.6312 32.8112 44.9787 33.4218C44.3138 34.0406 43.5869 33.8879 42.9591 33.3174C40.9561 31.4853 38.9654 29.6412 36.9748 27.7931C36.0786 26.9615 35.1369 26.17 34.344 25.25C34.0631 24.9245 33.9929 24.2014 34.1622 23.7996C34.3398 23.3938 34.9345 23.1568 35.4012 22.7992Z" fill="#5B6678"/>
</g>
</g>
</g>
<defs>
<clipPath id="clip0">
<rect x="10.6004" y="18.1588" width="74.2574" height="103.619" fill="white"/>
</clipPath>
</defs>
</svg>
