<svg width="72" height="99" viewBox="0 0 72 99" fill="none" xmlns="http://www.w3.org/2000/svg">
<g opacity="0.35">
<mask id="mask0" mask-type="alpha" maskUnits="userSpaceOnUse" x="0" y="0" width="72" height="99">
<rect x="0.114288" width="71.0667" height="99" fill="white"/>
</mask>
<g mask="url(#mask0)">
<path d="M67.4308 52.3526V43.7496C67.4308 28.6125 54.9284 16.2978 39.5607 16.2978C24.1929 16.2978 11.6905 28.6125 11.6905 43.7496V52.3526C7.45484 53.2026 4.25848 56.9001 4.25848 61.3188V71.7083C4.25848 72.7192 5.09023 73.5384 6.11649 73.5384C7.14275 73.5384 7.9745 72.7192 7.9745 71.7083V61.3188C7.9745 58.2912 10.4748 55.8284 13.5485 55.8284H65.5728C68.6465 55.8284 71.1468 58.2912 71.1468 61.3188V100.849C71.1468 103.235 69.5937 105.27 67.4308 106.025V94.993C67.4308 93.9822 66.5991 93.1629 65.5728 93.1629C64.5465 93.1629 63.7148 93.9822 63.7148 94.993V106.34H13.5485C10.4748 106.34 7.9745 103.877 7.9745 100.849V86.3915C7.9745 85.3806 7.14275 84.5613 6.11649 84.5613C5.09023 84.5613 4.25848 85.3806 4.25848 86.3915V100.849C4.25848 105.895 8.42594 110 13.5485 110H65.5728C70.6954 110 74.8629 105.895 74.8629 100.849V61.3188C74.8629 56.9001 71.6665 53.2026 67.4308 52.3526ZM25.4398 52.1682V43.7496C25.4398 36.0803 31.7744 29.8407 39.5607 29.8407C47.3469 29.8407 53.6815 36.0803 53.6815 43.7496V52.1682H25.4398ZM57.3976 52.1682V43.7496C57.3976 34.0621 49.3958 26.1805 39.5607 26.1805C29.7256 26.1805 21.7238 34.0621 21.7238 43.7496V52.1682H15.4065V43.7496C15.4065 30.6306 26.2418 19.958 39.5607 19.958C52.8795 19.958 63.7148 30.6306 63.7148 43.7496V52.1682H57.3976Z" fill="#5B6678"/>
<path d="M39.5607 100.117C42.6344 100.117 45.1348 97.6546 45.1348 94.627V84.9088C47.9261 83.0887 49.6179 80.029 49.6179 76.6761C49.6179 71.2272 45.1166 66.7935 39.5847 66.7935C34.052 66.7935 29.5514 71.2272 29.5514 76.6761C29.5514 80.0047 31.2244 83.0529 33.9867 84.8774V94.627C33.9867 97.6546 36.487 100.117 39.5607 100.117ZM33.2674 76.6761C33.2674 73.2446 36.1009 70.4537 39.5847 70.4537C43.0677 70.4537 45.9019 73.2446 45.9019 76.6761C45.9019 79.0324 44.5737 81.1592 42.4363 82.228C41.8121 82.5397 41.4187 83.1702 41.4187 83.8601V94.627C41.4187 95.6365 40.5855 96.4572 39.5607 96.4572C38.5359 96.4572 37.7027 95.6365 37.7027 94.627V83.8358C37.7027 83.1509 37.3144 82.5232 36.6961 82.2094C34.5811 81.1356 33.2674 79.0152 33.2674 76.6761Z" fill="#5B6678"/>
<rect x="62.0438" y="90" width="8.1219" height="13" fill="white"/>
</g>
</g>
</svg>
