<svg width="1134" height="434" viewBox="0 0 1134 434" fill="none" xmlns="http://www.w3.org/2000/svg">
<g opacity="0.15">
<path opacity="0.4" d="M1019.1 221.1L1018.8 220.9L987.8 203L1019.1 185L1019.4 185.2L1050.4 203.1L1019.1 221.1ZM990 203.1L1019.1 219.9L1048.2 203.1L1019.1 186.3L990 203.1Z" fill="#377FB8"/>
<path opacity="0.4" d="M958.7 221.1L958.4 220.9L927.4 203L958.7 185L959 185.2L990 203.1L958.7 221.1ZM929.6 203.1L958.7 219.9L987.8 203.1L958.7 186.3L929.6 203.1Z" fill="#377FB8"/>
<path opacity="0.4" d="M988.9 238.5L988.6 238.3L957.6 220.4L988.9 202.3L989.2 202.5L1020.2 220.4L988.9 238.5ZM959.8 220.5L988.9 237.3L1018 220.5L988.9 203.7L959.8 220.5Z" fill="#377FB8"/>
<path opacity="0.4" d="M1019.1 256L1018.8 255.8L987.8 237.9L1019.1 219.8L1050.4 237.9L1019.1 256ZM990 237.9L1019.1 254.7L1048.2 237.9L1019.1 221.1L990 237.9Z" fill="#377FB8"/>
<path opacity="0.4" d="M898.3 221.1L898 220.9L867 203L898.3 185L898.6 185.2L929.6 203.1L898.3 221.1ZM869.3 203.1L898.4 219.9L927.5 203.1L898.3 186.3L869.3 203.1Z" fill="#377FB8"/>
<path opacity="0.4" d="M928.5 238.5L897.2 220.4L928.5 202.3L928.8 202.5L959.8 220.4L928.5 238.5ZM899.5 220.5L928.6 237.3L957.7 220.5L928.6 203.7L899.5 220.5Z" fill="#377FB8"/>
<path opacity="0.4" d="M958.7 256L958.4 255.8L927.4 237.9L958.7 219.8L959 220L990 237.9L958.7 256ZM929.6 237.9L958.7 254.7L987.8 237.9L958.7 221.1L929.6 237.9Z" fill="#377FB8"/>
<path opacity="0.4" d="M988.9 273.4L988.6 273.2L957.6 255.3L988.9 237.2L989.2 237.4L1020.2 255.3L988.9 273.4ZM959.8 255.3L988.9 272.1L1018 255.3L988.9 238.5L959.8 255.3Z" fill="#377FB8"/>
<path opacity="0.4" d="M1019.1 290.8L1018.8 290.6L987.8 272.7L1019.1 254.6L1050.4 272.7L1019.1 290.8ZM990 272.8L1019.1 289.6L1048.2 272.8L1019.1 256L990 272.8Z" fill="#377FB8"/>
<path opacity="0.4" d="M838 221.1L837.7 220.9L806.7 203L838 185L838.3 185.2L869.3 203.1L838 221.1ZM808.9 203.1L838 219.8L867.1 203L838 186.3L808.9 203.1Z" fill="#377FB8"/>
<path opacity="0.4" d="M868.2 238.5L867.9 238.3L836.9 220.4L868.2 202.3L868.5 202.5L899.5 220.4L868.2 238.5ZM839.1 220.5L868.2 237.3L897.3 220.5L868.2 203.7L839.1 220.5Z" fill="#377FB8"/>
<path opacity="0.4" d="M898.3 256L898 255.8L867 237.9L898.3 219.8L929.6 237.9L898.3 256ZM869.3 237.9L898.4 254.7L927.5 237.9L898.4 221.1L869.3 237.9Z" fill="#377FB8"/>
<path opacity="0.4" d="M928.5 273.4L928.2 273.2L897.2 255.3L928.5 237.2L928.8 237.4L959.8 255.3L928.5 273.4ZM899.5 255.3L928.6 272.1L957.7 255.3L928.6 238.5L899.5 255.3Z" fill="#377FB8"/>
<path opacity="0.4" d="M958.7 290.8L927.4 272.7L958.7 254.6L959 254.8L990 272.7L958.7 290.8ZM929.6 272.8L958.7 289.6L987.8 272.8L958.7 256L929.6 272.8Z" fill="#377FB8"/>
<path opacity="0.4" d="M988.9 308.2L988.6 308L957.6 290.1L988.9 272L989.2 272.2L1020.2 290.1L988.9 308.2ZM959.8 290.2L988.9 307L1018 290.2L988.9 273.4L959.8 290.2Z" fill="#377FB8"/>
<path opacity="0.4" d="M1019.1 325.7L1018.8 325.5L987.8 307.6L1019.1 289.5L1019.4 289.7L1050.4 307.6L1019.1 325.7ZM990 307.6L1019.1 324.4L1048.2 307.6L1019.1 290.8L990 307.6Z" fill="#377FB8"/>
<path opacity="0.4" d="M777.6 221.1L777.4 221L746.4 203.1L777.6 185L808.9 203.1L777.6 221.1ZM748.6 203.1L777.7 219.9L806.8 203.1L777.6 186.3L748.6 203.1Z" fill="#377FB8"/>
<path opacity="0.4" d="M807.8 238.5L776.5 220.5L807.8 202.4L808.1 202.6L839.1 220.5L807.8 238.5ZM778.7 220.5L807.8 237.3L836.9 220.5L807.8 203.7L778.7 220.5Z" fill="#377FB8"/>
<path opacity="0.4" d="M838 256L837.7 255.8L806.7 237.9L838 219.8L838.3 220L869.3 237.9L838 256ZM808.9 237.9L838 254.7L867.1 237.9L838 221.1L808.9 237.9Z" fill="#377FB8"/>
<path opacity="0.4" d="M868.2 273.4L867.9 273.2L836.9 255.3L868.2 237.2L868.5 237.4L899.5 255.3L868.2 273.4ZM839.1 255.3L868.2 272.1L897.3 255.3L868.2 238.5L839.1 255.3Z" fill="#377FB8"/>
<path opacity="0.4" d="M898.3 290.8L898 290.6L867 272.7L898.3 254.6L898.6 254.8L929.6 272.7L898.3 290.8ZM869.3 272.8L898.4 289.6L927.5 272.8L898.3 256L869.3 272.8Z" fill="#377FB8"/>
<path opacity="0.4" d="M928.5 308.2L928.2 308L897.2 290.1L928.5 272L959.8 290.1L928.5 308.2ZM899.5 290.2L928.6 307L957.7 290.2L928.6 273.4L899.5 290.2Z" fill="#377FB8"/>
<path opacity="0.4" d="M958.7 325.7L927.4 307.6L958.7 289.5L959 289.7L990 307.6L958.7 325.7ZM929.6 307.6L958.7 324.4L987.8 307.6L958.7 290.8L929.6 307.6Z" fill="#377FB8"/>
<path opacity="0.4" d="M988.9 343.1L988.6 342.9L957.6 325L988.9 306.9L989.2 307.1L1020.2 325L988.9 343.1ZM959.8 325L988.9 341.8L1018 325L988.9 308.2L959.8 325Z" fill="#377FB8"/>
<path opacity="0.4" d="M1019.1 360.5L987.8 342.4L1019.1 324.3L1050.4 342.4L1019.1 360.5ZM990 342.4L1019.1 359.2L1048.2 342.4L1019.1 325.6L990 342.4Z" fill="#377FB8"/>
<path opacity="0.4" d="M717.3 221.1L717 221L686 203.1L717.3 185L717.6 185.2L748.6 203.1L717.3 221.1ZM688.2 203.1L717.3 219.9L746.4 203.1L717.3 186.3L688.2 203.1Z" fill="#377FB8"/>
<path opacity="0.4" d="M747.5 238.5L747.2 238.3L716.2 220.4L747.5 202.3L747.8 202.5L778.8 220.4L747.5 238.5ZM718.4 220.5L747.5 237.3L776.6 220.5L747.5 203.7L718.4 220.5Z" fill="#377FB8"/>
<path opacity="0.4" d="M777.6 256L746.4 237.9L777.7 219.8L809 237.9L777.6 256ZM748.6 237.9L777.7 254.7L806.8 237.9L777.6 221.1L748.6 237.9Z" fill="#377FB8"/>
<path opacity="0.4" d="M807.8 273.4L807.5 273.2L776.5 255.3L807.8 237.2L808.1 237.4L839.1 255.3L807.8 273.4ZM778.7 255.3L807.8 272.1L836.9 255.3L807.8 238.5L778.7 255.3Z" fill="#377FB8"/>
<path opacity="0.4" d="M838 290.8L806.7 272.7L838 254.7L838.3 254.9L869.3 272.8L838 290.8ZM808.9 272.8L838 289.6L867.1 272.8L838 256L808.9 272.8Z" fill="#377FB8"/>
<path opacity="0.4" d="M868.2 308.2L867.9 308L836.9 290.1L868.2 272L868.5 272.2L899.5 290.1L868.2 308.2ZM839.1 290.2L868.2 307L897.3 290.2L868.2 273.4L839.1 290.2Z" fill="#377FB8"/>
<path opacity="0.4" d="M898.4 325.7L898.1 325.5L867.1 307.6L898.4 289.5L898.7 289.7L929.7 307.6L898.4 325.7ZM869.3 307.6L898.4 324.4L927.5 307.6L898.4 290.8L869.3 307.6Z" fill="#377FB8"/>
<path opacity="0.4" d="M928.5 343.1L928.2 342.9L897.2 325L928.5 306.9L959.8 325L928.5 343.1ZM899.5 325L928.6 341.8L957.7 325L928.6 308.2L899.5 325Z" fill="#377FB8"/>
<path opacity="0.4" d="M958.7 360.5L958.4 360.3L927.4 342.4L958.7 324.3L959 324.5L990 342.4L958.7 360.5ZM929.6 342.4L958.7 359.2L987.8 342.4L958.7 325.6L929.6 342.4Z" fill="#377FB8"/>
<path opacity="0.4" d="M988.9 377.9L957.6 359.8L988.9 341.7L1020.2 359.8L988.9 377.9ZM959.8 359.9L988.9 376.7L1018 359.9L988.9 343.1L959.8 359.9Z" fill="#377FB8"/>
<path opacity="0.4" d="M1019.1 395.4L1018.8 395.2L987.8 377.3L1019.1 359.2L1019.4 359.4L1050.4 377.3L1019.1 395.4ZM990 377.3L1019.1 394.1L1048.2 377.3L1019.1 360.5L990 377.3Z" fill="#377FB8"/>
<path opacity="0.4" d="M717.3 256L717 255.8L686 237.9L717.3 219.8L717.6 220L748.6 237.9L717.3 256ZM688.2 237.9L717.3 254.7L746.4 237.9L717.3 221.1L688.2 237.9Z" fill="#377FB8"/>
<path opacity="0.4" d="M747.5 273.4L716.2 255.3L747.5 237.2L778.8 255.3L747.5 273.4ZM718.4 255.3L747.5 272.1L776.6 255.3L747.5 238.5L718.4 255.3Z" fill="#377FB8"/>
<path opacity="0.4" d="M777.6 290.8L777.3 290.6L746.3 272.7L777.6 254.6L777.9 254.8L808.9 272.7L777.6 290.8ZM748.6 272.8L777.7 289.6L806.8 272.8L777.6 256L748.6 272.8Z" fill="#377FB8"/>
<path opacity="0.4" d="M807.8 308.2L807.5 308L776.5 290.1L807.8 272L839.1 290.1L807.8 308.2ZM778.7 290.2L807.8 307L836.9 290.2L807.8 273.4L778.7 290.2Z" fill="#377FB8"/>
<path opacity="0.4" d="M838 325.7L806.7 307.6L838 289.5L838.3 289.7L869.3 307.6L838 325.7ZM808.9 307.6L838 324.4L867.1 307.6L838 290.8L808.9 307.6Z" fill="#377FB8"/>
<path opacity="0.4" d="M868.2 343.1L867.9 342.9L836.9 325L868.2 306.9L868.5 307.1L899.5 325L868.2 343.1ZM839.1 325L868.2 341.8L897.3 325L868.2 308.2L839.1 325Z" fill="#377FB8"/>
<path opacity="0.4" d="M898.4 360.5L898.1 360.3L867.1 342.4L898.4 324.3L898.7 324.5L929.7 342.4L898.4 360.5ZM869.3 342.4L898.4 359.2L927.5 342.4L898.4 325.6L869.3 342.4Z" fill="#377FB8"/>
<path opacity="0.4" d="M928.5 377.9L928.2 377.7L897.2 359.8L928.5 341.7L928.8 341.9L959.8 359.8L928.5 377.9ZM899.5 359.9L928.6 376.7L957.7 359.9L928.6 343.1L899.5 359.9Z" fill="#377FB8"/>
<path opacity="0.4" d="M958.7 395.4L958.4 395.2L927.4 377.3L958.7 359.2L990 377.3L958.7 395.4ZM929.6 377.3L958.7 394.1L987.8 377.3L958.7 360.5L929.6 377.3Z" fill="#377FB8"/>
<path opacity="0.4" d="M988.9 412.8L957.6 394.7L988.9 376.6L989.2 376.8L1020.2 394.7L988.9 412.8ZM959.8 394.7L988.9 411.5L1018 394.7L988.9 377.9L959.8 394.7Z" fill="#377FB8"/>
<path opacity="0.4" d="M1019.1 430.2L1018.8 430L987.8 412.1L1019.1 394L1019.4 394.2L1050.4 412.1L1019.1 430.2ZM990 412.1L1019.1 428.9L1048.2 412.1L1019.1 395.3L990 412.1Z" fill="#377FB8"/>
<path opacity="0.4" d="M717.3 290.8L686 272.8L717.3 254.7L748.6 272.8L717.3 290.8ZM688.2 272.8L717.3 289.6L746.4 272.8L717.3 256L688.2 272.8Z" fill="#377FB8"/>
<path opacity="0.4" d="M747.5 308.2L716.2 290.1L747.5 272L747.8 272.2L778.8 290.1L747.5 308.2ZM718.4 290.2L747.5 307L776.6 290.2L747.5 273.4L718.4 290.2Z" fill="#377FB8"/>
<path opacity="0.4" d="M777.6 325.7L777.3 325.5L746.3 307.6L777.6 289.5L777.9 289.7L808.9 307.6L777.6 325.7ZM748.6 307.6L777.7 324.4L806.8 307.6L777.7 290.8L748.6 307.6Z" fill="#377FB8"/>
<path opacity="0.4" d="M807.8 343.1L807.5 342.9L776.5 325L807.8 306.9L839.1 325L807.8 343.1ZM778.7 325L807.8 341.8L836.9 325L807.8 308.2L778.7 325Z" fill="#377FB8"/>
<path opacity="0.4" d="M838 360.5L837.7 360.3L806.7 342.4L838 324.3L838.3 324.5L869.3 342.4L838 360.5ZM808.9 342.4L838 359.2L867.1 342.4L838 325.7L808.9 342.4Z" fill="#377FB8"/>
<path opacity="0.4" d="M868.2 377.9L836.9 359.8L868.2 341.7L868.5 341.9L899.5 359.8L868.2 377.9ZM839.1 359.9L868.2 376.7L897.3 359.9L868.2 343.1L839.1 359.9Z" fill="#377FB8"/>
<path opacity="0.4" d="M898.4 395.4L898.1 395.2L867.1 377.3L898.4 359.2L898.7 359.4L929.7 377.3L898.4 395.4ZM869.3 377.3L898.4 394.1L927.5 377.3L898.4 360.5L869.3 377.3Z" fill="#377FB8"/>
<path opacity="0.4" d="M928.5 412.8L928.2 412.6L897.2 394.7L928.5 376.6L928.8 376.8L959.8 394.7L928.5 412.8ZM899.5 394.7L928.6 411.5L957.7 394.7L928.6 377.9L899.5 394.7Z" fill="#377FB8"/>
<path opacity="0.4" d="M958.7 430.2L927.4 412.1L958.7 394L990 412.1L958.7 430.2ZM929.6 412.1L958.7 428.9L987.8 412.1L958.7 395.3L929.6 412.1Z" fill="#377FB8"/>
<path opacity="0.4" d="M717.3 325.7L686 307.6L717.3 289.5L748.6 307.6L717.3 325.7ZM688.2 307.6L717.3 324.4L746.4 307.6L717.3 290.8L688.2 307.6Z" fill="#377FB8"/>
<path opacity="0.4" d="M747.5 343.1L716.2 325L747.5 307L747.8 307.2L778.8 325.1L747.5 343.1ZM718.4 325L747.5 341.8L776.5 325L747.4 308.2L718.4 325Z" fill="#377FB8"/>
<path opacity="0.4" d="M777.6 360.5L777.3 360.3L746.3 342.4L777.6 324.3L777.9 324.5L808.9 342.4L777.6 360.5ZM748.6 342.4L777.7 359.2L806.8 342.4L777.7 325.6L748.6 342.4Z" fill="#377FB8"/>
<path opacity="0.4" d="M807.8 377.9L807.5 377.7L776.5 359.8L807.8 341.7L808.1 341.9L839.1 359.8L807.8 377.9ZM778.8 359.9L807.9 376.7L837 359.9L807.9 343.1L778.8 359.9Z" fill="#377FB8"/>
<path opacity="0.4" d="M838 395.4L837.7 395.2L806.7 377.3L838 359.2L869.3 377.3L838 395.4ZM808.9 377.3L838 394.1L867.1 377.3L838 360.5L808.9 377.3Z" fill="#377FB8"/>
<path opacity="0.4" d="M868.2 412.8L867.9 412.6L836.9 394.7L868.2 376.6L868.5 376.8L899.5 394.7L868.2 412.8ZM839.1 394.7L868.2 411.5L897.3 394.7L868.2 377.9L839.1 394.7Z" fill="#377FB8"/>
<path opacity="0.4" d="M898.4 430.2L867.1 412.1L898.4 394L898.7 394.2L929.7 412.1L898.4 430.2ZM869.3 412.1L898.4 428.9L927.5 412.1L898.4 395.3L869.3 412.1Z" fill="#377FB8"/>
<path opacity="0.4" d="M717.3 360.5L717 360.3L686 342.4L717.3 324.3L748.6 342.4L717.3 360.5ZM688.2 342.4L717.3 359.2L746.4 342.4L717.3 325.6L688.2 342.4Z" fill="#377FB8"/>
<path opacity="0.4" d="M747.5 377.9L716.2 359.8L747.5 341.7L747.8 341.9L778.8 359.8L747.5 377.9ZM718.4 359.9L747.5 376.7L776.6 359.9L747.5 343.1L718.4 359.9Z" fill="#377FB8"/>
<path opacity="0.4" d="M777.6 395.4L777.3 395.2L746.3 377.3L777.6 359.2L777.9 359.4L808.9 377.3L777.6 395.4ZM748.6 377.3L777.7 394.1L806.8 377.3L777.7 360.5L748.6 377.3Z" fill="#377FB8"/>
<path opacity="0.4" d="M807.8 412.8L807.5 412.6L776.5 394.7L807.8 376.6L808.1 376.8L839.1 394.7L807.8 412.8ZM778.8 394.7L807.9 411.5L837 394.7L807.9 377.9L778.8 394.7Z" fill="#377FB8"/>
<path opacity="0.4" d="M838 430.2L837.7 430L806.7 412.1L838 394L838.3 394.2L869.3 412.1L838 430.2ZM808.9 412.1L838 428.9L867.1 412.1L838 395.4L808.9 412.1Z" fill="#377FB8"/>
<path opacity="0.4" d="M717.3 395.4L717 395.2L686 377.3L717.3 359.2L748.6 377.3L717.3 395.4ZM688.2 377.3L717.3 394.1L746.4 377.3L717.3 360.5L688.2 377.3Z" fill="#377FB8"/>
<path opacity="0.4" d="M747.5 412.8L747.2 412.6L716.2 394.7L747.5 376.6L747.8 376.8L778.8 394.7L747.5 412.8ZM718.4 394.7L747.5 411.5L776.6 394.7L747.5 377.9L718.4 394.7Z" fill="#377FB8"/>
<path opacity="0.4" d="M777.6 430.2L746.3 412.1L777.6 394L777.9 394.2L808.9 412.1L777.6 430.2ZM748.6 412.1L777.7 428.9L806.8 412.1L777.7 395.3L748.6 412.1Z" fill="#377FB8"/>
<path opacity="0.4" d="M717.3 430.2L717 430L686 412.1L717.3 394L717.6 394.2L748.6 412.1L717.3 430.2ZM688.2 412.1L717.3 428.9L746.4 412.1L717.3 395.3L688.2 412.1Z" fill="#377FB8"/>
</g>
<path opacity="0.25" d="M903.303 380.25L786.328 312.86C782.86 310.828 783.338 307.363 787.285 305.093L975.785 195.883C979.851 193.612 985.831 193.373 989.3 195.285L1106.27 262.675C1109.74 264.707 1109.27 268.172 1105.32 270.442L916.819 379.653C912.872 382.042 906.772 382.281 903.303 380.25Z" fill="url(#paint0_linear)" fill-opacity="0.25"/>
<g opacity="0.75">
<path d="M973.755 68.8055L871.253 7.27004C866.708 4.52186 862.163 4.28289 858.216 6.07518L848.527 9.65977H855.943C854.508 12.0495 853.431 14.9172 852.714 18.1433L798.413 266.436C795.303 280.535 801.044 296.905 811.21 302.879L913.713 364.415C914.789 365.012 915.866 365.609 916.942 365.968L912.876 372.181L921.487 369.194C926.511 366.924 930.577 361.427 932.371 353.661L986.553 105.368C989.663 91.2689 983.922 74.8993 973.755 68.8055Z" fill="#8992A2"/>
<path d="M899.36 371.225L796.858 309.69C786.691 303.596 780.95 287.227 784.06 273.247L838.241 24.9541C841.351 10.8547 852.116 4.40243 862.163 10.4962L964.665 72.0317C974.832 78.1255 980.573 94.4951 977.463 108.475L923.281 356.768C920.291 370.867 909.527 377.319 899.36 371.225Z" fill="#B1B7C3"/>
<path d="M1079.3 134.9L1074 137.9V131.8L1079.3 128.8V134.9Z" fill="white"/>
<path d="M1087.8 130L1082.5 133V126.9L1087.8 123.9V130Z" fill="white"/>
<path d="M1096.4 125L1091.1 128.1V122L1096.4 118.9V125Z" fill="white"/>
<path d="M1104.9 120.1L1099.6 123.1V117L1104.9 114V120.1Z" fill="white"/>
<path d="M899.599 364.176L799.489 304.074C791.595 299.295 787.17 286.629 789.562 275.636L843.504 28.6581C845.896 17.6654 854.269 12.6469 862.163 17.4264L962.153 77.6475C970.047 82.4269 974.473 95.0925 972.081 106.085L918.138 353.063C915.746 363.937 907.493 368.955 899.599 364.176Z" fill="white" fill-opacity="0.75"/>
</g>
<path d="M891.227 69.0442L879.864 62.4725C878.788 61.8751 878.19 60.3217 878.429 59.1269C878.668 57.932 879.864 57.3346 880.821 57.932L892.184 64.5038C893.26 65.1012 893.858 66.6545 893.619 67.8494C893.38 69.0442 892.303 69.6417 891.227 69.0442Z" fill="white"/>
<path d="M918.497 84.697L901.633 75.0186C900.556 74.4211 899.958 72.8678 900.197 71.673C900.437 70.4781 901.633 69.8807 902.589 70.4781L919.454 80.1565C920.53 80.7539 921.128 82.3072 920.889 83.5021C920.65 84.8164 919.574 85.2944 918.497 84.697Z" fill="white"/>
<path d="M871.372 122.216L860.01 115.644C858.933 115.046 858.335 113.493 858.574 112.298C858.814 111.103 860.01 110.506 860.966 111.103L872.329 117.675C873.406 118.273 874.004 119.826 873.764 121.021C873.525 122.335 872.449 122.813 871.372 122.216Z" fill="white"/>
<path d="M895.652 136.196L878.788 126.517C877.711 125.92 877.113 124.366 877.353 123.172C877.592 121.977 878.788 121.379 879.745 121.977L896.609 131.655C897.686 132.253 898.284 133.806 898.044 135.001C897.805 136.315 896.729 136.793 895.652 136.196Z" fill="white"/>
<path d="M857.618 60.3217L850.441 56.2592C849.365 55.6617 848.767 54.1084 849.006 52.9136C849.245 51.7187 850.441 51.1213 851.398 51.7187L858.574 55.7812C859.651 56.3787 860.249 57.932 860.01 59.1268C859.77 60.4412 858.694 60.9191 857.618 60.3217Z" fill="white"/>
<path d="M879.625 83.8605L857.857 71.3145C856.78 70.717 856.182 69.1637 856.421 67.9689C856.661 66.774 857.857 66.1766 858.814 66.774L880.582 79.32C881.658 79.9175 882.256 81.4708 882.017 82.6657C881.778 83.8605 880.701 84.458 879.625 83.8605Z" fill="white"/>
<path d="M860.488 94.3753L853.312 90.3128C852.235 89.7154 851.637 88.162 851.876 86.9672C852.116 85.7723 853.312 85.1749 854.269 85.7723L861.445 89.8348C862.521 90.4323 863.119 91.9856 862.88 93.1805C862.641 94.4948 861.565 94.9727 860.488 94.3753Z" fill="white"/>
<path d="M899.24 159.973L880.223 148.981C879.147 148.383 878.549 146.83 878.788 145.635C879.027 144.44 880.223 143.843 881.18 144.44L900.197 155.433C901.274 156.03 901.872 157.584 901.633 158.778C901.393 159.973 900.317 160.571 899.24 159.973Z" fill="white"/>
<path d="M853.551 111.94L849.006 109.311C847.929 108.714 847.331 107.16 847.571 105.965C847.81 104.771 849.006 104.173 849.963 104.771L854.508 107.399C855.584 107.997 856.182 109.55 855.943 110.745C855.704 112.059 854.627 112.537 853.551 111.94Z" fill="white"/>
<path d="M850.322 131.655L844.58 128.429C843.504 127.831 842.906 126.278 843.145 125.083C843.384 123.888 844.58 123.291 845.537 123.888L851.278 127.115C852.355 127.712 852.953 129.265 852.714 130.46C852.474 131.775 851.398 132.252 850.322 131.655Z" fill="white"/>
<path d="M872.449 144.44L857.498 135.837C856.421 135.24 855.823 133.686 856.063 132.491C856.302 131.297 857.498 130.699 858.455 131.297L873.406 139.9C874.482 140.497 875.08 142.05 874.841 143.245C874.602 144.44 873.406 145.038 872.449 144.44Z" fill="white"/>
<path d="M853.192 144.082L842.428 137.868C841.351 137.271 840.753 135.718 840.992 134.523C841.231 133.328 842.428 132.73 843.384 133.328L854.149 139.541C855.225 140.139 855.823 141.692 855.584 142.887C855.345 144.201 854.269 144.679 853.192 144.082Z" fill="white"/>
<path d="M915.626 169.413L908.689 165.47C907.613 164.872 907.015 163.319 907.254 162.124C907.493 160.929 908.689 160.332 909.646 160.929L916.583 164.872C917.66 165.47 918.258 167.023 918.019 168.218C917.779 169.532 916.703 170.01 915.626 169.413Z" fill="white"/>
<path d="M887.041 109.67L868.023 98.6768C866.947 98.0794 866.349 96.5261 866.588 95.3312C866.827 94.1364 868.023 93.5389 868.98 94.1364L887.997 105.129C889.074 105.727 889.672 107.28 889.433 108.475C889.194 109.789 888.117 110.267 887.041 109.67Z" fill="white"/>
<path d="M888.835 99.8717L855.584 80.7539C854.508 80.1564 853.91 78.6031 854.149 77.4082C854.388 76.2134 855.584 75.6159 856.541 76.2134L889.792 95.3312C890.868 95.9286 891.466 97.4819 891.227 98.6768C890.988 99.9912 889.911 100.589 888.835 99.8717Z" fill="white"/>
<path d="M870.296 110.745L851.278 99.7522C850.202 99.1548 849.604 97.6014 849.843 96.4066C850.082 95.2117 851.278 94.6143 852.235 95.2117L871.253 106.204C872.329 106.802 872.927 108.355 872.688 109.55C872.449 110.864 871.253 111.462 870.296 110.745Z" fill="white"/>
<path d="M901.513 118.034L894.576 114.091C893.499 113.493 892.901 111.94 893.141 110.745C893.38 109.55 894.576 108.953 895.533 109.55L902.47 113.493C903.546 114.091 904.144 115.644 903.905 116.839C903.666 118.153 902.589 118.631 901.513 118.034Z" fill="white"/>
<path d="M953.183 103.456L946.246 99.5133C945.169 98.9158 944.571 97.3625 944.81 96.1676C945.05 94.9728 946.246 94.3753 947.203 94.9728L954.14 98.9158C955.216 99.5133 955.814 101.067 955.575 102.261C955.336 103.576 954.259 104.054 953.183 103.456Z" fill="white"/>
<path d="M869.698 132.014L846.853 118.751C845.777 118.153 845.179 116.6 845.418 115.405C845.657 114.21 846.853 113.613 847.81 114.21L870.655 127.473C871.731 128.07 872.329 129.624 872.09 130.819C871.851 132.133 870.774 132.611 869.698 132.014Z" fill="white"/>
<path d="M869.459 56.4982L852.594 46.8198C851.518 46.2223 850.92 44.669 851.159 43.4742C851.398 42.2793 852.594 41.6819 853.551 42.2793L870.415 51.9577C871.492 52.5551 872.09 54.1084 871.851 55.3033C871.611 56.4982 870.535 57.0956 869.459 56.4982Z" fill="white"/>
<path d="M850.202 153.163L830.706 141.931C829.63 141.333 829.032 139.78 829.271 138.585C829.51 137.39 830.706 136.793 831.663 137.39L851.159 148.622C852.235 149.22 852.833 150.773 852.594 151.968C852.355 153.282 851.278 153.76 850.202 153.163Z" fill="white"/>
<path d="M861.923 215.296L850.561 208.724C849.484 208.127 848.886 206.573 849.125 205.378C849.365 204.183 850.561 203.586 851.518 204.183L862.88 210.755C863.957 211.353 864.555 212.906 864.315 214.101C864.076 215.415 862.88 215.893 861.923 215.296Z" fill="white"/>
<path d="M889.074 230.948L872.209 221.27C871.133 220.673 870.535 219.119 870.774 217.924C871.013 216.73 872.209 216.132 873.166 216.73L890.031 226.408C891.107 227.005 891.705 228.559 891.466 229.754C891.227 231.068 890.15 231.546 889.074 230.948Z" fill="white"/>
<path d="M841.949 268.467L830.587 261.895C829.51 261.298 828.912 259.745 829.151 258.55C829.39 257.355 830.587 256.757 831.543 257.355L842.906 263.927C843.982 264.524 844.58 266.077 844.341 267.272C844.102 268.587 843.026 269.065 841.949 268.467Z" fill="white"/>
<path d="M866.229 282.447L849.365 272.769C848.288 272.171 847.69 270.618 847.929 269.423C848.169 268.228 849.365 267.631 850.322 268.228L867.186 277.907C868.262 278.504 868.861 280.057 868.621 281.252C868.382 282.567 867.306 283.164 866.229 282.447Z" fill="white"/>
<path d="M828.194 206.693L821.018 202.63C819.942 202.033 819.344 200.479 819.583 199.285C819.822 198.09 821.018 197.492 821.975 198.09L829.151 202.152C830.228 202.75 830.826 204.303 830.587 205.498C830.347 206.693 829.271 207.29 828.194 206.693Z" fill="white"/>
<path d="M850.202 230.112L828.434 217.566C827.357 216.968 826.759 215.415 826.998 214.22C827.238 213.025 828.434 212.428 829.39 213.025L851.159 225.572C852.235 226.169 852.833 227.722 852.594 228.917C852.355 230.231 851.278 230.709 850.202 230.112Z" fill="white"/>
<path d="M831.065 240.627L823.889 236.564C822.812 235.967 822.214 234.413 822.453 233.219C822.693 232.024 823.889 231.426 824.845 232.024L832.022 236.086C833.098 236.684 833.696 238.237 833.457 239.432C833.218 240.746 832.141 241.344 831.065 240.627Z" fill="white"/>
<path d="M869.937 306.225L850.92 295.232C849.843 294.635 849.245 293.081 849.484 291.886C849.724 290.692 850.92 290.094 851.876 290.692L870.894 301.684C871.97 302.282 872.568 303.835 872.329 305.03C872.09 306.225 870.894 306.822 869.937 306.225Z" fill="white"/>
<path d="M824.128 258.191L819.583 255.563C818.506 254.965 817.908 253.412 818.148 252.217C818.387 251.022 819.583 250.425 820.54 251.022L825.085 253.651C826.161 254.248 826.759 255.801 826.52 256.996C826.281 258.311 825.204 258.908 824.128 258.191Z" fill="white"/>
<path d="M820.898 277.906L815.157 274.68C814.081 274.083 813.483 272.53 813.722 271.335C813.961 270.14 815.157 269.542 816.114 270.14L821.855 273.366C822.932 273.963 823.53 275.517 823.291 276.712C823.051 278.026 821.975 278.504 820.898 277.906Z" fill="white"/>
<path d="M843.026 290.692L828.075 282.089C826.998 281.491 826.4 279.938 826.64 278.743C826.879 277.548 828.075 276.951 829.032 277.548L843.982 286.151C845.059 286.749 845.657 288.302 845.418 289.497C845.178 290.811 844.102 291.289 843.026 290.692Z" fill="white"/>
<path d="M823.769 290.333L813.004 284.12C811.928 283.522 811.33 281.969 811.569 280.774C811.808 279.579 813.004 278.982 813.961 279.579L824.726 285.793C825.802 286.39 826.4 287.943 826.161 289.138C825.922 290.453 824.845 290.931 823.769 290.333Z" fill="white"/>
<path d="M886.203 315.664L879.266 311.721C878.19 311.124 877.592 309.57 877.831 308.376C878.07 307.181 879.266 306.583 880.223 307.181L887.16 311.124C888.237 311.721 888.835 313.274 888.596 314.469C888.356 315.784 887.28 316.262 886.203 315.664Z" fill="white"/>
<path d="M857.618 256.041L838.6 245.048C837.524 244.45 836.926 242.897 837.165 241.702C837.404 240.507 838.6 239.91 839.557 240.507L858.574 251.5C859.651 252.097 860.249 253.651 860.01 254.846C859.77 256.041 858.694 256.638 857.618 256.041Z" fill="white"/>
<path d="M859.412 246.243L826.161 227.125C825.085 226.527 824.487 224.974 824.726 223.779C824.965 222.584 826.161 221.987 827.118 222.584L860.368 241.702C861.445 242.3 862.043 243.853 861.804 245.048C861.565 246.243 860.488 246.84 859.412 246.243Z" fill="white"/>
<path d="M840.873 257.116L821.855 246.123C820.779 245.526 820.181 243.972 820.42 242.778C820.659 241.583 821.855 240.985 822.812 241.583L841.83 252.575C842.906 253.173 843.504 254.726 843.265 255.921C843.026 257.116 841.83 257.713 840.873 257.116Z" fill="white"/>
<path d="M872.09 264.285L865.153 260.342C864.076 259.745 863.478 258.191 863.717 256.996C863.957 255.802 865.153 255.204 866.11 255.802L873.047 259.745C874.123 260.342 874.721 261.895 874.482 263.09C874.243 264.405 873.166 264.882 872.09 264.285Z" fill="white"/>
<path d="M840.275 278.384L817.43 265.121C816.353 264.524 815.755 262.971 815.995 261.776C816.234 260.581 817.43 259.984 818.387 260.581L841.351 273.844C842.428 274.441 843.026 275.995 842.786 277.19C842.428 278.384 841.351 278.982 840.275 278.384Z" fill="white"/>
<path d="M840.035 202.75L823.171 193.071C822.095 192.474 821.496 190.92 821.736 189.726C821.975 188.531 823.171 187.933 824.128 188.531L840.992 198.209C842.069 198.807 842.667 200.36 842.428 201.555C842.188 202.75 841.112 203.347 840.035 202.75Z" fill="white"/>
<path d="M820.779 299.414L801.283 288.182C800.207 287.585 799.609 286.032 799.848 284.837C800.087 283.642 801.283 283.044 802.24 283.642L821.736 294.874C822.812 295.471 823.41 297.024 823.171 298.219C822.932 299.534 821.855 300.012 820.779 299.414Z" fill="white"/>
<path opacity="0.25" d="M772.458 354.856C757.029 345.894 732.031 345.894 716.602 354.856C701.173 363.817 701.173 378.156 716.602 387.117C732.031 396.079 757.029 396.079 772.458 387.117C787.887 378.156 787.887 363.698 772.458 354.856ZM743.633 371.226C739.686 373.496 733.227 373.496 729.28 371.226C725.333 368.955 725.333 365.251 729.28 362.981C733.227 360.711 739.686 360.711 743.633 362.981C747.58 365.251 747.58 368.955 743.633 371.226Z" fill="#BCD6DE"/>
<path opacity="0.25" d="M780.83 379.948C778.797 381.979 776.166 383.891 773.175 385.683C770.185 387.476 766.836 388.909 763.248 390.104L770.783 394.406L782.146 395.003L787.767 398.229L785.495 399.544L789.801 402.053L794.346 399.424L801.761 403.726L794.226 408.027L799.728 411.253L805.11 414.36L811.808 410.537L821.616 416.272L817.908 418.423L824.247 422.127L827.955 419.976L830.945 421.649L827.955 427.623L837.524 433.119H872.688L780.83 379.948Z" fill="#BCD6DE"/>
<path d="M784.06 367.76V357.126L780.95 358.918C779.036 356.29 776.166 353.9 772.577 351.749C757.148 342.788 732.151 342.788 716.721 351.749C712.416 354.259 709.306 357.126 707.392 360.233L705 357.126V367.76C705 373.615 708.827 379.47 716.602 383.891C732.031 392.853 757.029 392.853 772.458 383.891C780.232 379.47 784.06 373.615 784.06 367.76ZM743.394 360.83C739.447 363.1 732.988 363.1 729.041 360.83C725.094 358.56 725.094 354.856 729.041 352.586C732.988 350.315 739.447 350.315 743.394 352.586C747.341 354.856 747.46 358.56 743.394 360.83Z" fill="#E8A200"/>
<path d="M741.241 376.244L724.137 367.88L708.947 357.843C708.349 358.56 707.751 359.396 707.273 360.233L705 357.126V367.76C705 373.615 708.827 379.47 716.602 383.891C723.419 387.834 732.27 390.104 741.241 390.463V376.244Z" fill="#FDD762"/>
<path d="M772.458 340.996C757.029 332.034 732.031 332.034 716.602 340.996C701.173 349.957 701.173 364.295 716.602 373.257C732.031 382.218 757.029 382.218 772.458 373.257C787.887 364.295 787.887 349.957 772.458 340.996ZM743.633 357.485C739.686 359.755 733.227 359.755 729.28 357.485C725.333 355.214 725.333 351.51 729.28 349.24C733.227 346.97 739.686 346.97 743.633 349.24C747.58 351.391 747.58 355.095 743.633 357.485Z" fill="#FDD762"/>
<path d="M751.288 346.611H729.878C727.964 347.089 726.051 347.567 724.137 348.284V366.446H751.288V346.611ZM743.394 360.83C739.447 363.101 732.988 363.101 729.041 360.83C725.094 358.56 725.094 354.856 729.041 352.586C732.988 350.315 739.447 350.315 743.394 352.586C747.341 354.856 747.46 358.56 743.394 360.83Z" fill="#E8A200"/>
<path d="M769.228 342.907C755.593 335.021 733.586 335.021 719.951 342.907C706.316 350.793 706.316 363.459 719.951 371.345C733.586 379.231 755.593 379.231 769.228 371.345C782.744 363.459 782.744 350.793 769.228 342.907ZM743.633 357.485C739.686 359.755 733.227 359.755 729.28 357.485C725.333 355.214 725.333 351.51 729.28 349.24C733.227 346.97 739.686 346.97 743.633 349.24C747.58 351.391 747.58 355.095 743.633 357.485Z" fill="#F2B42A"/>
<path d="M719.951 345.894C733.586 338.008 755.593 338.008 769.228 345.894C775.328 349.479 778.797 354.02 779.275 358.679C779.993 353.064 776.644 347.328 769.228 343.027C755.593 335.141 733.586 335.141 719.951 343.027C712.535 347.328 709.186 353.064 709.904 358.679C710.382 353.9 713.731 349.36 719.951 345.894Z" fill="#E8A200"/>
<path d="M780.83 376.722C778.797 378.753 776.166 380.665 773.175 382.457C770.185 384.25 766.836 385.683 763.248 386.878L770.783 391.18L782.146 391.777L787.767 395.003L785.495 396.318L789.801 398.827L794.346 396.198L801.881 400.5L794.346 404.801L799.848 408.027L805.23 411.134L811.928 407.31L821.736 413.046L818.028 415.197L824.367 418.901L828.075 416.75L831.065 418.423L828.075 424.397L837.643 429.893H872.807L780.83 376.722Z" fill="#F2B42A"/>
<path d="M780.83 368.955C778.797 370.987 776.166 372.898 773.175 374.691C770.185 376.483 766.836 377.917 763.248 379.112L770.783 383.413L782.146 384.011L787.767 387.237L785.495 388.551L789.801 391.06L794.346 388.432L801.761 392.733L794.226 397.035L799.728 400.261L805.11 403.367L811.808 399.544L821.616 405.279L817.908 407.43L824.247 411.134L827.955 408.983L830.945 410.656L827.955 416.63L837.524 422.127H872.688L780.83 368.955Z" fill="#FDD762"/>
<path d="M872.807 422.007H837.643V429.774H872.807V422.007Z" fill="#E8A200"/>
<path d="M824.247 418.781V411.015L828.075 408.864V416.511L824.247 418.781Z" fill="#E8A200"/>
<path d="M817.908 407.31V415.077L824.247 418.781V411.014L817.908 407.31Z" fill="#EEAD00"/>
<path d="M811.808 399.544V407.191L805.23 411.014V403.367L811.808 399.544Z" fill="#E8A200"/>
<path d="M794.346 397.035V404.801L805.23 411.014V403.367L794.346 397.035Z" fill="#EEAD00"/>
<path d="M828.075 416.511L827.955 424.277L837.643 429.774V422.007L828.075 416.511Z" fill="#EEAD00"/>
<path d="M789.801 391.18V398.827L785.495 396.437V388.671L789.801 391.18Z" fill="#EEAD00"/>
<path d="M770.783 383.533V391.18L782.146 391.777V384.13L770.783 383.533Z" fill="#E8A200"/>
<path d="M848.767 416.511L781.428 377.678L785.136 375.527L856.182 416.511H848.767Z" fill="#E8A200"/>
<path d="M785.136 377.439L852.953 416.511H856.182L785.136 375.527L781.428 377.678L783.103 378.634L785.136 377.439Z" fill="#F2B42A"/>
<path d="M770.783 391.18V383.533L763.248 379.112V386.878L770.783 391.18Z" fill="#E8A200"/>
<path d="M794.346 388.432V396.198L789.801 398.827V391.18L794.346 388.432Z" fill="#E8A200"/>
<path d="M769.229 342.907C761.574 338.486 751.288 336.574 741.241 337.052V340.04C751.168 339.442 761.574 341.473 769.229 345.894C775.328 349.479 778.797 354.019 779.275 358.679C779.993 352.944 776.644 347.209 769.229 342.907Z" fill="#FDD762"/>
<path opacity="0.05" d="M923.64 228.439L938.711 165.231L912.158 146.233C898.762 136.674 884.768 128.549 870.655 122.335L842.547 109.67L827.477 172.878C827.477 172.878 814.918 218.402 858.574 271.813C914.072 275.636 923.64 228.439 923.64 228.439Z" fill="black"/>
<path d="M888.835 89.7154C873.047 78.3642 856.661 68.9248 840.035 61.5166L806.905 46.8198L796.26 51.0018C796.26 51.0018 800.924 53.5111 804.752 55.5423L789.083 121.14C789.083 121.14 774.252 174.67 825.683 237.401C835.49 238.117 844.102 237.401 851.757 235.728C851.637 236.325 851.518 236.803 851.518 236.803L861.086 233.099C861.923 232.741 862.88 232.382 863.717 232.024L863.957 231.904C895.891 218.522 902.47 186.38 902.47 186.38L920.291 112.059L888.835 89.7154Z" fill="#8992A2"/>
<path d="M840.035 61.5166L806.904 46.8198L796.26 51.0018C796.26 51.0018 800.924 53.5111 804.752 55.5423L799.01 79.3201L858.096 117.675L909.407 116.241L920.052 112.059L888.835 89.7154C873.047 78.3642 856.661 68.9248 840.035 61.5166Z" fill="#8992A2"/>
<path d="M855.584 79.0811L866.229 75.0186C857.617 70.0002 848.886 65.4597 839.916 61.5166L806.904 46.8198L796.26 51.0018C796.26 51.0018 800.924 53.5111 804.752 55.5423L804.393 56.9762C825.085 65.9376 855.584 79.0811 855.584 79.0811Z" fill="#CFD4DC"/>
<path d="M857.857 70.3587L838.002 77.7668L854.627 87.3257L874.362 79.9176C868.861 76.572 863.359 73.3458 857.857 70.3587Z" fill="#939DAC"/>
<path d="M891.705 190.562L909.527 116.241L878.309 93.8974C862.521 82.5462 846.135 73.1068 829.39 65.6986L796.379 51.0018L778.558 125.322C778.558 125.322 763.727 178.852 815.157 241.583C880.462 246.123 891.705 190.562 891.705 190.562Z" fill="#B1B7C3"/>
<path d="M819.224 233.457C796.02 204.064 788.246 177.179 785.854 159.734C783.222 140.139 786.452 127.593 786.452 127.473L802.001 62.5921L825.922 73.2264C842.069 80.3955 857.976 89.596 873.286 100.589L899.958 119.707L883.452 188.65L883.333 188.889C883.333 189.009 880.701 201.077 871.253 212.428C859.292 227.244 841.829 234.294 819.224 233.457Z" fill="#8792A2"/>
<path d="M827.357 95.2121C826.879 96.7655 827.477 98.7967 828.912 99.5136C830.347 100.231 831.783 99.6331 832.381 98.0798C832.859 96.5265 832.261 94.4952 830.826 93.7783C829.39 92.9419 827.836 93.5393 827.357 95.2121Z" fill="#C0C6D0"/>
<path d="M819.344 90.5522C818.865 92.1055 819.463 94.1367 820.898 94.8537C822.334 95.6901 823.769 94.9732 824.367 93.4198C824.845 91.8665 824.247 89.8352 822.812 89.1183C821.377 88.2819 819.822 88.8794 819.344 90.5522Z" fill="#C0C6D0"/>
<path d="M811.21 85.8922C810.732 87.4455 811.33 89.4768 812.765 90.1937C814.2 91.0301 815.636 90.3132 816.234 88.7599C816.712 87.2065 816.114 85.1753 814.679 84.4584C813.244 83.7414 811.808 84.2194 811.21 85.8922Z" fill="#C0C6D0"/>
<g style="mix-blend-mode:luminosity">
<path d="M843.332 136.694C840.076 135.063 836.587 134.946 833.68 135.995C832.168 132.617 829.493 129.705 826.237 127.957C820.539 125.045 814.375 126.793 811.003 131.801C810.422 132.384 809.259 135.762 809.259 135.762C809.259 135.762 806.7 145.546 805.886 151.254C804.956 156.962 805.886 162.203 809.259 167.562C809.956 168.726 810.654 169.425 811.468 169.775C814.375 171.289 817.399 168.027 816.236 165.232C816.12 164.882 816.004 164.649 815.887 164.416C814.608 161.737 813.91 158.825 814.027 155.913C813.91 154.981 814.724 151.487 814.724 151.487L817.399 142.634L818.213 139.955C819.027 137.392 821.586 136.228 823.911 137.392C826.237 138.557 827.516 141.586 826.702 144.265L823.33 155.098L823.097 155.797C822.283 158.359 823.563 161.504 825.888 162.669C828.214 163.834 830.773 162.669 831.587 160.107L831.936 159.058L835.192 148.458C836.006 145.896 838.564 144.731 840.89 145.896C843.216 147.061 844.495 150.089 843.681 152.768L842.867 155.447L840.425 163.601L840.541 163.718L840.309 164.533C839.495 167.096 840.425 170.008 842.751 171.172C845.077 172.337 847.635 171.172 848.449 168.61L848.798 167.678C848.798 167.678 852.054 156.612 852.519 153.234C852.868 150.206 852.054 147.643 850.891 144.381C849.03 141.003 846.472 138.324 843.332 136.694Z" fill="#1B5F96"/>
<path d="M855.078 138.79C852.17 137.276 849.263 140.538 850.31 143.333C850.426 143.683 850.542 143.916 850.658 144.149C851.821 147.41 852.752 149.973 852.287 153.001C851.821 156.379 848.565 167.445 848.565 167.445L848.216 168.377C847.402 170.94 844.844 172.104 842.518 170.94C840.192 169.775 839.262 166.863 840.076 164.3L840.308 163.485L840.192 163.368L842.634 155.214L843.448 152.535C844.262 149.973 842.983 146.828 840.657 145.663C838.332 144.498 835.773 145.663 834.959 148.225L831.935 159.058L831.587 159.99C830.773 162.669 828.214 163.718 825.888 162.553C823.562 161.388 822.283 158.243 823.097 155.68L823.33 154.981L826.702 144.149C827.516 141.586 826.237 138.441 823.911 137.276C821.585 136.111 819.027 137.276 818.213 139.839L817.399 142.518L814.724 151.37C814.724 151.37 813.794 154.865 814.027 155.797C813.91 158.709 814.608 161.737 815.887 164.3C817.515 167.562 819.957 170.241 823.097 171.871C826.353 173.502 829.842 173.619 832.75 172.57C834.261 175.948 836.936 178.86 840.192 180.608C845.89 183.52 852.054 181.772 855.426 176.764C856.008 176.181 857.287 172.92 857.287 172.92C857.287 172.92 859.846 163.135 860.66 157.428C861.59 151.72 860.66 146.478 857.287 141.12C856.589 139.955 855.775 139.256 855.078 138.79Z" fill="#8FBAD8"/>
</g>
<path d="M983.335 32.7026C983.135 32.7026 982.935 32.7026 982.735 32.5026C982.035 32.1026 981.835 31.3026 982.135 30.7026C983.535 28.0026 985.535 25.8026 987.735 24.5026C989.135 23.7026 990.435 23.3026 991.635 23.4026C993.335 23.5026 995.635 22.2026 997.535 19.8026C998.635 18.5026 999.835 17.4026 1001.14 16.7026C1002.54 15.9026 1003.83 15.5026 1005.03 15.6026C1006.83 15.7026 1009.03 14.4026 1010.93 12.0026C1012.03 10.7026 1013.23 9.60264 1014.53 8.90264C1015.93 8.10264 1017.24 7.70263 1018.44 7.80263C1020.24 7.90263 1022.44 6.60263 1024.34 4.20263C1025.44 2.90263 1026.64 1.80263 1027.94 1.10263C1029.94 -0.0973653 1031.93 -0.297365 1033.53 0.402635C1034.23 0.702635 1034.54 1.50263 1034.24 2.20263C1033.94 2.90263 1033.14 3.20263 1032.44 2.90263C1031.64 2.50263 1030.54 2.70263 1029.24 3.50263C1028.24 4.10263 1027.24 4.90263 1026.44 6.00263C1023.94 9.00263 1020.94 10.7026 1018.34 10.5026C1017.64 10.5026 1016.74 10.7026 1015.94 11.2026C1014.94 11.8026 1013.94 12.6026 1013.14 13.7026C1010.64 16.7026 1007.73 18.4026 1005.03 18.2026C1004.33 18.2026 1003.44 18.4026 1002.64 18.9026C1001.64 19.5026 1000.63 20.3026 999.835 21.4026C997.335 24.4026 994.335 26.1026 991.735 25.9026C991.035 25.9026 990.135 26.1026 989.335 26.6026C987.635 27.6026 985.935 29.4026 984.835 31.7026C984.235 32.5026 983.835 32.7026 983.335 32.7026Z" fill="white"/>
<path d="M1.335 72.7026C1.135 72.7026 0.935 72.7026 0.735 72.5026C0.035 72.1026 -0.165 71.3026 0.135 70.7026C1.535 68.0026 3.535 65.8026 5.735 64.5026C7.135 63.7026 8.435 63.3026 9.635 63.4026C11.335 63.5026 13.635 62.2026 15.535 59.8026C16.635 58.5026 17.835 57.4026 19.135 56.7026C20.535 55.9026 21.835 55.5026 23.035 55.6026C24.835 55.7026 27.035 54.4026 28.935 52.0026C30.035 50.7026 31.235 49.6026 32.535 48.9026C33.935 48.1026 35.235 47.7026 36.435 47.8026C38.235 47.9026 40.435 46.6026 42.335 44.2026C43.435 42.9026 44.635 41.8026 45.935 41.1026C47.935 39.9026 49.935 39.7026 51.535 40.4026C52.235 40.7026 52.535 41.5026 52.235 42.2026C51.935 42.9026 51.135 43.2026 50.435 42.9026C49.635 42.5026 48.535 42.7026 47.235 43.5026C46.235 44.1026 45.235 44.9026 44.435 46.0026C41.935 49.0026 38.935 50.7026 36.335 50.5026C35.635 50.5026 34.735 50.7026 33.935 51.2026C32.935 51.8026 31.935 52.6026 31.135 53.7026C28.635 56.7026 25.735 58.4026 23.035 58.2026C22.335 58.2026 21.435 58.4026 20.635 58.9026C19.635 59.5026 18.635 60.3026 17.835 61.4026C15.335 64.4026 12.335 66.1026 9.735 65.9026C9.035 65.9026 8.135 66.1026 7.335 66.6026C5.635 67.6026 3.935 69.4026 2.835 71.7026C2.235 72.5026 1.835 72.7026 1.335 72.7026Z" fill="white"/>
<path d="M643.3 343.53C643.3 345.23 642.1 347.23 640.7 348.13C639.2 348.93 638 348.23 638 346.53C638 344.83 639.2 342.83 640.6 341.93C642 341.03 643.3 341.83 643.3 343.53Z" fill="white"/>
<path d="M650.5 339.33C650.5 341.03 649.3 343.03 647.9 343.93C646.5 344.83 645.3 344.03 645.3 342.33C645.3 340.63 646.5 338.63 647.9 337.73C649.3 336.83 650.5 337.63 650.5 339.33Z" fill="white"/>
<path d="M643.3 335.13C643.3 336.83 642.1 338.83 640.7 339.73C639.3 340.63 638 339.83 638 338.13C638 336.43 639.2 334.43 640.6 333.53C642.1 332.73 643.3 333.43 643.3 335.13Z" fill="white"/>
<path d="M650.5 330.93C650.5 332.63 649.3 334.63 647.9 335.53C646.5 336.43 645.3 335.63 645.3 333.93C645.3 332.23 646.5 330.23 647.9 329.33C649.4 328.53 650.5 329.23 650.5 330.93Z" fill="white"/>
<path d="M713.3 192.694C713.3 194.394 712.1 196.394 710.7 197.294C709.2 198.094 708 197.394 708 195.694C708 193.994 709.2 191.994 710.6 191.194C712.1 190.294 713.3 190.994 713.3 192.694Z" fill="white"/>
<path d="M721.8 187.694C721.8 189.394 720.6 191.394 719.2 192.294C717.8 193.194 716.6 192.494 716.6 190.794C716.6 189.094 717.8 187.094 719.2 186.194C720.6 185.294 721.8 186.094 721.8 187.694Z" fill="white"/>
<path d="M730.4 182.794C730.4 184.494 729.2 186.494 727.8 187.394C726.3 188.194 725.2 187.594 725.2 185.894C725.2 184.194 726.4 182.194 727.8 181.294C729.2 180.494 730.4 181.094 730.4 182.794Z" fill="white"/>
<path d="M738.9 177.894C738.9 179.594 737.7 181.594 736.3 182.494C734.8 183.294 733.7 182.694 733.7 180.994C733.7 179.294 734.9 177.294 736.3 176.394C737.7 175.494 738.9 176.194 738.9 177.894Z" fill="white"/>
<path d="M1025.3 198.05C1025.1 198.05 1024.9 197.95 1024.7 197.85C1024.2 197.75 1024 197.25 1024 196.85V180.45C1024 180.05 1024.2 179.65 1024.6 179.35L1038.7 171.15C1039.1 170.95 1039.6 170.95 1040 171.15C1040.4 171.35 1040.6 171.75 1040.6 172.25V188.55C1040.6 189.05 1040.4 189.45 1040 189.65L1025.9 197.95C1025.7 198.05 1025.5 198.05 1025.3 198.05ZM1026.5 181.25V194.65L1038.1 187.95V174.55L1026.5 181.25Z" fill="white"/>
<path d="M668.335 299.703C668.135 299.703 667.935 299.703 667.735 299.503C667.035 299.103 666.835 298.303 667.135 297.703C668.535 295.003 670.535 292.803 672.735 291.503C674.135 290.703 675.435 290.303 676.635 290.403C678.435 290.503 680.635 289.203 682.535 286.803C683.635 285.503 684.835 284.403 686.135 283.703C687.535 282.903 688.835 282.503 690.035 282.603C691.835 282.703 694.035 281.403 695.935 279.003C697.035 277.703 698.235 276.603 699.535 275.903C700.935 275.103 702.235 274.703 703.435 274.803C705.235 274.903 707.435 273.603 709.335 271.203C710.435 269.903 711.635 268.803 712.935 268.103C714.935 266.903 716.935 266.703 718.535 267.403C719.235 267.703 719.535 268.503 719.235 269.203C718.935 269.903 718.135 270.203 717.435 269.903C716.635 269.503 715.535 269.703 714.235 270.503C713.235 271.103 712.235 271.903 711.435 273.003C708.935 276.003 705.935 277.703 703.335 277.503C702.635 277.503 701.735 277.703 700.935 278.203C699.935 278.803 698.935 279.603 698.135 280.703C695.635 283.703 692.635 285.403 690.035 285.203C689.335 285.203 688.435 285.403 687.635 285.903C686.635 286.503 685.635 287.303 684.835 288.403C682.335 291.403 679.335 293.103 676.735 292.903C676.035 292.903 675.135 293.103 674.335 293.603C672.635 294.603 670.935 296.403 669.835 298.703C669.235 299.503 668.835 299.703 668.335 299.703Z" fill="white"/>
<path d="M1109.41 320.003L1072.61 298.703C1071.71 298.203 1071.81 297.303 1072.91 296.703L1092.31 285.503C1093.31 284.903 1094.91 284.803 1095.81 285.403L1132.61 306.603C1133.51 307.103 1133.41 308.003 1132.31 308.603L1112.91 319.803C1111.91 320.403 1110.31 320.503 1109.41 320.003Z" fill="white"/>
<path d="M657.054 261.782L632.407 247.31C631.804 246.971 631.871 246.359 632.608 245.952L645.601 238.342C646.271 237.934 647.343 237.866 647.946 238.274L672.593 252.678C673.196 253.018 673.129 253.629 672.392 254.037L659.399 261.647C658.729 262.054 657.657 262.122 657.054 261.782Z" fill="white"/>
<defs>
<linearGradient id="paint0_linear" x1="1036.67" y1="206.405" x2="838.667" y2="339.405" gradientUnits="userSpaceOnUse">
<stop stop-color="white" stop-opacity="0"/>
<stop offset="1" stop-color="#343434"/>
</linearGradient>
</defs>
</svg>
