<svg width="612" height="436" viewBox="0 0 612 436" fill="none" xmlns="http://www.w3.org/2000/svg">
<path opacity="0.3" d="M257.698 99.5932C257.681 99.5673 257.664 99.5414 257.638 99.5155C257.629 99.5069 257.629 99.5069 257.62 99.4982C257.568 99.4292 257.516 99.3601 257.464 99.2996C257.455 99.291 257.446 99.2824 257.438 99.2737C257.386 99.2133 257.325 99.1529 257.273 99.1011C257.255 99.0924 257.247 99.0752 257.229 99.0665C257.195 99.032 257.151 98.9975 257.116 98.9629C256.535 97.711 255.267 96.8304 253.781 96.8304C253.199 96.8304 252.652 96.9685 252.157 97.2103C251.966 97.1153 251.758 97.0289 251.549 96.9599C250.637 95.2849 248.9 94.1107 246.868 93.9898C246.685 93.869 246.503 93.7654 246.303 93.679C246.069 93.5668 245.826 93.4804 245.565 93.4114C245.183 93.3078 244.783 93.256 244.367 93.256C243.871 93.256 243.402 93.3423 242.96 93.4804C242.803 93.2646 242.621 93.066 242.421 92.8933C242.438 92.7725 242.447 92.643 242.456 92.5221C242.464 92.384 242.473 92.2372 242.473 92.099C242.473 88.0757 239.199 84.8207 235.152 84.8207C234.978 84.8207 234.795 84.8294 234.622 84.838C234.101 84.8725 233.597 84.9675 233.11 85.1143C232.668 81.514 229.593 78.7252 225.85 78.7252C225.077 78.7252 224.338 78.8461 223.635 79.062C223.4 79.1397 223.175 79.2174 222.949 79.3123C222.063 79.6922 221.264 80.2448 220.604 80.9269C220.256 80.5901 219.866 80.2707 219.457 79.9858C218.91 79.6059 218.328 79.2692 217.712 78.9843C216.635 78.4921 215.471 78.1727 214.246 78.0518C214.072 78.0345 213.89 78.0259 213.716 78.0173C213.543 78.0086 213.36 78 213.178 78C211.919 78 210.703 78.2158 209.574 78.6044C209.009 78.8029 208.47 79.0447 207.949 79.321C207.689 79.4591 207.437 79.6145 207.194 79.7699C206.82 80.0203 206.464 80.2966 206.117 80.5901C205.674 80.97 205.257 81.3758 204.883 81.8162C204.414 82.3601 203.998 82.9472 203.641 83.5775C203.207 84.3459 202.869 85.1747 202.634 86.0381C202.382 86.0122 202.13 85.9949 201.87 85.9949C201.323 85.9949 200.801 86.0554 200.289 86.1676C200.115 86.2021 199.95 86.2453 199.785 86.2971C199.455 86.3921 199.134 86.513 198.83 86.6511C198.674 86.7202 198.526 86.7979 198.378 86.8756C197.041 87.6008 195.964 88.7232 195.295 90.0874C195.043 89.9924 194.791 89.9233 194.522 89.8801C194.253 89.8283 193.984 89.8024 193.706 89.8024C193.419 89.8024 193.132 89.8283 192.854 89.8801C192.029 90.0356 191.282 90.4068 190.683 90.9335C190.535 91.063 190.397 91.2011 190.266 91.3479C190.171 91.4601 190.075 91.5724 189.988 91.6932C189.841 91.9005 189.702 92.1249 189.589 92.358C188.781 92.453 188.025 92.7207 187.357 93.1265C187.183 93.1092 187.009 93.0919 186.836 93.0919C184.899 93.0919 183.24 94.2834 182.562 95.967C182.528 96.062 182.493 96.1569 182.458 96.2519C182.102 96.3123 181.755 96.4246 181.433 96.5627C181.329 96.5541 181.225 96.5541 181.121 96.5541C180.643 96.5541 180.191 96.6318 179.757 96.7699C179.097 96.3987 178.341 96.1915 177.534 96.1915C175.024 96.1915 173 98.2031 173 100.69C173 100.767 173.009 100.836 173.009 100.906C173.009 100.983 173 101.052 173 101.13C173 101.812 173.235 102.442 173.617 102.952C174.398 104.29 175.857 105.197 177.525 105.197C177.542 105.197 177.56 105.197 177.577 105.197C177.838 106.509 178.993 107.493 180.382 107.493C181.772 107.493 182.927 106.509 183.188 105.205C183.196 105.205 183.205 105.197 183.205 105.197C183.214 105.197 183.231 105.197 183.24 105.197C183.448 105.197 183.657 105.179 183.857 105.153C184.656 106.492 186.123 107.39 187.8 107.39C188.494 107.39 189.155 107.234 189.745 106.958C190.197 106.889 190.631 106.759 191.031 106.569C191.838 107.873 193.289 108.745 194.939 108.745C196.511 108.745 197.892 107.959 198.726 106.768C199.334 107.061 200.02 107.234 200.741 107.234C202.2 107.234 203.494 106.561 204.336 105.507C204.71 107.657 206.586 109.298 208.861 109.298C209.443 109.298 209.999 109.185 210.52 108.987C212.483 110.852 215.132 112 218.059 112C221.62 112 224.781 110.299 226.77 107.683C227.482 108.003 228.273 108.184 229.107 108.184C230.401 108.184 231.591 107.752 232.546 107.036C233.38 108.167 234.726 108.909 236.246 108.909C237.054 108.909 237.818 108.702 238.478 108.331C239.407 108.978 240.528 109.358 241.752 109.358C244.193 109.358 246.277 107.83 247.094 105.68C247.189 105.551 247.285 105.412 247.363 105.274C247.485 105.257 247.597 105.24 247.71 105.214C248.405 105.628 249.213 105.87 250.081 105.87C251.541 105.87 252.826 105.188 253.668 104.143C253.703 104.143 253.738 104.152 253.781 104.152C253.868 104.152 253.964 104.143 254.051 104.135C254.389 104.264 254.763 104.342 255.154 104.342C255.458 104.342 255.753 104.299 256.031 104.212C256.439 104.489 256.925 104.661 257.455 104.661C258.862 104.661 260 103.53 260 102.132C260.009 100.793 258.992 99.7141 257.698 99.5932Z" fill="#D6E8F2"/>
<path d="M379.381 196.725L181.876 199.537C181.876 199.537 110.257 193.243 115.188 227.251C117.992 246.589 169.749 241.622 172.617 256.004C175.495 270.397 86.7537 254.815 87.431 289.067C88.3728 336.14 251.972 323.202 241.496 334.718C231.02 346.234 195.94 350.958 208.385 371.124C220.829 391.291 442.239 401.258 459.171 371.124C468.747 354.099 423.773 357.135 440.049 341.766C448.864 333.444 541.182 346.309 539.521 284.556C538.113 232.197 441.213 245.91 442.165 234.659C443.117 223.408 497.753 239.478 499.033 212.073C500.018 191.046 379.381 196.725 379.381 196.725Z" fill="#C7DEFF"/>
<path opacity="0.1" d="M192.491 229.32H185.93C184.501 229.32 183.337 228.153 183.337 226.72C183.337 225.287 184.501 224.119 185.93 224.119H205.411C206.84 224.119 208.004 222.952 208.004 221.519C208.004 220.086 206.84 218.918 205.411 218.918H134.585C133.157 218.918 131.992 220.086 131.992 221.519C131.992 222.952 133.157 224.119 134.585 224.119H157.019C158.448 224.119 159.612 225.287 159.612 226.72C159.612 228.153 158.448 229.32 157.019 229.32H142.035C140.606 229.32 139.442 230.488 139.442 231.921C139.442 233.353 140.606 234.521 142.035 234.521H192.491C193.919 234.521 195.083 233.353 195.083 231.921C195.083 230.488 193.93 229.32 192.491 229.32Z" fill="#292929"/>
<path opacity="0.1" d="M223.147 229.32H203.686C202.257 229.32 201.093 230.488 201.093 231.921C201.093 233.354 202.257 234.521 203.686 234.521H223.147C224.575 234.521 225.739 233.354 225.739 231.921C225.739 230.488 224.575 229.32 223.147 229.32Z" fill="#292929"/>
<path opacity="0.1" d="M308.671 316.78C369.751 316.78 419.265 295.61 419.265 269.495C419.265 243.38 369.751 222.209 308.671 222.209C247.592 222.209 198.078 243.38 198.078 269.495C198.078 295.61 247.592 316.78 308.671 316.78Z" fill="#292929"/>
<path d="M308.672 306.198C365.696 306.198 411.922 284.376 411.922 257.458C411.922 230.54 365.696 208.718 308.672 208.718C251.649 208.718 205.422 230.54 205.422 257.458C205.422 284.376 251.649 306.198 308.672 306.198Z" fill="#F55F38"/>
<path opacity="0.1" d="M308.672 293.472C256.216 293.472 212.903 275.003 206.3 251.1C205.729 253.181 205.422 255.303 205.422 257.458C205.422 284.375 251.645 306.187 308.672 306.187C365.688 306.187 411.922 284.365 411.922 257.458C411.922 255.303 411.625 253.181 411.043 251.1C404.44 275.003 361.127 293.472 308.672 293.472Z" fill="#292929"/>
<path d="M308.672 258.339C338.285 258.339 362.292 252.247 362.292 244.732C362.292 237.217 338.285 231.125 308.672 231.125C279.059 231.125 255.052 237.217 255.052 244.732C255.052 252.247 279.059 258.339 308.672 258.339Z" fill="#DCA700"/>
<path d="M141.782 218.908C141.782 218.908 139.136 194.273 153.157 182.841C163.052 174.775 177.295 174.255 184.819 174.637C187.147 174.753 188.533 177.28 187.401 179.328C184.618 184.327 180.586 192.904 180.935 199.973C181.465 210.682 187.814 218.908 187.814 218.908H141.782Z" fill="#656565"/>
<path opacity="0.1" d="M187.813 218.908H153.972C154.13 212.921 155.379 204.313 160.215 196.056C168.861 181.292 187.411 179.328 187.411 179.328C184.628 184.327 180.596 192.903 180.945 199.972C181.464 210.682 187.813 218.908 187.813 218.908Z" fill="#292929"/>
<g opacity="0.21">
<g opacity="0.21">
<path opacity="0.21" d="M170.543 178.044C167.591 178.458 164.649 179.646 162.014 180.984C156.194 183.913 151.315 188.605 148.289 194.4C145.845 199.081 144.649 204.25 144.257 209.493C144.13 211.191 146.776 211.191 146.903 209.493C147.506 201.575 150.31 193.88 156.12 188.318C159.57 185.017 163.866 182.597 168.437 181.249C169.358 180.984 170.289 180.729 171.242 180.591C172.924 180.368 172.215 177.81 170.543 178.044Z" fill="white"/>
</g>
</g>
<path d="M411.318 208.358C411.318 208.358 408.672 183.722 422.694 172.291C432.588 164.224 446.832 163.704 454.355 164.086C456.684 164.203 458.07 166.729 456.938 168.778C454.154 173.777 450.123 182.353 450.472 189.422C451.001 200.132 457.35 208.358 457.35 208.358H411.318Z" fill="#656565"/>
<path opacity="0.1" d="M462.028 218.77H455.467C454.039 218.77 452.875 217.602 452.875 216.17C452.875 214.737 454.039 213.569 455.467 213.569H474.949C476.378 213.569 477.542 212.402 477.542 210.969C477.542 209.536 476.378 208.368 474.949 208.368H404.123C402.694 208.368 401.53 209.536 401.53 210.969C401.53 212.402 402.694 213.569 404.123 213.569H426.557C427.986 213.569 429.15 214.737 429.15 216.17C429.15 217.602 427.986 218.77 426.557 218.77H411.573C410.144 218.77 408.98 219.938 408.98 221.37C408.98 222.803 410.144 223.971 411.573 223.971H462.028C463.457 223.971 464.621 222.803 464.621 221.37C464.621 219.938 463.467 218.77 462.028 218.77Z" fill="#292929"/>
<path opacity="0.1" d="M476.589 218.77H473.213C471.784 218.77 470.62 219.938 470.62 221.371C470.62 222.803 471.784 223.971 473.213 223.971H476.589C478.017 223.971 479.181 222.803 479.181 221.371C479.192 219.938 478.028 218.77 476.589 218.77Z" fill="#292929"/>
<path opacity="0.1" d="M457.351 208.358H423.509C423.668 202.371 424.917 193.763 429.753 185.506C438.398 170.741 456.949 168.778 456.949 168.778C454.166 173.777 450.134 182.353 450.483 189.422C451.002 200.132 457.351 208.358 457.351 208.358Z" fill="#292929"/>
<g opacity="0.21">
<g opacity="0.21">
<path opacity="0.21" d="M440.081 167.494C437.129 167.907 434.187 169.096 431.552 170.434C425.732 173.363 420.853 178.055 417.827 183.85C415.382 188.531 414.186 193.7 413.795 198.943C413.668 200.641 416.314 200.641 416.44 198.943C417.044 191.025 419.848 183.33 425.658 177.768C429.107 174.467 433.404 172.047 437.975 170.699C438.896 170.434 439.827 170.179 440.779 170.041C442.462 169.818 441.753 167.26 440.081 167.494Z" fill="white"/>
</g>
</g>
<path d="M494.96 349.198C494.96 349.198 491.728 319.1 508.859 305.133C520.947 295.278 538.35 294.642 547.542 295.109C550.386 295.252 552.08 298.338 550.697 300.841C547.296 306.949 542.371 317.427 542.797 326.063C543.444 339.148 551.201 349.198 551.201 349.198H494.96Z" fill="#656565"/>
<path opacity="0.1" d="M486.168 349.198H572.701C574.446 349.198 575.868 350.625 575.868 352.375C575.868 354.126 574.446 355.552 572.701 355.552H548.898C547.153 355.552 545.731 356.979 545.731 358.73C545.731 360.48 547.153 361.907 548.898 361.907H556.914C558.66 361.907 560.082 363.333 560.082 365.084C560.082 366.835 558.66 368.261 556.914 368.261H495.269C493.524 368.261 492.102 366.835 492.102 365.084C492.102 363.333 493.524 361.907 495.269 361.907H513.577C515.322 361.907 516.744 360.48 516.744 358.73C516.744 356.979 515.322 355.552 513.577 355.552H486.168C484.422 355.552 483 354.126 483 352.375C483 350.625 484.422 349.198 486.168 349.198Z" fill="#292929"/>
<path opacity="0.1" d="M570.581 361.92H594.37C596.115 361.92 597.537 363.346 597.537 365.097C597.537 366.847 596.115 368.274 594.37 368.274H570.594C568.848 368.274 567.426 366.847 567.426 365.097C567.413 363.346 568.835 361.92 570.581 361.92Z" fill="#292929"/>
<path opacity="0.1" d="M551.201 349.198H509.854C510.048 341.884 511.574 331.367 517.482 321.278C528.045 303.24 550.71 300.841 550.71 300.841C547.309 306.949 542.384 317.427 542.81 326.063C543.444 339.148 551.201 349.198 551.201 349.198Z" fill="#292929"/>
<g opacity="0.21">
<g opacity="0.21">
<path opacity="0.21" d="M530.967 302.397C520.559 303.875 510.875 311.306 505.962 320.409C503.092 325.726 501.683 331.691 501.217 337.695C501.062 339.757 497.83 339.783 497.985 337.695C498.774 327.373 502.316 317.336 509.763 309.957C514.353 305.405 520.132 302.072 526.299 300.179C527.541 299.803 528.808 299.44 530.1 299.258C532.13 298.986 533.01 302.111 530.967 302.397Z" fill="white"/>
</g>
</g>
<path opacity="0.1" d="M299.963 354.97H257.031C254.11 354.97 251.751 352.603 251.751 349.673C251.751 346.744 254.11 344.377 257.031 344.377H299.963C302.883 344.377 305.243 346.744 305.243 349.673C305.243 352.592 302.883 354.97 299.963 354.97Z" fill="#292929"/>
<path opacity="0.1" d="M179.696 280.13H136.775C133.854 280.13 131.494 277.763 131.494 274.833C131.494 271.904 133.854 269.537 136.775 269.537H179.707C182.627 269.537 184.987 271.904 184.987 274.833C184.976 277.763 182.617 280.13 179.696 280.13Z" fill="#292929"/>
<path opacity="0.1" d="M408.546 368.227H365.615C362.694 368.227 360.334 365.86 360.334 362.93C360.334 360.001 362.694 357.634 365.615 357.634H408.546C411.467 357.634 413.827 360.001 413.827 362.93C413.827 365.86 411.467 368.227 408.546 368.227Z" fill="#292929"/>
<path opacity="0.1" d="M511.902 267.096H468.97C466.05 267.096 463.69 264.729 463.69 261.799C463.69 258.87 466.05 256.503 468.97 256.503H511.902C514.823 256.503 517.183 258.87 517.183 261.799C517.183 264.729 514.823 267.096 511.902 267.096Z" fill="#292929"/>
<g opacity="0.5">
<path opacity="0.5" d="M192.479 258.18C192.479 259.167 191.675 259.974 190.691 259.974C189.707 259.974 188.902 259.167 188.902 258.18C188.902 257.193 189.707 256.386 190.691 256.386C191.685 256.376 192.479 257.182 192.479 258.18Z" fill="white"/>
</g>
<g opacity="0.5">
<path opacity="0.5" d="M227.528 315.029C227.528 316.016 226.724 316.823 225.74 316.823C224.756 316.823 223.952 316.016 223.952 315.029C223.952 314.042 224.756 313.235 225.74 313.235C226.724 313.235 227.528 314.031 227.528 315.029Z" fill="white"/>
</g>
<g opacity="0.5">
<path opacity="0.5" d="M326.217 362.93C326.217 363.917 325.412 364.724 324.428 364.724C323.444 364.724 322.64 363.917 322.64 362.93C322.64 361.943 323.444 361.136 324.428 361.136C325.412 361.136 326.217 361.932 326.217 362.93Z" fill="white"/>
</g>
<g opacity="0.5">
<path opacity="0.5" d="M505.34 289.767C505.34 290.755 504.536 291.561 503.552 291.561C502.568 291.561 501.764 290.755 501.764 289.767C501.764 288.78 502.568 287.974 503.552 287.974C504.536 287.974 505.34 288.78 505.34 289.767Z" fill="white"/>
</g>
<g opacity="0.5">
<path opacity="0.5" d="M386.81 205.46C386.81 206.447 386.006 207.254 385.022 207.254C384.038 207.254 383.234 206.447 383.234 205.46C383.234 204.473 384.038 203.666 385.022 203.666C386.006 203.666 386.81 204.473 386.81 205.46Z" fill="white"/>
</g>
<g opacity="0.5">
<path opacity="0.5" d="M353.487 330.027C353.487 331.014 352.683 331.82 351.699 331.82C350.714 331.82 349.91 331.014 349.91 330.027C349.91 329.04 350.714 328.233 351.699 328.233C352.683 328.233 353.487 329.04 353.487 330.027Z" fill="white"/>
</g>
<g opacity="0.5">
<path opacity="0.5" d="M225.739 210.406C225.739 211.393 224.935 212.2 223.951 212.2C222.966 212.2 222.162 211.393 222.162 210.406C222.162 209.419 222.966 208.612 223.951 208.612C224.935 208.612 225.739 209.419 225.739 210.406Z" fill="white"/>
</g>
<path opacity="0.5" d="M279.148 261.8C279.148 261.8 267.581 259.167 257.708 253.956C252.047 250.963 247.951 247.778 242.946 250.963C237.941 254.147 250.015 264.57 268.798 269.484C290.227 275.088 304.957 274.611 306.365 268.062C307.772 261.524 285.952 263.604 279.148 261.8Z" fill="white"/>
<path d="M266.397 147.136C266.397 147.136 268.672 213.219 264.799 240.89L298.079 255.983L303.55 236.315L306.291 256.439C306.291 256.439 340.26 249.805 352.8 242.492C363.287 215.511 359.414 167.95 359.414 167.95L368.758 123.816C348.239 111.472 292.386 115.58 293.296 115.357" fill="#FCD600"/>
<path d="M328.408 113.521L328.863 87.9091L302.64 95.4557V114.434C301.497 114.89 296.481 116.259 296.714 117.862C297.169 120.144 306.513 121.524 306.513 121.524L314.259 129.293L321.095 122.66C321.095 122.66 338.418 118.775 336.365 117.172C334.556 115.357 331.826 114.211 328.408 113.521Z" fill="#FFC1AC"/>
<path d="M316.323 36.6963C331.826 41.271 330.915 52.0125 330.915 52.0125C330.915 52.0125 331.603 58.4127 330.683 68.4749C332.281 66.6493 334.789 65.7258 337.296 67.1057C342.545 69.6212 340.715 88.8327 329.55 84.4809C328.863 89.2785 326.587 94.7659 326.132 96.1458C323.624 100.943 313.137 107.577 304.016 108.267C294.894 108.957 283.73 102.09 283.497 91.3482C283.042 76.7114 288.968 36.6963 288.968 36.6963C288.968 36.6963 290.333 29.3726 316.323 36.6963Z" fill="#FFCFC5"/>
<path d="M325.667 52.925C327.487 52.4685 329.085 51.7786 330.905 51.3222C330.905 48.8067 329.54 40.5702 316.313 36.6854C290.556 29.3723 288.958 36.6854 288.958 36.6854C288.958 36.6854 286.905 50.8658 285.307 65.492C298.08 60.0152 312.217 56.8203 325.667 52.925Z" fill="#FFC1AC"/>
<path d="M322.926 41.9502C327.254 42.1837 332.725 46.2913 337.064 46.5248C336.154 48.3505 336.154 66.6491 336.154 66.6491C331.826 66.6491 330.916 70.0775 330.916 70.0775L330.005 77.6241L325.677 76.9342L326.365 60.6946C323.624 59.0919 322.714 56.3535 322.714 56.3535C322.714 56.3535 323.392 44.6992 322.926 41.9502Z" fill="#FF9C62"/>
<path d="M300.132 63.9C299.677 66.4155 298.767 68.9311 297.857 71.4466C296.947 73.7286 295.804 76.2442 294.661 78.5368L294.428 77.3905C296.026 78.7597 297.624 80.1395 298.989 81.7316C296.936 81.0417 295.116 80.1289 293.285 78.9826L292.598 78.5262L292.83 77.6134C293.74 75.0978 294.883 72.8158 296.026 70.5232C297.169 68.2518 298.534 65.9591 300.132 63.9Z" fill="#C4817A"/>
<path d="M319.508 55.897C316.545 55.6635 314.725 55.2071 312.672 54.9842C311.762 54.7507 310.852 54.7507 309.709 54.7507C308.566 54.5172 307.434 54.7507 306.058 54.5172C306.968 51.7681 310.164 50.176 313.127 50.6324C314.492 50.8659 316.09 51.3223 317 52.2351C318.376 53.1586 319.286 54.3049 319.508 55.897Z" fill="#FF9C62"/>
<path d="M297.857 55.6741C295.117 55.2177 293.529 54.9841 292.154 54.9841C291.466 54.9841 290.789 54.9841 289.879 54.9841C288.968 54.9841 288.058 55.2177 286.46 55.4406C286.46 54.0713 287.148 52.6915 288.281 51.7787C289.191 50.8659 290.789 50.4095 292.386 50.4095C293.984 50.4095 295.349 51.0994 296.26 52.0122C297.17 53.1585 297.857 54.3048 297.857 55.6741Z" fill="#FF9C62"/>
<path d="M324.524 43.0965C324.524 43.0965 305.37 47.2147 289.412 43.7864L297.158 40.358C297.158 40.358 287.126 42.64 276.64 32.8114L287.359 30.0624C287.359 30.0624 282.798 27.3133 281.2 23.6621H291.232L288.28 20.0002C288.28 20.0002 334.788 19.7667 338.661 34.1806C342.312 48.5839 336.153 66.6491 336.153 66.6491L324.524 43.0965Z" fill="#FF9C62"/>
<path d="M330.683 70.311C330.683 70.311 334.334 105.751 314.725 109.636C295.116 113.754 278.936 112.608 283.497 84.0244C283.497 84.0244 282.809 91.3375 287.603 92.4838C292.386 93.6301 284.185 81.7317 296.492 81.7317C308.799 81.7317 314.725 81.2753 315.19 90.1911C315.423 96.3685 325.222 95.9121 325.677 77.3906C325.9 58.6461 330.683 70.311 330.683 70.311Z" fill="#FF9C62"/>
<path d="M292.609 89.2889L310.842 92.0379C310.852 92.0273 302.185 79.4496 292.609 89.2889Z" fill="white"/>
<path d="M353.254 240.656C353.254 240.656 330.682 252.778 350.291 238.374C350.291 238.374 355.984 232.887 353.254 240.656Z" fill="#FFCFC5"/>
<path d="M339.804 114.667L326.121 132.732L321.106 122.214L333.878 109.18L339.804 114.667Z" fill="#E8BB00"/>
<path d="M293.296 115.58L299.91 132.276L306.513 121.067L298.989 111.695L293.296 115.58Z" fill="#E8BB00"/>
<path d="M312.673 134.335C313.551 134.335 314.271 133.613 314.271 132.732C314.271 131.851 313.551 131.13 312.673 131.13C311.795 131.13 311.075 131.851 311.075 132.732C311.075 133.613 311.795 134.335 312.673 134.335Z" fill="#283942"/>
<path d="M308.799 159.49C309.677 159.49 310.396 158.768 310.396 157.887C310.396 157.006 309.677 156.285 308.799 156.285C307.92 156.285 307.201 157.006 307.201 157.887C307.201 158.768 307.91 159.49 308.799 159.49Z" fill="#283942"/>
<path d="M306.514 185.558C307.392 185.558 308.112 184.837 308.112 183.956C308.112 183.075 307.392 182.353 306.514 182.353C305.635 182.353 304.916 183.075 304.916 183.956C304.926 184.837 305.635 185.558 306.514 185.558Z" fill="#283942"/>
<path d="M304.926 210.024C305.804 210.024 306.524 209.302 306.524 208.421C306.524 207.54 305.804 206.818 304.926 206.818C304.047 206.818 303.328 207.54 303.328 208.421C303.328 209.302 304.037 210.024 304.926 210.024Z" fill="#283942"/>
<path d="M302.639 231.284C303.518 231.284 304.237 230.562 304.237 229.681C304.237 228.8 303.518 228.078 302.639 228.078C301.761 228.078 301.042 228.8 301.042 229.681C301.042 230.573 301.761 231.284 302.639 231.284Z" fill="#283942"/>
<path d="M298.989 154.682L267.761 154.226L268.904 160.17H298.534L298.989 154.682Z" fill="#E8BB00"/>
<path d="M366.398 165.222C366.398 165.222 396.377 187.108 399.012 191.131C400.197 193.041 349.795 227.813 374.769 231.931C377.605 232.462 434.568 201.851 436.441 192.118C440.537 170.306 380.208 128.89 371.933 127.277C339.541 121.195 366.398 165.222 366.398 165.222Z" fill="#FFCFC5"/>
<path d="M391.435 135.163L398.811 140.13L378.154 176.972L367.763 170.115L391.435 135.163Z" fill="#E8BB00"/>
<path d="M364.059 234.362C364.059 234.362 342.313 248.489 367.763 236.156C377.446 231.337 408.197 214.1 427.711 200.514C422.049 194.612 396.356 205.141 389.89 200.047L371.594 214.153L361.086 223.015C361.086 223.015 348.006 231.549 349.287 232.515C351.086 233.874 360.588 227.696 360.588 227.696C360.588 227.696 347.414 235.551 349.826 236.357C352.239 237.175 362.281 231.613 362.281 231.613C362.281 231.613 336.387 247.237 364.059 234.362Z" fill="#FFCFC5"/>
<path d="M297.169 63.2207C296.937 64.1335 296.259 64.8234 295.349 65.5027C294.439 65.9591 293.529 66.1927 292.386 66.1927C291.476 66.1927 290.333 65.7363 289.645 65.2798C288.958 64.5899 288.28 63.6771 288.28 62.7643C289.19 63.2207 289.878 63.4542 290.556 63.6771C291.243 63.9106 291.921 63.9106 292.608 63.9106C293.974 63.9 295.349 63.6771 297.169 63.2207Z" fill="#172D3A"/>
<path d="M314.725 64.3564C314.492 65.2692 313.815 65.9591 312.905 66.6384C311.995 67.0948 311.085 67.3283 309.942 67.3283C309.032 67.3283 307.889 66.8719 307.201 66.4155C306.513 65.7256 305.836 64.8128 305.836 63.9C306.746 64.3564 307.434 64.5899 308.111 64.8128C308.799 65.0463 309.476 65.0463 310.164 65.0463C311.529 65.0463 312.905 64.8234 314.725 64.3564Z" fill="#172D3A"/>
<path d="M278.936 115.58C278.703 115.346 278.248 115.346 278.025 115.58L275.973 117.639C275.74 117.873 275.74 118.329 275.973 118.552C276.205 118.785 276.205 118.785 276.428 118.785C276.66 118.785 276.66 118.785 276.883 118.552L278.936 116.493C279.158 116.036 279.158 115.813 278.936 115.58Z" fill="#E0BA00"/>
<path d="M291.011 115.58C290.778 115.346 290.323 115.346 290.101 115.58L288.048 117.639C287.815 117.873 287.815 118.329 288.048 118.552C288.281 118.785 288.281 118.785 288.503 118.785C288.725 118.785 288.736 118.785 288.958 118.552L291.011 116.493C291.244 116.036 291.244 115.813 291.011 115.58Z" fill="#E0BA00"/>
<path d="M300.587 118.329C300.82 118.562 300.82 118.562 301.042 118.562C301.275 118.562 301.275 118.562 301.497 118.329L303.095 116.726L302.407 115.813L300.587 117.639C300.365 117.639 300.365 118.095 300.587 118.329Z" fill="#E0BA00"/>
<path d="M324.978 118.329C325.211 118.562 325.211 118.562 325.434 118.562C325.666 118.562 325.666 118.562 325.889 118.329L327.941 116.27C328.174 116.036 328.174 115.58 327.941 115.357C327.941 115.357 327.941 115.357 327.709 115.357L324.978 118.329Z" fill="#E0BA00"/>
<path d="M338.894 116.036L337.296 117.639C337.063 117.873 337.063 118.329 337.296 118.552C337.529 118.785 337.529 118.785 337.751 118.785C337.984 118.785 337.984 118.785 338.206 118.552L340.259 116.493C339.804 116.27 339.116 116.27 338.894 116.036Z" fill="#E0BA00"/>
<path d="M349.604 118.329C349.836 118.562 349.836 118.562 350.059 118.562C350.292 118.562 350.292 118.562 350.514 118.329L350.969 117.873C350.514 117.873 350.059 117.639 349.604 117.639C349.381 117.873 349.381 118.095 349.604 118.329Z" fill="#E0BA00"/>
<path d="M283.719 122.904C283.486 122.67 283.031 122.67 282.809 122.904L280.756 124.963C280.523 125.196 280.523 125.653 280.756 125.876C280.989 126.109 280.989 126.109 281.211 126.109C281.444 126.109 281.444 126.109 281.666 125.876L283.719 123.816C283.952 123.583 283.952 123.127 283.719 122.904Z" fill="#E0BA00"/>
<path d="M295.116 122.904L293.063 124.963C292.83 125.196 292.83 125.653 293.063 125.876C293.296 126.109 293.296 126.109 293.518 126.109C293.741 126.109 293.751 126.109 293.973 125.876L296.026 123.816C296.259 123.583 296.259 123.127 296.026 122.904C295.804 122.67 295.349 122.67 295.116 122.904Z" fill="#E0BA00"/>
<path d="M305.835 125.876C306.068 125.876 306.068 125.876 306.29 125.642L308.343 123.583C308.576 123.349 308.576 122.893 308.343 122.67C308.11 122.437 307.655 122.437 307.433 122.67L305.38 124.729C305.147 124.963 305.147 125.419 305.38 125.642C305.602 125.876 305.602 125.876 305.835 125.876Z" fill="#E0BA00"/>
<path d="M317.688 125.642C317.921 125.876 317.921 125.876 318.143 125.876C318.365 125.876 318.376 125.876 318.598 125.642L320.651 123.583C320.884 123.349 320.884 122.893 320.651 122.67L317.688 125.642Z" fill="#E0BA00"/>
<path d="M332.735 122.904C332.503 122.67 332.048 122.67 331.825 122.904L329.772 124.963C329.54 125.196 329.54 125.653 329.772 125.876C330.005 126.098 330.005 126.109 330.227 126.109C330.45 126.109 330.46 126.109 330.683 125.876L332.735 123.816C332.958 123.583 332.958 123.127 332.735 122.904Z" fill="#E0BA00"/>
<path d="M345.043 122.904C344.81 122.67 344.355 122.67 344.133 122.904L342.08 124.963C341.847 125.196 341.847 125.653 342.08 125.876C342.312 126.098 342.312 126.109 342.535 126.109C342.757 126.109 342.768 126.109 342.99 125.876L345.043 123.816C345.276 123.583 345.276 123.127 345.043 122.904Z" fill="#E0BA00"/>
<path d="M354.852 125.876C355.084 125.876 355.084 125.876 355.307 125.642L357.36 123.583C357.592 123.349 357.592 122.893 357.36 122.67C357.127 122.437 356.672 122.437 356.45 122.67L354.397 124.729C354.164 124.963 354.164 125.419 354.397 125.642C354.619 125.876 354.852 125.876 354.852 125.876Z" fill="#E0BA00"/>
<path d="M367.16 125.875C367.393 125.875 367.393 125.875 367.615 125.642L369.213 124.039C368.98 124.039 368.758 123.806 368.525 123.806C368.292 123.806 368.07 123.572 367.837 123.572L366.472 124.941C366.239 125.175 366.239 125.631 366.472 125.854C366.927 125.875 367.16 125.875 367.16 125.875Z" fill="#E0BA00"/>
<path d="M278.936 131.363C278.703 131.129 278.248 131.129 278.025 131.363L275.973 133.422C275.74 133.656 275.74 134.112 275.973 134.335C276.205 134.568 276.205 134.568 276.428 134.568C276.66 134.568 276.66 134.568 276.883 134.335L278.936 132.276C279.158 131.819 279.158 131.586 278.936 131.363Z" fill="#E0BA00"/>
<path d="M291.011 131.363C290.778 131.129 290.323 131.129 290.101 131.363L288.048 133.422C287.815 133.656 287.815 134.112 288.048 134.335C288.281 134.568 288.281 134.568 288.503 134.568C288.725 134.568 288.736 134.568 288.958 134.335L291.011 132.276C291.244 131.819 291.244 131.586 291.011 131.363Z" fill="#E0BA00"/>
<path d="M303.328 131.363C303.095 131.129 302.64 131.129 302.418 131.363L300.365 133.422C300.132 133.656 300.132 134.112 300.365 134.335C300.598 134.568 300.598 134.568 300.82 134.568C301.053 134.568 301.053 134.568 301.275 134.335L303.328 132.276C303.55 131.819 303.55 131.586 303.328 131.363Z" fill="#E0BA00"/>
<path d="M313.127 134.335C313.36 134.335 313.36 134.335 313.582 134.102L315.635 132.042C315.868 131.809 315.868 131.353 315.635 131.13C315.402 130.896 314.947 130.896 314.725 131.13L312.672 133.189C312.439 133.422 312.439 133.879 312.672 134.102C312.905 134.335 313.127 134.335 313.127 134.335Z" fill="#E0BA00"/>
<path d="M325.444 134.335C325.677 134.335 325.677 134.335 325.899 134.102L327.952 132.042C328.185 131.809 328.185 131.353 327.952 131.13C327.719 130.896 327.264 130.896 327.042 131.13L324.989 133.189C324.756 133.422 324.756 133.879 324.989 134.102C325.211 134.335 325.444 134.335 325.444 134.335Z" fill="#E0BA00"/>
<path d="M340.259 131.363C340.026 131.129 339.571 131.129 339.349 131.363L337.296 133.422C337.063 133.656 337.063 134.112 337.296 134.335C337.529 134.568 337.529 134.568 337.751 134.568C337.984 134.568 337.984 134.568 338.206 134.335L340.259 132.276C340.481 131.819 340.481 131.586 340.259 131.363Z" fill="#E0BA00"/>
<path d="M352.344 131.363C352.111 131.129 351.656 131.129 351.434 131.363L349.381 133.422C349.148 133.656 349.148 134.112 349.381 134.335C349.614 134.568 349.614 134.568 349.836 134.568C350.069 134.568 350.069 134.568 350.291 134.335L352.344 132.276C352.799 131.819 352.799 131.586 352.344 131.363Z" fill="#E0BA00"/>
<path d="M362.366 134.335C362.598 134.335 362.598 134.335 362.821 134.102L364.874 132.042C365.106 131.809 365.106 131.353 364.874 131.13C364.641 130.896 364.186 130.896 363.964 131.13L361.911 133.189C361.678 133.422 361.678 133.879 361.911 134.102C361.911 134.335 362.143 134.335 362.366 134.335Z" fill="#E0BA00"/>
<path d="M271.412 138.676C271.179 138.443 270.724 138.443 270.502 138.676L268.449 140.735C268.216 140.969 268.216 141.425 268.449 141.648C268.682 141.882 268.682 141.882 268.904 141.882C269.126 141.882 269.137 141.882 269.359 141.648L271.412 139.589C271.634 139.366 271.634 138.91 271.412 138.676Z" fill="#E0BA00"/>
<path d="M283.719 138.676C283.486 138.443 283.031 138.443 282.809 138.676L280.756 140.735C280.523 140.969 280.523 141.425 280.756 141.648C280.989 141.882 280.989 141.882 281.211 141.882C281.444 141.882 281.444 141.882 281.666 141.648L283.719 139.589C283.952 139.366 283.952 138.91 283.719 138.676Z" fill="#E0BA00"/>
<path d="M296.026 138.676C295.793 138.443 295.338 138.443 295.116 138.676L293.063 140.735C292.83 140.969 292.83 141.425 293.063 141.648C293.296 141.882 293.296 141.882 293.518 141.882C293.741 141.882 293.751 141.882 293.973 141.648L296.026 139.589C296.259 139.366 296.259 138.91 296.026 138.676Z" fill="#E0BA00"/>
<path d="M308.343 138.676C308.11 138.443 307.655 138.443 307.433 138.676L305.38 140.735C305.147 140.969 305.147 141.425 305.38 141.648C305.613 141.882 305.613 141.882 305.835 141.882C306.068 141.882 306.068 141.882 306.29 141.648L308.343 139.589C308.565 139.366 308.565 138.91 308.343 138.676Z" fill="#E0BA00"/>
<path d="M320.65 138.676C320.418 138.443 319.962 138.443 319.74 138.676L317.687 140.735C317.455 140.969 317.455 141.425 317.687 141.648C317.92 141.882 317.92 141.882 318.142 141.882C318.365 141.882 318.375 141.882 318.597 141.648L320.65 139.589C320.883 139.366 320.883 138.91 320.65 138.676Z" fill="#E0BA00"/>
<path d="M332.735 138.676C332.503 138.443 332.048 138.443 331.825 138.676L329.772 140.735C329.54 140.969 329.54 141.425 329.772 141.648C330.005 141.882 330.005 141.882 330.227 141.882C330.45 141.882 330.46 141.882 330.683 141.648L332.735 139.589C332.958 139.366 332.958 138.91 332.735 138.676Z" fill="#E0BA00"/>
<path d="M345.043 138.676C344.81 138.443 344.355 138.443 344.133 138.676L342.08 140.735C341.847 140.969 341.847 141.425 342.08 141.648C342.312 141.882 342.312 141.882 342.535 141.882C342.757 141.882 342.768 141.882 342.99 141.648L345.043 139.589C345.276 139.366 345.276 138.91 345.043 138.676Z" fill="#E0BA00"/>
<path d="M354.386 141.425C354.619 141.659 354.619 141.659 354.841 141.659C355.063 141.659 355.074 141.659 355.296 141.425L357.349 139.366C357.582 139.133 357.582 138.676 357.349 138.453C357.116 138.22 356.661 138.22 356.439 138.453L354.386 140.512C354.164 140.735 354.164 141.192 354.386 141.425Z" fill="#E0BA00"/>
<path d="M266.164 148.505L266.619 148.048C266.852 147.815 266.852 147.358 266.619 147.136C266.387 146.902 265.932 146.902 265.709 147.136C265.942 147.369 266.164 147.592 266.164 147.592C266.164 147.592 265.942 147.825 266.164 148.505Z" fill="#E0BA00"/>
<path d="M278.936 146.913C278.703 146.679 278.248 146.679 278.025 146.913L275.973 148.972C275.74 149.205 275.74 149.662 275.973 149.885C276.205 150.118 276.205 150.118 276.428 150.118C276.66 150.118 276.66 150.118 276.883 149.885L278.936 147.826C279.158 147.592 279.158 147.136 278.936 146.913Z" fill="#E0BA00"/>
<path d="M291.011 146.913C290.778 146.679 290.323 146.679 290.101 146.913L288.048 148.972C287.815 149.205 287.815 149.662 288.048 149.885C288.281 150.118 288.281 150.118 288.503 150.118C288.725 150.118 288.736 150.118 288.958 149.885L291.011 147.826C291.244 147.592 291.244 147.136 291.011 146.913Z" fill="#E0BA00"/>
<path d="M303.328 146.913C303.095 146.679 302.64 146.679 302.418 146.913L300.365 148.972C300.132 149.205 300.132 149.662 300.365 149.885C300.598 150.118 300.598 150.118 300.82 150.118C301.053 150.118 301.053 150.118 301.275 149.885L303.328 147.826C303.55 147.592 303.55 147.136 303.328 146.913Z" fill="#E0BA00"/>
<path d="M315.635 146.913C315.402 146.679 314.947 146.679 314.725 146.913L312.672 148.972C312.439 149.205 312.439 149.662 312.672 149.885C312.905 150.118 312.905 150.118 313.127 150.118C313.36 150.118 313.36 150.118 313.582 149.885L315.635 147.826C315.868 147.592 315.868 147.136 315.635 146.913Z" fill="#E0BA00"/>
<path d="M327.942 146.913C327.709 146.679 327.254 146.679 327.032 146.913L324.979 148.972C324.746 149.205 324.746 149.662 324.979 149.885C325.212 150.118 325.212 150.118 325.434 150.118C325.667 150.118 325.667 150.118 325.889 149.885L327.942 147.826C328.175 147.592 328.175 147.136 327.942 146.913Z" fill="#E0BA00"/>
<path d="M340.259 146.913C340.026 146.679 339.571 146.679 339.349 146.913L337.296 148.972C337.063 149.205 337.063 149.662 337.296 149.885C337.529 150.118 337.529 150.118 337.751 150.118C337.984 150.118 337.984 150.118 338.206 149.885L340.259 147.826C340.481 147.592 340.481 147.136 340.259 146.913Z" fill="#E0BA00"/>
<path d="M352.345 146.913C352.112 146.679 351.657 146.679 351.435 146.913L349.614 148.972C349.382 149.205 349.382 149.662 349.614 149.885C349.847 150.118 349.847 150.118 350.069 150.118C350.292 150.118 350.302 150.118 350.524 149.885L352.577 147.826C352.8 147.592 352.8 147.136 352.345 146.913Z" fill="#E0BA00"/>
<path d="M363.741 146.913L361.688 148.972C361.456 149.205 361.456 149.662 361.688 149.885C361.921 150.118 361.921 150.118 362.143 150.118C362.376 150.118 362.376 150.118 362.598 149.885L364.651 147.826C364.884 147.592 364.884 147.136 364.651 146.913C364.419 146.679 363.964 146.679 363.741 146.913Z" fill="#E0BA00"/>
<path d="M271.412 154.459C271.179 154.226 270.724 154.226 270.502 154.459L268.449 156.518C268.216 156.752 268.216 157.208 268.449 157.431C268.682 157.665 268.682 157.665 268.904 157.665C269.126 157.665 269.137 157.665 269.359 157.431L271.412 155.372C271.634 155.139 271.634 154.682 271.412 154.459Z" fill="#E0BA00"/>
<path d="M283.719 154.459C283.486 154.226 283.031 154.226 282.809 154.459L280.756 156.518C280.523 156.752 280.523 157.208 280.756 157.431C280.989 157.665 280.989 157.665 281.211 157.665C281.444 157.665 281.444 157.665 281.666 157.431L283.719 155.372C283.952 155.139 283.952 154.682 283.719 154.459Z" fill="#E0BA00"/>
<path d="M296.026 154.459C295.793 154.226 295.338 154.226 295.116 154.459L293.063 156.518C292.83 156.752 292.83 157.208 293.063 157.431C293.296 157.665 293.296 157.665 293.518 157.665C293.741 157.665 293.751 157.665 293.973 157.431L296.026 155.372C296.259 155.139 296.259 154.682 296.026 154.459Z" fill="#E0BA00"/>
<path d="M308.343 154.459C308.11 154.226 307.655 154.226 307.433 154.459L305.38 156.518C305.147 156.752 305.147 157.208 305.38 157.431C305.613 157.665 305.613 157.665 305.835 157.665C306.068 157.665 306.068 157.665 306.29 157.431L308.343 155.372C308.565 155.139 308.565 154.682 308.343 154.459Z" fill="#E0BA00"/>
<path d="M320.65 154.459C320.418 154.226 319.962 154.226 319.74 154.459L317.687 156.518C317.455 156.752 317.455 157.208 317.687 157.431C317.92 157.665 317.92 157.665 318.142 157.665C318.365 157.665 318.375 157.665 318.597 157.431L320.65 155.372C320.883 155.139 320.883 154.682 320.65 154.459Z" fill="#E0BA00"/>
<path d="M332.735 154.459C332.503 154.226 332.048 154.226 331.825 154.459L329.772 156.518C329.54 156.752 329.54 157.208 329.772 157.431C330.005 157.665 330.005 157.665 330.227 157.665C330.45 157.665 330.46 157.665 330.683 157.431L332.735 155.372C332.958 155.139 332.958 154.682 332.735 154.459Z" fill="#E0BA00"/>
<path d="M345.043 154.459C344.81 154.226 344.355 154.226 344.133 154.459L342.08 156.518C341.847 156.752 341.847 157.208 342.08 157.431C342.312 157.665 342.312 157.665 342.535 157.665C342.757 157.665 342.768 157.665 342.99 157.431L345.043 155.372C345.276 155.139 345.276 154.682 345.043 154.459Z" fill="#E0BA00"/>
<path d="M354.386 157.198C354.619 157.431 354.619 157.431 354.841 157.431C355.063 157.431 355.074 157.431 355.296 157.198L357.349 155.138C357.582 154.905 357.582 154.449 357.349 154.226C357.116 153.992 356.661 153.992 356.439 154.226L354.386 156.285C354.164 156.508 354.164 156.975 354.386 157.198Z" fill="#E0BA00"/>
<path d="M266.618 162.685C266.618 162.685 266.396 162.685 266.618 162.685C266.385 162.919 266.385 163.375 266.385 163.832L266.618 163.598C266.851 163.375 266.851 162.919 266.618 162.685Z" fill="#E0BA00"/>
<path d="M278.936 162.685C278.703 162.452 278.248 162.452 278.025 162.685L275.973 164.744C275.74 164.978 275.74 165.434 275.973 165.657C276.205 165.891 276.205 165.891 276.428 165.891C276.66 165.891 276.66 165.891 276.883 165.657L278.936 163.598C279.158 163.375 279.158 162.919 278.936 162.685Z" fill="#E0BA00"/>
<path d="M291.011 162.685C290.778 162.452 290.323 162.452 290.101 162.685L288.048 164.744C287.815 164.978 287.815 165.434 288.048 165.657C288.281 165.891 288.281 165.891 288.503 165.891C288.725 165.891 288.736 165.891 288.958 165.657L291.011 163.598C291.244 163.375 291.244 162.919 291.011 162.685Z" fill="#E0BA00"/>
<path d="M303.328 162.685C303.095 162.452 302.64 162.452 302.418 162.685L300.365 164.744C300.132 164.978 300.132 165.434 300.365 165.657C300.598 165.891 300.598 165.891 300.82 165.891C301.053 165.891 301.053 165.891 301.275 165.657L303.328 163.598C303.55 163.375 303.55 162.919 303.328 162.685Z" fill="#E0BA00"/>
<path d="M315.635 162.685C315.402 162.452 314.947 162.452 314.725 162.685L312.672 164.744C312.439 164.978 312.439 165.434 312.672 165.657C312.905 165.891 312.905 165.891 313.127 165.891C313.36 165.891 313.36 165.891 313.582 165.657L315.635 163.598C315.868 163.375 315.868 162.919 315.635 162.685Z" fill="#E0BA00"/>
<path d="M327.942 162.685C327.709 162.452 327.254 162.452 327.032 162.685L324.979 164.744C324.746 164.978 324.746 165.434 324.979 165.657C325.212 165.891 325.212 165.891 325.434 165.891C325.667 165.891 325.667 165.891 325.889 165.657L327.942 163.598C328.175 163.375 328.175 162.919 327.942 162.685Z" fill="#E0BA00"/>
<path d="M340.259 162.685C340.026 162.452 339.571 162.452 339.349 162.685L337.296 164.744C337.063 164.978 337.063 165.434 337.296 165.657C337.529 165.891 337.529 165.891 337.751 165.891C337.984 165.891 337.984 165.891 338.206 165.657L340.259 163.598C340.481 163.375 340.481 162.919 340.259 162.685Z" fill="#E0BA00"/>
<path d="M352.344 162.685C352.111 162.452 351.656 162.452 351.434 162.685L349.381 164.744C349.148 164.978 349.148 165.434 349.381 165.657C349.614 165.891 349.614 165.891 349.836 165.891C350.069 165.891 350.069 165.891 350.291 165.657L352.344 163.598C352.799 163.375 352.799 162.919 352.344 162.685Z" fill="#E0BA00"/>
<path d="M271.412 170.232C271.179 169.998 270.724 169.998 270.502 170.232L268.449 172.291C268.216 172.524 268.216 172.981 268.449 173.204C268.682 173.437 268.682 173.437 268.904 173.437C269.126 173.437 269.137 173.437 269.359 173.204L271.412 171.144C271.634 170.688 271.634 170.465 271.412 170.232Z" fill="#E0BA00"/>
<path d="M283.719 170.232C283.486 169.998 283.031 169.998 282.809 170.232L280.756 172.291C280.523 172.524 280.523 172.981 280.756 173.204C280.989 173.437 280.989 173.437 281.211 173.437C281.444 173.437 281.444 173.437 281.666 173.204L283.719 171.144C283.952 170.688 283.952 170.465 283.719 170.232Z" fill="#E0BA00"/>
<path d="M296.026 170.232C295.793 169.998 295.338 169.998 295.116 170.232L293.063 172.291C292.83 172.524 292.83 172.981 293.063 173.204C293.296 173.437 293.296 173.437 293.518 173.437C293.741 173.437 293.751 173.437 293.973 173.204L296.026 171.144C296.259 170.688 296.259 170.465 296.026 170.232Z" fill="#E0BA00"/>
<path d="M308.343 170.232C308.11 169.998 307.655 169.998 307.433 170.232L305.38 172.291C305.147 172.524 305.147 172.981 305.38 173.204C305.613 173.437 305.613 173.437 305.835 173.437C306.068 173.437 306.068 173.437 306.29 173.204L308.343 171.144C308.565 170.688 308.565 170.465 308.343 170.232Z" fill="#E0BA00"/>
<path d="M320.65 170.232C320.418 169.998 319.962 169.998 319.74 170.232L317.687 172.291C317.455 172.524 317.455 172.981 317.687 173.204C317.92 173.437 317.92 173.437 318.142 173.437C318.365 173.437 318.375 173.437 318.597 173.204L320.65 171.144C320.883 170.688 320.883 170.465 320.65 170.232Z" fill="#E0BA00"/>
<path d="M332.735 170.232C332.503 169.998 332.048 169.998 331.825 170.232L329.772 172.291C329.54 172.524 329.54 172.981 329.772 173.204C330.005 173.437 330.005 173.437 330.227 173.437C330.45 173.437 330.46 173.437 330.683 173.204L332.735 171.144C332.958 170.688 332.958 170.465 332.735 170.232Z" fill="#E0BA00"/>
<path d="M345.043 170.232C344.81 169.998 344.355 169.998 344.133 170.232L342.08 172.291C341.847 172.524 341.847 172.981 342.08 173.204C342.312 173.437 342.312 173.437 342.535 173.437C342.757 173.437 342.768 173.437 342.99 173.204L345.043 171.144C345.276 170.688 345.276 170.465 345.043 170.232Z" fill="#E0BA00"/>
<path d="M354.386 172.981C354.619 173.214 354.619 173.214 354.841 173.214C355.063 173.214 355.074 173.214 355.296 172.981L357.349 170.922C357.582 170.688 357.582 170.232 357.349 170.009C357.116 169.775 356.661 169.775 356.439 170.009L354.386 172.068C354.164 172.291 354.164 172.747 354.386 172.981Z" fill="#E0BA00"/>
<path d="M266.619 178.691C266.619 178.925 266.619 179.148 266.619 179.381C266.851 179.148 266.851 178.925 266.619 178.691Z" fill="#E0BA00"/>
<path d="M278.936 178.468C278.703 178.235 278.248 178.235 278.025 178.468L275.973 180.527C275.74 180.761 275.74 181.217 275.973 181.44C276.205 181.674 276.205 181.674 276.428 181.674C276.66 181.674 276.66 181.674 276.883 181.44L278.936 179.381C279.158 179.148 279.158 178.691 278.936 178.468Z" fill="#E0BA00"/>
<path d="M291.011 178.468C290.778 178.235 290.323 178.235 290.101 178.468L288.048 180.527C287.815 180.761 287.815 181.217 288.048 181.44C288.281 181.674 288.281 181.674 288.503 181.674C288.725 181.674 288.736 181.674 288.958 181.44L291.011 179.381C291.244 179.148 291.244 178.691 291.011 178.468Z" fill="#E0BA00"/>
<path d="M303.328 178.468C303.095 178.235 302.64 178.235 302.418 178.468L300.365 180.527C300.132 180.761 300.132 181.217 300.365 181.44C300.598 181.674 300.598 181.674 300.82 181.674C301.053 181.674 301.053 181.674 301.275 181.44L303.328 179.381C303.55 179.148 303.55 178.691 303.328 178.468Z" fill="#E0BA00"/>
<path d="M315.635 178.468C315.402 178.235 314.947 178.235 314.725 178.468L312.672 180.527C312.439 180.761 312.439 181.217 312.672 181.44C312.905 181.674 312.905 181.674 313.127 181.674C313.36 181.674 313.36 181.674 313.582 181.44L315.635 179.381C315.868 179.148 315.868 178.691 315.635 178.468Z" fill="#E0BA00"/>
<path d="M327.942 178.468C327.709 178.235 327.254 178.235 327.032 178.468L324.979 180.527C324.746 180.761 324.746 181.217 324.979 181.44C325.212 181.674 325.212 181.674 325.434 181.674C325.667 181.674 325.667 181.674 325.889 181.44L327.942 179.381C328.175 179.148 328.175 178.691 327.942 178.468Z" fill="#E0BA00"/>
<path d="M340.259 178.468C340.026 178.235 339.571 178.235 339.349 178.468L337.296 180.527C337.063 180.761 337.063 181.217 337.296 181.44C337.529 181.674 337.529 181.674 337.751 181.674C337.984 181.674 337.984 181.674 338.206 181.44L340.259 179.381C340.481 179.148 340.481 178.691 340.259 178.468Z" fill="#E0BA00"/>
<path d="M352.344 178.468C352.111 178.235 351.656 178.235 351.434 178.468L349.381 180.527C349.148 180.761 349.148 181.217 349.381 181.44C349.614 181.674 349.614 181.674 349.836 181.674C350.069 181.674 350.069 181.674 350.291 181.44L352.344 179.381C352.799 179.148 352.799 178.691 352.344 178.468Z" fill="#E0BA00"/>
<path d="M271.412 185.781C271.179 185.548 270.724 185.548 270.502 185.781L268.449 187.84C268.216 188.074 268.216 188.53 268.449 188.753C268.682 188.987 268.682 188.987 268.904 188.987C269.126 188.987 269.137 188.987 269.359 188.753L271.412 186.694C271.634 186.471 271.634 186.238 271.412 185.781Z" fill="#E0BA00"/>
<path d="M283.719 185.781C283.486 185.548 283.031 185.548 282.809 185.781L280.756 187.84C280.523 188.074 280.523 188.53 280.756 188.753C280.989 188.987 280.989 188.987 281.211 188.987C281.444 188.987 281.444 188.987 281.666 188.753L283.719 186.694C283.952 186.471 283.952 186.238 283.719 185.781Z" fill="#E0BA00"/>
<path d="M296.026 185.781C295.793 185.548 295.338 185.548 295.116 185.781L293.063 187.84C292.83 188.074 292.83 188.53 293.063 188.753C293.296 188.987 293.296 188.987 293.518 188.987C293.741 188.987 293.751 188.987 293.973 188.753L296.026 186.694C296.259 186.471 296.259 186.238 296.026 185.781Z" fill="#E0BA00"/>
<path d="M308.343 185.781C308.11 185.548 307.655 185.548 307.433 185.781L305.38 187.84C305.147 188.074 305.147 188.53 305.38 188.753C305.613 188.987 305.613 188.987 305.835 188.987C306.068 188.987 306.068 188.987 306.29 188.753L308.343 186.694C308.565 186.471 308.565 186.238 308.343 185.781Z" fill="#E0BA00"/>
<path d="M320.65 185.781C320.418 185.548 319.962 185.548 319.74 185.781L317.687 187.84C317.455 188.074 317.455 188.53 317.687 188.753C317.92 188.987 317.92 188.987 318.142 188.987C318.365 188.987 318.375 188.987 318.597 188.753L320.65 186.694C320.883 186.471 320.883 186.238 320.65 185.781Z" fill="#E0BA00"/>
<path d="M332.735 185.781C332.503 185.548 332.048 185.548 331.825 185.781L329.772 187.84C329.54 188.074 329.54 188.53 329.772 188.753C330.005 188.987 330.005 188.987 330.227 188.987C330.45 188.987 330.46 188.987 330.683 188.753L332.735 186.694C332.958 186.471 332.958 186.238 332.735 185.781Z" fill="#E0BA00"/>
<path d="M345.043 185.781C344.81 185.548 344.355 185.548 344.133 185.781L342.08 187.84C341.847 188.074 341.847 188.53 342.08 188.753C342.312 188.987 342.312 188.987 342.535 188.987C342.757 188.987 342.768 188.987 342.99 188.753L345.043 186.694C345.276 186.471 345.276 186.238 345.043 185.781Z" fill="#E0BA00"/>
<path d="M354.386 188.753C354.619 188.987 354.619 188.987 354.841 188.987C355.063 188.987 355.074 188.987 355.296 188.753L357.349 186.694C357.582 186.461 357.582 186.004 357.349 185.781C357.116 185.548 356.661 185.548 356.439 185.781L354.386 187.84C354.164 188.063 354.164 188.53 354.386 188.753Z" fill="#E0BA00"/>
<path d="M266.619 194.474C266.619 194.708 266.619 194.931 266.619 195.164C266.851 194.931 266.851 194.697 266.619 194.474Z" fill="#E0BA00"/>
<path d="M278.936 194.241C278.703 194.007 278.248 194.007 278.025 194.241L275.973 196.3C275.74 196.533 275.74 196.99 275.973 197.213C276.205 197.446 276.205 197.446 276.428 197.446C276.66 197.446 276.66 197.446 276.883 197.213L278.936 195.154C279.158 194.931 279.158 194.474 278.936 194.241Z" fill="#E0BA00"/>
<path d="M291.011 194.241C290.778 194.007 290.323 194.007 290.101 194.241L288.048 196.3C287.815 196.533 287.815 196.99 288.048 197.213C288.281 197.446 288.281 197.446 288.503 197.446C288.725 197.446 288.736 197.446 288.958 197.213L291.011 195.154C291.244 194.931 291.244 194.474 291.011 194.241Z" fill="#E0BA00"/>
<path d="M303.328 194.241C303.095 194.007 302.64 194.007 302.418 194.241L300.365 196.3C300.132 196.533 300.132 196.99 300.365 197.213C300.598 197.446 300.598 197.446 300.82 197.446C301.053 197.446 301.053 197.446 301.275 197.213L303.328 195.154C303.55 194.931 303.55 194.474 303.328 194.241Z" fill="#E0BA00"/>
<path d="M315.635 194.241C315.402 194.007 314.947 194.007 314.725 194.241L312.672 196.3C312.439 196.533 312.439 196.99 312.672 197.213C312.905 197.446 312.905 197.446 313.127 197.446C313.36 197.446 313.36 197.446 313.582 197.213L315.635 195.154C315.868 194.931 315.868 194.474 315.635 194.241Z" fill="#E0BA00"/>
<path d="M327.942 194.241C327.709 194.007 327.254 194.007 327.032 194.241L324.979 196.3C324.746 196.533 324.746 196.99 324.979 197.213C325.212 197.446 325.212 197.446 325.434 197.446C325.667 197.446 325.667 197.446 325.889 197.213L327.942 195.154C328.175 194.931 328.175 194.474 327.942 194.241Z" fill="#E0BA00"/>
<path d="M340.259 194.241C340.026 194.007 339.571 194.007 339.349 194.241L337.296 196.3C337.063 196.533 337.063 196.99 337.296 197.213C337.529 197.446 337.529 197.446 337.751 197.446C337.984 197.446 337.984 197.446 338.206 197.213L340.259 195.154C340.481 194.931 340.481 194.474 340.259 194.241Z" fill="#E0BA00"/>
<path d="M352.344 194.241C352.111 194.007 351.656 194.007 351.434 194.241L349.381 196.3C349.148 196.533 349.148 196.99 349.381 197.213C349.614 197.446 349.614 197.446 349.836 197.446C350.069 197.446 350.069 197.446 350.291 197.213L352.344 195.154C352.799 194.931 352.799 194.474 352.344 194.241Z" fill="#E0BA00"/>
<path d="M271.412 201.565C271.179 201.331 270.724 201.331 270.502 201.565L268.449 203.624C268.216 203.857 268.216 204.314 268.449 204.537C268.682 204.77 268.682 204.77 268.904 204.77C269.126 204.77 269.137 204.77 269.359 204.537L271.412 202.477C271.634 202.244 271.634 201.788 271.412 201.565Z" fill="#E0BA00"/>
<path d="M283.719 201.565C283.486 201.331 283.031 201.331 282.809 201.565L280.756 203.624C280.523 203.857 280.523 204.314 280.756 204.537C280.989 204.77 280.989 204.77 281.211 204.77C281.444 204.77 281.444 204.77 281.666 204.537L283.719 202.477C283.952 202.244 283.952 201.788 283.719 201.565Z" fill="#E0BA00"/>
<path d="M296.026 201.565C295.793 201.331 295.338 201.331 295.116 201.565L293.063 203.624C292.83 203.857 292.83 204.314 293.063 204.537C293.296 204.77 293.296 204.77 293.518 204.77C293.741 204.77 293.751 204.77 293.973 204.537L296.026 202.477C296.259 202.244 296.259 201.788 296.026 201.565Z" fill="#E0BA00"/>
<path d="M308.343 201.565C308.11 201.331 307.655 201.331 307.433 201.565L305.38 203.624C305.147 203.857 305.147 204.314 305.38 204.537C305.613 204.77 305.613 204.77 305.835 204.77C306.068 204.77 306.068 204.77 306.29 204.537L308.343 202.477C308.565 202.244 308.565 201.788 308.343 201.565Z" fill="#E0BA00"/>
<path d="M320.65 201.565C320.418 201.331 319.962 201.331 319.74 201.565L317.687 203.624C317.455 203.857 317.455 204.314 317.687 204.537C317.92 204.77 317.92 204.77 318.142 204.77C318.365 204.77 318.375 204.77 318.597 204.537L320.65 202.477C320.883 202.244 320.883 201.788 320.65 201.565Z" fill="#E0BA00"/>
<path d="M332.735 201.565C332.503 201.331 332.048 201.331 331.825 201.565L329.772 203.624C329.54 203.857 329.54 204.314 329.772 204.537C330.005 204.77 330.005 204.77 330.227 204.77C330.45 204.77 330.46 204.77 330.683 204.537L332.735 202.477C332.958 202.244 332.958 201.788 332.735 201.565Z" fill="#E0BA00"/>
<path d="M345.043 201.565C344.81 201.331 344.355 201.331 344.133 201.565L342.08 203.624C341.847 203.857 341.847 204.314 342.08 204.537C342.312 204.77 342.312 204.77 342.535 204.77C342.757 204.77 342.768 204.77 342.99 204.537L345.043 202.477C345.276 202.244 345.276 201.788 345.043 201.565Z" fill="#E0BA00"/>
<path d="M354.386 204.537C354.619 204.77 354.619 204.77 354.841 204.77C355.063 204.77 355.074 204.77 355.296 204.537L357.349 202.477C357.582 202.244 357.582 201.788 357.349 201.565C357.116 201.331 356.661 201.331 356.439 201.565L354.386 203.624C354.164 203.847 354.164 204.303 354.386 204.537Z" fill="#E0BA00"/>
<path d="M266.618 210.024C266.618 210.024 266.396 210.024 266.618 210.024C266.385 210.257 266.385 210.714 266.385 211.17L266.618 210.937C266.851 210.703 266.851 210.247 266.618 210.024Z" fill="#E0BA00"/>
<path d="M278.936 210.024C278.703 209.79 278.248 209.79 278.025 210.024L275.973 212.083C275.74 212.316 275.74 212.773 275.973 212.996C276.205 213.229 276.205 213.229 276.428 213.229C276.66 213.229 276.66 213.229 276.883 212.996L278.936 210.937C279.158 210.703 279.158 210.247 278.936 210.024Z" fill="#E0BA00"/>
<path d="M291.011 210.024C290.778 209.79 290.323 209.79 290.101 210.024L288.048 212.083C287.815 212.316 287.815 212.773 288.048 212.996C288.281 213.229 288.281 213.229 288.503 213.229C288.725 213.229 288.736 213.229 288.958 212.996L291.011 210.937C291.244 210.703 291.244 210.247 291.011 210.024Z" fill="#E0BA00"/>
<path d="M303.328 210.024C303.095 209.79 302.64 209.79 302.418 210.024L300.365 212.083C300.132 212.316 300.132 212.773 300.365 212.996C300.598 213.229 300.598 213.229 300.82 213.229C301.053 213.229 301.053 213.229 301.275 212.996L303.328 210.937C303.55 210.703 303.55 210.247 303.328 210.024Z" fill="#E0BA00"/>
<path d="M315.635 210.024C315.402 209.79 314.947 209.79 314.725 210.024L312.672 212.083C312.439 212.316 312.439 212.773 312.672 212.996C312.905 213.229 312.905 213.229 313.127 213.229C313.36 213.229 313.36 213.229 313.582 212.996L315.635 210.937C315.868 210.703 315.868 210.247 315.635 210.024Z" fill="#E0BA00"/>
<path d="M327.942 210.024C327.709 209.79 327.254 209.79 327.032 210.024L324.979 212.083C324.746 212.316 324.746 212.773 324.979 212.996C325.212 213.229 325.212 213.229 325.434 213.229C325.667 213.229 325.667 213.229 325.889 212.996L327.942 210.937C328.175 210.703 328.175 210.247 327.942 210.024Z" fill="#E0BA00"/>
<path d="M340.259 210.024C340.026 209.79 339.571 209.79 339.349 210.024L337.296 212.083C337.063 212.316 337.063 212.773 337.296 212.996C337.529 213.229 337.529 213.229 337.751 213.229C337.984 213.229 337.984 213.229 338.206 212.996L340.259 210.937C340.481 210.703 340.481 210.247 340.259 210.024Z" fill="#E0BA00"/>
<path d="M352.344 210.024C352.111 209.79 351.656 209.79 351.434 210.024L349.381 212.083C349.148 212.316 349.148 212.773 349.381 212.996C349.614 213.229 349.614 213.229 349.836 213.229C350.069 213.229 350.069 213.229 350.291 212.996L352.344 210.937C352.799 210.703 352.799 210.247 352.344 210.024Z" fill="#E0BA00"/>
<path d="M271.412 217.337C271.179 217.104 270.724 217.104 270.502 217.337L268.449 219.396C268.216 219.63 268.216 220.086 268.449 220.309C268.682 220.543 268.682 220.543 268.904 220.543C269.126 220.543 269.137 220.543 269.359 220.309L271.412 218.25C271.634 218.027 271.634 217.571 271.412 217.337Z" fill="#E0BA00"/>
<path d="M283.719 217.337C283.486 217.104 283.031 217.104 282.809 217.337L280.756 219.396C280.523 219.63 280.523 220.086 280.756 220.309C280.989 220.543 280.989 220.543 281.211 220.543C281.444 220.543 281.444 220.543 281.666 220.309L283.719 218.25C283.952 218.027 283.952 217.571 283.719 217.337Z" fill="#E0BA00"/>
<path d="M296.026 217.337C295.793 217.104 295.338 217.104 295.116 217.337L293.063 219.396C292.83 219.63 292.83 220.086 293.063 220.309C293.296 220.543 293.296 220.543 293.518 220.543C293.741 220.543 293.751 220.543 293.973 220.309L296.026 218.25C296.259 218.027 296.259 217.571 296.026 217.337Z" fill="#E0BA00"/>
<path d="M308.343 217.337C308.11 217.104 307.655 217.104 307.433 217.337L305.38 219.396C305.147 219.63 305.147 220.086 305.38 220.309C305.613 220.543 305.613 220.543 305.835 220.543C306.068 220.543 306.068 220.543 306.29 220.309L308.343 218.25C308.565 218.027 308.565 217.571 308.343 217.337Z" fill="#E0BA00"/>
<path d="M320.65 217.337C320.418 217.104 319.962 217.104 319.74 217.337L317.687 219.396C317.455 219.63 317.455 220.086 317.687 220.309C317.92 220.543 317.92 220.543 318.142 220.543C318.365 220.543 318.375 220.543 318.597 220.309L320.65 218.25C320.883 218.027 320.883 217.571 320.65 217.337Z" fill="#E0BA00"/>
<path d="M332.735 217.337C332.503 217.104 332.048 217.104 331.825 217.337L329.772 219.396C329.54 219.63 329.54 220.086 329.772 220.309C330.005 220.543 330.005 220.543 330.227 220.543C330.45 220.543 330.46 220.543 330.683 220.309L332.735 218.25C332.958 218.027 332.958 217.571 332.735 217.337Z" fill="#E0BA00"/>
<path d="M345.043 217.337C344.81 217.104 344.355 217.104 344.133 217.337L342.08 219.396C341.847 219.63 341.847 220.086 342.08 220.309C342.312 220.543 342.312 220.543 342.535 220.543C342.757 220.543 342.768 220.543 342.99 220.309L345.043 218.25C345.276 218.027 345.276 217.571 345.043 217.337Z" fill="#E0BA00"/>
<path d="M354.386 220.309C354.619 220.543 354.619 220.543 354.841 220.543C355.063 220.543 355.074 220.543 355.296 220.309L357.349 218.25C357.582 218.016 357.582 217.56 357.349 217.337C357.116 217.104 356.661 217.104 356.439 217.337L354.386 219.396C354.164 219.619 354.164 220.086 354.386 220.309Z" fill="#E0BA00"/>
<path d="M266.618 225.797C266.385 225.563 266.163 225.563 265.708 225.797C265.708 226.486 265.708 226.943 265.475 227.622L266.385 226.709C266.85 226.486 266.85 226.03 266.618 225.797Z" fill="#E0BA00"/>
<path d="M278.016 225.797L275.963 227.856C275.73 228.089 275.73 228.546 275.963 228.768C276.196 229.002 276.196 229.002 276.418 229.002C276.651 229.002 276.651 229.002 276.873 228.768L278.926 226.709C279.159 226.476 279.159 226.019 278.926 225.797C278.704 225.574 278.249 225.574 278.016 225.797Z" fill="#E0BA00"/>
<path d="M291.011 225.797C290.778 225.563 290.323 225.563 290.101 225.797L288.048 227.856C287.815 228.089 287.815 228.546 288.048 228.769C288.281 229.002 288.281 229.002 288.503 229.002C288.725 229.002 288.736 229.002 288.958 228.769L291.011 226.709C291.244 226.486 291.244 226.03 291.011 225.797Z" fill="#E0BA00"/>
<path d="M302.418 225.797L300.365 227.856C300.132 228.089 300.132 228.546 300.365 228.768C300.598 228.991 300.598 229.002 300.82 229.002C301.053 229.002 301.053 229.002 301.275 228.768L303.328 226.709C303.561 226.476 303.561 226.019 303.328 225.797C303.095 225.574 302.64 225.574 302.418 225.797Z" fill="#E0BA00"/>
<path d="M315.635 225.797C315.402 225.563 314.947 225.563 314.725 225.797L312.672 227.856C312.439 228.089 312.439 228.546 312.672 228.769C312.905 228.991 312.905 229.002 313.127 229.002C313.36 229.002 313.36 229.002 313.582 228.769L315.635 226.709C315.868 226.486 315.868 226.03 315.635 225.797Z" fill="#E0BA00"/>
<path d="M327.032 225.797L324.979 227.856C324.746 228.089 324.746 228.546 324.979 228.768C325.212 229.002 325.212 229.002 325.434 229.002C325.667 229.002 325.667 229.002 325.889 228.768L327.942 226.709C328.175 226.476 328.175 226.019 327.942 225.797C327.72 225.574 327.265 225.574 327.032 225.797Z" fill="#E0BA00"/>
<path d="M339.349 225.797L337.296 227.856C337.063 228.089 337.063 228.546 337.296 228.768C337.529 228.991 337.529 229.002 337.751 229.002C337.984 229.002 337.984 229.002 338.206 228.768L340.259 226.709C340.492 226.476 340.492 226.019 340.259 225.797C340.026 225.574 339.571 225.574 339.349 225.797Z" fill="#E0BA00"/>
<path d="M351.656 225.797L349.603 227.856C349.371 228.089 349.371 228.546 349.603 228.768C349.836 228.991 349.836 229.002 350.058 229.002C350.281 229.002 350.291 229.002 350.513 228.768L352.566 226.709C352.799 226.476 352.799 226.019 352.566 225.797C352.111 225.574 351.889 225.574 351.656 225.797Z" fill="#E0BA00"/>
<path d="M270.492 233.12L268.439 235.179C268.206 235.413 268.206 235.869 268.439 236.092C268.672 236.326 268.672 236.326 268.894 236.326C269.116 236.326 269.127 236.326 269.349 236.092L271.402 234.033C271.635 233.8 271.635 233.343 271.402 233.12C271.18 232.887 270.725 232.887 270.492 233.12Z" fill="#E0BA00"/>
<path d="M282.809 233.12L280.756 235.179C280.523 235.413 280.523 235.869 280.756 236.092C280.989 236.326 280.989 236.326 281.211 236.326C281.444 236.326 281.444 236.326 281.666 236.092L283.719 234.033C283.952 233.8 283.952 233.343 283.719 233.12C283.486 232.887 283.031 232.887 282.809 233.12Z" fill="#E0BA00"/>
<path d="M296.026 233.12C295.793 232.887 295.338 232.887 295.116 233.12L293.063 235.179C292.83 235.413 292.83 235.869 293.063 236.092C293.296 236.326 293.296 236.326 293.518 236.326C293.741 236.326 293.751 236.326 293.973 236.092L296.026 234.033C296.259 233.8 296.259 233.343 296.026 233.12Z" fill="#E0BA00"/>
<path d="M307.433 233.12L305.38 235.179C305.147 235.413 305.147 235.869 305.38 236.092C305.613 236.326 305.613 236.326 305.835 236.326C306.068 236.326 306.068 236.326 306.29 236.092L308.343 234.033C308.576 233.8 308.576 233.343 308.343 233.12C308.11 232.887 307.655 232.887 307.433 233.12Z" fill="#E0BA00"/>
<path d="M320.65 233.12C320.418 232.887 319.962 232.887 319.74 233.12L317.687 235.179C317.455 235.413 317.455 235.869 317.687 236.092C317.92 236.326 317.92 236.326 318.142 236.326C318.365 236.326 318.375 236.326 318.597 236.092L320.65 234.033C320.883 233.8 320.883 233.343 320.65 233.12Z" fill="#E0BA00"/>
<path d="M331.825 233.12L329.772 235.179C329.54 235.413 329.54 235.869 329.772 236.092C330.005 236.326 330.005 236.326 330.227 236.326C330.45 236.326 330.46 236.326 330.683 236.092L332.735 234.033C332.968 233.8 332.968 233.343 332.735 233.12C332.503 232.887 332.28 232.887 331.825 233.12Z" fill="#E0BA00"/>
<path d="M344.133 233.12L342.08 235.179C341.847 235.413 341.847 235.869 342.08 236.092C342.312 236.326 342.312 236.326 342.535 236.326C342.757 236.326 342.768 236.326 342.99 236.092L345.043 234.033C345.276 233.8 345.276 233.343 345.043 233.12C344.82 232.887 344.365 232.887 344.133 233.12Z" fill="#E0BA00"/>
<path d="M354.386 236.092C354.386 236.092 354.619 236.092 354.619 236.326C354.851 235.636 354.851 235.179 355.074 234.5L354.386 235.19C354.164 235.402 354.164 235.859 354.386 236.092Z" fill="#E0BA00"/>
<path d="M266.618 241.58C266.385 241.346 265.93 241.346 265.708 241.58L265.475 241.813L266.618 242.27C266.85 242.036 266.85 241.803 266.618 241.58Z" fill="#E0BA00"/>
<path d="M276.428 244.552C276.66 244.552 276.66 244.552 276.883 244.318L278.936 242.259C279.168 242.025 279.168 241.569 278.936 241.346C278.703 241.113 278.248 241.113 278.025 241.346L275.973 243.405C275.74 243.639 275.74 244.095 275.973 244.318C276.195 244.552 276.195 244.552 276.428 244.552Z" fill="#E0BA00"/>
<path d="M290.333 241.58L288.28 243.639C288.047 243.872 288.047 244.329 288.28 244.552C288.513 244.785 288.513 244.785 288.735 244.785C288.968 244.785 288.968 244.785 289.19 244.552L291.243 242.492C291.476 242.259 291.476 241.803 291.243 241.58C290.788 241.346 290.555 241.346 290.333 241.58Z" fill="#E0BA00"/>
<path d="M300.587 243.405C300.354 243.639 300.354 244.095 300.587 244.318C300.587 244.552 300.82 244.552 301.042 244.552L301.73 242.492L300.587 243.405Z" fill="#E0BA00"/>
<path d="M314.725 241.58L312.672 243.639C312.439 243.872 312.439 244.329 312.672 244.552C312.905 244.785 312.905 244.785 313.127 244.785C313.36 244.785 313.36 244.785 313.582 244.552L315.635 242.492C315.868 242.259 315.868 241.803 315.635 241.58C315.413 241.346 314.947 241.346 314.725 241.58Z" fill="#E0BA00"/>
<path d="M325.444 244.552C325.677 244.552 325.677 244.552 325.899 244.318L327.952 242.259C328.185 242.025 328.185 241.569 327.952 241.346C327.719 241.113 327.264 241.113 327.042 241.346L324.989 243.405C324.756 243.639 324.756 244.095 324.989 244.318C325.211 244.552 325.444 244.552 325.444 244.552Z" fill="#E0BA00"/>
<path d="M337.751 244.552C337.984 244.552 337.984 244.552 338.206 244.318L340.259 242.259C340.492 242.025 340.492 241.569 340.259 241.346C340.026 241.113 339.571 241.113 339.349 241.346L337.296 243.405C337.063 243.639 337.063 244.095 337.296 244.318C337.518 244.552 337.518 244.552 337.751 244.552Z" fill="#E0BA00"/>
<path d="M352.344 241.58C352.111 241.346 351.656 241.346 351.434 241.58L349.381 243.639C349.148 243.872 349.148 244.329 349.381 244.552C349.836 244.318 350.291 244.095 350.746 243.862L352.111 242.492C352.799 242.036 352.799 241.803 352.344 241.58Z" fill="#E0BA00"/>
<path d="M283.72 249.805C283.952 249.572 283.952 249.116 283.72 248.893C283.487 248.659 283.032 248.659 282.809 248.893L282.354 249.349L283.72 249.805Z" fill="#E0BA00"/>
<path d="M295.116 248.893L293.063 250.952C292.83 251.185 292.83 251.642 293.063 251.865C293.296 252.098 293.296 252.098 293.518 252.098C293.741 252.098 293.751 252.098 293.973 251.865L296.026 249.805C296.259 249.572 296.259 249.115 296.026 248.893C295.804 248.67 295.349 248.67 295.116 248.893Z" fill="#E0BA00"/>
<path d="M308.343 249.805C308.576 249.572 308.576 249.116 308.343 248.893C308.11 248.659 307.655 248.659 307.433 248.893L305.38 250.952C305.147 251.185 305.147 251.642 305.38 251.865C305.613 252.098 305.613 252.098 305.835 252.098C306.068 252.098 306.068 252.098 306.29 251.865L308.343 249.805Z" fill="#E0BA00"/>
<path d="M319.74 248.893L317.687 250.952C317.455 251.185 317.455 251.642 317.687 251.865C317.92 252.098 317.92 252.098 318.142 252.098C318.365 252.098 318.375 252.098 318.597 251.865L320.65 249.805C320.883 249.572 320.883 249.115 320.65 248.893C320.418 248.67 319.962 248.67 319.74 248.893Z" fill="#E0BA00"/>
<path d="M332.736 249.805C332.968 249.572 332.968 249.116 332.736 248.893C332.503 248.659 332.048 248.659 331.826 248.893L329.773 250.952C329.773 250.952 329.54 251.185 329.54 251.408C330.228 251.175 330.905 250.952 331.593 250.718L332.736 249.805Z" fill="#E0BA00"/>
<path d="M293.297 115.58C293.297 115.58 273.783 113.839 271.582 116.036C269.381 118.233 265.434 145.267 266.619 148.048" fill="#FCD600"/>
<path d="M392.937 138.506L367.762 122.5L352.714 129.304L348.143 154.056L372.894 171.75" fill="#FCD600"/>
<path d="M268.196 156.805C268.196 156.805 238.216 178.691 235.582 182.714C234.396 184.624 284.799 219.396 259.825 223.514C256.989 224.045 200.026 193.434 198.153 183.701C194.057 161.889 254.386 120.473 262.661 118.86C295.053 112.778 268.196 156.805 268.196 156.805Z" fill="#FFCFC5"/>
<path d="M243.159 126.746L235.783 131.713L256.439 168.555L266.831 161.698L243.159 126.746Z" fill="#E8BB00"/>
<path d="M270.535 225.945C270.535 225.945 292.281 240.072 266.831 227.739C257.148 222.92 226.396 205.683 206.883 192.097C212.544 186.195 238.238 196.725 244.704 191.63L263 205.736L273.508 214.599C273.508 214.599 286.588 223.132 285.307 224.098C283.508 225.457 274.005 219.28 274.005 219.28C274.005 219.28 287.18 227.134 284.767 227.941C282.355 228.747 272.312 223.196 272.312 223.196C272.312 223.196 298.207 238.82 270.535 225.945Z" fill="#FFCFC5"/>
<path d="M241.655 130.089L267.5 114.5L279 115L280.5 131.5L273 152L261.698 163.333" fill="#FCD600"/>
<path d="M182.857 387.189C182.857 387.189 187.58 343.212 162.55 322.806C144.888 308.406 119.461 307.477 106.03 308.159C101.874 308.368 99.3996 312.877 101.421 316.534C106.389 325.458 113.586 340.768 112.963 353.387C112.018 372.505 100.684 387.189 100.684 387.189H182.857V387.189Z" fill="#656565"/>
<path opacity="0.2" d="M195.722 387.189H69.2889C66.7387 387.189 64.6607 389.273 64.6607 391.831C64.6607 394.389 66.7387 396.473 69.2889 396.473H104.066C106.616 396.473 108.694 398.557 108.694 401.115C108.694 403.673 106.616 405.757 104.066 405.757H92.354C89.8038 405.757 87.7259 407.841 87.7259 410.399C87.7259 412.957 89.8038 415.041 92.354 415.041H182.423C184.973 415.041 187.051 412.957 187.051 410.399C187.051 407.841 184.973 405.757 182.423 405.757H155.656C153.105 405.757 151.027 403.673 151.027 401.115C151.027 398.557 153.105 396.473 155.656 396.473H195.703C198.253 396.473 200.331 394.389 200.331 391.831C200.35 389.273 198.272 387.189 195.722 387.189Z" fill="#292929"/>
<path opacity="0.2" d="M72.3675 405.776H37.6281C35.0779 405.776 33 407.86 33 410.418C33 412.976 35.0779 415.06 37.6281 415.06H72.3675C74.9177 415.06 76.9956 412.976 76.9956 410.418C77.0145 407.86 74.9366 405.776 72.3675 405.776Z" fill="#292929"/>
<path opacity="0.1" d="M100.684 387.189H161.096C160.812 376.502 158.583 361.136 149.95 346.395C134.517 320.039 101.402 316.534 101.402 316.534C106.37 325.458 113.567 340.768 112.944 353.387C112.018 372.505 100.684 387.189 100.684 387.189Z" fill="#292929"/>
<g opacity="0.21">
<g opacity="0.21">
<path opacity="0.21" d="M130.266 318.827C145.473 320.987 159.622 331.843 166.8 345.145C170.994 352.913 173.053 361.629 173.733 370.401C173.96 373.414 178.682 373.452 178.456 370.401C177.303 355.319 172.127 340.654 161.247 329.873C154.541 323.222 146.097 318.353 137.086 315.587C135.272 315.037 133.421 314.507 131.532 314.241C128.547 313.825 127.263 318.391 130.266 318.827Z" fill="white"/>
</g>
</g>
<path d="M530.407 190.631L493.607 175.208C492.708 174.846 492.808 174.194 493.907 173.76L513.307 165.65C514.307 165.215 515.907 165.143 516.807 165.578L553.607 180.928C554.507 181.29 554.407 181.942 553.307 182.376L533.907 190.486C532.907 190.92 531.307 190.993 530.407 190.631Z" fill="white"/>
<path d="M560.335 211.703C560.135 211.703 559.935 211.703 559.735 211.503C559.035 211.103 558.835 210.303 559.135 209.703C560.535 207.003 562.535 204.803 564.735 203.503C566.135 202.703 567.435 202.303 568.635 202.403C570.335 202.503 572.635 201.203 574.535 198.803C575.635 197.503 576.835 196.403 578.135 195.703C579.535 194.903 580.835 194.503 582.035 194.603C583.835 194.703 586.035 193.403 587.935 191.003C589.035 189.703 590.235 188.603 591.535 187.903C592.935 187.103 594.235 186.703 595.435 186.803C597.235 186.903 599.435 185.603 601.335 183.203C602.435 181.903 603.635 180.803 604.935 180.103C606.935 178.903 608.935 178.703 610.535 179.403C611.235 179.703 611.535 180.503 611.235 181.203C610.935 181.903 610.135 182.203 609.435 181.903C608.635 181.503 607.535 181.703 606.235 182.503C605.235 183.103 604.235 183.903 603.435 185.003C600.935 188.003 597.935 189.703 595.335 189.503C594.635 189.503 593.735 189.703 592.935 190.203C591.935 190.803 590.935 191.603 590.135 192.703C587.635 195.703 584.735 197.403 582.035 197.203C581.335 197.203 580.435 197.403 579.635 197.903C578.635 198.503 577.635 199.303 576.835 200.403C574.335 203.403 571.335 205.103 568.735 204.903C568.035 204.903 567.135 205.103 566.335 205.603C564.635 206.603 562.935 208.403 561.835 210.703C561.235 211.503 560.835 211.703 560.335 211.703Z" fill="white"/>
<path d="M64.3 348.53C64.3 350.23 63.1 352.23 61.7 353.13C60.2 353.93 59 353.23 59 351.53C59 349.83 60.2 347.83 61.6 346.93C63 346.03 64.3 346.83 64.3 348.53Z" fill="white"/>
<path d="M71.5 344.33C71.5 346.03 70.3 348.03 68.9 348.93C67.5 349.83 66.3 349.03 66.3 347.33C66.3 345.63 67.5 343.63 68.9 342.73C70.3 341.83 71.5 342.63 71.5 344.33Z" fill="white"/>
<path d="M64.3 340.13C64.3 341.83 63.1 343.83 61.7 344.73C60.3 345.63 59 344.83 59 343.13C59 341.43 60.2 339.43 61.6 338.53C63.1 337.73 64.3 338.43 64.3 340.13Z" fill="white"/>
<path d="M71.5 335.93C71.5 337.63 70.3 339.63 68.9 340.53C67.5 341.43 66.3 340.63 66.3 338.93C66.3 337.23 67.5 335.23 68.9 334.33C70.4 333.53 71.5 334.23 71.5 335.93Z" fill="white"/>
<path d="M421.1 423.871C420.1 423.871 419.1 423.671 418.2 423.071C416.1 421.971 415 419.571 415 416.471C415 410.471 419.1 403.371 424.3 400.371C427 398.771 429.7 398.571 431.7 399.771C433.7 400.971 434.9 403.371 434.9 406.471C434.9 412.471 430.8 419.571 425.6 422.571C424 423.471 422.5 423.871 421.1 423.871ZM428.8 401.571C427.8 401.571 426.7 401.871 425.6 402.571C421.2 405.171 417.6 411.371 417.6 416.471C417.6 418.671 418.3 420.271 419.5 420.971C420.7 421.671 422.4 421.471 424.3 420.371C428.7 417.771 432.3 411.571 432.3 406.471C432.3 404.271 431.6 402.671 430.4 401.971C429.9 401.671 429.4 401.571 428.8 401.571Z" fill="white"/>
<path d="M94.3 129.694C94.3 131.394 93.1 133.394 91.7 134.294C90.2 135.094 89 134.394 89 132.694C89 130.994 90.2 128.994 91.6 128.194C93.1 127.294 94.3 127.994 94.3 129.694Z" fill="white"/>
<path d="M102.8 124.694C102.8 126.394 101.6 128.394 100.2 129.294C98.8 130.194 97.6 129.494 97.6 127.794C97.6 126.094 98.8 124.094 100.2 123.194C101.6 122.294 102.8 123.094 102.8 124.694Z" fill="white"/>
<path d="M111.4 119.794C111.4 121.494 110.2 123.494 108.8 124.394C107.3 125.194 106.2 124.594 106.2 122.894C106.2 121.194 107.4 119.194 108.8 118.294C110.2 117.494 111.4 118.094 111.4 119.794Z" fill="white"/>
<path d="M119.9 114.894C119.9 116.594 118.7 118.594 117.3 119.494C115.8 120.294 114.7 119.694 114.7 117.994C114.7 116.294 115.9 114.294 117.3 113.394C118.7 112.494 119.9 113.194 119.9 114.894Z" fill="white"/>
<path d="M546.3 259.05C546.1 259.05 545.9 258.95 545.7 258.85C545.2 258.75 545 258.25 545 257.85V241.45C545 241.05 545.2 240.65 545.6 240.35L559.7 232.15C560.1 231.95 560.6 231.95 561 232.15C561.4 232.35 561.6 232.75 561.6 233.25V249.55C561.6 250.05 561.4 250.45 561 250.65L546.9 258.95C546.7 259.05 546.5 259.05 546.3 259.05ZM547.5 242.25V255.65L559.1 248.95V235.55L547.5 242.25Z" fill="white"/>
<path d="M1.335 330.703C1.135 330.703 0.935 330.703 0.735 330.503C0.035 330.103 -0.165 329.303 0.135 328.703C1.535 326.003 3.535 323.803 5.735 322.503C7.135 321.703 8.435 321.303 9.635 321.403C11.435 321.503 13.635 320.203 15.535 317.803C16.635 316.503 17.835 315.403 19.135 314.703C20.535 313.903 21.835 313.503 23.035 313.603C24.835 313.703 27.035 312.403 28.935 310.003C30.035 308.703 31.235 307.603 32.535 306.903C33.935 306.103 35.235 305.703 36.435 305.803C38.235 305.903 40.435 304.603 42.335 302.203C43.435 300.903 44.635 299.803 45.935 299.103C47.935 297.903 49.935 297.703 51.535 298.403C52.235 298.703 52.535 299.503 52.235 300.203C51.935 300.903 51.135 301.203 50.435 300.903C49.635 300.503 48.535 300.703 47.235 301.503C46.235 302.103 45.235 302.903 44.435 304.003C41.935 307.003 38.935 308.703 36.335 308.503C35.635 308.503 34.735 308.703 33.935 309.203C32.935 309.803 31.935 310.603 31.135 311.703C28.635 314.703 25.635 316.403 23.035 316.203C22.335 316.203 21.435 316.403 20.635 316.903C19.635 317.503 18.635 318.303 17.835 319.403C15.335 322.403 12.335 324.103 9.735 323.903C9.035 323.903 8.135 324.103 7.335 324.603C5.635 325.603 3.935 327.403 2.835 329.703C2.235 330.503 1.835 330.703 1.335 330.703Z" fill="white"/>
<path d="M78.0544 266.782L53.4069 252.31C52.8041 251.971 52.8711 251.359 53.6078 250.952L66.6014 243.342C67.2711 242.934 68.3428 242.866 68.9456 243.274L93.5931 257.678C94.1959 258.018 94.1289 258.629 93.3922 259.037L80.3986 266.647C79.7289 267.054 78.6572 267.122 78.0544 266.782Z" fill="white"/>
<path d="M194.44 46.9297C194.312 46.9297 194.191 46.9373 194.071 46.9448C193.34 44.4435 191.547 42.4018 189.211 41.3245C188.36 35.4706 183.32 30.9653 177.225 30.9653C175.605 30.9653 174.053 31.2893 172.637 31.8694C171.717 27.8764 168.154 24.9005 163.882 24.9005C161.878 24.9005 160.04 25.5635 158.541 26.671C156.378 23.8307 152.958 21.9999 149.108 21.9999C143.767 21.9999 139.246 25.5258 137.747 30.3777C136.67 29.9181 135.487 29.6695 134.244 29.6695C129.279 29.6695 125.256 33.6926 125.256 38.6575C125.256 40.7218 125.964 42.6203 127.132 44.1422C123.229 44.6168 120.095 47.6002 119.394 51.4275C119.342 51.4275 119.289 51.4199 119.236 51.4199C117.149 51.4199 115.462 53.1075 115.462 55.1944C115.462 57.2813 117.149 58.9689 119.236 58.9689C119.899 58.9689 120.524 58.7957 121.074 58.4943C122.717 60.6565 125.308 62.0579 128.232 62.0579C128.932 62.0579 129.603 61.9674 130.258 61.8168C133.739 66.7063 139.45 69.9007 145.914 69.9007C151.881 69.9007 157.215 67.1809 160.733 62.9092C162.895 65.9002 166.406 67.8439 170.369 67.8439C176.298 67.8439 181.21 63.5044 182.107 57.8238C183.139 58.2382 184.269 58.4717 185.444 58.4717C188.669 58.4717 191.494 56.769 193.076 54.215C193.498 54.3808 193.958 54.4712 194.432 54.4712C196.512 54.4712 198.207 52.7836 198.207 50.6967C198.207 48.6098 196.527 46.9297 194.44 46.9297Z" fill="#9ED7F2"/>
<path d="M119.778 50.0186H198.146C197.822 48.2632 196.286 46.9297 194.44 46.9297C194.312 46.9297 194.191 46.9373 194.071 46.9448C193.34 44.4435 191.547 42.4018 189.211 41.3245C188.36 35.4706 183.32 30.9653 177.225 30.9653C175.605 30.9653 174.053 31.2893 172.637 31.8694C171.717 27.8764 168.154 24.9005 163.882 24.9005C161.878 24.9005 160.04 25.5635 158.541 26.671C156.378 23.8307 152.958 21.9999 149.108 21.9999C143.767 21.9999 139.246 25.5258 137.747 30.3777C136.67 29.9181 135.487 29.6695 134.244 29.6695C129.279 29.6695 125.256 33.6926 125.256 38.6575C125.256 40.7218 125.964 42.6203 127.132 44.1422C123.719 44.5641 120.909 46.8845 119.778 50.0186Z" fill="white"/>
<path d="M162.375 46.8996C162.375 49.6344 160.16 51.8494 157.425 51.8494C154.691 51.8494 152.476 49.6344 152.476 46.8996C152.476 44.1648 154.691 41.9498 157.425 41.9498C160.16 41.9498 162.375 44.1648 162.375 46.8996Z" fill="#E7F6FD"/>
<path d="M155.359 57.7938C158.247 56.591 159.613 53.2745 158.411 50.3861C157.208 47.4978 153.891 46.1313 151.003 47.3341C148.115 48.5369 146.748 51.8534 147.951 54.7418C149.154 57.6301 152.47 58.9966 155.359 57.7938Z" fill="#E7F6FD"/>
<path d="M194.809 45.1743C193.822 44.4586 192.617 44.0367 191.306 44.0367C189.761 44.0367 188.36 44.6244 187.298 45.5887C186.122 43.2532 183.711 41.6409 180.916 41.6409C180.012 41.6409 179.153 41.8142 178.362 42.1231C177.262 40.8122 175.62 39.9759 173.774 39.9759C171.356 39.9759 169.269 41.4149 168.327 43.4867C167.566 43.0799 166.738 42.7635 165.879 42.5601C165.751 39.3732 163.129 36.8192 159.912 36.8192C157.508 36.8192 155.444 38.2356 154.495 40.2773C153.184 39.1547 151.489 38.4691 149.628 38.4691C149.018 38.4691 148.423 38.552 147.857 38.6876C146.004 35.9603 142.878 34.1673 139.337 34.1673C136.255 34.1673 133.49 35.5234 131.599 37.6705C130.507 36.2843 128.812 35.3878 126.906 35.3878C123.598 35.3878 120.924 38.0623 120.924 41.3697C120.924 42.6354 121.315 43.8032 121.986 44.775C120.487 45.7168 119.349 47.1708 118.814 48.8961C116.064 49.4385 114 51.8569 114 54.7575C114 58.0574 116.675 60.7394 119.982 60.7394C120.329 60.7394 120.66 60.7018 120.984 60.649C121.413 63.5345 123.892 65.7495 126.891 65.7495C129.422 65.7495 131.577 64.1749 132.451 61.9599C132.586 61.9675 132.729 61.9825 132.872 61.9825C134.055 61.9825 135.155 61.636 136.082 61.0408C137.521 63.8359 140.429 65.7495 143.789 65.7495C148.581 65.7495 152.461 61.8695 152.461 57.078C152.461 55.6766 152.122 54.3507 151.527 53.1829C152.107 53.0322 152.657 52.8213 153.169 52.5425C153.169 52.5501 153.169 52.5576 153.169 52.5651C153.169 58.2532 157.78 62.864 163.468 62.864C169.156 62.864 173.767 58.2532 173.767 52.5651C173.767 52.3542 173.759 52.1432 173.744 51.9323C173.752 51.9323 173.759 51.9323 173.767 51.9323C174.008 51.9323 174.249 51.9097 174.482 51.8871C175.643 54.2753 178.076 55.9177 180.901 55.9177C183.086 55.9177 185.037 54.9308 186.348 53.3863C187.29 54.7575 188.789 55.7218 190.515 55.9403C191.502 56.6561 192.707 57.078 194.018 57.078C197.318 57.078 200 54.4034 200 51.096C200.022 48.0598 197.747 45.5586 194.809 45.1743Z" fill="#E7F6FD"/>
<path d="M149.018 49.1373C148.897 50.4783 148.302 51.7365 147.353 52.6104C146.403 53.4843 145.153 53.9891 143.88 53.9816C142.606 53.9891 141.348 53.4843 140.406 52.6104C139.548 51.8118 138.99 50.6968 138.802 49.4914C138.862 49.4311 138.937 49.3859 138.998 49.3256C139.419 48.866 139.751 48.3311 139.962 47.751C140.158 47.1709 140.248 46.5531 140.195 45.9579C140.09 47.1558 139.555 48.2709 138.719 49.0469C137.875 49.8229 136.76 50.2749 135.63 50.2674C134.5 50.2749 133.385 49.8229 132.541 49.0469C131.697 48.2709 131.17 47.1558 131.064 45.9579C131.004 46.5607 131.102 47.1709 131.29 47.751C131.501 48.3311 131.833 48.866 132.255 49.3256C133.106 50.2523 134.364 50.7797 135.63 50.7797C136.775 50.7797 137.898 50.3276 138.726 49.5592C138.726 50.0941 138.824 50.6365 138.998 51.1564C139.239 51.8043 139.608 52.4145 140.082 52.9268C141.039 53.9665 142.456 54.5692 143.88 54.5692C145.303 54.5692 146.72 53.9665 147.677 52.9268C148.151 52.4145 148.528 51.8043 148.762 51.1564C148.98 50.5009 149.078 49.8153 149.018 49.1373Z" fill="#D6E8F2"/>
<path d="M169.262 48.0674C169.329 48.7379 169.224 49.431 169.005 50.0865C168.772 50.7344 168.395 51.3446 167.92 51.857C166.964 52.8966 165.547 53.4994 164.123 53.4994C162.699 53.4994 161.283 52.8966 160.326 51.857C159.852 51.3371 159.475 50.7344 159.241 50.0865C159.023 49.431 158.917 48.7379 158.985 48.0674C159.106 49.4084 159.701 50.6666 160.65 51.5405C161.592 52.4145 162.85 52.9192 164.123 52.9117C165.397 52.9192 166.655 52.4145 167.597 51.5405C168.546 50.6591 169.141 49.4084 169.262 48.0674Z" fill="#D6E8F2"/>
<g clip-path="url(#clip0)">
<path d="M412.63 71.09C412.63 67.45 409.68 64.5 406.04 64.5C405.4 64.5 404.77 64.6 404.18 64.77C404.25 64.3 404.29 63.82 404.29 63.34C404.3 57.63 399.67 53 393.96 53C389.56 53 385.82 55.75 384.32 59.62C383.12 59.33 381.87 59.17 380.58 59.17C374.24 59.17 368.76 62.87 366.19 68.23C363.34 68.69 360.88 70.31 359.32 72.6C358.4 72.11 357.35 71.83 356.24 71.83C352.6 71.83 349.65 74.78 349.65 78.42C349.65 82.06 352.6 85.01 356.24 85.01C357.35 85.01 358.4 84.73 359.32 84.24C361.18 86.97 364.31 88.76 367.86 88.76C369.09 88.76 370.27 88.53 371.37 88.14C373.97 89.98 377.15 91.07 380.58 91.07C384.51 91.07 388.1 89.65 390.88 87.29C392.74 89.08 395.26 90.19 398.05 90.19C403.76 90.19 408.39 85.56 408.39 79.85C408.39 78.99 408.27 78.15 408.07 77.35C410.71 76.49 412.63 74.01 412.63 71.09Z" fill="#9ED7F2"/>
<path d="M410.04 76.31C411.61 75.11 412.62 73.22 412.62 71.09C412.62 67.45 409.67 64.5 406.03 64.5C405.39 64.5 404.76 64.6 404.17 64.77C404.24 64.3 404.28 63.82 404.28 63.34C404.3 57.63 399.67 53 393.96 53C389.56 53 385.82 55.75 384.32 59.62C383.12 59.33 381.87 59.17 380.58 59.17C374.24 59.17 368.76 62.87 366.19 68.23C363.34 68.69 360.88 70.31 359.32 72.6C358.4 72.11 357.35 71.83 356.24 71.83C353.34 71.83 350.89 73.7 350.01 76.3H410.04V76.31Z" fill="white"/>
<path d="M410.37 70.19C410.36 70.19 410.36 70.19 410.35 70.19C410.36 70.05 410.37 69.91 410.37 69.76C410.37 65.84 407.19 62.66 403.27 62.66C400.35 62.66 397.85 64.42 396.76 66.94C395.93 66.16 394.82 65.68 393.6 65.68C393.06 65.68 392.54 65.78 392.06 65.95C391.07 63.7 388.82 62.12 386.21 62.12C383.66 62.12 381.47 63.61 380.44 65.77C378.7 63.55 375.99 62.12 372.95 62.12C368.06 62.12 364.04 65.8 363.49 70.54C362.63 70.11 361.67 69.87 360.65 69.87C358.23 69.87 356.13 71.21 355.05 73.19C354.21 72.25 352.98 71.65 351.62 71.65C349.07 71.65 347 73.72 347 76.27C347 78.82 349.07 80.89 351.62 80.89C352.99 80.89 354.21 80.29 355.05 79.35C356.14 81.33 358.24 82.67 360.65 82.67C362.62 82.67 364.38 81.78 365.56 80.37C365.92 83.56 368.62 86.04 371.91 86.04C374.32 86.04 376.41 84.71 377.5 82.74C379.23 85.13 382.04 86.69 385.22 86.69C387.81 86.69 390.15 85.66 391.86 83.98C393.57 86.5 396.46 88.15 399.74 88.15C404.79 88.15 408.9 84.22 409.23 79.26C409.6 79.35 409.98 79.41 410.37 79.41C412.92 79.41 414.99 77.34 414.99 74.79C414.99 72.24 412.92 70.19 410.37 70.19Z" fill="#E7F6FD"/>
<path d="M383.19 70.37C383.23 70.78 383.17 71.21 383.03 71.61C382.88 72.01 382.66 72.38 382.36 72.69C381.78 73.33 380.91 73.69 380.04 73.69C379.17 73.69 378.3 73.32 377.72 72.69C377.43 72.37 377.2 72 377.06 71.61C376.93 71.21 376.86 70.79 376.9 70.37C376.97 71.19 377.34 71.96 377.92 72.5C378.5 73.03 379.27 73.34 380.05 73.34C380.83 73.35 381.6 73.04 382.18 72.5C382.75 71.96 383.12 71.19 383.19 70.37Z" fill="#D6E8F2"/>
<path d="M401.15 73.69C401.21 74.36 401.11 75.04 400.89 75.68C400.66 76.32 400.29 76.92 399.82 77.43C398.88 78.45 397.48 79.05 396.08 79.05C394.68 79.05 393.28 78.46 392.34 77.43C391.87 76.92 391.5 76.32 391.27 75.68C391.05 75.03 390.95 74.35 391.02 73.69C391.14 75.02 391.73 76.25 392.66 77.12C393.59 77.98 394.83 78.48 396.09 78.47C397.35 78.48 398.59 77.98 399.52 77.12C400.45 76.26 401.04 75.02 401.15 73.69Z" fill="#D6E8F2"/>
<path d="M368.82 73.23C368.87 73.75 368.79 74.28 368.62 74.78C368.44 75.28 368.15 75.74 367.79 76.14C367.06 76.94 365.97 77.4 364.88 77.4C363.79 77.4 362.7 76.94 361.97 76.14C361.6 75.74 361.32 75.28 361.14 74.78C360.97 74.28 360.89 73.75 360.94 73.23C361.03 74.26 361.49 75.22 362.22 75.89C362.94 76.56 363.91 76.95 364.88 76.94C365.86 76.95 366.82 76.56 367.54 75.89C368.27 75.22 368.73 74.26 368.82 73.23Z" fill="#D6E8F2"/>
</g>
<path d="M502.511 19.7587C501.343 19.7587 500.222 19.9719 499.177 20.3431C496.324 16.7131 491.903 14.3687 486.926 14.3687C486.568 14.3687 486.218 14.3962 485.867 14.4237C483.117 6.05 475.252 0 465.957 0C455.892 0 447.491 7.095 445.463 16.555C445.304 16.5481 445.146 16.5344 444.988 16.5344C439.502 16.5344 435.054 20.9825 435.054 26.4688C435.054 27.7544 435.308 28.985 435.755 30.1125C432.984 30.8687 430.949 33.3919 430.949 36.4031C430.949 40.0056 433.871 42.9275 437.474 42.9275C438.361 42.9275 439.206 42.7487 439.976 42.4256C441.331 45.9181 444.72 48.4 448.694 48.4C453.417 48.4 457.315 44.8938 457.948 40.3425C460.416 41.3669 463.118 41.9375 465.957 41.9375C469.168 41.9375 472.199 41.195 474.922 39.9025C477.782 43.3469 482.099 45.5469 486.926 45.5469C492.089 45.5469 496.654 43.0238 499.493 39.1531C500.449 39.4556 501.459 39.6275 502.518 39.6275C508.004 39.6275 512.453 35.1794 512.453 29.6931C512.453 24.2069 507.998 19.7587 502.511 19.7587Z" fill="#9ED7F2"/>
<path d="M435.734 30.1125H512.425C512.432 29.9681 512.445 29.8306 512.445 29.6863C512.445 24.2 507.997 19.7519 502.511 19.7519C501.342 19.7519 500.222 19.965 499.177 20.3362C496.324 16.7062 491.903 14.3619 486.925 14.3619C486.568 14.3619 486.217 14.3894 485.867 14.4169C483.117 6.05 475.252 0 465.957 0C455.892 0 447.49 7.095 445.462 16.555C445.304 16.5481 445.146 16.5344 444.988 16.5344C439.502 16.5344 435.054 20.9825 435.054 26.4688C435.054 27.7544 435.308 28.985 435.755 30.1125C435.748 30.1056 435.741 30.1125 435.734 30.1125Z" fill="white"/>
<path d="M454.249 33.8663C457.332 33.8663 459.831 31.3669 459.831 28.2838C459.831 25.2006 457.332 22.7013 454.249 22.7013C451.166 22.7013 448.666 25.2006 448.666 28.2838C448.666 31.3669 451.166 33.8663 454.249 33.8663Z" fill="#E7F6FD"/>
<path d="M510.782 24.0556C509.503 24.0556 508.314 24.4406 507.324 25.1006C505.962 23.9731 504.209 23.2994 502.305 23.2994C501.019 23.2994 499.816 23.6088 498.744 24.1519C497.41 21.6838 494.797 20.0063 491.8 20.0063C491.161 20.0063 490.535 20.0888 489.944 20.2331C487.689 17.4006 484.217 15.5788 480.312 15.5788C477.424 15.5788 474.771 16.5825 472.674 18.2463C470.536 14.9875 466.858 12.8288 462.671 12.8288C456.813 12.8288 451.953 17.0363 450.921 22.5981C449.478 21.01 447.401 20.0063 445.084 20.0063C442.087 20.0063 439.474 21.6769 438.141 24.145C437.068 23.2719 435.707 22.7494 434.222 22.7494C430.784 22.7494 428 25.5338 428 28.9713C428 32.4088 430.784 35.1931 434.222 35.1931C434.937 35.1931 435.617 35.0694 436.25 34.8494C436.243 34.9663 436.229 35.0763 436.229 35.1931C436.229 38.6306 439.014 41.415 442.451 41.415C444.782 41.415 446.817 40.1294 447.883 38.225C448.433 38.4863 449.031 38.6444 449.684 38.6444C450.44 38.6444 451.134 38.4313 451.746 38.0806C452.901 41.0094 455.748 43.0788 459.082 43.0788C463.179 43.0788 466.548 39.9506 466.933 35.9563C467.985 35.5575 468.961 35.0144 469.841 34.3475C472.014 37.8606 475.884 40.205 480.312 40.205C482.285 40.205 484.141 39.7306 485.791 38.9056C486.871 40.755 488.871 41.9994 491.161 41.9994C494.103 41.9994 496.571 39.9506 497.211 37.2006C498.586 38.3694 500.359 39.0706 502.305 39.0706C504.821 39.0706 507.062 37.8881 508.506 36.0525C509.214 36.3275 509.977 36.4856 510.782 36.4856C514.219 36.4856 517.004 33.7013 517.004 30.2638C517.004 26.84 514.219 24.0556 510.782 24.0556ZM452.276 31.2056C452.269 31.1988 452.255 31.1919 452.248 31.185C452.296 31.0819 452.344 30.9856 452.386 30.8825C452.399 30.91 452.413 30.9306 452.434 30.9581C452.372 31.0406 452.324 31.1231 452.276 31.2056Z" fill="#E7F6FD"/>
<path d="M489.05 25.2587C489.112 25.9256 489.009 26.62 488.796 27.2662C488.562 27.9125 488.191 28.5175 487.716 29.0262C486.767 30.0575 485.358 30.6556 483.942 30.6556C482.526 30.6556 481.116 30.0575 480.167 29.0262C479.693 28.5106 479.322 27.9125 479.088 27.2662C478.868 26.6131 478.765 25.9256 478.834 25.2587C478.951 26.5925 479.549 27.8437 480.491 28.7169C481.432 29.5831 482.677 30.0919 483.949 30.0781C485.214 30.085 486.465 29.5831 487.407 28.7169C488.342 27.8437 488.933 26.5994 489.05 25.2587Z" fill="#D6E8F2"/>
<path d="M465.015 24.5575C465.104 25.4856 464.96 26.4344 464.658 27.335C464.334 28.2287 463.819 29.0606 463.166 29.7687C461.859 31.1919 459.914 32.0169 457.961 32.0169C456.009 32.0169 454.063 31.1919 452.75 29.7687C452.097 29.0606 451.581 28.2287 451.258 27.335C450.956 26.4344 450.811 25.4856 450.901 24.5575C451.066 26.4 451.884 28.1256 453.183 29.3287C454.483 30.5319 456.208 31.2262 457.954 31.2125C459.701 31.2262 461.426 30.5319 462.726 29.3287C464.032 28.1256 464.85 26.4 465.015 24.5575Z" fill="#D6E8F2"/>
<path opacity="0.3" d="M505.351 28.1944C505.337 28.1738 505.323 28.1531 505.303 28.1325C505.296 28.1256 505.296 28.1256 505.289 28.1187C505.248 28.0637 505.206 28.0088 505.165 27.9606C505.158 27.9538 505.151 27.9469 505.145 27.94C505.103 27.8919 505.055 27.8438 505.014 27.8025C505 27.7956 504.993 27.7819 504.98 27.775C504.952 27.7475 504.918 27.72 504.89 27.6925C504.43 26.6956 503.426 25.9944 502.25 25.9944C501.79 25.9944 501.356 26.1044 500.965 26.2969C500.813 26.2213 500.648 26.1525 500.483 26.0975C499.761 24.7637 498.386 23.8288 496.778 23.7325C496.633 23.6363 496.489 23.5537 496.331 23.485C496.145 23.3956 495.953 23.3269 495.746 23.2719C495.444 23.1894 495.128 23.1481 494.798 23.1481C494.406 23.1481 494.035 23.2169 493.684 23.3269C493.56 23.155 493.416 22.9969 493.258 22.8594C493.271 22.7631 493.278 22.66 493.285 22.5637C493.292 22.4537 493.299 22.3369 493.299 22.2269C493.299 19.0231 490.707 16.4313 487.503 16.4313C487.366 16.4313 487.221 16.4381 487.084 16.445C486.671 16.4725 486.273 16.5481 485.888 16.665C485.537 13.7981 483.103 11.5775 480.14 11.5775C479.528 11.5775 478.944 11.6738 478.387 11.8456C478.201 11.9075 478.023 11.9694 477.844 12.045C477.143 12.3475 476.51 12.7875 475.988 13.3306C475.713 13.0625 475.403 12.8081 475.08 12.5812C474.647 12.2787 474.186 12.0106 473.698 11.7837C472.846 11.3919 471.925 11.1375 470.955 11.0412C470.818 11.0275 470.673 11.0206 470.536 11.0137C470.398 11.0069 470.254 11 470.11 11C469.113 11 468.15 11.1719 467.256 11.4812C466.81 11.6394 466.383 11.8319 465.971 12.0519C465.765 12.1619 465.565 12.2856 465.373 12.4094C465.077 12.6087 464.795 12.8287 464.52 13.0625C464.17 13.365 463.84 13.6881 463.544 14.0388C463.173 14.4719 462.843 14.9394 462.561 15.4413C462.217 16.0531 461.949 16.7131 461.763 17.4006C461.564 17.38 461.365 17.3663 461.158 17.3663C460.725 17.3663 460.313 17.4144 459.907 17.5038C459.77 17.5313 459.639 17.5656 459.508 17.6069C459.247 17.6825 458.993 17.7788 458.752 17.8888C458.628 17.9438 458.511 18.0056 458.395 18.0675C457.336 18.645 456.483 19.5387 455.954 20.625C455.755 20.5494 455.555 20.4944 455.342 20.46C455.129 20.4188 454.916 20.3981 454.696 20.3981C454.469 20.3981 454.242 20.4188 454.022 20.46C453.369 20.5838 452.778 20.8794 452.303 21.2987C452.186 21.4019 452.076 21.5119 451.973 21.6288C451.898 21.7181 451.822 21.8075 451.753 21.9037C451.636 22.0687 451.526 22.2475 451.437 22.4331C450.798 22.5087 450.2 22.7219 449.67 23.045C449.533 23.0313 449.395 23.0175 449.258 23.0175C447.725 23.0175 446.411 23.9662 445.875 25.3069C445.848 25.3825 445.82 25.4581 445.793 25.5337C445.511 25.5819 445.236 25.6713 444.981 25.7812C444.899 25.7744 444.816 25.7744 444.734 25.7744C444.356 25.7744 443.998 25.8362 443.655 25.9462C443.132 25.6506 442.534 25.4856 441.895 25.4856C439.908 25.4856 438.306 27.0875 438.306 29.0675C438.306 29.1294 438.313 29.1844 438.313 29.2394C438.313 29.3013 438.306 29.3563 438.306 29.4181C438.306 29.9613 438.491 30.4631 438.794 30.8687C439.413 31.9344 440.568 32.6562 441.888 32.6562C441.901 32.6562 441.915 32.6562 441.929 32.6562C442.135 33.7012 443.05 34.485 444.15 34.485C445.25 34.485 446.164 33.7013 446.37 32.6631C446.377 32.6631 446.384 32.6562 446.384 32.6562C446.391 32.6562 446.405 32.6562 446.411 32.6562C446.576 32.6562 446.741 32.6425 446.9 32.6219C447.532 33.6875 448.694 34.4025 450.021 34.4025C450.571 34.4025 451.093 34.2788 451.561 34.0588C451.918 34.0038 452.262 33.9006 452.578 33.7494C453.218 34.7875 454.366 35.4819 455.672 35.4819C456.916 35.4819 458.01 34.8562 458.67 33.9075C459.151 34.1412 459.694 34.2788 460.265 34.2788C461.42 34.2788 462.444 33.7425 463.111 32.9038C463.406 34.6156 464.891 35.9219 466.693 35.9219C467.153 35.9219 467.593 35.8325 468.006 35.6744C469.56 37.1594 471.656 38.0738 473.973 38.0738C476.792 38.0738 479.295 36.7194 480.869 34.6363C481.433 34.8906 482.058 35.035 482.718 35.035C483.743 35.035 484.685 34.6913 485.441 34.1206C486.101 35.0213 487.166 35.6125 488.37 35.6125C489.009 35.6125 489.614 35.4475 490.136 35.1519C490.872 35.6675 491.759 35.97 492.728 35.97C494.66 35.97 496.31 34.7531 496.956 33.0413C497.032 32.9381 497.108 32.8281 497.17 32.7181C497.266 32.7044 497.355 32.6906 497.445 32.67C497.995 33 498.634 33.1925 499.321 33.1925C500.476 33.1925 501.494 32.6494 502.161 31.8175C502.188 31.8175 502.216 31.8244 502.25 31.8244C502.319 31.8244 502.395 31.8175 502.463 31.8106C502.731 31.9138 503.027 31.9756 503.336 31.9756C503.577 31.9756 503.811 31.9413 504.031 31.8725C504.354 32.0925 504.739 32.23 505.158 32.23C506.272 32.23 507.173 31.3294 507.173 30.2156C507.18 29.15 506.375 28.2906 505.351 28.1944Z" fill="#D6E8F2"/>
<defs>
<clipPath id="clip0">
<rect x="347" y="53" width="67.99" height="38.07" fill="white"/>
</clipPath>
</defs>
</svg>
