<svg width="159" height="49" viewBox="0 0 159 49" fill="none" xmlns="http://www.w3.org/2000/svg">
<path opacity="0.5" d="M58.534 39.377V40.84H56.235V47H54.519V40.84H52.22V39.377H58.534ZM60.82 43.183C60.82 43.557 60.864 43.8943 60.952 44.195C61.0474 44.4957 61.1794 44.756 61.348 44.976C61.524 45.1887 61.7367 45.3537 61.986 45.471C62.2354 45.5883 62.5214 45.647 62.844 45.647C63.1594 45.647 63.4417 45.5883 63.691 45.471C63.9477 45.3537 64.1604 45.1887 64.329 44.976C64.505 44.756 64.637 44.4957 64.725 44.195C64.8204 43.8943 64.868 43.557 64.868 43.183C64.868 42.809 64.8204 42.4717 64.725 42.171C64.637 41.863 64.505 41.6027 64.329 41.39C64.1604 41.17 63.9477 41.0013 63.691 40.884C63.4417 40.7667 63.1594 40.708 62.844 40.708C62.5214 40.708 62.2354 40.7703 61.986 40.895C61.7367 41.0123 61.524 41.181 61.348 41.401C61.1794 41.6137 61.0474 41.874 60.952 42.182C60.864 42.4827 60.82 42.8163 60.82 43.183ZM66.639 43.183C66.639 43.8357 66.54 44.4113 66.342 44.91C66.1514 45.4013 65.8874 45.8157 65.55 46.153C65.2127 46.483 64.8094 46.7323 64.34 46.901C63.878 47.0697 63.3794 47.154 62.844 47.154C62.3234 47.154 61.832 47.0697 61.37 46.901C60.908 46.7323 60.5047 46.483 60.16 46.153C59.8154 45.8157 59.544 45.4013 59.346 44.91C59.148 44.4113 59.049 43.8357 59.049 43.183C59.049 42.5303 59.1517 41.9583 59.357 41.467C59.5624 40.9683 59.8374 40.5503 60.182 40.213C60.534 39.8757 60.9374 39.6227 61.392 39.454C61.854 39.2853 62.338 39.201 62.844 39.201C63.3647 39.201 63.856 39.2853 64.318 39.454C64.78 39.6227 65.1834 39.8757 65.528 40.213C65.8727 40.5503 66.144 40.9683 66.342 41.467C66.54 41.9583 66.639 42.5303 66.639 43.183ZM72.5685 47C72.4145 46.7507 72.2311 46.483 72.0185 46.197C71.8131 45.9037 71.5858 45.614 71.3365 45.328C71.0945 45.0347 70.8415 44.756 70.5775 44.492C70.3135 44.2207 70.0495 43.9823 69.7855 43.777V47H68.0695V39.377H69.7855V42.259C70.2328 41.7897 70.6801 41.302 71.1275 40.796C71.5821 40.2827 72.0038 39.8097 72.3925 39.377H74.4275C73.9068 39.993 73.3825 40.587 72.8545 41.159C72.3338 41.731 71.7838 42.3067 71.2045 42.886C71.8131 43.392 72.3998 43.9933 72.9645 44.69C73.5365 45.3867 74.0828 46.1567 74.6035 47H72.5685ZM75.589 47V39.377H80.737V40.818H77.305V42.314H80.352V43.722H77.305V45.559H80.99V47H75.589ZM87.3749 47C86.8835 46.1273 86.3519 45.2657 85.7799 44.415C85.2079 43.5643 84.5992 42.7613 83.9539 42.006V47H82.2599V39.377H83.6569C83.8989 39.619 84.1665 39.916 84.4599 40.268C84.7532 40.62 85.0502 40.9977 85.3509 41.401C85.6589 41.797 85.9632 42.2113 86.2639 42.644C86.5645 43.0693 86.8469 43.48 87.1109 43.876V39.377H88.8159V47H87.3749ZM95.5049 39.289C96.6416 39.289 97.5142 39.4907 98.1229 39.894C98.7316 40.29 99.0359 40.9427 99.0359 41.852C99.0359 42.7687 98.7279 43.4323 98.1119 43.843C97.4959 44.2463 96.6159 44.448 95.4719 44.448H94.9329V47H93.2169V39.487C93.5909 39.4137 93.9869 39.3623 94.4049 39.333C94.8229 39.3037 95.1896 39.289 95.5049 39.289ZM95.6149 40.752C95.4902 40.752 95.3656 40.7557 95.2409 40.763C95.1236 40.7703 95.0209 40.7777 94.9329 40.785V42.985H95.4719C96.0659 42.985 96.5132 42.9043 96.8139 42.743C97.1146 42.5817 97.2649 42.281 97.2649 41.841C97.2649 41.6283 97.2246 41.4523 97.1439 41.313C97.0706 41.1737 96.9606 41.0637 96.8139 40.983C96.6746 40.895 96.5022 40.8363 96.2969 40.807C96.0916 40.7703 95.8642 40.752 95.6149 40.752ZM102.529 39.289C103.673 39.289 104.549 39.4943 105.158 39.905C105.767 40.3083 106.071 40.939 106.071 41.797C106.071 42.3323 105.946 42.7687 105.697 43.106C105.455 43.436 105.103 43.6963 104.641 43.887C104.795 44.0777 104.956 44.2977 105.125 44.547C105.294 44.789 105.459 45.0457 105.62 45.317C105.789 45.581 105.95 45.8597 106.104 46.153C106.258 46.439 106.401 46.7213 106.533 47H104.608C104.469 46.7507 104.326 46.4977 104.179 46.241C104.04 45.9843 103.893 45.735 103.739 45.493C103.592 45.251 103.446 45.0237 103.299 44.811C103.152 44.591 103.006 44.393 102.859 44.217H102.012V47H100.296V39.487C100.67 39.4137 101.055 39.3623 101.451 39.333C101.854 39.3037 102.214 39.289 102.529 39.289ZM102.628 40.752C102.503 40.752 102.39 40.7557 102.287 40.763C102.192 40.7703 102.1 40.7777 102.012 40.785V42.853H102.496C103.141 42.853 103.603 42.7723 103.882 42.611C104.161 42.4497 104.3 42.1747 104.3 41.786C104.3 41.412 104.157 41.148 103.871 40.994C103.592 40.8327 103.178 40.752 102.628 40.752ZM108.881 43.183C108.881 43.557 108.925 43.8943 109.013 44.195C109.108 44.4957 109.24 44.756 109.409 44.976C109.585 45.1887 109.797 45.3537 110.047 45.471C110.296 45.5883 110.582 45.647 110.905 45.647C111.22 45.647 111.502 45.5883 111.752 45.471C112.008 45.3537 112.221 45.1887 112.39 44.976C112.566 44.756 112.698 44.4957 112.786 44.195C112.881 43.8943 112.929 43.557 112.929 43.183C112.929 42.809 112.881 42.4717 112.786 42.171C112.698 41.863 112.566 41.6027 112.39 41.39C112.221 41.17 112.008 41.0013 111.752 40.884C111.502 40.7667 111.22 40.708 110.905 40.708C110.582 40.708 110.296 40.7703 110.047 40.895C109.797 41.0123 109.585 41.181 109.409 41.401C109.24 41.6137 109.108 41.874 109.013 42.182C108.925 42.4827 108.881 42.8163 108.881 43.183ZM114.7 43.183C114.7 43.8357 114.601 44.4113 114.403 44.91C114.212 45.4013 113.948 45.8157 113.611 46.153C113.273 46.483 112.87 46.7323 112.401 46.901C111.939 47.0697 111.44 47.154 110.905 47.154C110.384 47.154 109.893 47.0697 109.431 46.901C108.969 46.7323 108.565 46.483 108.221 46.153C107.876 45.8157 107.605 45.4013 107.407 44.91C107.209 44.4113 107.11 43.8357 107.11 43.183C107.11 42.5303 107.212 41.9583 107.418 41.467C107.623 40.9683 107.898 40.5503 108.243 40.213C108.595 39.8757 108.998 39.6227 109.453 39.454C109.915 39.2853 110.399 39.201 110.905 39.201C111.425 39.201 111.917 39.2853 112.379 39.454C112.841 39.6227 113.244 39.8757 113.589 40.213C113.933 40.5503 114.205 40.9683 114.403 41.467C114.601 41.9583 114.7 42.5303 114.7 43.183ZM121.526 39.377V40.84H119.227V47H117.511V40.84H115.212V39.377H121.526ZM122.629 47V39.377H127.777V40.818H124.345V42.314H127.392V43.722H124.345V45.559H128.03V47H122.629ZM132.776 47.154C131.537 47.154 130.591 46.8093 129.938 46.12C129.293 45.4307 128.97 44.4517 128.97 43.183C128.97 42.5523 129.069 41.9913 129.267 41.5C129.465 41.0013 129.736 40.5833 130.081 40.246C130.426 39.9013 130.836 39.641 131.313 39.465C131.79 39.289 132.307 39.201 132.864 39.201C133.187 39.201 133.48 39.2267 133.744 39.278C134.008 39.322 134.239 39.377 134.437 39.443C134.635 39.5017 134.8 39.564 134.932 39.63C135.064 39.696 135.159 39.7473 135.218 39.784L134.723 41.17C134.488 41.0453 134.213 40.939 133.898 40.851C133.59 40.763 133.238 40.719 132.842 40.719C132.578 40.719 132.318 40.763 132.061 40.851C131.812 40.939 131.588 41.082 131.39 41.28C131.199 41.4707 131.045 41.72 130.928 42.028C130.811 42.336 130.752 42.71 130.752 43.15C130.752 43.502 130.789 43.832 130.862 44.14C130.943 44.4407 131.067 44.701 131.236 44.921C131.412 45.141 131.639 45.317 131.918 45.449C132.197 45.5737 132.534 45.636 132.93 45.636C133.179 45.636 133.403 45.6213 133.601 45.592C133.799 45.5627 133.975 45.5297 134.129 45.493C134.283 45.449 134.419 45.4013 134.536 45.35C134.653 45.2987 134.76 45.251 134.855 45.207L135.328 46.582C135.086 46.7287 134.745 46.8607 134.305 46.978C133.865 47.0953 133.355 47.154 132.776 47.154ZM142.323 39.377V40.84H140.024V47H138.308V40.84H136.009V39.377H142.323ZM144.609 43.183C144.609 43.557 144.653 43.8943 144.741 44.195C144.836 44.4957 144.968 44.756 145.137 44.976C145.313 45.1887 145.526 45.3537 145.775 45.471C146.024 45.5883 146.31 45.647 146.633 45.647C146.948 45.647 147.231 45.5883 147.48 45.471C147.737 45.3537 147.949 45.1887 148.118 44.976C148.294 44.756 148.426 44.4957 148.514 44.195C148.609 43.8943 148.657 43.557 148.657 43.183C148.657 42.809 148.609 42.4717 148.514 42.171C148.426 41.863 148.294 41.6027 148.118 41.39C147.949 41.17 147.737 41.0013 147.48 40.884C147.231 40.7667 146.948 40.708 146.633 40.708C146.31 40.708 146.024 40.7703 145.775 40.895C145.526 41.0123 145.313 41.181 145.137 41.401C144.968 41.6137 144.836 41.874 144.741 42.182C144.653 42.4827 144.609 42.8163 144.609 43.183ZM150.428 43.183C150.428 43.8357 150.329 44.4113 150.131 44.91C149.94 45.4013 149.676 45.8157 149.339 46.153C149.002 46.483 148.598 46.7323 148.129 46.901C147.667 47.0697 147.168 47.154 146.633 47.154C146.112 47.154 145.621 47.0697 145.159 46.901C144.697 46.7323 144.294 46.483 143.949 46.153C143.604 45.8157 143.333 45.4013 143.135 44.91C142.937 44.4113 142.838 43.8357 142.838 43.183C142.838 42.5303 142.941 41.9583 143.146 41.467C143.351 40.9683 143.626 40.5503 143.971 40.213C144.323 39.8757 144.726 39.6227 145.181 39.454C145.643 39.2853 146.127 39.201 146.633 39.201C147.154 39.201 147.645 39.2853 148.107 39.454C148.569 39.6227 148.972 39.8757 149.317 40.213C149.662 40.5503 149.933 40.9683 150.131 41.467C150.329 41.9583 150.428 42.5303 150.428 43.183ZM154.092 39.289C155.236 39.289 156.112 39.4943 156.721 39.905C157.329 40.3083 157.634 40.939 157.634 41.797C157.634 42.3323 157.509 42.7687 157.26 43.106C157.018 43.436 156.666 43.6963 156.204 43.887C156.358 44.0777 156.519 44.2977 156.688 44.547C156.856 44.789 157.021 45.0457 157.183 45.317C157.351 45.581 157.513 45.8597 157.667 46.153C157.821 46.439 157.964 46.7213 158.096 47H156.171C156.031 46.7507 155.888 46.4977 155.742 46.241C155.602 45.9843 155.456 45.735 155.302 45.493C155.155 45.251 155.008 45.0237 154.862 44.811C154.715 44.591 154.568 44.393 154.422 44.217H153.575V47H151.859V39.487C152.233 39.4137 152.618 39.3623 153.014 39.333C153.417 39.3037 153.776 39.289 154.092 39.289ZM154.191 40.752C154.066 40.752 153.952 40.7557 153.85 40.763C153.754 40.7703 153.663 40.7777 153.575 40.785V42.853H154.059C154.704 42.853 155.166 42.7723 155.445 42.611C155.723 42.4497 155.863 42.1747 155.863 41.786C155.863 41.412 155.72 41.148 155.434 40.994C155.155 40.8327 154.741 40.752 154.191 40.752Z" fill="black"/>
<path fill-rule="evenodd" clip-rule="evenodd" d="M31.5074 24.8697C29.5803 24.8697 28.0182 23.313 28.0182 21.3929V13.3627V12.8053C28.0182 10.8849 26.456 9.32847 24.5291 9.32847C22.602 9.32847 21.382 10.8852 21.382 12.8053V13.5191V21.3927C21.382 23.3128 19.4774 24.8695 17.5505 24.8695C15.6234 24.8695 14.0614 23.3128 14.0614 21.3927V19.4323V13.4206C14.0269 13.4016 13.9918 13.3843 13.9573 13.3655V12.8053C13.9573 10.8849 12.7075 9.32847 10.7806 9.32847C8.8535 9.32847 7.29146 10.8852 7.29146 12.8053V13.5166C7.29146 13.5166 7.39553 21.6471 7.8123 23.9333C8.22882 26.2196 9.58295 27.628 11.3536 29.4986C13.1243 31.3691 10.4162 35.6762 6.87493 33.286C3.33362 30.8957 1.5362 27.8608 0.938062 23.9333C0.32852 19.9345 0 12.881 0 12.881C0 12.881 0.138998 10.3536 0.465655 9.78831C1.78555 5.52174 5.76411 2.42188 10.4679 2.42188C13.1741 2.42188 15.6404 3.44818 17.4984 5.13222C19.3564 3.44818 21.8227 2.42188 24.5291 2.42188C29.2327 2.42188 33.2112 5.52174 34.5311 9.78831C34.8578 10.3536 34.9968 12.881 34.9968 12.881V19.4325V21.3929C34.9968 23.313 33.4345 24.8697 31.5074 24.8697Z" fill="#4D525D"/>
<path fill-rule="evenodd" clip-rule="evenodd" d="M10.7613 9.12068C12.6885 9.12068 14.2505 10.6774 14.2505 12.5975V20.6277V21.1851C14.2505 23.1055 15.8128 24.6622 17.7396 24.6622C19.6668 24.6622 21.229 23.1055 21.229 21.1851V20.4713V12.5975C21.229 10.6774 22.7911 9.12068 24.7182 9.12068C26.6453 9.12068 28.2076 10.6774 28.2076 12.5975V14.5579V20.5695C28.242 20.5886 28.2772 20.6058 28.3116 20.6247V21.1851C28.3116 23.1055 29.5615 24.6622 31.4883 24.6622C33.4155 24.6622 34.9775 23.1055 34.9775 21.1851V20.4738C34.9775 20.4738 34.8734 12.3432 34.4567 10.0571C34.0399 7.77098 32.686 6.36237 30.9154 4.49184C29.1447 2.6213 31.8527 -1.68578 35.394 0.70443C38.9353 3.09464 40.7328 6.12954 41.3309 10.0571C41.94 14.0559 42.2683 21.1094 42.2683 21.1094C42.2683 21.1094 42.1293 23.6368 41.8026 24.2021C40.4827 28.4686 36.5041 31.5685 31.8003 31.5685C29.0942 31.5685 26.6278 30.5422 24.7699 28.8582C22.9119 30.5422 20.4456 31.5685 17.7392 31.5685C13.0356 31.5685 9.05704 28.4686 7.73714 24.2021C7.41048 23.6368 7.27148 21.1094 7.27148 21.1094V14.5579V12.5975C7.27218 10.6774 8.83422 9.12068 10.7613 9.12068Z" fill="#FCD600"/>
<path d="M69.4777 7.25029C69.0565 6.9688 68.4884 6.82794 67.773 6.82794H66.6112C65.9122 6.82794 65.4051 6.89104 65.0894 7.017C64.7737 7.14296 64.5402 7.36997 64.3886 7.69755C64.237 8.02514 64.0645 8.55902 63.8708 9.29824L61.1809 19.419L58.4911 9.29824C58.2974 8.55902 58.1248 8.02538 57.9733 7.69755C57.8217 7.36997 57.5882 7.14296 57.2724 7.017C56.9567 6.89104 56.4494 6.82794 55.7507 6.82794H54.5889C53.8732 6.82794 53.3048 6.9688 52.8841 7.25029C52.4632 7.53178 52.2527 8.0759 52.2527 8.88241V23.5026C52.2527 24.2169 52.4124 24.7484 52.7325 25.097C53.0524 25.4455 53.465 25.6202 53.97 25.6202C54.492 25.6202 54.9109 25.4437 55.2266 25.0909C55.5423 24.738 55.7002 24.2088 55.7002 23.5028V10.7478L58.6678 22.5196C58.7688 22.9061 58.8675 23.2779 58.9646 23.6351C59.0613 23.9922 59.194 24.3177 59.3623 24.6118C59.5306 24.9061 59.7665 25.1475 60.0694 25.3366C60.3725 25.5256 60.743 25.6202 61.1807 25.6202C61.7616 25.6202 62.2163 25.473 62.5446 25.1789C62.8729 24.8849 63.098 24.5594 63.2203 24.2022C63.3423 23.8451 63.5001 23.2844 63.6938 22.5196L66.6615 10.7478V23.5028C66.6615 24.2085 66.8214 24.738 67.1413 25.0909C67.4612 25.4439 67.8694 25.6202 68.3662 25.6202C68.8966 25.6202 69.3196 25.4437 69.6354 25.0909C69.9511 24.738 70.1089 24.2088 70.1089 23.5028V8.88241C70.1089 8.07567 69.8985 7.53178 69.4777 7.25029ZM85.8816 6.51293C85.5785 6.51293 85.3216 6.56764 85.1112 6.67684C84.9007 6.78603 84.7091 6.94366 84.5366 7.14948C84.3638 7.35553 84.2062 7.57602 84.063 7.81117C83.9198 8.04656 83.7428 8.33643 83.5326 8.68079L80.0346 14.2894L76.5748 8.68079C76.0444 7.81537 75.6465 7.23772 75.3813 6.94785C75.1161 6.65798 74.7266 6.51293 74.2132 6.51293C73.725 6.51293 73.3145 6.66846 72.982 6.97928C72.6493 7.29034 72.4833 7.65984 72.4833 8.08847C72.4833 8.34901 72.5655 8.65564 72.7296 9.00861C72.8938 9.36157 73.1736 9.85307 73.5694 10.4833L78.0903 17.4784V23.3391C78.0903 24.1124 78.2628 24.6858 78.6081 25.0595C78.9531 25.4332 79.4036 25.6204 79.9592 25.6204C80.5063 25.6204 80.9568 25.4313 81.3105 25.0532C81.6642 24.6751 81.8409 24.1037 81.8409 23.3391V17.4782L86.4755 10.3823C86.8627 9.80255 87.1363 9.34877 87.2965 9.02118C87.4562 8.69359 87.5365 8.36577 87.5365 8.03818C87.5365 7.63492 87.3787 7.2801 87.063 6.97323C86.7468 6.66636 86.3531 6.51293 85.8816 6.51293ZM111.717 6.51293C111.228 6.51293 110.856 6.63889 110.599 6.89104C110.342 7.14319 110.161 7.42887 110.056 7.74808C109.951 8.06752 109.84 8.50849 109.722 9.07147L107.297 19.8602L104.556 9.76483C104.329 8.93294 104.148 8.33643 104.014 7.97508C103.879 7.61397 103.637 7.27986 103.287 6.97323C102.938 6.66659 102.448 6.51316 101.816 6.51316C101.193 6.51316 100.7 6.66031 100.339 6.95437C99.9765 7.24866 99.7155 7.59721 99.5556 8.00046C99.3956 8.40372 99.2145 8.99208 99.0126 9.76506L96.2978 19.8602L93.8732 9.07147C93.6965 8.23958 93.4899 7.60535 93.2543 7.16834C93.0185 6.73155 92.5598 6.51293 91.8778 6.51293C91.381 6.51293 90.9642 6.67684 90.6276 7.00443C90.2907 7.33202 90.1223 7.73551 90.1223 8.21443C90.1223 8.59254 90.2147 9.14295 90.4001 9.86541L93.4813 22.3052C93.574 22.6751 93.679 23.076 93.797 23.5089C93.9148 23.9417 94.0664 24.3154 94.2517 24.6306C94.4368 24.9457 94.679 25.1897 94.9779 25.3617C95.2767 25.5338 95.6576 25.6202 96.1209 25.6202C96.6932 25.6202 97.1521 25.4753 97.4974 25.1855C97.8424 24.8956 98.0846 24.5678 98.2236 24.2025C98.3626 23.8369 98.5497 23.2341 98.7856 22.3939L101.816 11.3152L104.809 22.3939C105.053 23.2593 105.243 23.8707 105.377 24.2276C105.512 24.5848 105.752 24.9063 106.097 25.1918C106.442 25.4774 106.901 25.6204 107.474 25.6204C108.08 25.6204 108.549 25.4732 108.882 25.1792C109.214 24.8851 109.45 24.5426 109.589 24.1519C109.728 23.7613 109.903 23.1459 110.113 22.3056L113.194 9.86588C113.379 9.10965 113.472 8.55948 113.472 8.2149C113.472 7.72759 113.302 7.32224 112.961 6.99861C112.62 6.67474 112.205 6.51293 111.717 6.51293ZM117.968 6.51293C117.42 6.51293 116.974 6.70198 116.629 7.0801C116.284 7.45821 116.111 8.02538 116.111 8.7816V23.3387C116.111 24.0949 116.286 24.6642 116.636 25.0465C116.985 25.4288 117.429 25.6199 117.968 25.6199C118.532 25.6199 118.989 25.4309 119.338 25.0528C119.687 24.6746 119.862 24.1033 119.862 23.3387V8.7816C119.862 8.01723 119.687 7.44773 119.338 7.07381C118.989 6.70012 118.532 6.51293 117.968 6.51293ZM136.235 15.8018C135.641 15.3818 134.921 15.0246 134.075 14.7306C133.229 14.4365 132.284 14.1678 131.24 13.9241C130.406 13.7141 129.808 13.5543 129.447 13.4451C129.085 13.3359 128.727 13.1848 128.373 12.9914C128.02 12.7981 127.742 12.5671 127.54 12.2982C127.338 12.0295 127.237 11.7101 127.237 11.3404C127.237 10.7439 127.534 10.2335 128.127 9.80907C128.72 9.38486 129.501 9.17252 130.469 9.17252C131.513 9.17252 132.271 9.36786 132.743 9.75854C133.214 10.1492 133.618 10.6933 133.955 11.3907C134.216 11.878 134.458 12.2288 134.681 12.443C134.904 12.6572 135.23 12.7643 135.66 12.7643C136.131 12.7643 136.525 12.586 136.84 12.2286C137.156 11.8717 137.314 11.4705 137.314 11.0249C137.314 10.5376 137.188 10.0377 136.935 9.52502C136.682 9.01256 136.282 8.52293 135.735 8.05657C135.188 7.59022 134.5 7.21653 133.671 6.93481C132.841 6.65332 131.859 6.5127 130.722 6.5127C129.299 6.5127 128.062 6.72503 127.009 7.14925C125.957 7.57369 125.153 8.18067 124.597 8.97042C124.041 9.76041 123.764 10.6635 123.764 11.6803C123.764 12.7476 124.027 13.6402 124.553 14.3585C125.079 15.077 125.79 15.644 126.687 16.06C127.584 16.4759 128.697 16.8395 130.027 17.1501C131.02 17.3769 131.814 17.5913 132.408 17.793C133.001 17.9946 133.485 18.2866 133.86 18.6689C134.234 19.0514 134.422 19.5492 134.422 20.1624C134.422 20.9357 134.075 21.5804 133.38 22.097C132.685 22.6137 131.782 22.8721 130.671 22.8721C129.863 22.8721 129.21 22.744 128.714 22.4877C128.217 22.2316 127.832 21.9059 127.558 21.511C127.285 21.1161 127.03 20.6246 126.794 20.0363C126.601 19.5406 126.367 19.1666 126.093 18.9145C125.82 18.6623 125.485 18.5364 125.09 18.5364C124.601 18.5364 124.199 18.6982 123.883 19.0216C123.568 19.3452 123.41 19.7336 123.41 20.1874C123.41 20.9687 123.673 21.7734 124.199 22.6008C124.725 23.4285 125.409 24.0902 126.251 24.5859C127.438 25.2751 128.945 25.6195 130.772 25.6195C132.296 25.6195 133.614 25.3673 134.725 24.8632C135.836 24.3592 136.68 23.6618 137.257 22.771C137.833 21.8805 138.122 20.8763 138.122 19.7587C138.122 18.826 137.956 18.0384 137.623 17.3955C137.291 16.7534 136.828 16.2221 136.235 15.8018ZM156.402 7.07381C156.052 6.70012 155.596 6.51293 155.032 6.51293C154.476 6.51293 154.028 6.70198 153.687 7.0801C153.346 7.45821 153.175 8.02538 153.175 8.7816V14.0752H145.081V8.7816C145.081 8.01723 144.906 7.44773 144.556 7.07381C144.207 6.70012 143.75 6.51293 143.186 6.51293C142.614 6.51293 142.161 6.70198 141.829 7.0801C141.496 7.45821 141.33 8.02538 141.33 8.7816V23.3387C141.33 24.0949 141.498 24.6642 141.835 25.0465C142.172 25.4288 142.622 25.6199 143.186 25.6199C143.742 25.6199 144.197 25.4309 144.55 25.0528C144.904 24.6746 145.081 24.1033 145.081 23.3387V17.1252H153.175V23.3389C153.175 24.0951 153.344 24.6644 153.681 25.0467C154.017 25.429 154.468 25.6202 155.032 25.6202C155.587 25.6202 156.042 25.4311 156.396 25.053C156.749 24.6749 156.926 24.1035 156.926 23.3387V8.7816C156.926 8.01699 156.751 7.44773 156.402 7.07381Z" fill="#4D525D"/>
</svg>
